M48
;DRILL file {KiCad 4.0.3-stable} date 05/01/17 14:31:45
;FORMAT={-:-/ absolute / inch / decimal}
FMAT,2
INCH,TZ
T1C0.020
T2C0.030
T3C0.035
T4C0.039
T5C0.040
T6C0.083
T7C0.108
T8C0.122
%
G90
G05
M72
T1
X1.925Y-2.525
X2.85Y-1.525
X3.95Y-1.
X5.65Y-1.7
T2
X2.75Y-1.525
T3
X6.025Y-0.95
X6.025Y-1.05
X6.3Y-0.95
X6.3Y-1.05
T4
X1.75Y-1.075
X1.75Y-1.175
X1.75Y-1.275
X1.75Y-1.375
X1.75Y-1.475
X1.75Y-1.575
X1.75Y-1.675
X1.75Y-1.775
X1.75Y-1.875
X1.75Y-1.975
X1.75Y-2.075
X1.75Y-2.175
X1.75Y-2.275
X1.75Y-2.375
X1.75Y-2.475
X1.75Y-2.575
X1.75Y-2.675
X1.75Y-2.775
X1.75Y-2.875
X1.75Y-2.975
X1.75Y-3.075
X1.75Y-3.175
X1.75Y-3.275
X1.85Y-1.075
X1.85Y-1.175
X1.85Y-1.275
X1.85Y-1.375
X1.85Y-1.475
X1.85Y-1.575
X1.85Y-1.675
X1.85Y-1.775
X1.85Y-1.875
X1.85Y-1.975
X1.85Y-2.075
X1.85Y-2.175
X1.85Y-2.275
X1.85Y-2.375
X1.85Y-2.475
X1.85Y-2.575
X1.85Y-2.675
X1.85Y-2.775
X1.85Y-2.875
X1.85Y-2.975
X1.85Y-3.075
X1.85Y-3.175
X1.85Y-3.275
X1.9Y-4.3
X2.Y-4.3
X2.1Y-4.3
X2.55Y-4.
X2.55Y-4.1
X2.55Y-4.2
X2.85Y-4.
X2.85Y-4.1
X2.85Y-4.2
X3.15Y-4.
X3.15Y-4.1
X3.15Y-4.2
X3.45Y-4.
X3.45Y-4.1
X3.45Y-4.2
X3.65Y-1.075
X3.65Y-1.175
X3.65Y-1.275
X3.65Y-1.375
X3.65Y-1.475
X3.65Y-1.575
X3.65Y-1.675
X3.65Y-1.775
X3.65Y-1.875
X3.65Y-1.975
X3.65Y-2.075
X3.65Y-2.175
X3.65Y-2.275
X3.65Y-2.375
X3.65Y-2.475
X3.65Y-2.575
X3.65Y-2.675
X3.65Y-2.775
X3.65Y-2.875
X3.65Y-2.975
X3.65Y-3.075
X3.65Y-3.175
X3.65Y-3.275
X3.75Y-1.075
X3.75Y-1.175
X3.75Y-1.275
X3.75Y-1.375
X3.75Y-1.475
X3.75Y-1.575
X3.75Y-1.675
X3.75Y-1.775
X3.75Y-1.875
X3.75Y-1.975
X3.75Y-2.075
X3.75Y-2.175
X3.75Y-2.275
X3.75Y-2.375
X3.75Y-2.475
X3.75Y-2.575
X3.75Y-2.675
X3.75Y-2.775
X3.75Y-2.875
X3.75Y-2.975
X3.75Y-3.075
X3.75Y-3.175
X3.75Y-3.275
X3.75Y-4.
X3.75Y-4.1
X3.75Y-4.2
X4.05Y-1.45
X4.05Y-1.55
X4.05Y-1.65
X4.05Y-1.75
X4.05Y-1.85
X4.05Y-2.15
X4.05Y-2.25
X4.05Y-2.35
X4.05Y-2.45
X4.05Y-2.55
X4.05Y-2.85
X4.05Y-2.95
X4.05Y-3.05
X4.05Y-3.15
X4.05Y-3.25
X4.05Y-4.
X4.05Y-4.1
X4.05Y-4.2
X4.6Y-4.3
X4.7Y-4.3
X4.8Y-4.3
X4.9Y-4.3
X4.953Y-1.9245
X4.953Y-2.0245
X5.Y-4.3
X5.053Y-1.9245
X5.053Y-2.0245
X5.075Y-1.3
X5.075Y-1.4
X5.075Y-1.5
X5.1Y-4.3
X5.153Y-1.9245
X5.153Y-2.0245
X5.253Y-1.9245
X5.253Y-2.0245
X5.353Y-1.9245
X5.353Y-2.0245
X5.375Y-1.3
X5.375Y-1.4
X5.375Y-1.5
X5.4Y-4.3
X5.453Y-1.9245
X5.453Y-2.0245
X5.5Y-4.3
X5.553Y-1.9245
X5.553Y-2.0245
X5.6Y-4.3
X5.653Y-1.9245
X5.653Y-2.0245
X5.675Y-1.3
X5.675Y-1.4
X5.675Y-1.5
X5.7Y-4.3
X5.753Y-1.9245
X5.753Y-2.0245
X5.8Y-4.3
X5.853Y-1.9245
X5.853Y-2.0245
X5.953Y-1.9245
X5.953Y-2.0245
X6.053Y-1.9245
X6.053Y-2.0245
X6.1Y-4.3
X6.153Y-1.9245
X6.153Y-2.0245
X6.2Y-4.3
X6.253Y-1.9245
X6.253Y-2.0245
X6.3Y-4.3
X6.353Y-1.9245
X6.353Y-2.0245
X6.4Y-4.3
X6.453Y-1.9245
X6.453Y-2.0245
X6.5Y-4.3
X6.553Y-1.9245
X6.553Y-2.0245
X6.6Y-4.3
X6.653Y-1.9245
X6.653Y-2.0245
X6.7Y-4.3
X6.753Y-1.9245
X6.753Y-2.0245
X6.853Y-1.9245
X6.853Y-2.0245
T5
X1.55Y-3.225
X2.425Y-2.675
X2.425Y-2.975
X3.175Y-2.675
X3.175Y-2.975
X4.65Y-1.7
X4.9Y-1.475
X5.9Y-2.95
T6
X6.5248Y-1.5976
X7.0169Y-1.3024
T7
X4.7618Y-1.9744
X4.7618Y-3.9035
X7.0453Y-1.9744
T8
X1.5Y-1.
X1.5Y-4.4
X7.05Y-1.
X7.05Y-4.4
T0
M30
