G04 #@! TF.FileFunction,Legend,Top*
%FSLAX46Y46*%
G04 Gerber Fmt 4.6, Leading zero omitted, Abs format (unit mm)*
G04 Created by KiCad (PCBNEW 4.0.3-stable) date 05/01/17 14:31:29*
%MOMM*%
%LPD*%
G01*
G04 APERTURE LIST*
%ADD10C,0.100000*%
%ADD11C,0.120000*%
%ADD12C,0.150000*%
G04 APERTURE END LIST*
D10*
D11*
X43060000Y-28575000D02*
X43060000Y-84575000D01*
X43060000Y-84575000D02*
X48380000Y-84575000D01*
X48380000Y-84575000D02*
X48380000Y-25915000D01*
X48380000Y-25915000D02*
X45720000Y-25915000D01*
X45720000Y-25915000D02*
X45720000Y-28575000D01*
X45720000Y-28575000D02*
X43060000Y-28575000D01*
X43060000Y-27305000D02*
X43060000Y-25915000D01*
X43060000Y-25915000D02*
X44450000Y-25915000D01*
X91320000Y-28575000D02*
X91320000Y-84575000D01*
X91320000Y-84575000D02*
X96640000Y-84575000D01*
X96640000Y-84575000D02*
X96640000Y-25915000D01*
X96640000Y-25915000D02*
X93980000Y-25915000D01*
X93980000Y-25915000D02*
X93980000Y-28575000D01*
X93980000Y-28575000D02*
X91320000Y-28575000D01*
X91320000Y-27305000D02*
X91320000Y-25915000D01*
X91320000Y-25915000D02*
X92710000Y-25915000D01*
X130560000Y-28305000D02*
X130560000Y-26305000D01*
X128520000Y-26305000D02*
X128520000Y-28305000D01*
X139450000Y-28305000D02*
X139450000Y-26305000D01*
X137410000Y-26305000D02*
X137410000Y-28305000D01*
X148340000Y-28305000D02*
X148340000Y-26305000D01*
X146300000Y-26305000D02*
X146300000Y-28305000D01*
X116590000Y-41005000D02*
X116590000Y-39005000D01*
X114550000Y-39005000D02*
X114550000Y-41005000D01*
X127076200Y-52752300D02*
X175396200Y-52752300D01*
X175396200Y-52752300D02*
X175396200Y-47552300D01*
X175396200Y-47552300D02*
X124476200Y-47552300D01*
X124476200Y-47552300D02*
X124476200Y-50152300D01*
X124476200Y-50152300D02*
X127076200Y-50152300D01*
X127076200Y-50152300D02*
X127076200Y-52752300D01*
X125806200Y-52752300D02*
X124476200Y-52752300D01*
X124476200Y-52752300D02*
X124476200Y-51422300D01*
X58855000Y-79645000D02*
X58855000Y-81645000D01*
X56715000Y-81645000D02*
X56715000Y-79645000D01*
X55045000Y-79645000D02*
X55045000Y-81645000D01*
X52905000Y-81645000D02*
X52905000Y-79645000D01*
D12*
X58455000Y-88095000D02*
X58405000Y-88095000D01*
X58455000Y-92245000D02*
X58310000Y-92245000D01*
X53305000Y-92245000D02*
X53450000Y-92245000D01*
X53305000Y-88095000D02*
X53450000Y-88095000D01*
X58455000Y-88095000D02*
X58455000Y-92245000D01*
X53305000Y-88095000D02*
X53305000Y-92245000D01*
X58405000Y-88095000D02*
X58405000Y-86695000D01*
X117480000Y-28405000D02*
X117455000Y-28405000D01*
X117480000Y-32555000D02*
X117365000Y-32555000D01*
X108580000Y-32555000D02*
X108695000Y-32555000D01*
X108580000Y-28405000D02*
X108695000Y-28405000D01*
X117480000Y-28405000D02*
X117480000Y-32555000D01*
X108580000Y-28405000D02*
X108580000Y-32555000D01*
X117455000Y-28405000D02*
X117455000Y-27030000D01*
D11*
X126800000Y-26305000D02*
X126800000Y-28305000D01*
X124660000Y-28305000D02*
X124660000Y-26305000D01*
X135690000Y-26305000D02*
X135690000Y-28305000D01*
X133550000Y-28305000D02*
X133550000Y-26305000D01*
X144580000Y-26305000D02*
X144580000Y-28305000D01*
X142440000Y-28305000D02*
X142440000Y-26305000D01*
X108220000Y-80210000D02*
X110220000Y-80210000D01*
X110220000Y-82350000D02*
X108220000Y-82350000D01*
X108220000Y-76400000D02*
X110220000Y-76400000D01*
X110220000Y-78540000D02*
X108220000Y-78540000D01*
X108220000Y-72590000D02*
X110220000Y-72590000D01*
X110220000Y-74730000D02*
X108220000Y-74730000D01*
X108220000Y-62430000D02*
X110220000Y-62430000D01*
X110220000Y-64570000D02*
X108220000Y-64570000D01*
X108220000Y-58620000D02*
X110220000Y-58620000D01*
X110220000Y-60760000D02*
X108220000Y-60760000D01*
X108220000Y-54810000D02*
X110220000Y-54810000D01*
X110220000Y-56950000D02*
X108220000Y-56950000D01*
X108220000Y-44650000D02*
X110220000Y-44650000D01*
X110220000Y-46790000D02*
X108220000Y-46790000D01*
X108220000Y-40840000D02*
X110220000Y-40840000D01*
X110220000Y-42980000D02*
X108220000Y-42980000D01*
X108220000Y-37030000D02*
X110220000Y-37030000D01*
X110220000Y-39170000D02*
X108220000Y-39170000D01*
X150930000Y-34560000D02*
X150930000Y-36560000D01*
X148790000Y-36560000D02*
X148790000Y-34560000D01*
X155375000Y-34560000D02*
X155375000Y-36560000D01*
X153235000Y-36560000D02*
X153235000Y-34560000D01*
X49965000Y-101235000D02*
X49965000Y-103235000D01*
X47825000Y-103235000D02*
X47825000Y-101235000D01*
X53775000Y-101235000D02*
X53775000Y-103235000D01*
X51635000Y-103235000D02*
X51635000Y-101235000D01*
D12*
X44981905Y-25367381D02*
X44981905Y-24367381D01*
X45362858Y-24367381D01*
X45458096Y-24415000D01*
X45505715Y-24462619D01*
X45553334Y-24557857D01*
X45553334Y-24700714D01*
X45505715Y-24795952D01*
X45458096Y-24843571D01*
X45362858Y-24891190D01*
X44981905Y-24891190D01*
X45886667Y-24367381D02*
X46505715Y-24367381D01*
X46172381Y-24748333D01*
X46315239Y-24748333D01*
X46410477Y-24795952D01*
X46458096Y-24843571D01*
X46505715Y-24938810D01*
X46505715Y-25176905D01*
X46458096Y-25272143D01*
X46410477Y-25319762D01*
X46315239Y-25367381D01*
X46029524Y-25367381D01*
X45934286Y-25319762D01*
X45886667Y-25272143D01*
X93241905Y-25367381D02*
X93241905Y-24367381D01*
X93622858Y-24367381D01*
X93718096Y-24415000D01*
X93765715Y-24462619D01*
X93813334Y-24557857D01*
X93813334Y-24700714D01*
X93765715Y-24795952D01*
X93718096Y-24843571D01*
X93622858Y-24891190D01*
X93241905Y-24891190D01*
X94670477Y-24700714D02*
X94670477Y-25367381D01*
X94432381Y-24319762D02*
X94194286Y-25034048D01*
X94813334Y-25034048D01*
X129373334Y-23852143D02*
X129325715Y-23899762D01*
X129182858Y-23947381D01*
X129087620Y-23947381D01*
X128944762Y-23899762D01*
X128849524Y-23804524D01*
X128801905Y-23709286D01*
X128754286Y-23518810D01*
X128754286Y-23375952D01*
X128801905Y-23185476D01*
X128849524Y-23090238D01*
X128944762Y-22995000D01*
X129087620Y-22947381D01*
X129182858Y-22947381D01*
X129325715Y-22995000D01*
X129373334Y-23042619D01*
X130325715Y-23947381D02*
X129754286Y-23947381D01*
X130040000Y-23947381D02*
X130040000Y-22947381D01*
X129944762Y-23090238D01*
X129849524Y-23185476D01*
X129754286Y-23233095D01*
X138263334Y-23852143D02*
X138215715Y-23899762D01*
X138072858Y-23947381D01*
X137977620Y-23947381D01*
X137834762Y-23899762D01*
X137739524Y-23804524D01*
X137691905Y-23709286D01*
X137644286Y-23518810D01*
X137644286Y-23375952D01*
X137691905Y-23185476D01*
X137739524Y-23090238D01*
X137834762Y-22995000D01*
X137977620Y-22947381D01*
X138072858Y-22947381D01*
X138215715Y-22995000D01*
X138263334Y-23042619D01*
X138644286Y-23042619D02*
X138691905Y-22995000D01*
X138787143Y-22947381D01*
X139025239Y-22947381D01*
X139120477Y-22995000D01*
X139168096Y-23042619D01*
X139215715Y-23137857D01*
X139215715Y-23233095D01*
X139168096Y-23375952D01*
X138596667Y-23947381D01*
X139215715Y-23947381D01*
X147153334Y-23852143D02*
X147105715Y-23899762D01*
X146962858Y-23947381D01*
X146867620Y-23947381D01*
X146724762Y-23899762D01*
X146629524Y-23804524D01*
X146581905Y-23709286D01*
X146534286Y-23518810D01*
X146534286Y-23375952D01*
X146581905Y-23185476D01*
X146629524Y-23090238D01*
X146724762Y-22995000D01*
X146867620Y-22947381D01*
X146962858Y-22947381D01*
X147105715Y-22995000D01*
X147153334Y-23042619D01*
X147486667Y-22947381D02*
X148105715Y-22947381D01*
X147772381Y-23328333D01*
X147915239Y-23328333D01*
X148010477Y-23375952D01*
X148058096Y-23423571D01*
X148105715Y-23518810D01*
X148105715Y-23756905D01*
X148058096Y-23852143D01*
X148010477Y-23899762D01*
X147915239Y-23947381D01*
X147629524Y-23947381D01*
X147534286Y-23899762D01*
X147486667Y-23852143D01*
X115403334Y-36552143D02*
X115355715Y-36599762D01*
X115212858Y-36647381D01*
X115117620Y-36647381D01*
X114974762Y-36599762D01*
X114879524Y-36504524D01*
X114831905Y-36409286D01*
X114784286Y-36218810D01*
X114784286Y-36075952D01*
X114831905Y-35885476D01*
X114879524Y-35790238D01*
X114974762Y-35695000D01*
X115117620Y-35647381D01*
X115212858Y-35647381D01*
X115355715Y-35695000D01*
X115403334Y-35742619D01*
X116260477Y-35980714D02*
X116260477Y-36647381D01*
X116022381Y-35599762D02*
X115784286Y-36314048D01*
X116403334Y-36314048D01*
X123928581Y-50890395D02*
X122928581Y-50890395D01*
X122928581Y-50509442D01*
X122976200Y-50414204D01*
X123023819Y-50366585D01*
X123119057Y-50318966D01*
X123261914Y-50318966D01*
X123357152Y-50366585D01*
X123404771Y-50414204D01*
X123452390Y-50509442D01*
X123452390Y-50890395D01*
X123023819Y-49938014D02*
X122976200Y-49890395D01*
X122928581Y-49795157D01*
X122928581Y-49557061D01*
X122976200Y-49461823D01*
X123023819Y-49414204D01*
X123119057Y-49366585D01*
X123214295Y-49366585D01*
X123357152Y-49414204D01*
X123928581Y-49985633D01*
X123928581Y-49366585D01*
X57142143Y-77287381D02*
X56808809Y-76811190D01*
X56570714Y-77287381D02*
X56570714Y-76287381D01*
X56951667Y-76287381D01*
X57046905Y-76335000D01*
X57094524Y-76382619D01*
X57142143Y-76477857D01*
X57142143Y-76620714D01*
X57094524Y-76715952D01*
X57046905Y-76763571D01*
X56951667Y-76811190D01*
X56570714Y-76811190D01*
X58094524Y-77287381D02*
X57523095Y-77287381D01*
X57808809Y-77287381D02*
X57808809Y-76287381D01*
X57713571Y-76430238D01*
X57618333Y-76525476D01*
X57523095Y-76573095D01*
X58999286Y-76287381D02*
X58523095Y-76287381D01*
X58475476Y-76763571D01*
X58523095Y-76715952D01*
X58618333Y-76668333D01*
X58856429Y-76668333D01*
X58951667Y-76715952D01*
X58999286Y-76763571D01*
X59046905Y-76858810D01*
X59046905Y-77096905D01*
X58999286Y-77192143D01*
X58951667Y-77239762D01*
X58856429Y-77287381D01*
X58618333Y-77287381D01*
X58523095Y-77239762D01*
X58475476Y-77192143D01*
X53332143Y-77287381D02*
X52998809Y-76811190D01*
X52760714Y-77287381D02*
X52760714Y-76287381D01*
X53141667Y-76287381D01*
X53236905Y-76335000D01*
X53284524Y-76382619D01*
X53332143Y-76477857D01*
X53332143Y-76620714D01*
X53284524Y-76715952D01*
X53236905Y-76763571D01*
X53141667Y-76811190D01*
X52760714Y-76811190D01*
X54284524Y-77287381D02*
X53713095Y-77287381D01*
X53998809Y-77287381D02*
X53998809Y-76287381D01*
X53903571Y-76430238D01*
X53808333Y-76525476D01*
X53713095Y-76573095D01*
X54855952Y-76715952D02*
X54760714Y-76668333D01*
X54713095Y-76620714D01*
X54665476Y-76525476D01*
X54665476Y-76477857D01*
X54713095Y-76382619D01*
X54760714Y-76335000D01*
X54855952Y-76287381D01*
X55046429Y-76287381D01*
X55141667Y-76335000D01*
X55189286Y-76382619D01*
X55236905Y-76477857D01*
X55236905Y-76525476D01*
X55189286Y-76620714D01*
X55141667Y-76668333D01*
X55046429Y-76715952D01*
X54855952Y-76715952D01*
X54760714Y-76763571D01*
X54713095Y-76811190D01*
X54665476Y-76906429D01*
X54665476Y-77096905D01*
X54713095Y-77192143D01*
X54760714Y-77239762D01*
X54855952Y-77287381D01*
X55046429Y-77287381D01*
X55141667Y-77239762D01*
X55189286Y-77192143D01*
X55236905Y-77096905D01*
X55236905Y-76906429D01*
X55189286Y-76811190D01*
X55141667Y-76763571D01*
X55046429Y-76715952D01*
X59142381Y-88391905D02*
X59951905Y-88391905D01*
X60047143Y-88344286D01*
X60094762Y-88296667D01*
X60142381Y-88201429D01*
X60142381Y-88010952D01*
X60094762Y-87915714D01*
X60047143Y-87868095D01*
X59951905Y-87820476D01*
X59142381Y-87820476D01*
X59237619Y-87391905D02*
X59190000Y-87344286D01*
X59142381Y-87249048D01*
X59142381Y-87010952D01*
X59190000Y-86915714D01*
X59237619Y-86868095D01*
X59332857Y-86820476D01*
X59428095Y-86820476D01*
X59570952Y-86868095D01*
X60142381Y-87439524D01*
X60142381Y-86820476D01*
X118197381Y-28701905D02*
X119006905Y-28701905D01*
X119102143Y-28654286D01*
X119149762Y-28606667D01*
X119197381Y-28511429D01*
X119197381Y-28320952D01*
X119149762Y-28225714D01*
X119102143Y-28178095D01*
X119006905Y-28130476D01*
X118197381Y-28130476D01*
X119197381Y-27130476D02*
X119197381Y-27701905D01*
X119197381Y-27416191D02*
X118197381Y-27416191D01*
X118340238Y-27511429D01*
X118435476Y-27606667D01*
X118483095Y-27701905D01*
X125563334Y-23947381D02*
X125230000Y-23471190D01*
X124991905Y-23947381D02*
X124991905Y-22947381D01*
X125372858Y-22947381D01*
X125468096Y-22995000D01*
X125515715Y-23042619D01*
X125563334Y-23137857D01*
X125563334Y-23280714D01*
X125515715Y-23375952D01*
X125468096Y-23423571D01*
X125372858Y-23471190D01*
X124991905Y-23471190D01*
X125896667Y-22947381D02*
X126515715Y-22947381D01*
X126182381Y-23328333D01*
X126325239Y-23328333D01*
X126420477Y-23375952D01*
X126468096Y-23423571D01*
X126515715Y-23518810D01*
X126515715Y-23756905D01*
X126468096Y-23852143D01*
X126420477Y-23899762D01*
X126325239Y-23947381D01*
X126039524Y-23947381D01*
X125944286Y-23899762D01*
X125896667Y-23852143D01*
X134453334Y-23947381D02*
X134120000Y-23471190D01*
X133881905Y-23947381D02*
X133881905Y-22947381D01*
X134262858Y-22947381D01*
X134358096Y-22995000D01*
X134405715Y-23042619D01*
X134453334Y-23137857D01*
X134453334Y-23280714D01*
X134405715Y-23375952D01*
X134358096Y-23423571D01*
X134262858Y-23471190D01*
X133881905Y-23471190D01*
X135310477Y-23280714D02*
X135310477Y-23947381D01*
X135072381Y-22899762D02*
X134834286Y-23614048D01*
X135453334Y-23614048D01*
X143343334Y-23947381D02*
X143010000Y-23471190D01*
X142771905Y-23947381D02*
X142771905Y-22947381D01*
X143152858Y-22947381D01*
X143248096Y-22995000D01*
X143295715Y-23042619D01*
X143343334Y-23137857D01*
X143343334Y-23280714D01*
X143295715Y-23375952D01*
X143248096Y-23423571D01*
X143152858Y-23471190D01*
X142771905Y-23471190D01*
X144248096Y-22947381D02*
X143771905Y-22947381D01*
X143724286Y-23423571D01*
X143771905Y-23375952D01*
X143867143Y-23328333D01*
X144105239Y-23328333D01*
X144200477Y-23375952D01*
X144248096Y-23423571D01*
X144295715Y-23518810D01*
X144295715Y-23756905D01*
X144248096Y-23852143D01*
X144200477Y-23899762D01*
X144105239Y-23947381D01*
X143867143Y-23947381D01*
X143771905Y-23899762D01*
X143724286Y-23852143D01*
X113482381Y-81446666D02*
X113006190Y-81780000D01*
X113482381Y-82018095D02*
X112482381Y-82018095D01*
X112482381Y-81637142D01*
X112530000Y-81541904D01*
X112577619Y-81494285D01*
X112672857Y-81446666D01*
X112815714Y-81446666D01*
X112910952Y-81494285D01*
X112958571Y-81541904D01*
X113006190Y-81637142D01*
X113006190Y-82018095D01*
X112482381Y-80589523D02*
X112482381Y-80780000D01*
X112530000Y-80875238D01*
X112577619Y-80922857D01*
X112720476Y-81018095D01*
X112910952Y-81065714D01*
X113291905Y-81065714D01*
X113387143Y-81018095D01*
X113434762Y-80970476D01*
X113482381Y-80875238D01*
X113482381Y-80684761D01*
X113434762Y-80589523D01*
X113387143Y-80541904D01*
X113291905Y-80494285D01*
X113053810Y-80494285D01*
X112958571Y-80541904D01*
X112910952Y-80589523D01*
X112863333Y-80684761D01*
X112863333Y-80875238D01*
X112910952Y-80970476D01*
X112958571Y-81018095D01*
X113053810Y-81065714D01*
X113482381Y-77636666D02*
X113006190Y-77970000D01*
X113482381Y-78208095D02*
X112482381Y-78208095D01*
X112482381Y-77827142D01*
X112530000Y-77731904D01*
X112577619Y-77684285D01*
X112672857Y-77636666D01*
X112815714Y-77636666D01*
X112910952Y-77684285D01*
X112958571Y-77731904D01*
X113006190Y-77827142D01*
X113006190Y-78208095D01*
X112482381Y-77303333D02*
X112482381Y-76636666D01*
X113482381Y-77065238D01*
X113482381Y-73826666D02*
X113006190Y-74160000D01*
X113482381Y-74398095D02*
X112482381Y-74398095D01*
X112482381Y-74017142D01*
X112530000Y-73921904D01*
X112577619Y-73874285D01*
X112672857Y-73826666D01*
X112815714Y-73826666D01*
X112910952Y-73874285D01*
X112958571Y-73921904D01*
X113006190Y-74017142D01*
X113006190Y-74398095D01*
X112910952Y-73255238D02*
X112863333Y-73350476D01*
X112815714Y-73398095D01*
X112720476Y-73445714D01*
X112672857Y-73445714D01*
X112577619Y-73398095D01*
X112530000Y-73350476D01*
X112482381Y-73255238D01*
X112482381Y-73064761D01*
X112530000Y-72969523D01*
X112577619Y-72921904D01*
X112672857Y-72874285D01*
X112720476Y-72874285D01*
X112815714Y-72921904D01*
X112863333Y-72969523D01*
X112910952Y-73064761D01*
X112910952Y-73255238D01*
X112958571Y-73350476D01*
X113006190Y-73398095D01*
X113101429Y-73445714D01*
X113291905Y-73445714D01*
X113387143Y-73398095D01*
X113434762Y-73350476D01*
X113482381Y-73255238D01*
X113482381Y-73064761D01*
X113434762Y-72969523D01*
X113387143Y-72921904D01*
X113291905Y-72874285D01*
X113101429Y-72874285D01*
X113006190Y-72921904D01*
X112958571Y-72969523D01*
X112910952Y-73064761D01*
X113482381Y-63666666D02*
X113006190Y-64000000D01*
X113482381Y-64238095D02*
X112482381Y-64238095D01*
X112482381Y-63857142D01*
X112530000Y-63761904D01*
X112577619Y-63714285D01*
X112672857Y-63666666D01*
X112815714Y-63666666D01*
X112910952Y-63714285D01*
X112958571Y-63761904D01*
X113006190Y-63857142D01*
X113006190Y-64238095D01*
X113482381Y-63190476D02*
X113482381Y-63000000D01*
X113434762Y-62904761D01*
X113387143Y-62857142D01*
X113244286Y-62761904D01*
X113053810Y-62714285D01*
X112672857Y-62714285D01*
X112577619Y-62761904D01*
X112530000Y-62809523D01*
X112482381Y-62904761D01*
X112482381Y-63095238D01*
X112530000Y-63190476D01*
X112577619Y-63238095D01*
X112672857Y-63285714D01*
X112910952Y-63285714D01*
X113006190Y-63238095D01*
X113053810Y-63190476D01*
X113101429Y-63095238D01*
X113101429Y-62904761D01*
X113053810Y-62809523D01*
X113006190Y-62761904D01*
X112910952Y-62714285D01*
X113482381Y-60332857D02*
X113006190Y-60666191D01*
X113482381Y-60904286D02*
X112482381Y-60904286D01*
X112482381Y-60523333D01*
X112530000Y-60428095D01*
X112577619Y-60380476D01*
X112672857Y-60332857D01*
X112815714Y-60332857D01*
X112910952Y-60380476D01*
X112958571Y-60428095D01*
X113006190Y-60523333D01*
X113006190Y-60904286D01*
X113482381Y-59380476D02*
X113482381Y-59951905D01*
X113482381Y-59666191D02*
X112482381Y-59666191D01*
X112625238Y-59761429D01*
X112720476Y-59856667D01*
X112768095Y-59951905D01*
X112482381Y-58761429D02*
X112482381Y-58666190D01*
X112530000Y-58570952D01*
X112577619Y-58523333D01*
X112672857Y-58475714D01*
X112863333Y-58428095D01*
X113101429Y-58428095D01*
X113291905Y-58475714D01*
X113387143Y-58523333D01*
X113434762Y-58570952D01*
X113482381Y-58666190D01*
X113482381Y-58761429D01*
X113434762Y-58856667D01*
X113387143Y-58904286D01*
X113291905Y-58951905D01*
X113101429Y-58999524D01*
X112863333Y-58999524D01*
X112672857Y-58951905D01*
X112577619Y-58904286D01*
X112530000Y-58856667D01*
X112482381Y-58761429D01*
X113482381Y-56522857D02*
X113006190Y-56856191D01*
X113482381Y-57094286D02*
X112482381Y-57094286D01*
X112482381Y-56713333D01*
X112530000Y-56618095D01*
X112577619Y-56570476D01*
X112672857Y-56522857D01*
X112815714Y-56522857D01*
X112910952Y-56570476D01*
X112958571Y-56618095D01*
X113006190Y-56713333D01*
X113006190Y-57094286D01*
X113482381Y-55570476D02*
X113482381Y-56141905D01*
X113482381Y-55856191D02*
X112482381Y-55856191D01*
X112625238Y-55951429D01*
X112720476Y-56046667D01*
X112768095Y-56141905D01*
X113482381Y-54618095D02*
X113482381Y-55189524D01*
X113482381Y-54903810D02*
X112482381Y-54903810D01*
X112625238Y-54999048D01*
X112720476Y-55094286D01*
X112768095Y-55189524D01*
X113482381Y-46362857D02*
X113006190Y-46696191D01*
X113482381Y-46934286D02*
X112482381Y-46934286D01*
X112482381Y-46553333D01*
X112530000Y-46458095D01*
X112577619Y-46410476D01*
X112672857Y-46362857D01*
X112815714Y-46362857D01*
X112910952Y-46410476D01*
X112958571Y-46458095D01*
X113006190Y-46553333D01*
X113006190Y-46934286D01*
X113482381Y-45410476D02*
X113482381Y-45981905D01*
X113482381Y-45696191D02*
X112482381Y-45696191D01*
X112625238Y-45791429D01*
X112720476Y-45886667D01*
X112768095Y-45981905D01*
X112577619Y-45029524D02*
X112530000Y-44981905D01*
X112482381Y-44886667D01*
X112482381Y-44648571D01*
X112530000Y-44553333D01*
X112577619Y-44505714D01*
X112672857Y-44458095D01*
X112768095Y-44458095D01*
X112910952Y-44505714D01*
X113482381Y-45077143D01*
X113482381Y-44458095D01*
X113482381Y-42552857D02*
X113006190Y-42886191D01*
X113482381Y-43124286D02*
X112482381Y-43124286D01*
X112482381Y-42743333D01*
X112530000Y-42648095D01*
X112577619Y-42600476D01*
X112672857Y-42552857D01*
X112815714Y-42552857D01*
X112910952Y-42600476D01*
X112958571Y-42648095D01*
X113006190Y-42743333D01*
X113006190Y-43124286D01*
X113482381Y-41600476D02*
X113482381Y-42171905D01*
X113482381Y-41886191D02*
X112482381Y-41886191D01*
X112625238Y-41981429D01*
X112720476Y-42076667D01*
X112768095Y-42171905D01*
X112482381Y-41267143D02*
X112482381Y-40648095D01*
X112863333Y-40981429D01*
X112863333Y-40838571D01*
X112910952Y-40743333D01*
X112958571Y-40695714D01*
X113053810Y-40648095D01*
X113291905Y-40648095D01*
X113387143Y-40695714D01*
X113434762Y-40743333D01*
X113482381Y-40838571D01*
X113482381Y-41124286D01*
X113434762Y-41219524D01*
X113387143Y-41267143D01*
X113482381Y-38742857D02*
X113006190Y-39076191D01*
X113482381Y-39314286D02*
X112482381Y-39314286D01*
X112482381Y-38933333D01*
X112530000Y-38838095D01*
X112577619Y-38790476D01*
X112672857Y-38742857D01*
X112815714Y-38742857D01*
X112910952Y-38790476D01*
X112958571Y-38838095D01*
X113006190Y-38933333D01*
X113006190Y-39314286D01*
X113482381Y-37790476D02*
X113482381Y-38361905D01*
X113482381Y-38076191D02*
X112482381Y-38076191D01*
X112625238Y-38171429D01*
X112720476Y-38266667D01*
X112768095Y-38361905D01*
X112815714Y-36933333D02*
X113482381Y-36933333D01*
X112434762Y-37171429D02*
X113149048Y-37409524D01*
X113149048Y-36790476D01*
X149217143Y-32202381D02*
X148883809Y-31726190D01*
X148645714Y-32202381D02*
X148645714Y-31202381D01*
X149026667Y-31202381D01*
X149121905Y-31250000D01*
X149169524Y-31297619D01*
X149217143Y-31392857D01*
X149217143Y-31535714D01*
X149169524Y-31630952D01*
X149121905Y-31678571D01*
X149026667Y-31726190D01*
X148645714Y-31726190D01*
X150169524Y-32202381D02*
X149598095Y-32202381D01*
X149883809Y-32202381D02*
X149883809Y-31202381D01*
X149788571Y-31345238D01*
X149693333Y-31440476D01*
X149598095Y-31488095D01*
X151026667Y-31202381D02*
X150836190Y-31202381D01*
X150740952Y-31250000D01*
X150693333Y-31297619D01*
X150598095Y-31440476D01*
X150550476Y-31630952D01*
X150550476Y-32011905D01*
X150598095Y-32107143D01*
X150645714Y-32154762D01*
X150740952Y-32202381D01*
X150931429Y-32202381D01*
X151026667Y-32154762D01*
X151074286Y-32107143D01*
X151121905Y-32011905D01*
X151121905Y-31773810D01*
X151074286Y-31678571D01*
X151026667Y-31630952D01*
X150931429Y-31583333D01*
X150740952Y-31583333D01*
X150645714Y-31630952D01*
X150598095Y-31678571D01*
X150550476Y-31773810D01*
X153662143Y-32202381D02*
X153328809Y-31726190D01*
X153090714Y-32202381D02*
X153090714Y-31202381D01*
X153471667Y-31202381D01*
X153566905Y-31250000D01*
X153614524Y-31297619D01*
X153662143Y-31392857D01*
X153662143Y-31535714D01*
X153614524Y-31630952D01*
X153566905Y-31678571D01*
X153471667Y-31726190D01*
X153090714Y-31726190D01*
X154614524Y-32202381D02*
X154043095Y-32202381D01*
X154328809Y-32202381D02*
X154328809Y-31202381D01*
X154233571Y-31345238D01*
X154138333Y-31440476D01*
X154043095Y-31488095D01*
X154947857Y-31202381D02*
X155614524Y-31202381D01*
X155185952Y-32202381D01*
X48728334Y-98877381D02*
X48395000Y-98401190D01*
X48156905Y-98877381D02*
X48156905Y-97877381D01*
X48537858Y-97877381D01*
X48633096Y-97925000D01*
X48680715Y-97972619D01*
X48728334Y-98067857D01*
X48728334Y-98210714D01*
X48680715Y-98305952D01*
X48633096Y-98353571D01*
X48537858Y-98401190D01*
X48156905Y-98401190D01*
X49680715Y-98877381D02*
X49109286Y-98877381D01*
X49395000Y-98877381D02*
X49395000Y-97877381D01*
X49299762Y-98020238D01*
X49204524Y-98115476D01*
X49109286Y-98163095D01*
X52538334Y-98877381D02*
X52205000Y-98401190D01*
X51966905Y-98877381D02*
X51966905Y-97877381D01*
X52347858Y-97877381D01*
X52443096Y-97925000D01*
X52490715Y-97972619D01*
X52538334Y-98067857D01*
X52538334Y-98210714D01*
X52490715Y-98305952D01*
X52443096Y-98353571D01*
X52347858Y-98401190D01*
X51966905Y-98401190D01*
X52919286Y-97972619D02*
X52966905Y-97925000D01*
X53062143Y-97877381D01*
X53300239Y-97877381D01*
X53395477Y-97925000D01*
X53443096Y-97972619D01*
X53490715Y-98067857D01*
X53490715Y-98163095D01*
X53443096Y-98305952D01*
X52871667Y-98877381D01*
X53490715Y-98877381D01*
M02*
