G04 #@! TF.FileFunction,Copper,L1,Top,Signal*
%FSLAX46Y46*%
G04 Gerber Fmt 4.6, Leading zero omitted, Abs format (unit mm)*
G04 Created by KiCad (PCBNEW 4.0.3-stable) date 05/01/17 14:40:03*
%MOMM*%
%LPD*%
G01*
G04 APERTURE LIST*
%ADD10C,0.100000*%
%ADD11C,1.524000*%
%ADD12R,1.700000X1.700000*%
%ADD13O,1.700000X1.700000*%
%ADD14R,1.600000X2.000000*%
%ADD15R,1.800000X1.800000*%
%ADD16C,1.800000*%
%ADD17C,3.500000*%
%ADD18C,5.000000*%
%ADD19R,1.700000X2.000000*%
%ADD20R,0.600000X1.550000*%
%ADD21R,0.600000X1.500000*%
%ADD22R,2.000000X1.700000*%
%ADD23C,1.270000*%
%ADD24C,1.016000*%
%ADD25C,0.508000*%
%ADD26C,1.270000*%
%ADD27C,1.016000*%
%ADD28C,0.254000*%
G04 APERTURE END LIST*
D10*
D11*
X39370000Y-81915000D03*
X118110000Y-43180000D03*
D12*
X44450000Y-27305000D03*
D13*
X46990000Y-27305000D03*
X44450000Y-29845000D03*
X46990000Y-29845000D03*
X44450000Y-32385000D03*
X46990000Y-32385000D03*
X44450000Y-34925000D03*
X46990000Y-34925000D03*
X44450000Y-37465000D03*
X46990000Y-37465000D03*
X44450000Y-40005000D03*
X46990000Y-40005000D03*
X44450000Y-42545000D03*
X46990000Y-42545000D03*
X44450000Y-45085000D03*
X46990000Y-45085000D03*
X44450000Y-47625000D03*
X46990000Y-47625000D03*
X44450000Y-50165000D03*
X46990000Y-50165000D03*
X44450000Y-52705000D03*
X46990000Y-52705000D03*
X44450000Y-55245000D03*
X46990000Y-55245000D03*
X44450000Y-57785000D03*
X46990000Y-57785000D03*
X44450000Y-60325000D03*
X46990000Y-60325000D03*
X44450000Y-62865000D03*
X46990000Y-62865000D03*
X44450000Y-65405000D03*
X46990000Y-65405000D03*
X44450000Y-67945000D03*
X46990000Y-67945000D03*
X44450000Y-70485000D03*
X46990000Y-70485000D03*
X44450000Y-73025000D03*
X46990000Y-73025000D03*
X44450000Y-75565000D03*
X46990000Y-75565000D03*
X44450000Y-78105000D03*
X46990000Y-78105000D03*
X44450000Y-80645000D03*
X46990000Y-80645000D03*
X44450000Y-83185000D03*
X46990000Y-83185000D03*
D12*
X92710000Y-27305000D03*
D13*
X95250000Y-27305000D03*
X92710000Y-29845000D03*
X95250000Y-29845000D03*
X92710000Y-32385000D03*
X95250000Y-32385000D03*
X92710000Y-34925000D03*
X95250000Y-34925000D03*
X92710000Y-37465000D03*
X95250000Y-37465000D03*
X92710000Y-40005000D03*
X95250000Y-40005000D03*
X92710000Y-42545000D03*
X95250000Y-42545000D03*
X92710000Y-45085000D03*
X95250000Y-45085000D03*
X92710000Y-47625000D03*
X95250000Y-47625000D03*
X92710000Y-50165000D03*
X95250000Y-50165000D03*
X92710000Y-52705000D03*
X95250000Y-52705000D03*
X92710000Y-55245000D03*
X95250000Y-55245000D03*
X92710000Y-57785000D03*
X95250000Y-57785000D03*
X92710000Y-60325000D03*
X95250000Y-60325000D03*
X92710000Y-62865000D03*
X95250000Y-62865000D03*
X92710000Y-65405000D03*
X95250000Y-65405000D03*
X92710000Y-67945000D03*
X95250000Y-67945000D03*
X92710000Y-70485000D03*
X95250000Y-70485000D03*
X92710000Y-73025000D03*
X95250000Y-73025000D03*
X92710000Y-75565000D03*
X95250000Y-75565000D03*
X92710000Y-78105000D03*
X95250000Y-78105000D03*
X92710000Y-80645000D03*
X95250000Y-80645000D03*
X92710000Y-83185000D03*
X95250000Y-83185000D03*
D12*
X116840000Y-109220000D03*
D13*
X119380000Y-109220000D03*
X121920000Y-109220000D03*
X124460000Y-109220000D03*
X127000000Y-109220000D03*
X129540000Y-109220000D03*
D12*
X154940000Y-109220000D03*
D13*
X157480000Y-109220000D03*
X160020000Y-109220000D03*
X162560000Y-109220000D03*
X165100000Y-109220000D03*
X167640000Y-109220000D03*
X170180000Y-109220000D03*
D12*
X137160000Y-109220000D03*
D13*
X139700000Y-109220000D03*
X142240000Y-109220000D03*
X144780000Y-109220000D03*
X147320000Y-109220000D03*
D14*
X129540000Y-25305000D03*
X129540000Y-29305000D03*
X138430000Y-25305000D03*
X138430000Y-29305000D03*
X147320000Y-25305000D03*
X147320000Y-29305000D03*
X115570000Y-38005000D03*
X115570000Y-42005000D03*
D12*
X125806200Y-51422300D03*
D13*
X125806200Y-48882300D03*
X128346200Y-51422300D03*
X128346200Y-48882300D03*
X130886200Y-51422300D03*
X130886200Y-48882300D03*
X133426200Y-51422300D03*
X133426200Y-48882300D03*
X135966200Y-51422300D03*
X135966200Y-48882300D03*
X138506200Y-51422300D03*
X138506200Y-48882300D03*
X141046200Y-51422300D03*
X141046200Y-48882300D03*
X143586200Y-51422300D03*
X143586200Y-48882300D03*
X146126200Y-51422300D03*
X146126200Y-48882300D03*
X148666200Y-51422300D03*
X148666200Y-48882300D03*
X151206200Y-51422300D03*
X151206200Y-48882300D03*
X153746200Y-51422300D03*
X153746200Y-48882300D03*
X156286200Y-51422300D03*
X156286200Y-48882300D03*
X158826200Y-51422300D03*
X158826200Y-48882300D03*
X161366200Y-51422300D03*
X161366200Y-48882300D03*
X163906200Y-51422300D03*
X163906200Y-48882300D03*
X166446200Y-51422300D03*
X166446200Y-48882300D03*
X168986200Y-51422300D03*
X168986200Y-48882300D03*
X171526200Y-51422300D03*
X171526200Y-48882300D03*
X174066200Y-51422300D03*
X174066200Y-48882300D03*
D15*
X153035000Y-26670000D03*
D16*
X153035000Y-24130000D03*
D15*
X160020000Y-26670000D03*
D16*
X160020000Y-24130000D03*
D12*
X102870000Y-54610000D03*
D13*
X102870000Y-57150000D03*
X102870000Y-59690000D03*
X102870000Y-62230000D03*
X102870000Y-64770000D03*
D12*
X102870000Y-36830000D03*
D13*
X102870000Y-39370000D03*
X102870000Y-41910000D03*
X102870000Y-44450000D03*
X102870000Y-46990000D03*
D12*
X144145000Y-33020000D03*
D13*
X144145000Y-35560000D03*
X144145000Y-38100000D03*
D12*
X136525000Y-33020000D03*
D13*
X136525000Y-35560000D03*
X136525000Y-38100000D03*
D12*
X128905000Y-33020000D03*
D13*
X128905000Y-35560000D03*
X128905000Y-38100000D03*
D12*
X102870000Y-72390000D03*
D13*
X102870000Y-74930000D03*
X102870000Y-77470000D03*
X102870000Y-80010000D03*
X102870000Y-82550000D03*
D12*
X102870000Y-101600000D03*
D13*
X102870000Y-104140000D03*
X102870000Y-106680000D03*
D12*
X95250000Y-101600000D03*
D13*
X95250000Y-104140000D03*
X95250000Y-106680000D03*
D12*
X87630000Y-101600000D03*
D13*
X87630000Y-104140000D03*
X87630000Y-106680000D03*
D12*
X80010000Y-101600000D03*
D13*
X80010000Y-104140000D03*
X80010000Y-106680000D03*
D12*
X48260000Y-109220000D03*
D13*
X50800000Y-109220000D03*
X53340000Y-109220000D03*
D17*
X178230000Y-33080000D03*
X165730000Y-40580000D03*
D11*
X61595000Y-67945000D03*
X80645000Y-67945000D03*
X149860000Y-74930000D03*
X80645000Y-75565000D03*
X61595000Y-75565000D03*
X124460000Y-37465000D03*
D17*
X120950000Y-99150000D03*
X120950000Y-50150000D03*
X178950000Y-50150000D03*
D18*
X179070000Y-111760000D03*
X38100000Y-111760000D03*
X38100000Y-25400000D03*
X179070000Y-25400000D03*
D12*
X72390000Y-101600000D03*
D13*
X72390000Y-104140000D03*
X72390000Y-106680000D03*
D12*
X64770000Y-101600000D03*
D13*
X64770000Y-104140000D03*
X64770000Y-106680000D03*
D19*
X57785000Y-82645000D03*
X57785000Y-78645000D03*
X53975000Y-82645000D03*
X53975000Y-78645000D03*
D20*
X57785000Y-87470000D03*
X56515000Y-87470000D03*
X55245000Y-87470000D03*
X53975000Y-87470000D03*
X53975000Y-92870000D03*
X55245000Y-92870000D03*
X56515000Y-92870000D03*
X57785000Y-92870000D03*
D21*
X116840000Y-27780000D03*
X115570000Y-27780000D03*
X114300000Y-27780000D03*
X113030000Y-27780000D03*
X111760000Y-27780000D03*
X110490000Y-27780000D03*
X109220000Y-27780000D03*
X109220000Y-33180000D03*
X110490000Y-33180000D03*
X111760000Y-33180000D03*
X113030000Y-33180000D03*
X114300000Y-33180000D03*
X115570000Y-33180000D03*
X116840000Y-33180000D03*
D19*
X125730000Y-29305000D03*
X125730000Y-25305000D03*
X134620000Y-29305000D03*
X134620000Y-25305000D03*
X143510000Y-29305000D03*
X143510000Y-25305000D03*
D22*
X111220000Y-81280000D03*
X107220000Y-81280000D03*
X111220000Y-77470000D03*
X107220000Y-77470000D03*
X111220000Y-73660000D03*
X107220000Y-73660000D03*
X111220000Y-63500000D03*
X107220000Y-63500000D03*
X111220000Y-59690000D03*
X107220000Y-59690000D03*
X111220000Y-55880000D03*
X107220000Y-55880000D03*
X111220000Y-45720000D03*
X107220000Y-45720000D03*
X111220000Y-41910000D03*
X107220000Y-41910000D03*
X111220000Y-38100000D03*
X107220000Y-38100000D03*
D19*
X149860000Y-37560000D03*
X149860000Y-33560000D03*
X154305000Y-37560000D03*
X154305000Y-33560000D03*
X48895000Y-104235000D03*
X48895000Y-100235000D03*
X52705000Y-104235000D03*
X52705000Y-100235000D03*
D11*
X69850000Y-38735000D03*
D23*
X72390000Y-38735000D03*
D24*
X143510000Y-43180000D03*
X100330000Y-25400000D03*
X48895000Y-64135000D03*
D25*
X50165000Y-95250000D02*
X50165000Y-97790000D01*
X49530000Y-67945000D02*
X50165000Y-68580000D01*
X50165000Y-68580000D02*
X50165000Y-95250000D01*
X46990000Y-67945000D02*
X49530000Y-67945000D01*
X52705000Y-99060000D02*
X52705000Y-100235000D01*
X52070000Y-98425000D02*
X52705000Y-99060000D01*
X50800000Y-98425000D02*
X52070000Y-98425000D01*
X50165000Y-97790000D02*
X50800000Y-98425000D01*
X53340000Y-109220000D02*
X53340000Y-106680000D01*
X53340000Y-106680000D02*
X54610000Y-105410000D01*
X54610000Y-105410000D02*
X54610000Y-100965000D01*
X54610000Y-100965000D02*
X53880000Y-100235000D01*
X53880000Y-100235000D02*
X52705000Y-100235000D01*
D26*
X69850000Y-48895000D02*
X69850000Y-95250000D01*
X69850000Y-38735000D02*
X69850000Y-48895000D01*
X72390000Y-97790000D02*
X72390000Y-101600000D01*
X69850000Y-95250000D02*
X72390000Y-97790000D01*
D25*
X72390000Y-101600000D02*
X71120000Y-101600000D01*
X71120000Y-101600000D02*
X70485000Y-100965000D01*
X70485000Y-100965000D02*
X70485000Y-98425000D01*
X70485000Y-98425000D02*
X68580000Y-96520000D01*
X68580000Y-96520000D02*
X58420000Y-96520000D01*
X58420000Y-96520000D02*
X57785000Y-95885000D01*
X57785000Y-95885000D02*
X57785000Y-92870000D01*
D26*
X165730000Y-40580000D02*
X149920000Y-40580000D01*
X149860000Y-40520000D02*
X149860000Y-37560000D01*
X149920000Y-40580000D02*
X149860000Y-40520000D01*
D25*
X48895000Y-104235000D02*
X48895000Y-106045000D01*
X50800000Y-107315000D02*
X50800000Y-109220000D01*
X50165000Y-106680000D02*
X50800000Y-107315000D01*
X49530000Y-106680000D02*
X50165000Y-106680000D01*
X48895000Y-106045000D02*
X49530000Y-106680000D01*
X149860000Y-33560000D02*
X149860000Y-24765000D01*
X150495000Y-24130000D02*
X153035000Y-24130000D01*
X149860000Y-24765000D02*
X150495000Y-24130000D01*
X127000000Y-35560000D02*
X127000000Y-40005000D01*
X122555000Y-41275000D02*
X121920000Y-40640000D01*
X121920000Y-40640000D02*
X121920000Y-26670000D01*
X121920000Y-26670000D02*
X121920000Y-26035000D01*
X121920000Y-26035000D02*
X120650000Y-24765000D01*
X120650000Y-24765000D02*
X112395000Y-24765000D01*
X112395000Y-24765000D02*
X111760000Y-25400000D01*
X111760000Y-25400000D02*
X111760000Y-27780000D01*
X125730000Y-41275000D02*
X122555000Y-41275000D01*
X127000000Y-40005000D02*
X125730000Y-41275000D01*
X128905000Y-35560000D02*
X127000000Y-35560000D01*
X127000000Y-35560000D02*
X127000000Y-29305000D01*
X127000000Y-29305000D02*
X127000000Y-29210000D01*
X127000000Y-29210000D02*
X127000000Y-29305000D01*
X129540000Y-29305000D02*
X127000000Y-29305000D01*
X127000000Y-29305000D02*
X125730000Y-29305000D01*
X129540000Y-29305000D02*
X129540000Y-29210000D01*
X129540000Y-29210000D02*
X129540000Y-29305000D01*
X134620000Y-35560000D02*
X134620000Y-29305000D01*
X121920000Y-42545000D02*
X133985000Y-42545000D01*
X121920000Y-42545000D02*
X120650000Y-41275000D01*
X120650000Y-41275000D02*
X120650000Y-26670000D01*
X120650000Y-26670000D02*
X120015000Y-26035000D01*
X120015000Y-26035000D02*
X114935000Y-26035000D01*
X114935000Y-26035000D02*
X114300000Y-26670000D01*
X114300000Y-27780000D02*
X114300000Y-26670000D01*
X134620000Y-35560000D02*
X136525000Y-35560000D01*
X134620000Y-41910000D02*
X134620000Y-35560000D01*
X133985000Y-42545000D02*
X134620000Y-41910000D01*
X136525000Y-35560000D02*
X135890000Y-35560000D01*
X135890000Y-29305000D02*
X135890000Y-29210000D01*
X135890000Y-29210000D02*
X135890000Y-29305000D01*
X138430000Y-29305000D02*
X135890000Y-29305000D01*
X135890000Y-29305000D02*
X134620000Y-29305000D01*
X142240000Y-35560000D02*
X142240000Y-39370000D01*
X118745000Y-27940000D02*
X117000000Y-27940000D01*
X119380000Y-28575000D02*
X118745000Y-27940000D01*
X119380000Y-41910000D02*
X119380000Y-28575000D01*
X121285000Y-43815000D02*
X119380000Y-41910000D01*
X137795000Y-43815000D02*
X121285000Y-43815000D01*
X142240000Y-39370000D02*
X137795000Y-43815000D01*
X117000000Y-27940000D02*
X116840000Y-27780000D01*
X147320000Y-29305000D02*
X143510000Y-29305000D01*
X143510000Y-29305000D02*
X143415000Y-29210000D01*
X143415000Y-29210000D02*
X142875000Y-29210000D01*
X142875000Y-29210000D02*
X142240000Y-29845000D01*
X142240000Y-29845000D02*
X142240000Y-35560000D01*
X142240000Y-35560000D02*
X142875000Y-35560000D01*
X142875000Y-35560000D02*
X144145000Y-35560000D01*
D27*
X132080000Y-31115000D02*
X132080000Y-32385000D01*
X132080000Y-22860000D02*
X132080000Y-31115000D01*
X131445000Y-33020000D02*
X128905000Y-33020000D01*
X132080000Y-32385000D02*
X131445000Y-33020000D01*
X111220000Y-83725000D02*
X111220000Y-101600000D01*
X111220000Y-81280000D02*
X111220000Y-83725000D01*
X111220000Y-101600000D02*
X111125000Y-101600000D01*
X75565000Y-97790000D02*
X79375000Y-101600000D01*
X79375000Y-101600000D02*
X80010000Y-101600000D01*
X72390000Y-48260000D02*
X72390000Y-94615000D01*
X72390000Y-94615000D02*
X75565000Y-97790000D01*
X116840000Y-106045000D02*
X116840000Y-102235000D01*
X116840000Y-102235000D02*
X116205000Y-101600000D01*
X116205000Y-101600000D02*
X111125000Y-101600000D01*
X111125000Y-101600000D02*
X102870000Y-101600000D01*
X95250000Y-101600000D02*
X102870000Y-101600000D01*
X115570000Y-38005000D02*
X115570000Y-36195000D01*
X116840000Y-34925000D02*
X116840000Y-33180000D01*
X115570000Y-36195000D02*
X116840000Y-34925000D01*
X111220000Y-38100000D02*
X115475000Y-38100000D01*
X115475000Y-38100000D02*
X115570000Y-38005000D01*
X72390000Y-38735000D02*
X72390000Y-48260000D01*
X72390000Y-48260000D02*
X72390000Y-48895000D01*
D25*
X147320000Y-35560000D02*
X147955000Y-35560000D01*
X154305000Y-36195000D02*
X153670000Y-35560000D01*
X153670000Y-35560000D02*
X147955000Y-35560000D01*
X154305000Y-36195000D02*
X154305000Y-37560000D01*
D27*
X144145000Y-33020000D02*
X146050000Y-33020000D01*
X139065000Y-45085000D02*
X111855000Y-45085000D01*
X143510000Y-40640000D02*
X139065000Y-45085000D01*
X146050000Y-40640000D02*
X143510000Y-40640000D01*
X147320000Y-39370000D02*
X146050000Y-40640000D01*
X147320000Y-34290000D02*
X147320000Y-35560000D01*
X147320000Y-35560000D02*
X147320000Y-39370000D01*
X146050000Y-33020000D02*
X147320000Y-34290000D01*
X111855000Y-45085000D02*
X111220000Y-45720000D01*
X137160000Y-106045000D02*
X156210000Y-106045000D01*
X157480000Y-107315000D02*
X157480000Y-109220000D01*
X156210000Y-106045000D02*
X157480000Y-107315000D01*
X116840000Y-106045000D02*
X137160000Y-106045000D01*
X137160000Y-106045000D02*
X137160000Y-109220000D01*
X116840000Y-106045000D02*
X116840000Y-109220000D01*
X134620000Y-22860000D02*
X142240000Y-22860000D01*
X143510000Y-24130000D02*
X143510000Y-25305000D01*
X142240000Y-22860000D02*
X143510000Y-24130000D01*
X134620000Y-25305000D02*
X134620000Y-22860000D01*
X125730000Y-24130000D02*
X127000000Y-22860000D01*
X127000000Y-22860000D02*
X132080000Y-22860000D01*
X132080000Y-22860000D02*
X134620000Y-22860000D01*
X125730000Y-24130000D02*
X125730000Y-25305000D01*
X111220000Y-38100000D02*
X111220000Y-36925000D01*
X109855000Y-35560000D02*
X102870000Y-35560000D01*
X111220000Y-36925000D02*
X109855000Y-35560000D01*
X102870000Y-36830000D02*
X102870000Y-35560000D01*
X102870000Y-72390000D02*
X102870000Y-70485000D01*
X104140000Y-69215000D02*
X111220000Y-69215000D01*
X102870000Y-70485000D02*
X104140000Y-69215000D01*
X111220000Y-51435000D02*
X110490000Y-51435000D01*
X102870000Y-52705000D02*
X104140000Y-51435000D01*
X104140000Y-51435000D02*
X110490000Y-51435000D01*
X102870000Y-52705000D02*
X102870000Y-54610000D01*
X111220000Y-51435000D02*
X111125000Y-51435000D01*
X111125000Y-51435000D02*
X111220000Y-51435000D01*
X111220000Y-81280000D02*
X111220000Y-77470000D01*
X111220000Y-77470000D02*
X111220000Y-73660000D01*
X111220000Y-73660000D02*
X111220000Y-69850000D01*
X111220000Y-69850000D02*
X111220000Y-69215000D01*
X111220000Y-69215000D02*
X111220000Y-68580000D01*
X111220000Y-68580000D02*
X111220000Y-63500000D01*
X111220000Y-63500000D02*
X111220000Y-59690000D01*
X111220000Y-59690000D02*
X111220000Y-55880000D01*
X111220000Y-55880000D02*
X111220000Y-51435000D01*
X111220000Y-51435000D02*
X111220000Y-45720000D01*
X111220000Y-45720000D02*
X111220000Y-41910000D01*
X111220000Y-41910000D02*
X111220000Y-38100000D01*
D25*
X119380000Y-113665000D02*
X121920000Y-113665000D01*
X43180000Y-47625000D02*
X41275000Y-49530000D01*
X41275000Y-49530000D02*
X41275000Y-94615000D01*
X44450000Y-47625000D02*
X43180000Y-47625000D01*
X119380000Y-113665000D02*
X42545000Y-113665000D01*
X42545000Y-113665000D02*
X41275000Y-112395000D01*
X41275000Y-112395000D02*
X41275000Y-94615000D01*
X121920000Y-113665000D02*
X126365000Y-113665000D01*
X127000000Y-113030000D02*
X126365000Y-113665000D01*
X127000000Y-113030000D02*
X127000000Y-109220000D01*
X48895000Y-100235000D02*
X48895000Y-95250000D01*
X48260000Y-75565000D02*
X48895000Y-76200000D01*
X48895000Y-76200000D02*
X48895000Y-95250000D01*
X48260000Y-75565000D02*
X46990000Y-75565000D01*
X52705000Y-104235000D02*
X51530000Y-104235000D01*
X50070000Y-100235000D02*
X48895000Y-100235000D01*
X50800000Y-100965000D02*
X50070000Y-100235000D01*
X50800000Y-103505000D02*
X50800000Y-100965000D01*
X51530000Y-104235000D02*
X50800000Y-103505000D01*
X95250000Y-34925000D02*
X96520000Y-34925000D01*
X110490000Y-29210000D02*
X110490000Y-27780000D01*
X99060000Y-29210000D02*
X110490000Y-29210000D01*
X97155000Y-31115000D02*
X99060000Y-29210000D01*
X97155000Y-34290000D02*
X97155000Y-31115000D01*
X96520000Y-34925000D02*
X97155000Y-34290000D01*
X97155000Y-37465000D02*
X98425000Y-36195000D01*
X113030000Y-30480000D02*
X113030000Y-27780000D01*
X99695000Y-30480000D02*
X113030000Y-30480000D01*
X98425000Y-31750000D02*
X99695000Y-30480000D01*
X98425000Y-36195000D02*
X98425000Y-31750000D01*
X95250000Y-37465000D02*
X97155000Y-37465000D01*
X95250000Y-40005000D02*
X97155000Y-40005000D01*
X115570000Y-31750000D02*
X115570000Y-27780000D01*
X100330000Y-31750000D02*
X115570000Y-31750000D01*
X99695000Y-32385000D02*
X100330000Y-31750000D01*
X99695000Y-37465000D02*
X99695000Y-32385000D01*
X97155000Y-40005000D02*
X99695000Y-37465000D01*
X92075000Y-88900000D02*
X92075000Y-85725000D01*
X91440000Y-50165000D02*
X90805000Y-50800000D01*
X90805000Y-50800000D02*
X90805000Y-84455000D01*
X90805000Y-84455000D02*
X91440000Y-85090000D01*
X92710000Y-50165000D02*
X91440000Y-50165000D01*
X92710000Y-104140000D02*
X92075000Y-103505000D01*
X92075000Y-103505000D02*
X92075000Y-88900000D01*
X93980000Y-104140000D02*
X95250000Y-104140000D01*
X93980000Y-104140000D02*
X92710000Y-104140000D01*
X92075000Y-85725000D02*
X91440000Y-85090000D01*
X102870000Y-44450000D02*
X104140000Y-44450000D01*
X105410000Y-45720000D02*
X107220000Y-45720000D01*
X104140000Y-44450000D02*
X105410000Y-45720000D01*
X97155000Y-41910000D02*
X98425000Y-40640000D01*
X101600000Y-40640000D02*
X102870000Y-39370000D01*
X100965000Y-40640000D02*
X101600000Y-40640000D01*
X98425000Y-40640000D02*
X100965000Y-40640000D01*
X107220000Y-38100000D02*
X105410000Y-38100000D01*
X105410000Y-38100000D02*
X104140000Y-39370000D01*
X104140000Y-39370000D02*
X102870000Y-39370000D01*
X95250000Y-52705000D02*
X96520000Y-52705000D01*
X97155000Y-52070000D02*
X97155000Y-41910000D01*
X96520000Y-52705000D02*
X97155000Y-52070000D01*
X102870000Y-41910000D02*
X107220000Y-41910000D01*
X99060000Y-41910000D02*
X102870000Y-41910000D01*
X98425000Y-42545000D02*
X99060000Y-41910000D01*
X95250000Y-55245000D02*
X97790000Y-55245000D01*
X98425000Y-54610000D02*
X98425000Y-42545000D01*
X97790000Y-55245000D02*
X98425000Y-54610000D01*
X102870000Y-62230000D02*
X104140000Y-62230000D01*
X105410000Y-63500000D02*
X107220000Y-63500000D01*
X104140000Y-62230000D02*
X105410000Y-63500000D01*
X102870000Y-57150000D02*
X97790000Y-57150000D01*
X96520000Y-60325000D02*
X95250000Y-60325000D01*
X97155000Y-59690000D02*
X96520000Y-60325000D01*
X97155000Y-57785000D02*
X97155000Y-59690000D01*
X97790000Y-57150000D02*
X97155000Y-57785000D01*
X102870000Y-57150000D02*
X104140000Y-57150000D01*
X105410000Y-55880000D02*
X107220000Y-55880000D01*
X104140000Y-57150000D02*
X105410000Y-55880000D01*
X102870000Y-59690000D02*
X99695000Y-59690000D01*
X96520000Y-62865000D02*
X95250000Y-62865000D01*
X99695000Y-59690000D02*
X96520000Y-62865000D01*
X102870000Y-59690000D02*
X107220000Y-59690000D01*
X105410000Y-81280000D02*
X107220000Y-81280000D01*
X104140000Y-80010000D02*
X105410000Y-81280000D01*
X102870000Y-80010000D02*
X104140000Y-80010000D01*
X102870000Y-74930000D02*
X99060000Y-74930000D01*
X99060000Y-74930000D02*
X98425000Y-74295000D01*
X102870000Y-74930000D02*
X104140000Y-74930000D01*
X104140000Y-74930000D02*
X105410000Y-73660000D01*
X98425000Y-74295000D02*
X98425000Y-68580000D01*
X98425000Y-68580000D02*
X97790000Y-67945000D01*
X97790000Y-67945000D02*
X95250000Y-67945000D01*
X105410000Y-73660000D02*
X107220000Y-73660000D01*
X102870000Y-77470000D02*
X97790000Y-77470000D01*
X96520000Y-70485000D02*
X95250000Y-70485000D01*
X97155000Y-71120000D02*
X96520000Y-70485000D01*
X97155000Y-76835000D02*
X97155000Y-71120000D01*
X97790000Y-77470000D02*
X97155000Y-76835000D01*
X102870000Y-77470000D02*
X107220000Y-77470000D01*
X90805000Y-88900000D02*
X90805000Y-86360000D01*
X90170000Y-104140000D02*
X90805000Y-103505000D01*
X90805000Y-103505000D02*
X90805000Y-88900000D01*
X87630000Y-104140000D02*
X90170000Y-104140000D01*
X48260000Y-45085000D02*
X46990000Y-45085000D01*
X48895000Y-44450000D02*
X48260000Y-45085000D01*
X48895000Y-36195000D02*
X48895000Y-44450000D01*
X49530000Y-35560000D02*
X48895000Y-36195000D01*
X88900000Y-35560000D02*
X49530000Y-35560000D01*
X89535000Y-36195000D02*
X88900000Y-35560000D01*
X89535000Y-85090000D02*
X89535000Y-36195000D01*
X90805000Y-86360000D02*
X89535000Y-85090000D01*
X154305000Y-33560000D02*
X156305000Y-33560000D01*
X157480000Y-24130000D02*
X160020000Y-24130000D01*
X156845000Y-24765000D02*
X157480000Y-24130000D01*
X156845000Y-33020000D02*
X156845000Y-24765000D01*
X156305000Y-33560000D02*
X156845000Y-33020000D01*
X90170000Y-34290000D02*
X87630000Y-34290000D01*
X43180000Y-45085000D02*
X44450000Y-45085000D01*
X96520000Y-25400000D02*
X100330000Y-25400000D01*
X91440000Y-25400000D02*
X96520000Y-25400000D01*
X90805000Y-26035000D02*
X91440000Y-25400000D01*
X90805000Y-33655000D02*
X90805000Y-26035000D01*
X90170000Y-34290000D02*
X90805000Y-33655000D01*
X49530000Y-34290000D02*
X87630000Y-34290000D01*
X48895000Y-33655000D02*
X49530000Y-34290000D01*
X48895000Y-26035000D02*
X48895000Y-33655000D01*
X48260000Y-25400000D02*
X48895000Y-26035000D01*
X43180000Y-25400000D02*
X48260000Y-25400000D01*
X42545000Y-26035000D02*
X43180000Y-25400000D01*
X42545000Y-44450000D02*
X42545000Y-26035000D01*
X43180000Y-45085000D02*
X42545000Y-44450000D01*
X143510000Y-43180000D02*
X143510000Y-48806100D01*
X143510000Y-48806100D02*
X143586200Y-48882300D01*
X143510000Y-43180000D02*
X143586200Y-43256200D01*
X44450000Y-52705000D02*
X43180000Y-52705000D01*
X52070000Y-78740000D02*
X53880000Y-78740000D01*
X51435000Y-79375000D02*
X52070000Y-78740000D01*
X51435000Y-95885000D02*
X51435000Y-79375000D01*
X55880000Y-100330000D02*
X51435000Y-95885000D01*
X55880000Y-111760000D02*
X55880000Y-100330000D01*
X55245000Y-112395000D02*
X55880000Y-111760000D01*
X43180000Y-112395000D02*
X55245000Y-112395000D01*
X42545000Y-111760000D02*
X43180000Y-112395000D01*
X42545000Y-53340000D02*
X42545000Y-111760000D01*
X43180000Y-52705000D02*
X42545000Y-53340000D01*
X53880000Y-78740000D02*
X53975000Y-78645000D01*
X48895000Y-64135000D02*
X50800000Y-64135000D01*
X50800000Y-64135000D02*
X51435000Y-64770000D01*
X51435000Y-64770000D02*
X51435000Y-75565000D01*
X51435000Y-75565000D02*
X52070000Y-76200000D01*
X52070000Y-76200000D02*
X57150000Y-76200000D01*
X57150000Y-76200000D02*
X57785000Y-76835000D01*
X57785000Y-78645000D02*
X57785000Y-76835000D01*
X69215000Y-103505000D02*
X69215000Y-99695000D01*
X69850000Y-104140000D02*
X69215000Y-103505000D01*
X72390000Y-104140000D02*
X69850000Y-104140000D01*
X56515000Y-97155000D02*
X56515000Y-92870000D01*
X57150000Y-97790000D02*
X56515000Y-97155000D01*
X67945000Y-97790000D02*
X57150000Y-97790000D01*
X69215000Y-99060000D02*
X67945000Y-97790000D01*
X69215000Y-99695000D02*
X69215000Y-99060000D01*
X64770000Y-104140000D02*
X67310000Y-104140000D01*
X55245000Y-97790000D02*
X55245000Y-92870000D01*
X56515000Y-99060000D02*
X55245000Y-97790000D01*
X67310000Y-99060000D02*
X56515000Y-99060000D01*
X67945000Y-99695000D02*
X67310000Y-99060000D01*
X67945000Y-103505000D02*
X67945000Y-99695000D01*
X67310000Y-104140000D02*
X67945000Y-103505000D01*
X57785000Y-82645000D02*
X57785000Y-87470000D01*
X53975000Y-82645000D02*
X53975000Y-87470000D01*
D28*
G36*
X177296485Y-22740727D02*
X176413826Y-23621847D01*
X175935546Y-24773674D01*
X175934457Y-26020854D01*
X176410727Y-27173515D01*
X177291847Y-28056174D01*
X178443674Y-28534454D01*
X179690854Y-28535543D01*
X180843515Y-28059273D01*
X181726174Y-27178153D01*
X182118000Y-26234531D01*
X182118000Y-75490000D01*
X173355000Y-75490000D01*
X173083295Y-75544046D01*
X172852954Y-75697954D01*
X172699046Y-75928295D01*
X172645000Y-76200000D01*
X172645000Y-104140000D01*
X172699046Y-104411705D01*
X172852954Y-104642046D01*
X173083295Y-104795954D01*
X173355000Y-104850000D01*
X182118000Y-104850000D01*
X182118000Y-110927275D01*
X181729273Y-109986485D01*
X180848153Y-109103826D01*
X179696326Y-108625546D01*
X178449146Y-108624457D01*
X177296485Y-109100727D01*
X176413826Y-109981847D01*
X175935546Y-111133674D01*
X175934457Y-112380854D01*
X176410727Y-113533515D01*
X177291847Y-114416174D01*
X178235469Y-114808000D01*
X38932725Y-114808000D01*
X39873515Y-114419273D01*
X40756174Y-113538153D01*
X40874927Y-113252163D01*
X41916382Y-114293618D01*
X42204794Y-114486329D01*
X42545000Y-114554000D01*
X126365000Y-114554000D01*
X126705206Y-114486329D01*
X126993618Y-114293618D01*
X127628618Y-113658618D01*
X127821330Y-113370205D01*
X127889000Y-113030000D01*
X127889000Y-110406760D01*
X128050054Y-110299147D01*
X128270000Y-109969974D01*
X128489946Y-110299147D01*
X128971715Y-110621054D01*
X129540000Y-110734093D01*
X130108285Y-110621054D01*
X130590054Y-110299147D01*
X130911961Y-109817378D01*
X131025000Y-109249093D01*
X131025000Y-109190907D01*
X130911961Y-108622622D01*
X130590054Y-108140853D01*
X130108285Y-107818946D01*
X129540000Y-107705907D01*
X128971715Y-107818946D01*
X128489946Y-108140853D01*
X128270000Y-108470026D01*
X128050054Y-108140853D01*
X127568285Y-107818946D01*
X127000000Y-107705907D01*
X126431715Y-107818946D01*
X125949946Y-108140853D01*
X125730000Y-108470026D01*
X125510054Y-108140853D01*
X125028285Y-107818946D01*
X124460000Y-107705907D01*
X123891715Y-107818946D01*
X123409946Y-108140853D01*
X123182298Y-108481553D01*
X123115183Y-108338642D01*
X122686924Y-107948355D01*
X122276890Y-107778524D01*
X122047000Y-107899845D01*
X122047000Y-109093000D01*
X122067000Y-109093000D01*
X122067000Y-109347000D01*
X122047000Y-109347000D01*
X122047000Y-110540155D01*
X122276890Y-110661476D01*
X122686924Y-110491645D01*
X123115183Y-110101358D01*
X123182298Y-109958447D01*
X123409946Y-110299147D01*
X123891715Y-110621054D01*
X124460000Y-110734093D01*
X125028285Y-110621054D01*
X125510054Y-110299147D01*
X125730000Y-109969974D01*
X125949946Y-110299147D01*
X126111000Y-110406760D01*
X126111000Y-112661764D01*
X125996764Y-112776000D01*
X56121236Y-112776000D01*
X56508618Y-112388618D01*
X56701330Y-112100205D01*
X56769000Y-111760000D01*
X56769000Y-107036890D01*
X63328524Y-107036890D01*
X63498355Y-107446924D01*
X63888642Y-107875183D01*
X64413108Y-108121486D01*
X64643000Y-108000819D01*
X64643000Y-106807000D01*
X64897000Y-106807000D01*
X64897000Y-108000819D01*
X65126892Y-108121486D01*
X65651358Y-107875183D01*
X66041645Y-107446924D01*
X66211476Y-107036890D01*
X70948524Y-107036890D01*
X71118355Y-107446924D01*
X71508642Y-107875183D01*
X72033108Y-108121486D01*
X72263000Y-108000819D01*
X72263000Y-106807000D01*
X72517000Y-106807000D01*
X72517000Y-108000819D01*
X72746892Y-108121486D01*
X73271358Y-107875183D01*
X73661645Y-107446924D01*
X73831476Y-107036890D01*
X78568524Y-107036890D01*
X78738355Y-107446924D01*
X79128642Y-107875183D01*
X79653108Y-108121486D01*
X79883000Y-108000819D01*
X79883000Y-106807000D01*
X80137000Y-106807000D01*
X80137000Y-108000819D01*
X80366892Y-108121486D01*
X80891358Y-107875183D01*
X81281645Y-107446924D01*
X81451476Y-107036890D01*
X86188524Y-107036890D01*
X86358355Y-107446924D01*
X86748642Y-107875183D01*
X87273108Y-108121486D01*
X87503000Y-108000819D01*
X87503000Y-106807000D01*
X87757000Y-106807000D01*
X87757000Y-108000819D01*
X87986892Y-108121486D01*
X88511358Y-107875183D01*
X88901645Y-107446924D01*
X89071476Y-107036890D01*
X93808524Y-107036890D01*
X93978355Y-107446924D01*
X94368642Y-107875183D01*
X94893108Y-108121486D01*
X95123000Y-108000819D01*
X95123000Y-106807000D01*
X95377000Y-106807000D01*
X95377000Y-108000819D01*
X95606892Y-108121486D01*
X96131358Y-107875183D01*
X96521645Y-107446924D01*
X96691476Y-107036890D01*
X101428524Y-107036890D01*
X101598355Y-107446924D01*
X101988642Y-107875183D01*
X102513108Y-108121486D01*
X102743000Y-108000819D01*
X102743000Y-106807000D01*
X102997000Y-106807000D01*
X102997000Y-108000819D01*
X103226892Y-108121486D01*
X103751358Y-107875183D01*
X104141645Y-107446924D01*
X104311476Y-107036890D01*
X104190155Y-106807000D01*
X102997000Y-106807000D01*
X102743000Y-106807000D01*
X101549845Y-106807000D01*
X101428524Y-107036890D01*
X96691476Y-107036890D01*
X96570155Y-106807000D01*
X95377000Y-106807000D01*
X95123000Y-106807000D01*
X93929845Y-106807000D01*
X93808524Y-107036890D01*
X89071476Y-107036890D01*
X88950155Y-106807000D01*
X87757000Y-106807000D01*
X87503000Y-106807000D01*
X86309845Y-106807000D01*
X86188524Y-107036890D01*
X81451476Y-107036890D01*
X81330155Y-106807000D01*
X80137000Y-106807000D01*
X79883000Y-106807000D01*
X78689845Y-106807000D01*
X78568524Y-107036890D01*
X73831476Y-107036890D01*
X73710155Y-106807000D01*
X72517000Y-106807000D01*
X72263000Y-106807000D01*
X71069845Y-106807000D01*
X70948524Y-107036890D01*
X66211476Y-107036890D01*
X66090155Y-106807000D01*
X64897000Y-106807000D01*
X64643000Y-106807000D01*
X63449845Y-106807000D01*
X63328524Y-107036890D01*
X56769000Y-107036890D01*
X56769000Y-100330000D01*
X56701329Y-99989794D01*
X56674071Y-99949000D01*
X66941764Y-99949000D01*
X67056000Y-100063236D01*
X67056000Y-103136764D01*
X66941764Y-103251000D01*
X65956760Y-103251000D01*
X65849147Y-103089946D01*
X65807548Y-103062150D01*
X65855317Y-103053162D01*
X66071441Y-102914090D01*
X66216431Y-102701890D01*
X66267440Y-102450000D01*
X66267440Y-100750000D01*
X66223162Y-100514683D01*
X66084090Y-100298559D01*
X65871890Y-100153569D01*
X65620000Y-100102560D01*
X63920000Y-100102560D01*
X63684683Y-100146838D01*
X63468559Y-100285910D01*
X63323569Y-100498110D01*
X63272560Y-100750000D01*
X63272560Y-102450000D01*
X63316838Y-102685317D01*
X63455910Y-102901441D01*
X63668110Y-103046431D01*
X63735541Y-103060086D01*
X63690853Y-103089946D01*
X63368946Y-103571715D01*
X63255907Y-104140000D01*
X63368946Y-104708285D01*
X63690853Y-105190054D01*
X64031553Y-105417702D01*
X63888642Y-105484817D01*
X63498355Y-105913076D01*
X63328524Y-106323110D01*
X63449845Y-106553000D01*
X64643000Y-106553000D01*
X64643000Y-106533000D01*
X64897000Y-106533000D01*
X64897000Y-106553000D01*
X66090155Y-106553000D01*
X66211476Y-106323110D01*
X66041645Y-105913076D01*
X65651358Y-105484817D01*
X65508447Y-105417702D01*
X65849147Y-105190054D01*
X65956760Y-105029000D01*
X67310000Y-105029000D01*
X67650206Y-104961329D01*
X67938618Y-104768618D01*
X68573618Y-104133618D01*
X68580000Y-104124067D01*
X68586382Y-104133618D01*
X69221382Y-104768618D01*
X69509795Y-104961330D01*
X69850000Y-105029000D01*
X71203240Y-105029000D01*
X71310853Y-105190054D01*
X71651553Y-105417702D01*
X71508642Y-105484817D01*
X71118355Y-105913076D01*
X70948524Y-106323110D01*
X71069845Y-106553000D01*
X72263000Y-106553000D01*
X72263000Y-106533000D01*
X72517000Y-106533000D01*
X72517000Y-106553000D01*
X73710155Y-106553000D01*
X73831476Y-106323110D01*
X73661645Y-105913076D01*
X73271358Y-105484817D01*
X73128447Y-105417702D01*
X73469147Y-105190054D01*
X73791054Y-104708285D01*
X73904093Y-104140000D01*
X73791054Y-103571715D01*
X73469147Y-103089946D01*
X73427548Y-103062150D01*
X73475317Y-103053162D01*
X73691441Y-102914090D01*
X73836431Y-102701890D01*
X73887440Y-102450000D01*
X73887440Y-100750000D01*
X73843162Y-100514683D01*
X73704090Y-100298559D01*
X73660000Y-100268434D01*
X73660000Y-97790000D01*
X73588351Y-97429797D01*
X78512560Y-102354006D01*
X78512560Y-102450000D01*
X78556838Y-102685317D01*
X78695910Y-102901441D01*
X78908110Y-103046431D01*
X78975541Y-103060086D01*
X78930853Y-103089946D01*
X78608946Y-103571715D01*
X78495907Y-104140000D01*
X78608946Y-104708285D01*
X78930853Y-105190054D01*
X79271553Y-105417702D01*
X79128642Y-105484817D01*
X78738355Y-105913076D01*
X78568524Y-106323110D01*
X78689845Y-106553000D01*
X79883000Y-106553000D01*
X79883000Y-106533000D01*
X80137000Y-106533000D01*
X80137000Y-106553000D01*
X81330155Y-106553000D01*
X81451476Y-106323110D01*
X81281645Y-105913076D01*
X80891358Y-105484817D01*
X80748447Y-105417702D01*
X81089147Y-105190054D01*
X81411054Y-104708285D01*
X81524093Y-104140000D01*
X81411054Y-103571715D01*
X81089147Y-103089946D01*
X81047548Y-103062150D01*
X81095317Y-103053162D01*
X81311441Y-102914090D01*
X81456431Y-102701890D01*
X81507440Y-102450000D01*
X81507440Y-100750000D01*
X81463162Y-100514683D01*
X81324090Y-100298559D01*
X81111890Y-100153569D01*
X80860000Y-100102560D01*
X79494006Y-100102560D01*
X73533000Y-94141554D01*
X73533000Y-39294045D01*
X73659779Y-38988727D01*
X73660220Y-38483490D01*
X73467282Y-38016542D01*
X73110337Y-37658974D01*
X72643727Y-37465221D01*
X72138490Y-37464780D01*
X71671542Y-37657718D01*
X71313974Y-38014663D01*
X71188638Y-38316506D01*
X71035010Y-37944697D01*
X70642370Y-37551371D01*
X70129100Y-37338243D01*
X69573339Y-37337758D01*
X69059697Y-37549990D01*
X68666371Y-37942630D01*
X68453243Y-38455900D01*
X68452758Y-39011661D01*
X68580000Y-39319611D01*
X68580000Y-95249995D01*
X68579999Y-95250000D01*
X68658907Y-95646696D01*
X68580000Y-95631000D01*
X58788236Y-95631000D01*
X58674000Y-95516764D01*
X58674000Y-93907766D01*
X58681431Y-93896890D01*
X58732440Y-93645000D01*
X58732440Y-92095000D01*
X58688162Y-91859683D01*
X58549090Y-91643559D01*
X58336890Y-91498569D01*
X58085000Y-91447560D01*
X57485000Y-91447560D01*
X57249683Y-91491838D01*
X57150472Y-91555678D01*
X57066890Y-91498569D01*
X56815000Y-91447560D01*
X56215000Y-91447560D01*
X55979683Y-91491838D01*
X55880472Y-91555678D01*
X55796890Y-91498569D01*
X55545000Y-91447560D01*
X54945000Y-91447560D01*
X54709683Y-91491838D01*
X54619020Y-91550178D01*
X54401310Y-91460000D01*
X54260750Y-91460000D01*
X54102000Y-91618750D01*
X54102000Y-92743000D01*
X54122000Y-92743000D01*
X54122000Y-92997000D01*
X54102000Y-92997000D01*
X54102000Y-94121250D01*
X54260750Y-94280000D01*
X54356000Y-94280000D01*
X54356000Y-97548764D01*
X52324000Y-95516764D01*
X52324000Y-93155750D01*
X53040000Y-93155750D01*
X53040000Y-93771309D01*
X53136673Y-94004698D01*
X53315301Y-94183327D01*
X53548690Y-94280000D01*
X53689250Y-94280000D01*
X53848000Y-94121250D01*
X53848000Y-92997000D01*
X53198750Y-92997000D01*
X53040000Y-93155750D01*
X52324000Y-93155750D01*
X52324000Y-91968691D01*
X53040000Y-91968691D01*
X53040000Y-92584250D01*
X53198750Y-92743000D01*
X53848000Y-92743000D01*
X53848000Y-91618750D01*
X53689250Y-91460000D01*
X53548690Y-91460000D01*
X53315301Y-91556673D01*
X53136673Y-91735302D01*
X53040000Y-91968691D01*
X52324000Y-91968691D01*
X52324000Y-81645000D01*
X52477560Y-81645000D01*
X52477560Y-83645000D01*
X52521838Y-83880317D01*
X52660910Y-84096441D01*
X52873110Y-84241431D01*
X53086000Y-84284542D01*
X53086000Y-86432234D01*
X53078569Y-86443110D01*
X53027560Y-86695000D01*
X53027560Y-88245000D01*
X53071838Y-88480317D01*
X53210910Y-88696441D01*
X53423110Y-88841431D01*
X53675000Y-88892440D01*
X54275000Y-88892440D01*
X54510317Y-88848162D01*
X54600980Y-88789822D01*
X54818690Y-88880000D01*
X54959250Y-88880000D01*
X55118000Y-88721250D01*
X55118000Y-87597000D01*
X55372000Y-87597000D01*
X55372000Y-88721250D01*
X55530750Y-88880000D01*
X55671310Y-88880000D01*
X55880000Y-88793558D01*
X56088690Y-88880000D01*
X56229250Y-88880000D01*
X56388000Y-88721250D01*
X56388000Y-87597000D01*
X55372000Y-87597000D01*
X55118000Y-87597000D01*
X55098000Y-87597000D01*
X55098000Y-87343000D01*
X55118000Y-87343000D01*
X55118000Y-86218750D01*
X55372000Y-86218750D01*
X55372000Y-87343000D01*
X56388000Y-87343000D01*
X56388000Y-86218750D01*
X56229250Y-86060000D01*
X56088690Y-86060000D01*
X55880000Y-86146442D01*
X55671310Y-86060000D01*
X55530750Y-86060000D01*
X55372000Y-86218750D01*
X55118000Y-86218750D01*
X54959250Y-86060000D01*
X54864000Y-86060000D01*
X54864000Y-84285102D01*
X55060317Y-84248162D01*
X55276441Y-84109090D01*
X55421431Y-83896890D01*
X55472440Y-83645000D01*
X55472440Y-81645000D01*
X56287560Y-81645000D01*
X56287560Y-83645000D01*
X56331838Y-83880317D01*
X56470910Y-84096441D01*
X56683110Y-84241431D01*
X56896000Y-84284542D01*
X56896000Y-86060000D01*
X56800750Y-86060000D01*
X56642000Y-86218750D01*
X56642000Y-87343000D01*
X56662000Y-87343000D01*
X56662000Y-87597000D01*
X56642000Y-87597000D01*
X56642000Y-88721250D01*
X56800750Y-88880000D01*
X56941310Y-88880000D01*
X57158122Y-88790194D01*
X57233110Y-88841431D01*
X57485000Y-88892440D01*
X58085000Y-88892440D01*
X58320317Y-88848162D01*
X58536441Y-88709090D01*
X58681431Y-88496890D01*
X58732440Y-88245000D01*
X58732440Y-86695000D01*
X58688162Y-86459683D01*
X58674000Y-86437675D01*
X58674000Y-84285102D01*
X58870317Y-84248162D01*
X59086441Y-84109090D01*
X59231431Y-83896890D01*
X59282440Y-83645000D01*
X59282440Y-81645000D01*
X59238162Y-81409683D01*
X59099090Y-81193559D01*
X58886890Y-81048569D01*
X58635000Y-80997560D01*
X56935000Y-80997560D01*
X56699683Y-81041838D01*
X56483559Y-81180910D01*
X56338569Y-81393110D01*
X56287560Y-81645000D01*
X55472440Y-81645000D01*
X55428162Y-81409683D01*
X55289090Y-81193559D01*
X55076890Y-81048569D01*
X54825000Y-80997560D01*
X53125000Y-80997560D01*
X52889683Y-81041838D01*
X52673559Y-81180910D01*
X52528569Y-81393110D01*
X52477560Y-81645000D01*
X52324000Y-81645000D01*
X52324000Y-79743236D01*
X52438236Y-79629000D01*
X52477560Y-79629000D01*
X52477560Y-79645000D01*
X52521838Y-79880317D01*
X52660910Y-80096441D01*
X52873110Y-80241431D01*
X53125000Y-80292440D01*
X54825000Y-80292440D01*
X55060317Y-80248162D01*
X55276441Y-80109090D01*
X55421431Y-79896890D01*
X55472440Y-79645000D01*
X55472440Y-77645000D01*
X55428162Y-77409683D01*
X55289090Y-77193559D01*
X55136063Y-77089000D01*
X56626391Y-77089000D01*
X56483559Y-77180910D01*
X56338569Y-77393110D01*
X56287560Y-77645000D01*
X56287560Y-79645000D01*
X56331838Y-79880317D01*
X56470910Y-80096441D01*
X56683110Y-80241431D01*
X56935000Y-80292440D01*
X58635000Y-80292440D01*
X58870317Y-80248162D01*
X59086441Y-80109090D01*
X59231431Y-79896890D01*
X59282440Y-79645000D01*
X59282440Y-77645000D01*
X59238162Y-77409683D01*
X59099090Y-77193559D01*
X58886890Y-77048569D01*
X58674000Y-77005458D01*
X58674000Y-76835000D01*
X58631234Y-76620000D01*
X58606330Y-76494795D01*
X58413618Y-76206382D01*
X57778618Y-75571382D01*
X57737707Y-75544046D01*
X57490206Y-75378671D01*
X57150000Y-75311000D01*
X52438236Y-75311000D01*
X52324000Y-75196764D01*
X52324000Y-64770000D01*
X52290561Y-64601890D01*
X52256330Y-64429795D01*
X52063618Y-64141382D01*
X51428618Y-63506382D01*
X51399157Y-63486697D01*
X51140206Y-63313671D01*
X50800000Y-63246000D01*
X49622588Y-63246000D01*
X49543303Y-63166577D01*
X49123354Y-62992199D01*
X48668641Y-62991802D01*
X48461877Y-63077235D01*
X48504093Y-62865000D01*
X48391054Y-62296715D01*
X48069147Y-61814946D01*
X47739974Y-61595000D01*
X48069147Y-61375054D01*
X48391054Y-60893285D01*
X48504093Y-60325000D01*
X48391054Y-59756715D01*
X48069147Y-59274946D01*
X47739974Y-59055000D01*
X48069147Y-58835054D01*
X48391054Y-58353285D01*
X48504093Y-57785000D01*
X48391054Y-57216715D01*
X48069147Y-56734946D01*
X47739974Y-56515000D01*
X48069147Y-56295054D01*
X48391054Y-55813285D01*
X48504093Y-55245000D01*
X48391054Y-54676715D01*
X48069147Y-54194946D01*
X47739974Y-53975000D01*
X48069147Y-53755054D01*
X48391054Y-53273285D01*
X48504093Y-52705000D01*
X48391054Y-52136715D01*
X48069147Y-51654946D01*
X47739974Y-51435000D01*
X48069147Y-51215054D01*
X48391054Y-50733285D01*
X48504093Y-50165000D01*
X48391054Y-49596715D01*
X48069147Y-49114946D01*
X47739974Y-48895000D01*
X48069147Y-48675054D01*
X48391054Y-48193285D01*
X48504093Y-47625000D01*
X48391054Y-47056715D01*
X48069147Y-46574946D01*
X47739974Y-46355000D01*
X48069147Y-46135054D01*
X48176760Y-45974000D01*
X48260000Y-45974000D01*
X48600206Y-45906329D01*
X48888618Y-45713618D01*
X49523618Y-45078618D01*
X49716330Y-44790205D01*
X49784000Y-44450000D01*
X49784000Y-36563236D01*
X49898236Y-36449000D01*
X88531764Y-36449000D01*
X88646000Y-36563236D01*
X88646000Y-85090000D01*
X88713671Y-85430206D01*
X88906382Y-85718618D01*
X89916000Y-86728236D01*
X89916000Y-103136764D01*
X89801764Y-103251000D01*
X88816760Y-103251000D01*
X88709147Y-103089946D01*
X88667548Y-103062150D01*
X88715317Y-103053162D01*
X88931441Y-102914090D01*
X89076431Y-102701890D01*
X89127440Y-102450000D01*
X89127440Y-100750000D01*
X89083162Y-100514683D01*
X88944090Y-100298559D01*
X88731890Y-100153569D01*
X88480000Y-100102560D01*
X86780000Y-100102560D01*
X86544683Y-100146838D01*
X86328559Y-100285910D01*
X86183569Y-100498110D01*
X86132560Y-100750000D01*
X86132560Y-102450000D01*
X86176838Y-102685317D01*
X86315910Y-102901441D01*
X86528110Y-103046431D01*
X86595541Y-103060086D01*
X86550853Y-103089946D01*
X86228946Y-103571715D01*
X86115907Y-104140000D01*
X86228946Y-104708285D01*
X86550853Y-105190054D01*
X86891553Y-105417702D01*
X86748642Y-105484817D01*
X86358355Y-105913076D01*
X86188524Y-106323110D01*
X86309845Y-106553000D01*
X87503000Y-106553000D01*
X87503000Y-106533000D01*
X87757000Y-106533000D01*
X87757000Y-106553000D01*
X88950155Y-106553000D01*
X89071476Y-106323110D01*
X88901645Y-105913076D01*
X88511358Y-105484817D01*
X88368447Y-105417702D01*
X88709147Y-105190054D01*
X88816760Y-105029000D01*
X90170000Y-105029000D01*
X90510206Y-104961329D01*
X90798618Y-104768618D01*
X91433618Y-104133618D01*
X91440000Y-104124067D01*
X91446382Y-104133618D01*
X92081382Y-104768618D01*
X92369795Y-104961330D01*
X92710000Y-105029000D01*
X94063240Y-105029000D01*
X94170853Y-105190054D01*
X94511553Y-105417702D01*
X94368642Y-105484817D01*
X93978355Y-105913076D01*
X93808524Y-106323110D01*
X93929845Y-106553000D01*
X95123000Y-106553000D01*
X95123000Y-106533000D01*
X95377000Y-106533000D01*
X95377000Y-106553000D01*
X96570155Y-106553000D01*
X96691476Y-106323110D01*
X96521645Y-105913076D01*
X96131358Y-105484817D01*
X95988447Y-105417702D01*
X96329147Y-105190054D01*
X96651054Y-104708285D01*
X96764093Y-104140000D01*
X96651054Y-103571715D01*
X96329147Y-103089946D01*
X96287548Y-103062150D01*
X96335317Y-103053162D01*
X96551441Y-102914090D01*
X96668342Y-102743000D01*
X101453956Y-102743000D01*
X101555910Y-102901441D01*
X101768110Y-103046431D01*
X101835541Y-103060086D01*
X101790853Y-103089946D01*
X101468946Y-103571715D01*
X101355907Y-104140000D01*
X101468946Y-104708285D01*
X101790853Y-105190054D01*
X102131553Y-105417702D01*
X101988642Y-105484817D01*
X101598355Y-105913076D01*
X101428524Y-106323110D01*
X101549845Y-106553000D01*
X102743000Y-106553000D01*
X102743000Y-106533000D01*
X102997000Y-106533000D01*
X102997000Y-106553000D01*
X104190155Y-106553000D01*
X104311476Y-106323110D01*
X104141645Y-105913076D01*
X103751358Y-105484817D01*
X103608447Y-105417702D01*
X103949147Y-105190054D01*
X104271054Y-104708285D01*
X104384093Y-104140000D01*
X104271054Y-103571715D01*
X103949147Y-103089946D01*
X103907548Y-103062150D01*
X103955317Y-103053162D01*
X104171441Y-102914090D01*
X104288342Y-102743000D01*
X115697000Y-102743000D01*
X115697000Y-107803956D01*
X115538559Y-107905910D01*
X115393569Y-108118110D01*
X115342560Y-108370000D01*
X115342560Y-110070000D01*
X115386838Y-110305317D01*
X115525910Y-110521441D01*
X115738110Y-110666431D01*
X115990000Y-110717440D01*
X117690000Y-110717440D01*
X117925317Y-110673162D01*
X118141441Y-110534090D01*
X118286431Y-110321890D01*
X118300086Y-110254459D01*
X118329946Y-110299147D01*
X118811715Y-110621054D01*
X119380000Y-110734093D01*
X119948285Y-110621054D01*
X120430054Y-110299147D01*
X120657702Y-109958447D01*
X120724817Y-110101358D01*
X121153076Y-110491645D01*
X121563110Y-110661476D01*
X121793000Y-110540155D01*
X121793000Y-109347000D01*
X121773000Y-109347000D01*
X121773000Y-109093000D01*
X121793000Y-109093000D01*
X121793000Y-107899845D01*
X121563110Y-107778524D01*
X121153076Y-107948355D01*
X120724817Y-108338642D01*
X120657702Y-108481553D01*
X120430054Y-108140853D01*
X119948285Y-107818946D01*
X119380000Y-107705907D01*
X118811715Y-107818946D01*
X118329946Y-108140853D01*
X118302150Y-108182452D01*
X118293162Y-108134683D01*
X118154090Y-107918559D01*
X117983000Y-107801658D01*
X117983000Y-107188000D01*
X136017000Y-107188000D01*
X136017000Y-107803956D01*
X135858559Y-107905910D01*
X135713569Y-108118110D01*
X135662560Y-108370000D01*
X135662560Y-110070000D01*
X135706838Y-110305317D01*
X135845910Y-110521441D01*
X136058110Y-110666431D01*
X136310000Y-110717440D01*
X138010000Y-110717440D01*
X138245317Y-110673162D01*
X138461441Y-110534090D01*
X138606431Y-110321890D01*
X138628301Y-110213893D01*
X138933076Y-110491645D01*
X139343110Y-110661476D01*
X139573000Y-110540155D01*
X139573000Y-109347000D01*
X139553000Y-109347000D01*
X139553000Y-109093000D01*
X139573000Y-109093000D01*
X139573000Y-107899845D01*
X139827000Y-107899845D01*
X139827000Y-109093000D01*
X139847000Y-109093000D01*
X139847000Y-109347000D01*
X139827000Y-109347000D01*
X139827000Y-110540155D01*
X140056890Y-110661476D01*
X140466924Y-110491645D01*
X140895183Y-110101358D01*
X140962298Y-109958447D01*
X141189946Y-110299147D01*
X141671715Y-110621054D01*
X142240000Y-110734093D01*
X142808285Y-110621054D01*
X143290054Y-110299147D01*
X143510000Y-109969974D01*
X143729946Y-110299147D01*
X144211715Y-110621054D01*
X144780000Y-110734093D01*
X145348285Y-110621054D01*
X145830054Y-110299147D01*
X146050000Y-109969974D01*
X146269946Y-110299147D01*
X146751715Y-110621054D01*
X147320000Y-110734093D01*
X147888285Y-110621054D01*
X148370054Y-110299147D01*
X148691961Y-109817378D01*
X148805000Y-109249093D01*
X148805000Y-109190907D01*
X148691961Y-108622622D01*
X148370054Y-108140853D01*
X147888285Y-107818946D01*
X147320000Y-107705907D01*
X146751715Y-107818946D01*
X146269946Y-108140853D01*
X146050000Y-108470026D01*
X145830054Y-108140853D01*
X145348285Y-107818946D01*
X144780000Y-107705907D01*
X144211715Y-107818946D01*
X143729946Y-108140853D01*
X143510000Y-108470026D01*
X143290054Y-108140853D01*
X142808285Y-107818946D01*
X142240000Y-107705907D01*
X141671715Y-107818946D01*
X141189946Y-108140853D01*
X140962298Y-108481553D01*
X140895183Y-108338642D01*
X140466924Y-107948355D01*
X140056890Y-107778524D01*
X139827000Y-107899845D01*
X139573000Y-107899845D01*
X139343110Y-107778524D01*
X138933076Y-107948355D01*
X138630063Y-108224501D01*
X138613162Y-108134683D01*
X138474090Y-107918559D01*
X138303000Y-107801658D01*
X138303000Y-107188000D01*
X155736554Y-107188000D01*
X156337000Y-107788446D01*
X156337000Y-108047405D01*
X156254090Y-107918559D01*
X156041890Y-107773569D01*
X155790000Y-107722560D01*
X154090000Y-107722560D01*
X153854683Y-107766838D01*
X153638559Y-107905910D01*
X153493569Y-108118110D01*
X153442560Y-108370000D01*
X153442560Y-110070000D01*
X153486838Y-110305317D01*
X153625910Y-110521441D01*
X153838110Y-110666431D01*
X154090000Y-110717440D01*
X155790000Y-110717440D01*
X156025317Y-110673162D01*
X156241441Y-110534090D01*
X156386431Y-110321890D01*
X156400086Y-110254459D01*
X156429946Y-110299147D01*
X156911715Y-110621054D01*
X157480000Y-110734093D01*
X158048285Y-110621054D01*
X158530054Y-110299147D01*
X158757702Y-109958447D01*
X158824817Y-110101358D01*
X159253076Y-110491645D01*
X159663110Y-110661476D01*
X159893000Y-110540155D01*
X159893000Y-109347000D01*
X159873000Y-109347000D01*
X159873000Y-109093000D01*
X159893000Y-109093000D01*
X159893000Y-107899845D01*
X160147000Y-107899845D01*
X160147000Y-109093000D01*
X160167000Y-109093000D01*
X160167000Y-109347000D01*
X160147000Y-109347000D01*
X160147000Y-110540155D01*
X160376890Y-110661476D01*
X160786924Y-110491645D01*
X161215183Y-110101358D01*
X161282298Y-109958447D01*
X161509946Y-110299147D01*
X161991715Y-110621054D01*
X162560000Y-110734093D01*
X163128285Y-110621054D01*
X163610054Y-110299147D01*
X163830000Y-109969974D01*
X164049946Y-110299147D01*
X164531715Y-110621054D01*
X165100000Y-110734093D01*
X165668285Y-110621054D01*
X166150054Y-110299147D01*
X166370000Y-109969974D01*
X166589946Y-110299147D01*
X167071715Y-110621054D01*
X167640000Y-110734093D01*
X168208285Y-110621054D01*
X168690054Y-110299147D01*
X168910000Y-109969974D01*
X169129946Y-110299147D01*
X169611715Y-110621054D01*
X170180000Y-110734093D01*
X170748285Y-110621054D01*
X171230054Y-110299147D01*
X171551961Y-109817378D01*
X171665000Y-109249093D01*
X171665000Y-109190907D01*
X171551961Y-108622622D01*
X171230054Y-108140853D01*
X170748285Y-107818946D01*
X170180000Y-107705907D01*
X169611715Y-107818946D01*
X169129946Y-108140853D01*
X168910000Y-108470026D01*
X168690054Y-108140853D01*
X168208285Y-107818946D01*
X167640000Y-107705907D01*
X167071715Y-107818946D01*
X166589946Y-108140853D01*
X166370000Y-108470026D01*
X166150054Y-108140853D01*
X165668285Y-107818946D01*
X165100000Y-107705907D01*
X164531715Y-107818946D01*
X164049946Y-108140853D01*
X163830000Y-108470026D01*
X163610054Y-108140853D01*
X163128285Y-107818946D01*
X162560000Y-107705907D01*
X161991715Y-107818946D01*
X161509946Y-108140853D01*
X161282298Y-108481553D01*
X161215183Y-108338642D01*
X160786924Y-107948355D01*
X160376890Y-107778524D01*
X160147000Y-107899845D01*
X159893000Y-107899845D01*
X159663110Y-107778524D01*
X159253076Y-107948355D01*
X158824817Y-108338642D01*
X158757702Y-108481553D01*
X158623000Y-108279957D01*
X158623000Y-107315000D01*
X158535994Y-106877593D01*
X158288223Y-106506777D01*
X157018223Y-105236777D01*
X156647407Y-104989006D01*
X156210000Y-104902000D01*
X117983000Y-104902000D01*
X117983000Y-102235000D01*
X117895994Y-101797593D01*
X117648223Y-101426777D01*
X117013223Y-100791777D01*
X116642407Y-100544006D01*
X116205000Y-100457000D01*
X112363000Y-100457000D01*
X112363000Y-99622325D01*
X118564587Y-99622325D01*
X118926916Y-100499229D01*
X119597242Y-101170726D01*
X120473513Y-101534585D01*
X121422325Y-101535413D01*
X122299229Y-101173084D01*
X122970726Y-100502758D01*
X123334585Y-99626487D01*
X123335413Y-98677675D01*
X122973084Y-97800771D01*
X122302758Y-97129274D01*
X121426487Y-96765415D01*
X120477675Y-96764587D01*
X119600771Y-97126916D01*
X118929274Y-97797242D01*
X118565415Y-98673513D01*
X118564587Y-99622325D01*
X112363000Y-99622325D01*
X112363000Y-82750533D01*
X112455317Y-82733162D01*
X112671441Y-82594090D01*
X112816431Y-82381890D01*
X112867440Y-82130000D01*
X112867440Y-80430000D01*
X112823162Y-80194683D01*
X112684090Y-79978559D01*
X112471890Y-79833569D01*
X112363000Y-79811518D01*
X112363000Y-78940533D01*
X112455317Y-78923162D01*
X112671441Y-78784090D01*
X112816431Y-78571890D01*
X112867440Y-78320000D01*
X112867440Y-76620000D01*
X112823162Y-76384683D01*
X112684090Y-76168559D01*
X112471890Y-76023569D01*
X112363000Y-76001518D01*
X112363000Y-75130533D01*
X112455317Y-75113162D01*
X112671441Y-74974090D01*
X112816431Y-74761890D01*
X112867440Y-74510000D01*
X112867440Y-72810000D01*
X112823162Y-72574683D01*
X112684090Y-72358559D01*
X112471890Y-72213569D01*
X112363000Y-72191518D01*
X112363000Y-64970533D01*
X112455317Y-64953162D01*
X112671441Y-64814090D01*
X112816431Y-64601890D01*
X112867440Y-64350000D01*
X112867440Y-62650000D01*
X112823162Y-62414683D01*
X112684090Y-62198559D01*
X112471890Y-62053569D01*
X112363000Y-62031518D01*
X112363000Y-61160533D01*
X112455317Y-61143162D01*
X112671441Y-61004090D01*
X112816431Y-60791890D01*
X112867440Y-60540000D01*
X112867440Y-58840000D01*
X112823162Y-58604683D01*
X112684090Y-58388559D01*
X112471890Y-58243569D01*
X112363000Y-58221518D01*
X112363000Y-57350533D01*
X112455317Y-57333162D01*
X112671441Y-57194090D01*
X112816431Y-56981890D01*
X112867440Y-56730000D01*
X112867440Y-55030000D01*
X112823162Y-54794683D01*
X112684090Y-54578559D01*
X112471890Y-54433569D01*
X112363000Y-54411518D01*
X112363000Y-50622325D01*
X118564587Y-50622325D01*
X118926916Y-51499229D01*
X119597242Y-52170726D01*
X120473513Y-52534585D01*
X121422325Y-52535413D01*
X122299229Y-52173084D01*
X122970726Y-51502758D01*
X123334585Y-50626487D01*
X123335413Y-49677675D01*
X122973084Y-48800771D01*
X122302758Y-48129274D01*
X121426487Y-47765415D01*
X120477675Y-47764587D01*
X119600771Y-48126916D01*
X118929274Y-48797242D01*
X118565415Y-49673513D01*
X118564587Y-50622325D01*
X112363000Y-50622325D01*
X112363000Y-47190533D01*
X112455317Y-47173162D01*
X112671441Y-47034090D01*
X112816431Y-46821890D01*
X112867440Y-46570000D01*
X112867440Y-46228000D01*
X139065000Y-46228000D01*
X139502407Y-46140994D01*
X139873223Y-45893223D01*
X142366808Y-43399638D01*
X142366802Y-43406359D01*
X142540446Y-43826612D01*
X142621000Y-43907306D01*
X142621000Y-47746456D01*
X142536146Y-47803153D01*
X142308498Y-48143853D01*
X142241383Y-48000942D01*
X141813124Y-47610655D01*
X141403090Y-47440824D01*
X141173200Y-47562145D01*
X141173200Y-48755300D01*
X141193200Y-48755300D01*
X141193200Y-49009300D01*
X141173200Y-49009300D01*
X141173200Y-49029300D01*
X140919200Y-49029300D01*
X140919200Y-49009300D01*
X140899200Y-49009300D01*
X140899200Y-48755300D01*
X140919200Y-48755300D01*
X140919200Y-47562145D01*
X140689310Y-47440824D01*
X140279276Y-47610655D01*
X139851017Y-48000942D01*
X139783902Y-48143853D01*
X139556254Y-47803153D01*
X139074485Y-47481246D01*
X138506200Y-47368207D01*
X137937915Y-47481246D01*
X137456146Y-47803153D01*
X137236200Y-48132326D01*
X137016254Y-47803153D01*
X136534485Y-47481246D01*
X135966200Y-47368207D01*
X135397915Y-47481246D01*
X134916146Y-47803153D01*
X134696200Y-48132326D01*
X134476254Y-47803153D01*
X133994485Y-47481246D01*
X133426200Y-47368207D01*
X132857915Y-47481246D01*
X132376146Y-47803153D01*
X132148498Y-48143853D01*
X132081383Y-48000942D01*
X131653124Y-47610655D01*
X131243090Y-47440824D01*
X131013200Y-47562145D01*
X131013200Y-48755300D01*
X131033200Y-48755300D01*
X131033200Y-49009300D01*
X131013200Y-49009300D01*
X131013200Y-49029300D01*
X130759200Y-49029300D01*
X130759200Y-49009300D01*
X130739200Y-49009300D01*
X130739200Y-48755300D01*
X130759200Y-48755300D01*
X130759200Y-47562145D01*
X130529310Y-47440824D01*
X130119276Y-47610655D01*
X129691017Y-48000942D01*
X129623902Y-48143853D01*
X129396254Y-47803153D01*
X128914485Y-47481246D01*
X128346200Y-47368207D01*
X127777915Y-47481246D01*
X127296146Y-47803153D01*
X127076200Y-48132326D01*
X126856254Y-47803153D01*
X126374485Y-47481246D01*
X125806200Y-47368207D01*
X125237915Y-47481246D01*
X124756146Y-47803153D01*
X124434239Y-48284922D01*
X124321200Y-48853207D01*
X124321200Y-48911393D01*
X124434239Y-49479678D01*
X124756146Y-49961447D01*
X124757379Y-49962271D01*
X124720883Y-49969138D01*
X124504759Y-50108210D01*
X124359769Y-50320410D01*
X124308760Y-50572300D01*
X124308760Y-52272300D01*
X124353038Y-52507617D01*
X124492110Y-52723741D01*
X124704310Y-52868731D01*
X124956200Y-52919740D01*
X126656200Y-52919740D01*
X126891517Y-52875462D01*
X127107641Y-52736390D01*
X127252631Y-52524190D01*
X127266286Y-52456759D01*
X127296146Y-52501447D01*
X127777915Y-52823354D01*
X128346200Y-52936393D01*
X128914485Y-52823354D01*
X129396254Y-52501447D01*
X129616200Y-52172274D01*
X129836146Y-52501447D01*
X130317915Y-52823354D01*
X130886200Y-52936393D01*
X131454485Y-52823354D01*
X131936254Y-52501447D01*
X132156200Y-52172274D01*
X132376146Y-52501447D01*
X132857915Y-52823354D01*
X133426200Y-52936393D01*
X133994485Y-52823354D01*
X134476254Y-52501447D01*
X134703902Y-52160747D01*
X134771017Y-52303658D01*
X135199276Y-52693945D01*
X135609310Y-52863776D01*
X135839200Y-52742455D01*
X135839200Y-51549300D01*
X135819200Y-51549300D01*
X135819200Y-51295300D01*
X135839200Y-51295300D01*
X135839200Y-51275300D01*
X136093200Y-51275300D01*
X136093200Y-51295300D01*
X136113200Y-51295300D01*
X136113200Y-51549300D01*
X136093200Y-51549300D01*
X136093200Y-52742455D01*
X136323090Y-52863776D01*
X136733124Y-52693945D01*
X137161383Y-52303658D01*
X137228498Y-52160747D01*
X137456146Y-52501447D01*
X137937915Y-52823354D01*
X138506200Y-52936393D01*
X139074485Y-52823354D01*
X139556254Y-52501447D01*
X139776200Y-52172274D01*
X139996146Y-52501447D01*
X140477915Y-52823354D01*
X141046200Y-52936393D01*
X141614485Y-52823354D01*
X142096254Y-52501447D01*
X142316200Y-52172274D01*
X142536146Y-52501447D01*
X143017915Y-52823354D01*
X143586200Y-52936393D01*
X144154485Y-52823354D01*
X144636254Y-52501447D01*
X144856200Y-52172274D01*
X145076146Y-52501447D01*
X145557915Y-52823354D01*
X146126200Y-52936393D01*
X146694485Y-52823354D01*
X147176254Y-52501447D01*
X147396200Y-52172274D01*
X147616146Y-52501447D01*
X148097915Y-52823354D01*
X148666200Y-52936393D01*
X149234485Y-52823354D01*
X149716254Y-52501447D01*
X149936200Y-52172274D01*
X150156146Y-52501447D01*
X150637915Y-52823354D01*
X151206200Y-52936393D01*
X151774485Y-52823354D01*
X152256254Y-52501447D01*
X152476200Y-52172274D01*
X152696146Y-52501447D01*
X153177915Y-52823354D01*
X153746200Y-52936393D01*
X154314485Y-52823354D01*
X154796254Y-52501447D01*
X155023902Y-52160747D01*
X155091017Y-52303658D01*
X155519276Y-52693945D01*
X155929310Y-52863776D01*
X156159200Y-52742455D01*
X156159200Y-51549300D01*
X156139200Y-51549300D01*
X156139200Y-51295300D01*
X156159200Y-51295300D01*
X156159200Y-51275300D01*
X156413200Y-51275300D01*
X156413200Y-51295300D01*
X156433200Y-51295300D01*
X156433200Y-51549300D01*
X156413200Y-51549300D01*
X156413200Y-52742455D01*
X156643090Y-52863776D01*
X157053124Y-52693945D01*
X157481383Y-52303658D01*
X157548498Y-52160747D01*
X157776146Y-52501447D01*
X158257915Y-52823354D01*
X158826200Y-52936393D01*
X159394485Y-52823354D01*
X159876254Y-52501447D01*
X160096200Y-52172274D01*
X160316146Y-52501447D01*
X160797915Y-52823354D01*
X161366200Y-52936393D01*
X161934485Y-52823354D01*
X162416254Y-52501447D01*
X162636200Y-52172274D01*
X162856146Y-52501447D01*
X163337915Y-52823354D01*
X163906200Y-52936393D01*
X164474485Y-52823354D01*
X164956254Y-52501447D01*
X165176200Y-52172274D01*
X165396146Y-52501447D01*
X165877915Y-52823354D01*
X166446200Y-52936393D01*
X167014485Y-52823354D01*
X167496254Y-52501447D01*
X167716200Y-52172274D01*
X167936146Y-52501447D01*
X168417915Y-52823354D01*
X168986200Y-52936393D01*
X169554485Y-52823354D01*
X170036254Y-52501447D01*
X170256200Y-52172274D01*
X170476146Y-52501447D01*
X170957915Y-52823354D01*
X171526200Y-52936393D01*
X172094485Y-52823354D01*
X172576254Y-52501447D01*
X172803902Y-52160747D01*
X172871017Y-52303658D01*
X173299276Y-52693945D01*
X173709310Y-52863776D01*
X173939200Y-52742455D01*
X173939200Y-51549300D01*
X174193200Y-51549300D01*
X174193200Y-52742455D01*
X174423090Y-52863776D01*
X174833124Y-52693945D01*
X175261383Y-52303658D01*
X175507686Y-51779192D01*
X175387019Y-51549300D01*
X174193200Y-51549300D01*
X173939200Y-51549300D01*
X173919200Y-51549300D01*
X173919200Y-51295300D01*
X173939200Y-51295300D01*
X173939200Y-51275300D01*
X174193200Y-51275300D01*
X174193200Y-51295300D01*
X175387019Y-51295300D01*
X175507686Y-51065408D01*
X175299603Y-50622325D01*
X176564587Y-50622325D01*
X176926916Y-51499229D01*
X177597242Y-52170726D01*
X178473513Y-52534585D01*
X179422325Y-52535413D01*
X180299229Y-52173084D01*
X180970726Y-51502758D01*
X181334585Y-50626487D01*
X181335413Y-49677675D01*
X180973084Y-48800771D01*
X180302758Y-48129274D01*
X179426487Y-47765415D01*
X178477675Y-47764587D01*
X177600771Y-48126916D01*
X176929274Y-48797242D01*
X176565415Y-49673513D01*
X176564587Y-50622325D01*
X175299603Y-50622325D01*
X175261383Y-50540942D01*
X174833124Y-50150655D01*
X174833099Y-50150645D01*
X175116254Y-49961447D01*
X175438161Y-49479678D01*
X175551200Y-48911393D01*
X175551200Y-48853207D01*
X175438161Y-48284922D01*
X175116254Y-47803153D01*
X174634485Y-47481246D01*
X174066200Y-47368207D01*
X173497915Y-47481246D01*
X173016146Y-47803153D01*
X172788498Y-48143853D01*
X172721383Y-48000942D01*
X172293124Y-47610655D01*
X171883090Y-47440824D01*
X171653200Y-47562145D01*
X171653200Y-48755300D01*
X171673200Y-48755300D01*
X171673200Y-49009300D01*
X171653200Y-49009300D01*
X171653200Y-49029300D01*
X171399200Y-49029300D01*
X171399200Y-49009300D01*
X171379200Y-49009300D01*
X171379200Y-48755300D01*
X171399200Y-48755300D01*
X171399200Y-47562145D01*
X171169310Y-47440824D01*
X170759276Y-47610655D01*
X170331017Y-48000942D01*
X170263902Y-48143853D01*
X170036254Y-47803153D01*
X169554485Y-47481246D01*
X168986200Y-47368207D01*
X168417915Y-47481246D01*
X167936146Y-47803153D01*
X167708498Y-48143853D01*
X167641383Y-48000942D01*
X167213124Y-47610655D01*
X166803090Y-47440824D01*
X166573200Y-47562145D01*
X166573200Y-48755300D01*
X166593200Y-48755300D01*
X166593200Y-49009300D01*
X166573200Y-49009300D01*
X166573200Y-49029300D01*
X166319200Y-49029300D01*
X166319200Y-49009300D01*
X166299200Y-49009300D01*
X166299200Y-48755300D01*
X166319200Y-48755300D01*
X166319200Y-47562145D01*
X166089310Y-47440824D01*
X165679276Y-47610655D01*
X165251017Y-48000942D01*
X165183902Y-48143853D01*
X164956254Y-47803153D01*
X164474485Y-47481246D01*
X163906200Y-47368207D01*
X163337915Y-47481246D01*
X162856146Y-47803153D01*
X162636200Y-48132326D01*
X162416254Y-47803153D01*
X161934485Y-47481246D01*
X161366200Y-47368207D01*
X160797915Y-47481246D01*
X160316146Y-47803153D01*
X160096200Y-48132326D01*
X159876254Y-47803153D01*
X159394485Y-47481246D01*
X158826200Y-47368207D01*
X158257915Y-47481246D01*
X157776146Y-47803153D01*
X157556200Y-48132326D01*
X157336254Y-47803153D01*
X156854485Y-47481246D01*
X156286200Y-47368207D01*
X155717915Y-47481246D01*
X155236146Y-47803153D01*
X155016200Y-48132326D01*
X154796254Y-47803153D01*
X154314485Y-47481246D01*
X153746200Y-47368207D01*
X153177915Y-47481246D01*
X152696146Y-47803153D01*
X152476200Y-48132326D01*
X152256254Y-47803153D01*
X151774485Y-47481246D01*
X151206200Y-47368207D01*
X150637915Y-47481246D01*
X150156146Y-47803153D01*
X149928498Y-48143853D01*
X149861383Y-48000942D01*
X149433124Y-47610655D01*
X149023090Y-47440824D01*
X148793200Y-47562145D01*
X148793200Y-48755300D01*
X148813200Y-48755300D01*
X148813200Y-49009300D01*
X148793200Y-49009300D01*
X148793200Y-49029300D01*
X148539200Y-49029300D01*
X148539200Y-49009300D01*
X148519200Y-49009300D01*
X148519200Y-48755300D01*
X148539200Y-48755300D01*
X148539200Y-47562145D01*
X148309310Y-47440824D01*
X147899276Y-47610655D01*
X147471017Y-48000942D01*
X147403902Y-48143853D01*
X147176254Y-47803153D01*
X146694485Y-47481246D01*
X146126200Y-47368207D01*
X145557915Y-47481246D01*
X145076146Y-47803153D01*
X144856200Y-48132326D01*
X144636254Y-47803153D01*
X144399000Y-47644625D01*
X144399000Y-43907588D01*
X144478423Y-43828303D01*
X144652801Y-43408354D01*
X144653198Y-42953641D01*
X144479554Y-42533388D01*
X144158303Y-42211577D01*
X143738354Y-42037199D01*
X143729255Y-42037191D01*
X143983446Y-41783000D01*
X146050000Y-41783000D01*
X146487407Y-41695994D01*
X146858223Y-41448223D01*
X148128223Y-40178223D01*
X148375994Y-39807407D01*
X148463000Y-39370000D01*
X148463000Y-38882595D01*
X148545910Y-39011441D01*
X148590000Y-39041566D01*
X148590000Y-40519995D01*
X148589999Y-40520000D01*
X148686673Y-41006008D01*
X148961974Y-41418026D01*
X149021972Y-41478023D01*
X149021974Y-41478026D01*
X149348187Y-41695994D01*
X149433992Y-41753327D01*
X149920000Y-41850001D01*
X149920005Y-41850000D01*
X163674179Y-41850000D01*
X163706916Y-41929229D01*
X164377242Y-42600726D01*
X165253513Y-42964585D01*
X166202325Y-42965413D01*
X167079229Y-42603084D01*
X167750726Y-41932758D01*
X168114585Y-41056487D01*
X168115413Y-40107675D01*
X167753084Y-39230771D01*
X167082758Y-38559274D01*
X166206487Y-38195415D01*
X165257675Y-38194587D01*
X164380771Y-38556916D01*
X163709274Y-39227242D01*
X163674910Y-39310000D01*
X151130000Y-39310000D01*
X151130000Y-39044322D01*
X151161441Y-39024090D01*
X151306431Y-38811890D01*
X151357440Y-38560000D01*
X151357440Y-36560000D01*
X151336554Y-36449000D01*
X152830038Y-36449000D01*
X152807560Y-36560000D01*
X152807560Y-38560000D01*
X152851838Y-38795317D01*
X152990910Y-39011441D01*
X153203110Y-39156431D01*
X153455000Y-39207440D01*
X155155000Y-39207440D01*
X155390317Y-39163162D01*
X155606441Y-39024090D01*
X155751431Y-38811890D01*
X155802440Y-38560000D01*
X155802440Y-36560000D01*
X155758162Y-36324683D01*
X155619090Y-36108559D01*
X155406890Y-35963569D01*
X155155000Y-35912560D01*
X155137820Y-35912560D01*
X155126330Y-35854795D01*
X154933618Y-35566382D01*
X154574676Y-35207440D01*
X155155000Y-35207440D01*
X155390317Y-35163162D01*
X155606441Y-35024090D01*
X155751431Y-34811890D01*
X155758996Y-34774528D01*
X176715077Y-34774528D01*
X176905364Y-35119271D01*
X177786591Y-35470956D01*
X178735323Y-35458641D01*
X179554636Y-35119271D01*
X179744923Y-34774528D01*
X178230000Y-33259605D01*
X176715077Y-34774528D01*
X155758996Y-34774528D01*
X155802440Y-34560000D01*
X155802440Y-34449000D01*
X156305000Y-34449000D01*
X156645206Y-34381329D01*
X156933618Y-34188618D01*
X157473618Y-33648618D01*
X157666329Y-33360206D01*
X157734000Y-33020000D01*
X157734000Y-32636591D01*
X175839044Y-32636591D01*
X175851359Y-33585323D01*
X176190729Y-34404636D01*
X176535472Y-34594923D01*
X178050395Y-33080000D01*
X178409605Y-33080000D01*
X179924528Y-34594923D01*
X180269271Y-34404636D01*
X180620956Y-33523409D01*
X180608641Y-32574677D01*
X180269271Y-31755364D01*
X179924528Y-31565077D01*
X178409605Y-33080000D01*
X178050395Y-33080000D01*
X176535472Y-31565077D01*
X176190729Y-31755364D01*
X175839044Y-32636591D01*
X157734000Y-32636591D01*
X157734000Y-31385472D01*
X176715077Y-31385472D01*
X178230000Y-32900395D01*
X179744923Y-31385472D01*
X179554636Y-31040729D01*
X178673409Y-30689044D01*
X177724677Y-30701359D01*
X176905364Y-31040729D01*
X176715077Y-31385472D01*
X157734000Y-31385472D01*
X157734000Y-26955750D01*
X158485000Y-26955750D01*
X158485000Y-27696309D01*
X158581673Y-27929698D01*
X158760301Y-28108327D01*
X158993690Y-28205000D01*
X159734250Y-28205000D01*
X159893000Y-28046250D01*
X159893000Y-26797000D01*
X160147000Y-26797000D01*
X160147000Y-28046250D01*
X160305750Y-28205000D01*
X161046310Y-28205000D01*
X161279699Y-28108327D01*
X161458327Y-27929698D01*
X161555000Y-27696309D01*
X161555000Y-26955750D01*
X161396250Y-26797000D01*
X160147000Y-26797000D01*
X159893000Y-26797000D01*
X158643750Y-26797000D01*
X158485000Y-26955750D01*
X157734000Y-26955750D01*
X157734000Y-25133236D01*
X157848236Y-25019000D01*
X158738525Y-25019000D01*
X158895092Y-25175841D01*
X158760301Y-25231673D01*
X158581673Y-25410302D01*
X158485000Y-25643691D01*
X158485000Y-26384250D01*
X158643750Y-26543000D01*
X159893000Y-26543000D01*
X159893000Y-26523000D01*
X160147000Y-26523000D01*
X160147000Y-26543000D01*
X161396250Y-26543000D01*
X161555000Y-26384250D01*
X161555000Y-25643691D01*
X161458327Y-25410302D01*
X161279699Y-25231673D01*
X161145006Y-25175881D01*
X161320551Y-25000643D01*
X161554733Y-24436670D01*
X161555265Y-23826009D01*
X161322068Y-23261629D01*
X160890643Y-22829449D01*
X160326670Y-22595267D01*
X159716009Y-22594735D01*
X159151629Y-22827932D01*
X158737838Y-23241000D01*
X157480000Y-23241000D01*
X157139795Y-23308670D01*
X156851382Y-23501382D01*
X156216382Y-24136382D01*
X156023671Y-24424794D01*
X155956000Y-24765000D01*
X155956000Y-32651764D01*
X155936764Y-32671000D01*
X155802440Y-32671000D01*
X155802440Y-32560000D01*
X155758162Y-32324683D01*
X155619090Y-32108559D01*
X155406890Y-31963569D01*
X155155000Y-31912560D01*
X153455000Y-31912560D01*
X153219683Y-31956838D01*
X153003559Y-32095910D01*
X152858569Y-32308110D01*
X152807560Y-32560000D01*
X152807560Y-34560000D01*
X152828446Y-34671000D01*
X151334962Y-34671000D01*
X151357440Y-34560000D01*
X151357440Y-32560000D01*
X151313162Y-32324683D01*
X151174090Y-32108559D01*
X150961890Y-31963569D01*
X150749000Y-31920458D01*
X150749000Y-26955750D01*
X151500000Y-26955750D01*
X151500000Y-27696309D01*
X151596673Y-27929698D01*
X151775301Y-28108327D01*
X152008690Y-28205000D01*
X152749250Y-28205000D01*
X152908000Y-28046250D01*
X152908000Y-26797000D01*
X153162000Y-26797000D01*
X153162000Y-28046250D01*
X153320750Y-28205000D01*
X154061310Y-28205000D01*
X154294699Y-28108327D01*
X154473327Y-27929698D01*
X154570000Y-27696309D01*
X154570000Y-26955750D01*
X154411250Y-26797000D01*
X153162000Y-26797000D01*
X152908000Y-26797000D01*
X151658750Y-26797000D01*
X151500000Y-26955750D01*
X150749000Y-26955750D01*
X150749000Y-25133236D01*
X150863236Y-25019000D01*
X151753525Y-25019000D01*
X151910092Y-25175841D01*
X151775301Y-25231673D01*
X151596673Y-25410302D01*
X151500000Y-25643691D01*
X151500000Y-26384250D01*
X151658750Y-26543000D01*
X152908000Y-26543000D01*
X152908000Y-26523000D01*
X153162000Y-26523000D01*
X153162000Y-26543000D01*
X154411250Y-26543000D01*
X154570000Y-26384250D01*
X154570000Y-25643691D01*
X154473327Y-25410302D01*
X154294699Y-25231673D01*
X154160006Y-25175881D01*
X154335551Y-25000643D01*
X154569733Y-24436670D01*
X154570265Y-23826009D01*
X154337068Y-23261629D01*
X153905643Y-22829449D01*
X153341670Y-22595267D01*
X152731009Y-22594735D01*
X152166629Y-22827932D01*
X151752838Y-23241000D01*
X150495000Y-23241000D01*
X150154795Y-23308670D01*
X149866382Y-23501382D01*
X149231382Y-24136382D01*
X149038671Y-24424794D01*
X148971000Y-24765000D01*
X148971000Y-31919898D01*
X148774683Y-31956838D01*
X148558559Y-32095910D01*
X148413569Y-32308110D01*
X148362560Y-32560000D01*
X148362560Y-33832488D01*
X148128223Y-33481777D01*
X146858223Y-32211777D01*
X146487407Y-31964006D01*
X146050000Y-31877000D01*
X145561044Y-31877000D01*
X145459090Y-31718559D01*
X145246890Y-31573569D01*
X144995000Y-31522560D01*
X143295000Y-31522560D01*
X143129000Y-31553795D01*
X143129000Y-30952440D01*
X144360000Y-30952440D01*
X144595317Y-30908162D01*
X144811441Y-30769090D01*
X144956431Y-30556890D01*
X145007440Y-30305000D01*
X145007440Y-30194000D01*
X145872560Y-30194000D01*
X145872560Y-30305000D01*
X145916838Y-30540317D01*
X146055910Y-30756441D01*
X146268110Y-30901431D01*
X146520000Y-30952440D01*
X148120000Y-30952440D01*
X148355317Y-30908162D01*
X148571441Y-30769090D01*
X148716431Y-30556890D01*
X148767440Y-30305000D01*
X148767440Y-28305000D01*
X148723162Y-28069683D01*
X148584090Y-27853559D01*
X148371890Y-27708569D01*
X148120000Y-27657560D01*
X146520000Y-27657560D01*
X146284683Y-27701838D01*
X146068559Y-27840910D01*
X145923569Y-28053110D01*
X145872560Y-28305000D01*
X145872560Y-28416000D01*
X145007440Y-28416000D01*
X145007440Y-28305000D01*
X144963162Y-28069683D01*
X144824090Y-27853559D01*
X144611890Y-27708569D01*
X144360000Y-27657560D01*
X142660000Y-27657560D01*
X142424683Y-27701838D01*
X142208559Y-27840910D01*
X142063569Y-28053110D01*
X142012560Y-28305000D01*
X142012560Y-28815204D01*
X141611382Y-29216382D01*
X141418671Y-29504794D01*
X141351000Y-29845000D01*
X141351000Y-39001764D01*
X137426764Y-42926000D01*
X134861236Y-42926000D01*
X135248618Y-42538618D01*
X135441330Y-42250205D01*
X135509000Y-41910000D01*
X135509000Y-39147441D01*
X135643642Y-39295183D01*
X136168108Y-39541486D01*
X136398000Y-39420819D01*
X136398000Y-38227000D01*
X136652000Y-38227000D01*
X136652000Y-39420819D01*
X136881892Y-39541486D01*
X137406358Y-39295183D01*
X137796645Y-38866924D01*
X137966476Y-38456890D01*
X137845155Y-38227000D01*
X136652000Y-38227000D01*
X136398000Y-38227000D01*
X136378000Y-38227000D01*
X136378000Y-37973000D01*
X136398000Y-37973000D01*
X136398000Y-37953000D01*
X136652000Y-37953000D01*
X136652000Y-37973000D01*
X137845155Y-37973000D01*
X137966476Y-37743110D01*
X137796645Y-37333076D01*
X137406358Y-36904817D01*
X137263447Y-36837702D01*
X137604147Y-36610054D01*
X137926054Y-36128285D01*
X138039093Y-35560000D01*
X137926054Y-34991715D01*
X137604147Y-34509946D01*
X137562548Y-34482150D01*
X137610317Y-34473162D01*
X137826441Y-34334090D01*
X137971431Y-34121890D01*
X138022440Y-33870000D01*
X138022440Y-32170000D01*
X137978162Y-31934683D01*
X137839090Y-31718559D01*
X137626890Y-31573569D01*
X137375000Y-31522560D01*
X135675000Y-31522560D01*
X135509000Y-31553795D01*
X135509000Y-30945102D01*
X135705317Y-30908162D01*
X135921441Y-30769090D01*
X136066431Y-30556890D01*
X136117440Y-30305000D01*
X136117440Y-30194000D01*
X136982560Y-30194000D01*
X136982560Y-30305000D01*
X137026838Y-30540317D01*
X137165910Y-30756441D01*
X137378110Y-30901431D01*
X137630000Y-30952440D01*
X139230000Y-30952440D01*
X139465317Y-30908162D01*
X139681441Y-30769090D01*
X139826431Y-30556890D01*
X139877440Y-30305000D01*
X139877440Y-28305000D01*
X139833162Y-28069683D01*
X139694090Y-27853559D01*
X139481890Y-27708569D01*
X139230000Y-27657560D01*
X137630000Y-27657560D01*
X137394683Y-27701838D01*
X137178559Y-27840910D01*
X137033569Y-28053110D01*
X136982560Y-28305000D01*
X136982560Y-28416000D01*
X136271107Y-28416000D01*
X136230206Y-28388671D01*
X136117440Y-28366241D01*
X136117440Y-28305000D01*
X136073162Y-28069683D01*
X135934090Y-27853559D01*
X135721890Y-27708569D01*
X135470000Y-27657560D01*
X133770000Y-27657560D01*
X133534683Y-27701838D01*
X133318559Y-27840910D01*
X133223000Y-27980765D01*
X133223000Y-26627595D01*
X133305910Y-26756441D01*
X133518110Y-26901431D01*
X133770000Y-26952440D01*
X135470000Y-26952440D01*
X135705317Y-26908162D01*
X135921441Y-26769090D01*
X136066431Y-26556890D01*
X136117440Y-26305000D01*
X136117440Y-25590750D01*
X136995000Y-25590750D01*
X136995000Y-26431309D01*
X137091673Y-26664698D01*
X137270301Y-26843327D01*
X137503690Y-26940000D01*
X138144250Y-26940000D01*
X138303000Y-26781250D01*
X138303000Y-25432000D01*
X138557000Y-25432000D01*
X138557000Y-26781250D01*
X138715750Y-26940000D01*
X139356310Y-26940000D01*
X139589699Y-26843327D01*
X139768327Y-26664698D01*
X139865000Y-26431309D01*
X139865000Y-25590750D01*
X139706250Y-25432000D01*
X138557000Y-25432000D01*
X138303000Y-25432000D01*
X137153750Y-25432000D01*
X136995000Y-25590750D01*
X136117440Y-25590750D01*
X136117440Y-24305000D01*
X136073162Y-24069683D01*
X136030253Y-24003000D01*
X137067774Y-24003000D01*
X136995000Y-24178691D01*
X136995000Y-25019250D01*
X137153750Y-25178000D01*
X138303000Y-25178000D01*
X138303000Y-25158000D01*
X138557000Y-25158000D01*
X138557000Y-25178000D01*
X139706250Y-25178000D01*
X139865000Y-25019250D01*
X139865000Y-24178691D01*
X139792226Y-24003000D01*
X141766554Y-24003000D01*
X142021990Y-24258436D01*
X142012560Y-24305000D01*
X142012560Y-26305000D01*
X142056838Y-26540317D01*
X142195910Y-26756441D01*
X142408110Y-26901431D01*
X142660000Y-26952440D01*
X144360000Y-26952440D01*
X144595317Y-26908162D01*
X144811441Y-26769090D01*
X144956431Y-26556890D01*
X145007440Y-26305000D01*
X145007440Y-25590750D01*
X145885000Y-25590750D01*
X145885000Y-26431309D01*
X145981673Y-26664698D01*
X146160301Y-26843327D01*
X146393690Y-26940000D01*
X147034250Y-26940000D01*
X147193000Y-26781250D01*
X147193000Y-25432000D01*
X147447000Y-25432000D01*
X147447000Y-26781250D01*
X147605750Y-26940000D01*
X148246310Y-26940000D01*
X148479699Y-26843327D01*
X148658327Y-26664698D01*
X148755000Y-26431309D01*
X148755000Y-25590750D01*
X148596250Y-25432000D01*
X147447000Y-25432000D01*
X147193000Y-25432000D01*
X146043750Y-25432000D01*
X145885000Y-25590750D01*
X145007440Y-25590750D01*
X145007440Y-24305000D01*
X144983674Y-24178691D01*
X145885000Y-24178691D01*
X145885000Y-25019250D01*
X146043750Y-25178000D01*
X147193000Y-25178000D01*
X147193000Y-23828750D01*
X147447000Y-23828750D01*
X147447000Y-25178000D01*
X148596250Y-25178000D01*
X148755000Y-25019250D01*
X148755000Y-24178691D01*
X148658327Y-23945302D01*
X148479699Y-23766673D01*
X148246310Y-23670000D01*
X147605750Y-23670000D01*
X147447000Y-23828750D01*
X147193000Y-23828750D01*
X147034250Y-23670000D01*
X146393690Y-23670000D01*
X146160301Y-23766673D01*
X145981673Y-23945302D01*
X145885000Y-24178691D01*
X144983674Y-24178691D01*
X144963162Y-24069683D01*
X144824090Y-23853559D01*
X144611890Y-23708569D01*
X144567379Y-23699555D01*
X144565994Y-23692593D01*
X144318223Y-23321777D01*
X143348446Y-22352000D01*
X178237275Y-22352000D01*
X177296485Y-22740727D01*
X177296485Y-22740727D01*
G37*
X177296485Y-22740727D02*
X176413826Y-23621847D01*
X175935546Y-24773674D01*
X175934457Y-26020854D01*
X176410727Y-27173515D01*
X177291847Y-28056174D01*
X178443674Y-28534454D01*
X179690854Y-28535543D01*
X180843515Y-28059273D01*
X181726174Y-27178153D01*
X182118000Y-26234531D01*
X182118000Y-75490000D01*
X173355000Y-75490000D01*
X173083295Y-75544046D01*
X172852954Y-75697954D01*
X172699046Y-75928295D01*
X172645000Y-76200000D01*
X172645000Y-104140000D01*
X172699046Y-104411705D01*
X172852954Y-104642046D01*
X173083295Y-104795954D01*
X173355000Y-104850000D01*
X182118000Y-104850000D01*
X182118000Y-110927275D01*
X181729273Y-109986485D01*
X180848153Y-109103826D01*
X179696326Y-108625546D01*
X178449146Y-108624457D01*
X177296485Y-109100727D01*
X176413826Y-109981847D01*
X175935546Y-111133674D01*
X175934457Y-112380854D01*
X176410727Y-113533515D01*
X177291847Y-114416174D01*
X178235469Y-114808000D01*
X38932725Y-114808000D01*
X39873515Y-114419273D01*
X40756174Y-113538153D01*
X40874927Y-113252163D01*
X41916382Y-114293618D01*
X42204794Y-114486329D01*
X42545000Y-114554000D01*
X126365000Y-114554000D01*
X126705206Y-114486329D01*
X126993618Y-114293618D01*
X127628618Y-113658618D01*
X127821330Y-113370205D01*
X127889000Y-113030000D01*
X127889000Y-110406760D01*
X128050054Y-110299147D01*
X128270000Y-109969974D01*
X128489946Y-110299147D01*
X128971715Y-110621054D01*
X129540000Y-110734093D01*
X130108285Y-110621054D01*
X130590054Y-110299147D01*
X130911961Y-109817378D01*
X131025000Y-109249093D01*
X131025000Y-109190907D01*
X130911961Y-108622622D01*
X130590054Y-108140853D01*
X130108285Y-107818946D01*
X129540000Y-107705907D01*
X128971715Y-107818946D01*
X128489946Y-108140853D01*
X128270000Y-108470026D01*
X128050054Y-108140853D01*
X127568285Y-107818946D01*
X127000000Y-107705907D01*
X126431715Y-107818946D01*
X125949946Y-108140853D01*
X125730000Y-108470026D01*
X125510054Y-108140853D01*
X125028285Y-107818946D01*
X124460000Y-107705907D01*
X123891715Y-107818946D01*
X123409946Y-108140853D01*
X123182298Y-108481553D01*
X123115183Y-108338642D01*
X122686924Y-107948355D01*
X122276890Y-107778524D01*
X122047000Y-107899845D01*
X122047000Y-109093000D01*
X122067000Y-109093000D01*
X122067000Y-109347000D01*
X122047000Y-109347000D01*
X122047000Y-110540155D01*
X122276890Y-110661476D01*
X122686924Y-110491645D01*
X123115183Y-110101358D01*
X123182298Y-109958447D01*
X123409946Y-110299147D01*
X123891715Y-110621054D01*
X124460000Y-110734093D01*
X125028285Y-110621054D01*
X125510054Y-110299147D01*
X125730000Y-109969974D01*
X125949946Y-110299147D01*
X126111000Y-110406760D01*
X126111000Y-112661764D01*
X125996764Y-112776000D01*
X56121236Y-112776000D01*
X56508618Y-112388618D01*
X56701330Y-112100205D01*
X56769000Y-111760000D01*
X56769000Y-107036890D01*
X63328524Y-107036890D01*
X63498355Y-107446924D01*
X63888642Y-107875183D01*
X64413108Y-108121486D01*
X64643000Y-108000819D01*
X64643000Y-106807000D01*
X64897000Y-106807000D01*
X64897000Y-108000819D01*
X65126892Y-108121486D01*
X65651358Y-107875183D01*
X66041645Y-107446924D01*
X66211476Y-107036890D01*
X70948524Y-107036890D01*
X71118355Y-107446924D01*
X71508642Y-107875183D01*
X72033108Y-108121486D01*
X72263000Y-108000819D01*
X72263000Y-106807000D01*
X72517000Y-106807000D01*
X72517000Y-108000819D01*
X72746892Y-108121486D01*
X73271358Y-107875183D01*
X73661645Y-107446924D01*
X73831476Y-107036890D01*
X78568524Y-107036890D01*
X78738355Y-107446924D01*
X79128642Y-107875183D01*
X79653108Y-108121486D01*
X79883000Y-108000819D01*
X79883000Y-106807000D01*
X80137000Y-106807000D01*
X80137000Y-108000819D01*
X80366892Y-108121486D01*
X80891358Y-107875183D01*
X81281645Y-107446924D01*
X81451476Y-107036890D01*
X86188524Y-107036890D01*
X86358355Y-107446924D01*
X86748642Y-107875183D01*
X87273108Y-108121486D01*
X87503000Y-108000819D01*
X87503000Y-106807000D01*
X87757000Y-106807000D01*
X87757000Y-108000819D01*
X87986892Y-108121486D01*
X88511358Y-107875183D01*
X88901645Y-107446924D01*
X89071476Y-107036890D01*
X93808524Y-107036890D01*
X93978355Y-107446924D01*
X94368642Y-107875183D01*
X94893108Y-108121486D01*
X95123000Y-108000819D01*
X95123000Y-106807000D01*
X95377000Y-106807000D01*
X95377000Y-108000819D01*
X95606892Y-108121486D01*
X96131358Y-107875183D01*
X96521645Y-107446924D01*
X96691476Y-107036890D01*
X101428524Y-107036890D01*
X101598355Y-107446924D01*
X101988642Y-107875183D01*
X102513108Y-108121486D01*
X102743000Y-108000819D01*
X102743000Y-106807000D01*
X102997000Y-106807000D01*
X102997000Y-108000819D01*
X103226892Y-108121486D01*
X103751358Y-107875183D01*
X104141645Y-107446924D01*
X104311476Y-107036890D01*
X104190155Y-106807000D01*
X102997000Y-106807000D01*
X102743000Y-106807000D01*
X101549845Y-106807000D01*
X101428524Y-107036890D01*
X96691476Y-107036890D01*
X96570155Y-106807000D01*
X95377000Y-106807000D01*
X95123000Y-106807000D01*
X93929845Y-106807000D01*
X93808524Y-107036890D01*
X89071476Y-107036890D01*
X88950155Y-106807000D01*
X87757000Y-106807000D01*
X87503000Y-106807000D01*
X86309845Y-106807000D01*
X86188524Y-107036890D01*
X81451476Y-107036890D01*
X81330155Y-106807000D01*
X80137000Y-106807000D01*
X79883000Y-106807000D01*
X78689845Y-106807000D01*
X78568524Y-107036890D01*
X73831476Y-107036890D01*
X73710155Y-106807000D01*
X72517000Y-106807000D01*
X72263000Y-106807000D01*
X71069845Y-106807000D01*
X70948524Y-107036890D01*
X66211476Y-107036890D01*
X66090155Y-106807000D01*
X64897000Y-106807000D01*
X64643000Y-106807000D01*
X63449845Y-106807000D01*
X63328524Y-107036890D01*
X56769000Y-107036890D01*
X56769000Y-100330000D01*
X56701329Y-99989794D01*
X56674071Y-99949000D01*
X66941764Y-99949000D01*
X67056000Y-100063236D01*
X67056000Y-103136764D01*
X66941764Y-103251000D01*
X65956760Y-103251000D01*
X65849147Y-103089946D01*
X65807548Y-103062150D01*
X65855317Y-103053162D01*
X66071441Y-102914090D01*
X66216431Y-102701890D01*
X66267440Y-102450000D01*
X66267440Y-100750000D01*
X66223162Y-100514683D01*
X66084090Y-100298559D01*
X65871890Y-100153569D01*
X65620000Y-100102560D01*
X63920000Y-100102560D01*
X63684683Y-100146838D01*
X63468559Y-100285910D01*
X63323569Y-100498110D01*
X63272560Y-100750000D01*
X63272560Y-102450000D01*
X63316838Y-102685317D01*
X63455910Y-102901441D01*
X63668110Y-103046431D01*
X63735541Y-103060086D01*
X63690853Y-103089946D01*
X63368946Y-103571715D01*
X63255907Y-104140000D01*
X63368946Y-104708285D01*
X63690853Y-105190054D01*
X64031553Y-105417702D01*
X63888642Y-105484817D01*
X63498355Y-105913076D01*
X63328524Y-106323110D01*
X63449845Y-106553000D01*
X64643000Y-106553000D01*
X64643000Y-106533000D01*
X64897000Y-106533000D01*
X64897000Y-106553000D01*
X66090155Y-106553000D01*
X66211476Y-106323110D01*
X66041645Y-105913076D01*
X65651358Y-105484817D01*
X65508447Y-105417702D01*
X65849147Y-105190054D01*
X65956760Y-105029000D01*
X67310000Y-105029000D01*
X67650206Y-104961329D01*
X67938618Y-104768618D01*
X68573618Y-104133618D01*
X68580000Y-104124067D01*
X68586382Y-104133618D01*
X69221382Y-104768618D01*
X69509795Y-104961330D01*
X69850000Y-105029000D01*
X71203240Y-105029000D01*
X71310853Y-105190054D01*
X71651553Y-105417702D01*
X71508642Y-105484817D01*
X71118355Y-105913076D01*
X70948524Y-106323110D01*
X71069845Y-106553000D01*
X72263000Y-106553000D01*
X72263000Y-106533000D01*
X72517000Y-106533000D01*
X72517000Y-106553000D01*
X73710155Y-106553000D01*
X73831476Y-106323110D01*
X73661645Y-105913076D01*
X73271358Y-105484817D01*
X73128447Y-105417702D01*
X73469147Y-105190054D01*
X73791054Y-104708285D01*
X73904093Y-104140000D01*
X73791054Y-103571715D01*
X73469147Y-103089946D01*
X73427548Y-103062150D01*
X73475317Y-103053162D01*
X73691441Y-102914090D01*
X73836431Y-102701890D01*
X73887440Y-102450000D01*
X73887440Y-100750000D01*
X73843162Y-100514683D01*
X73704090Y-100298559D01*
X73660000Y-100268434D01*
X73660000Y-97790000D01*
X73588351Y-97429797D01*
X78512560Y-102354006D01*
X78512560Y-102450000D01*
X78556838Y-102685317D01*
X78695910Y-102901441D01*
X78908110Y-103046431D01*
X78975541Y-103060086D01*
X78930853Y-103089946D01*
X78608946Y-103571715D01*
X78495907Y-104140000D01*
X78608946Y-104708285D01*
X78930853Y-105190054D01*
X79271553Y-105417702D01*
X79128642Y-105484817D01*
X78738355Y-105913076D01*
X78568524Y-106323110D01*
X78689845Y-106553000D01*
X79883000Y-106553000D01*
X79883000Y-106533000D01*
X80137000Y-106533000D01*
X80137000Y-106553000D01*
X81330155Y-106553000D01*
X81451476Y-106323110D01*
X81281645Y-105913076D01*
X80891358Y-105484817D01*
X80748447Y-105417702D01*
X81089147Y-105190054D01*
X81411054Y-104708285D01*
X81524093Y-104140000D01*
X81411054Y-103571715D01*
X81089147Y-103089946D01*
X81047548Y-103062150D01*
X81095317Y-103053162D01*
X81311441Y-102914090D01*
X81456431Y-102701890D01*
X81507440Y-102450000D01*
X81507440Y-100750000D01*
X81463162Y-100514683D01*
X81324090Y-100298559D01*
X81111890Y-100153569D01*
X80860000Y-100102560D01*
X79494006Y-100102560D01*
X73533000Y-94141554D01*
X73533000Y-39294045D01*
X73659779Y-38988727D01*
X73660220Y-38483490D01*
X73467282Y-38016542D01*
X73110337Y-37658974D01*
X72643727Y-37465221D01*
X72138490Y-37464780D01*
X71671542Y-37657718D01*
X71313974Y-38014663D01*
X71188638Y-38316506D01*
X71035010Y-37944697D01*
X70642370Y-37551371D01*
X70129100Y-37338243D01*
X69573339Y-37337758D01*
X69059697Y-37549990D01*
X68666371Y-37942630D01*
X68453243Y-38455900D01*
X68452758Y-39011661D01*
X68580000Y-39319611D01*
X68580000Y-95249995D01*
X68579999Y-95250000D01*
X68658907Y-95646696D01*
X68580000Y-95631000D01*
X58788236Y-95631000D01*
X58674000Y-95516764D01*
X58674000Y-93907766D01*
X58681431Y-93896890D01*
X58732440Y-93645000D01*
X58732440Y-92095000D01*
X58688162Y-91859683D01*
X58549090Y-91643559D01*
X58336890Y-91498569D01*
X58085000Y-91447560D01*
X57485000Y-91447560D01*
X57249683Y-91491838D01*
X57150472Y-91555678D01*
X57066890Y-91498569D01*
X56815000Y-91447560D01*
X56215000Y-91447560D01*
X55979683Y-91491838D01*
X55880472Y-91555678D01*
X55796890Y-91498569D01*
X55545000Y-91447560D01*
X54945000Y-91447560D01*
X54709683Y-91491838D01*
X54619020Y-91550178D01*
X54401310Y-91460000D01*
X54260750Y-91460000D01*
X54102000Y-91618750D01*
X54102000Y-92743000D01*
X54122000Y-92743000D01*
X54122000Y-92997000D01*
X54102000Y-92997000D01*
X54102000Y-94121250D01*
X54260750Y-94280000D01*
X54356000Y-94280000D01*
X54356000Y-97548764D01*
X52324000Y-95516764D01*
X52324000Y-93155750D01*
X53040000Y-93155750D01*
X53040000Y-93771309D01*
X53136673Y-94004698D01*
X53315301Y-94183327D01*
X53548690Y-94280000D01*
X53689250Y-94280000D01*
X53848000Y-94121250D01*
X53848000Y-92997000D01*
X53198750Y-92997000D01*
X53040000Y-93155750D01*
X52324000Y-93155750D01*
X52324000Y-91968691D01*
X53040000Y-91968691D01*
X53040000Y-92584250D01*
X53198750Y-92743000D01*
X53848000Y-92743000D01*
X53848000Y-91618750D01*
X53689250Y-91460000D01*
X53548690Y-91460000D01*
X53315301Y-91556673D01*
X53136673Y-91735302D01*
X53040000Y-91968691D01*
X52324000Y-91968691D01*
X52324000Y-81645000D01*
X52477560Y-81645000D01*
X52477560Y-83645000D01*
X52521838Y-83880317D01*
X52660910Y-84096441D01*
X52873110Y-84241431D01*
X53086000Y-84284542D01*
X53086000Y-86432234D01*
X53078569Y-86443110D01*
X53027560Y-86695000D01*
X53027560Y-88245000D01*
X53071838Y-88480317D01*
X53210910Y-88696441D01*
X53423110Y-88841431D01*
X53675000Y-88892440D01*
X54275000Y-88892440D01*
X54510317Y-88848162D01*
X54600980Y-88789822D01*
X54818690Y-88880000D01*
X54959250Y-88880000D01*
X55118000Y-88721250D01*
X55118000Y-87597000D01*
X55372000Y-87597000D01*
X55372000Y-88721250D01*
X55530750Y-88880000D01*
X55671310Y-88880000D01*
X55880000Y-88793558D01*
X56088690Y-88880000D01*
X56229250Y-88880000D01*
X56388000Y-88721250D01*
X56388000Y-87597000D01*
X55372000Y-87597000D01*
X55118000Y-87597000D01*
X55098000Y-87597000D01*
X55098000Y-87343000D01*
X55118000Y-87343000D01*
X55118000Y-86218750D01*
X55372000Y-86218750D01*
X55372000Y-87343000D01*
X56388000Y-87343000D01*
X56388000Y-86218750D01*
X56229250Y-86060000D01*
X56088690Y-86060000D01*
X55880000Y-86146442D01*
X55671310Y-86060000D01*
X55530750Y-86060000D01*
X55372000Y-86218750D01*
X55118000Y-86218750D01*
X54959250Y-86060000D01*
X54864000Y-86060000D01*
X54864000Y-84285102D01*
X55060317Y-84248162D01*
X55276441Y-84109090D01*
X55421431Y-83896890D01*
X55472440Y-83645000D01*
X55472440Y-81645000D01*
X56287560Y-81645000D01*
X56287560Y-83645000D01*
X56331838Y-83880317D01*
X56470910Y-84096441D01*
X56683110Y-84241431D01*
X56896000Y-84284542D01*
X56896000Y-86060000D01*
X56800750Y-86060000D01*
X56642000Y-86218750D01*
X56642000Y-87343000D01*
X56662000Y-87343000D01*
X56662000Y-87597000D01*
X56642000Y-87597000D01*
X56642000Y-88721250D01*
X56800750Y-88880000D01*
X56941310Y-88880000D01*
X57158122Y-88790194D01*
X57233110Y-88841431D01*
X57485000Y-88892440D01*
X58085000Y-88892440D01*
X58320317Y-88848162D01*
X58536441Y-88709090D01*
X58681431Y-88496890D01*
X58732440Y-88245000D01*
X58732440Y-86695000D01*
X58688162Y-86459683D01*
X58674000Y-86437675D01*
X58674000Y-84285102D01*
X58870317Y-84248162D01*
X59086441Y-84109090D01*
X59231431Y-83896890D01*
X59282440Y-83645000D01*
X59282440Y-81645000D01*
X59238162Y-81409683D01*
X59099090Y-81193559D01*
X58886890Y-81048569D01*
X58635000Y-80997560D01*
X56935000Y-80997560D01*
X56699683Y-81041838D01*
X56483559Y-81180910D01*
X56338569Y-81393110D01*
X56287560Y-81645000D01*
X55472440Y-81645000D01*
X55428162Y-81409683D01*
X55289090Y-81193559D01*
X55076890Y-81048569D01*
X54825000Y-80997560D01*
X53125000Y-80997560D01*
X52889683Y-81041838D01*
X52673559Y-81180910D01*
X52528569Y-81393110D01*
X52477560Y-81645000D01*
X52324000Y-81645000D01*
X52324000Y-79743236D01*
X52438236Y-79629000D01*
X52477560Y-79629000D01*
X52477560Y-79645000D01*
X52521838Y-79880317D01*
X52660910Y-80096441D01*
X52873110Y-80241431D01*
X53125000Y-80292440D01*
X54825000Y-80292440D01*
X55060317Y-80248162D01*
X55276441Y-80109090D01*
X55421431Y-79896890D01*
X55472440Y-79645000D01*
X55472440Y-77645000D01*
X55428162Y-77409683D01*
X55289090Y-77193559D01*
X55136063Y-77089000D01*
X56626391Y-77089000D01*
X56483559Y-77180910D01*
X56338569Y-77393110D01*
X56287560Y-77645000D01*
X56287560Y-79645000D01*
X56331838Y-79880317D01*
X56470910Y-80096441D01*
X56683110Y-80241431D01*
X56935000Y-80292440D01*
X58635000Y-80292440D01*
X58870317Y-80248162D01*
X59086441Y-80109090D01*
X59231431Y-79896890D01*
X59282440Y-79645000D01*
X59282440Y-77645000D01*
X59238162Y-77409683D01*
X59099090Y-77193559D01*
X58886890Y-77048569D01*
X58674000Y-77005458D01*
X58674000Y-76835000D01*
X58631234Y-76620000D01*
X58606330Y-76494795D01*
X58413618Y-76206382D01*
X57778618Y-75571382D01*
X57737707Y-75544046D01*
X57490206Y-75378671D01*
X57150000Y-75311000D01*
X52438236Y-75311000D01*
X52324000Y-75196764D01*
X52324000Y-64770000D01*
X52290561Y-64601890D01*
X52256330Y-64429795D01*
X52063618Y-64141382D01*
X51428618Y-63506382D01*
X51399157Y-63486697D01*
X51140206Y-63313671D01*
X50800000Y-63246000D01*
X49622588Y-63246000D01*
X49543303Y-63166577D01*
X49123354Y-62992199D01*
X48668641Y-62991802D01*
X48461877Y-63077235D01*
X48504093Y-62865000D01*
X48391054Y-62296715D01*
X48069147Y-61814946D01*
X47739974Y-61595000D01*
X48069147Y-61375054D01*
X48391054Y-60893285D01*
X48504093Y-60325000D01*
X48391054Y-59756715D01*
X48069147Y-59274946D01*
X47739974Y-59055000D01*
X48069147Y-58835054D01*
X48391054Y-58353285D01*
X48504093Y-57785000D01*
X48391054Y-57216715D01*
X48069147Y-56734946D01*
X47739974Y-56515000D01*
X48069147Y-56295054D01*
X48391054Y-55813285D01*
X48504093Y-55245000D01*
X48391054Y-54676715D01*
X48069147Y-54194946D01*
X47739974Y-53975000D01*
X48069147Y-53755054D01*
X48391054Y-53273285D01*
X48504093Y-52705000D01*
X48391054Y-52136715D01*
X48069147Y-51654946D01*
X47739974Y-51435000D01*
X48069147Y-51215054D01*
X48391054Y-50733285D01*
X48504093Y-50165000D01*
X48391054Y-49596715D01*
X48069147Y-49114946D01*
X47739974Y-48895000D01*
X48069147Y-48675054D01*
X48391054Y-48193285D01*
X48504093Y-47625000D01*
X48391054Y-47056715D01*
X48069147Y-46574946D01*
X47739974Y-46355000D01*
X48069147Y-46135054D01*
X48176760Y-45974000D01*
X48260000Y-45974000D01*
X48600206Y-45906329D01*
X48888618Y-45713618D01*
X49523618Y-45078618D01*
X49716330Y-44790205D01*
X49784000Y-44450000D01*
X49784000Y-36563236D01*
X49898236Y-36449000D01*
X88531764Y-36449000D01*
X88646000Y-36563236D01*
X88646000Y-85090000D01*
X88713671Y-85430206D01*
X88906382Y-85718618D01*
X89916000Y-86728236D01*
X89916000Y-103136764D01*
X89801764Y-103251000D01*
X88816760Y-103251000D01*
X88709147Y-103089946D01*
X88667548Y-103062150D01*
X88715317Y-103053162D01*
X88931441Y-102914090D01*
X89076431Y-102701890D01*
X89127440Y-102450000D01*
X89127440Y-100750000D01*
X89083162Y-100514683D01*
X88944090Y-100298559D01*
X88731890Y-100153569D01*
X88480000Y-100102560D01*
X86780000Y-100102560D01*
X86544683Y-100146838D01*
X86328559Y-100285910D01*
X86183569Y-100498110D01*
X86132560Y-100750000D01*
X86132560Y-102450000D01*
X86176838Y-102685317D01*
X86315910Y-102901441D01*
X86528110Y-103046431D01*
X86595541Y-103060086D01*
X86550853Y-103089946D01*
X86228946Y-103571715D01*
X86115907Y-104140000D01*
X86228946Y-104708285D01*
X86550853Y-105190054D01*
X86891553Y-105417702D01*
X86748642Y-105484817D01*
X86358355Y-105913076D01*
X86188524Y-106323110D01*
X86309845Y-106553000D01*
X87503000Y-106553000D01*
X87503000Y-106533000D01*
X87757000Y-106533000D01*
X87757000Y-106553000D01*
X88950155Y-106553000D01*
X89071476Y-106323110D01*
X88901645Y-105913076D01*
X88511358Y-105484817D01*
X88368447Y-105417702D01*
X88709147Y-105190054D01*
X88816760Y-105029000D01*
X90170000Y-105029000D01*
X90510206Y-104961329D01*
X90798618Y-104768618D01*
X91433618Y-104133618D01*
X91440000Y-104124067D01*
X91446382Y-104133618D01*
X92081382Y-104768618D01*
X92369795Y-104961330D01*
X92710000Y-105029000D01*
X94063240Y-105029000D01*
X94170853Y-105190054D01*
X94511553Y-105417702D01*
X94368642Y-105484817D01*
X93978355Y-105913076D01*
X93808524Y-106323110D01*
X93929845Y-106553000D01*
X95123000Y-106553000D01*
X95123000Y-106533000D01*
X95377000Y-106533000D01*
X95377000Y-106553000D01*
X96570155Y-106553000D01*
X96691476Y-106323110D01*
X96521645Y-105913076D01*
X96131358Y-105484817D01*
X95988447Y-105417702D01*
X96329147Y-105190054D01*
X96651054Y-104708285D01*
X96764093Y-104140000D01*
X96651054Y-103571715D01*
X96329147Y-103089946D01*
X96287548Y-103062150D01*
X96335317Y-103053162D01*
X96551441Y-102914090D01*
X96668342Y-102743000D01*
X101453956Y-102743000D01*
X101555910Y-102901441D01*
X101768110Y-103046431D01*
X101835541Y-103060086D01*
X101790853Y-103089946D01*
X101468946Y-103571715D01*
X101355907Y-104140000D01*
X101468946Y-104708285D01*
X101790853Y-105190054D01*
X102131553Y-105417702D01*
X101988642Y-105484817D01*
X101598355Y-105913076D01*
X101428524Y-106323110D01*
X101549845Y-106553000D01*
X102743000Y-106553000D01*
X102743000Y-106533000D01*
X102997000Y-106533000D01*
X102997000Y-106553000D01*
X104190155Y-106553000D01*
X104311476Y-106323110D01*
X104141645Y-105913076D01*
X103751358Y-105484817D01*
X103608447Y-105417702D01*
X103949147Y-105190054D01*
X104271054Y-104708285D01*
X104384093Y-104140000D01*
X104271054Y-103571715D01*
X103949147Y-103089946D01*
X103907548Y-103062150D01*
X103955317Y-103053162D01*
X104171441Y-102914090D01*
X104288342Y-102743000D01*
X115697000Y-102743000D01*
X115697000Y-107803956D01*
X115538559Y-107905910D01*
X115393569Y-108118110D01*
X115342560Y-108370000D01*
X115342560Y-110070000D01*
X115386838Y-110305317D01*
X115525910Y-110521441D01*
X115738110Y-110666431D01*
X115990000Y-110717440D01*
X117690000Y-110717440D01*
X117925317Y-110673162D01*
X118141441Y-110534090D01*
X118286431Y-110321890D01*
X118300086Y-110254459D01*
X118329946Y-110299147D01*
X118811715Y-110621054D01*
X119380000Y-110734093D01*
X119948285Y-110621054D01*
X120430054Y-110299147D01*
X120657702Y-109958447D01*
X120724817Y-110101358D01*
X121153076Y-110491645D01*
X121563110Y-110661476D01*
X121793000Y-110540155D01*
X121793000Y-109347000D01*
X121773000Y-109347000D01*
X121773000Y-109093000D01*
X121793000Y-109093000D01*
X121793000Y-107899845D01*
X121563110Y-107778524D01*
X121153076Y-107948355D01*
X120724817Y-108338642D01*
X120657702Y-108481553D01*
X120430054Y-108140853D01*
X119948285Y-107818946D01*
X119380000Y-107705907D01*
X118811715Y-107818946D01*
X118329946Y-108140853D01*
X118302150Y-108182452D01*
X118293162Y-108134683D01*
X118154090Y-107918559D01*
X117983000Y-107801658D01*
X117983000Y-107188000D01*
X136017000Y-107188000D01*
X136017000Y-107803956D01*
X135858559Y-107905910D01*
X135713569Y-108118110D01*
X135662560Y-108370000D01*
X135662560Y-110070000D01*
X135706838Y-110305317D01*
X135845910Y-110521441D01*
X136058110Y-110666431D01*
X136310000Y-110717440D01*
X138010000Y-110717440D01*
X138245317Y-110673162D01*
X138461441Y-110534090D01*
X138606431Y-110321890D01*
X138628301Y-110213893D01*
X138933076Y-110491645D01*
X139343110Y-110661476D01*
X139573000Y-110540155D01*
X139573000Y-109347000D01*
X139553000Y-109347000D01*
X139553000Y-109093000D01*
X139573000Y-109093000D01*
X139573000Y-107899845D01*
X139827000Y-107899845D01*
X139827000Y-109093000D01*
X139847000Y-109093000D01*
X139847000Y-109347000D01*
X139827000Y-109347000D01*
X139827000Y-110540155D01*
X140056890Y-110661476D01*
X140466924Y-110491645D01*
X140895183Y-110101358D01*
X140962298Y-109958447D01*
X141189946Y-110299147D01*
X141671715Y-110621054D01*
X142240000Y-110734093D01*
X142808285Y-110621054D01*
X143290054Y-110299147D01*
X143510000Y-109969974D01*
X143729946Y-110299147D01*
X144211715Y-110621054D01*
X144780000Y-110734093D01*
X145348285Y-110621054D01*
X145830054Y-110299147D01*
X146050000Y-109969974D01*
X146269946Y-110299147D01*
X146751715Y-110621054D01*
X147320000Y-110734093D01*
X147888285Y-110621054D01*
X148370054Y-110299147D01*
X148691961Y-109817378D01*
X148805000Y-109249093D01*
X148805000Y-109190907D01*
X148691961Y-108622622D01*
X148370054Y-108140853D01*
X147888285Y-107818946D01*
X147320000Y-107705907D01*
X146751715Y-107818946D01*
X146269946Y-108140853D01*
X146050000Y-108470026D01*
X145830054Y-108140853D01*
X145348285Y-107818946D01*
X144780000Y-107705907D01*
X144211715Y-107818946D01*
X143729946Y-108140853D01*
X143510000Y-108470026D01*
X143290054Y-108140853D01*
X142808285Y-107818946D01*
X142240000Y-107705907D01*
X141671715Y-107818946D01*
X141189946Y-108140853D01*
X140962298Y-108481553D01*
X140895183Y-108338642D01*
X140466924Y-107948355D01*
X140056890Y-107778524D01*
X139827000Y-107899845D01*
X139573000Y-107899845D01*
X139343110Y-107778524D01*
X138933076Y-107948355D01*
X138630063Y-108224501D01*
X138613162Y-108134683D01*
X138474090Y-107918559D01*
X138303000Y-107801658D01*
X138303000Y-107188000D01*
X155736554Y-107188000D01*
X156337000Y-107788446D01*
X156337000Y-108047405D01*
X156254090Y-107918559D01*
X156041890Y-107773569D01*
X155790000Y-107722560D01*
X154090000Y-107722560D01*
X153854683Y-107766838D01*
X153638559Y-107905910D01*
X153493569Y-108118110D01*
X153442560Y-108370000D01*
X153442560Y-110070000D01*
X153486838Y-110305317D01*
X153625910Y-110521441D01*
X153838110Y-110666431D01*
X154090000Y-110717440D01*
X155790000Y-110717440D01*
X156025317Y-110673162D01*
X156241441Y-110534090D01*
X156386431Y-110321890D01*
X156400086Y-110254459D01*
X156429946Y-110299147D01*
X156911715Y-110621054D01*
X157480000Y-110734093D01*
X158048285Y-110621054D01*
X158530054Y-110299147D01*
X158757702Y-109958447D01*
X158824817Y-110101358D01*
X159253076Y-110491645D01*
X159663110Y-110661476D01*
X159893000Y-110540155D01*
X159893000Y-109347000D01*
X159873000Y-109347000D01*
X159873000Y-109093000D01*
X159893000Y-109093000D01*
X159893000Y-107899845D01*
X160147000Y-107899845D01*
X160147000Y-109093000D01*
X160167000Y-109093000D01*
X160167000Y-109347000D01*
X160147000Y-109347000D01*
X160147000Y-110540155D01*
X160376890Y-110661476D01*
X160786924Y-110491645D01*
X161215183Y-110101358D01*
X161282298Y-109958447D01*
X161509946Y-110299147D01*
X161991715Y-110621054D01*
X162560000Y-110734093D01*
X163128285Y-110621054D01*
X163610054Y-110299147D01*
X163830000Y-109969974D01*
X164049946Y-110299147D01*
X164531715Y-110621054D01*
X165100000Y-110734093D01*
X165668285Y-110621054D01*
X166150054Y-110299147D01*
X166370000Y-109969974D01*
X166589946Y-110299147D01*
X167071715Y-110621054D01*
X167640000Y-110734093D01*
X168208285Y-110621054D01*
X168690054Y-110299147D01*
X168910000Y-109969974D01*
X169129946Y-110299147D01*
X169611715Y-110621054D01*
X170180000Y-110734093D01*
X170748285Y-110621054D01*
X171230054Y-110299147D01*
X171551961Y-109817378D01*
X171665000Y-109249093D01*
X171665000Y-109190907D01*
X171551961Y-108622622D01*
X171230054Y-108140853D01*
X170748285Y-107818946D01*
X170180000Y-107705907D01*
X169611715Y-107818946D01*
X169129946Y-108140853D01*
X168910000Y-108470026D01*
X168690054Y-108140853D01*
X168208285Y-107818946D01*
X167640000Y-107705907D01*
X167071715Y-107818946D01*
X166589946Y-108140853D01*
X166370000Y-108470026D01*
X166150054Y-108140853D01*
X165668285Y-107818946D01*
X165100000Y-107705907D01*
X164531715Y-107818946D01*
X164049946Y-108140853D01*
X163830000Y-108470026D01*
X163610054Y-108140853D01*
X163128285Y-107818946D01*
X162560000Y-107705907D01*
X161991715Y-107818946D01*
X161509946Y-108140853D01*
X161282298Y-108481553D01*
X161215183Y-108338642D01*
X160786924Y-107948355D01*
X160376890Y-107778524D01*
X160147000Y-107899845D01*
X159893000Y-107899845D01*
X159663110Y-107778524D01*
X159253076Y-107948355D01*
X158824817Y-108338642D01*
X158757702Y-108481553D01*
X158623000Y-108279957D01*
X158623000Y-107315000D01*
X158535994Y-106877593D01*
X158288223Y-106506777D01*
X157018223Y-105236777D01*
X156647407Y-104989006D01*
X156210000Y-104902000D01*
X117983000Y-104902000D01*
X117983000Y-102235000D01*
X117895994Y-101797593D01*
X117648223Y-101426777D01*
X117013223Y-100791777D01*
X116642407Y-100544006D01*
X116205000Y-100457000D01*
X112363000Y-100457000D01*
X112363000Y-99622325D01*
X118564587Y-99622325D01*
X118926916Y-100499229D01*
X119597242Y-101170726D01*
X120473513Y-101534585D01*
X121422325Y-101535413D01*
X122299229Y-101173084D01*
X122970726Y-100502758D01*
X123334585Y-99626487D01*
X123335413Y-98677675D01*
X122973084Y-97800771D01*
X122302758Y-97129274D01*
X121426487Y-96765415D01*
X120477675Y-96764587D01*
X119600771Y-97126916D01*
X118929274Y-97797242D01*
X118565415Y-98673513D01*
X118564587Y-99622325D01*
X112363000Y-99622325D01*
X112363000Y-82750533D01*
X112455317Y-82733162D01*
X112671441Y-82594090D01*
X112816431Y-82381890D01*
X112867440Y-82130000D01*
X112867440Y-80430000D01*
X112823162Y-80194683D01*
X112684090Y-79978559D01*
X112471890Y-79833569D01*
X112363000Y-79811518D01*
X112363000Y-78940533D01*
X112455317Y-78923162D01*
X112671441Y-78784090D01*
X112816431Y-78571890D01*
X112867440Y-78320000D01*
X112867440Y-76620000D01*
X112823162Y-76384683D01*
X112684090Y-76168559D01*
X112471890Y-76023569D01*
X112363000Y-76001518D01*
X112363000Y-75130533D01*
X112455317Y-75113162D01*
X112671441Y-74974090D01*
X112816431Y-74761890D01*
X112867440Y-74510000D01*
X112867440Y-72810000D01*
X112823162Y-72574683D01*
X112684090Y-72358559D01*
X112471890Y-72213569D01*
X112363000Y-72191518D01*
X112363000Y-64970533D01*
X112455317Y-64953162D01*
X112671441Y-64814090D01*
X112816431Y-64601890D01*
X112867440Y-64350000D01*
X112867440Y-62650000D01*
X112823162Y-62414683D01*
X112684090Y-62198559D01*
X112471890Y-62053569D01*
X112363000Y-62031518D01*
X112363000Y-61160533D01*
X112455317Y-61143162D01*
X112671441Y-61004090D01*
X112816431Y-60791890D01*
X112867440Y-60540000D01*
X112867440Y-58840000D01*
X112823162Y-58604683D01*
X112684090Y-58388559D01*
X112471890Y-58243569D01*
X112363000Y-58221518D01*
X112363000Y-57350533D01*
X112455317Y-57333162D01*
X112671441Y-57194090D01*
X112816431Y-56981890D01*
X112867440Y-56730000D01*
X112867440Y-55030000D01*
X112823162Y-54794683D01*
X112684090Y-54578559D01*
X112471890Y-54433569D01*
X112363000Y-54411518D01*
X112363000Y-50622325D01*
X118564587Y-50622325D01*
X118926916Y-51499229D01*
X119597242Y-52170726D01*
X120473513Y-52534585D01*
X121422325Y-52535413D01*
X122299229Y-52173084D01*
X122970726Y-51502758D01*
X123334585Y-50626487D01*
X123335413Y-49677675D01*
X122973084Y-48800771D01*
X122302758Y-48129274D01*
X121426487Y-47765415D01*
X120477675Y-47764587D01*
X119600771Y-48126916D01*
X118929274Y-48797242D01*
X118565415Y-49673513D01*
X118564587Y-50622325D01*
X112363000Y-50622325D01*
X112363000Y-47190533D01*
X112455317Y-47173162D01*
X112671441Y-47034090D01*
X112816431Y-46821890D01*
X112867440Y-46570000D01*
X112867440Y-46228000D01*
X139065000Y-46228000D01*
X139502407Y-46140994D01*
X139873223Y-45893223D01*
X142366808Y-43399638D01*
X142366802Y-43406359D01*
X142540446Y-43826612D01*
X142621000Y-43907306D01*
X142621000Y-47746456D01*
X142536146Y-47803153D01*
X142308498Y-48143853D01*
X142241383Y-48000942D01*
X141813124Y-47610655D01*
X141403090Y-47440824D01*
X141173200Y-47562145D01*
X141173200Y-48755300D01*
X141193200Y-48755300D01*
X141193200Y-49009300D01*
X141173200Y-49009300D01*
X141173200Y-49029300D01*
X140919200Y-49029300D01*
X140919200Y-49009300D01*
X140899200Y-49009300D01*
X140899200Y-48755300D01*
X140919200Y-48755300D01*
X140919200Y-47562145D01*
X140689310Y-47440824D01*
X140279276Y-47610655D01*
X139851017Y-48000942D01*
X139783902Y-48143853D01*
X139556254Y-47803153D01*
X139074485Y-47481246D01*
X138506200Y-47368207D01*
X137937915Y-47481246D01*
X137456146Y-47803153D01*
X137236200Y-48132326D01*
X137016254Y-47803153D01*
X136534485Y-47481246D01*
X135966200Y-47368207D01*
X135397915Y-47481246D01*
X134916146Y-47803153D01*
X134696200Y-48132326D01*
X134476254Y-47803153D01*
X133994485Y-47481246D01*
X133426200Y-47368207D01*
X132857915Y-47481246D01*
X132376146Y-47803153D01*
X132148498Y-48143853D01*
X132081383Y-48000942D01*
X131653124Y-47610655D01*
X131243090Y-47440824D01*
X131013200Y-47562145D01*
X131013200Y-48755300D01*
X131033200Y-48755300D01*
X131033200Y-49009300D01*
X131013200Y-49009300D01*
X131013200Y-49029300D01*
X130759200Y-49029300D01*
X130759200Y-49009300D01*
X130739200Y-49009300D01*
X130739200Y-48755300D01*
X130759200Y-48755300D01*
X130759200Y-47562145D01*
X130529310Y-47440824D01*
X130119276Y-47610655D01*
X129691017Y-48000942D01*
X129623902Y-48143853D01*
X129396254Y-47803153D01*
X128914485Y-47481246D01*
X128346200Y-47368207D01*
X127777915Y-47481246D01*
X127296146Y-47803153D01*
X127076200Y-48132326D01*
X126856254Y-47803153D01*
X126374485Y-47481246D01*
X125806200Y-47368207D01*
X125237915Y-47481246D01*
X124756146Y-47803153D01*
X124434239Y-48284922D01*
X124321200Y-48853207D01*
X124321200Y-48911393D01*
X124434239Y-49479678D01*
X124756146Y-49961447D01*
X124757379Y-49962271D01*
X124720883Y-49969138D01*
X124504759Y-50108210D01*
X124359769Y-50320410D01*
X124308760Y-50572300D01*
X124308760Y-52272300D01*
X124353038Y-52507617D01*
X124492110Y-52723741D01*
X124704310Y-52868731D01*
X124956200Y-52919740D01*
X126656200Y-52919740D01*
X126891517Y-52875462D01*
X127107641Y-52736390D01*
X127252631Y-52524190D01*
X127266286Y-52456759D01*
X127296146Y-52501447D01*
X127777915Y-52823354D01*
X128346200Y-52936393D01*
X128914485Y-52823354D01*
X129396254Y-52501447D01*
X129616200Y-52172274D01*
X129836146Y-52501447D01*
X130317915Y-52823354D01*
X130886200Y-52936393D01*
X131454485Y-52823354D01*
X131936254Y-52501447D01*
X132156200Y-52172274D01*
X132376146Y-52501447D01*
X132857915Y-52823354D01*
X133426200Y-52936393D01*
X133994485Y-52823354D01*
X134476254Y-52501447D01*
X134703902Y-52160747D01*
X134771017Y-52303658D01*
X135199276Y-52693945D01*
X135609310Y-52863776D01*
X135839200Y-52742455D01*
X135839200Y-51549300D01*
X135819200Y-51549300D01*
X135819200Y-51295300D01*
X135839200Y-51295300D01*
X135839200Y-51275300D01*
X136093200Y-51275300D01*
X136093200Y-51295300D01*
X136113200Y-51295300D01*
X136113200Y-51549300D01*
X136093200Y-51549300D01*
X136093200Y-52742455D01*
X136323090Y-52863776D01*
X136733124Y-52693945D01*
X137161383Y-52303658D01*
X137228498Y-52160747D01*
X137456146Y-52501447D01*
X137937915Y-52823354D01*
X138506200Y-52936393D01*
X139074485Y-52823354D01*
X139556254Y-52501447D01*
X139776200Y-52172274D01*
X139996146Y-52501447D01*
X140477915Y-52823354D01*
X141046200Y-52936393D01*
X141614485Y-52823354D01*
X142096254Y-52501447D01*
X142316200Y-52172274D01*
X142536146Y-52501447D01*
X143017915Y-52823354D01*
X143586200Y-52936393D01*
X144154485Y-52823354D01*
X144636254Y-52501447D01*
X144856200Y-52172274D01*
X145076146Y-52501447D01*
X145557915Y-52823354D01*
X146126200Y-52936393D01*
X146694485Y-52823354D01*
X147176254Y-52501447D01*
X147396200Y-52172274D01*
X147616146Y-52501447D01*
X148097915Y-52823354D01*
X148666200Y-52936393D01*
X149234485Y-52823354D01*
X149716254Y-52501447D01*
X149936200Y-52172274D01*
X150156146Y-52501447D01*
X150637915Y-52823354D01*
X151206200Y-52936393D01*
X151774485Y-52823354D01*
X152256254Y-52501447D01*
X152476200Y-52172274D01*
X152696146Y-52501447D01*
X153177915Y-52823354D01*
X153746200Y-52936393D01*
X154314485Y-52823354D01*
X154796254Y-52501447D01*
X155023902Y-52160747D01*
X155091017Y-52303658D01*
X155519276Y-52693945D01*
X155929310Y-52863776D01*
X156159200Y-52742455D01*
X156159200Y-51549300D01*
X156139200Y-51549300D01*
X156139200Y-51295300D01*
X156159200Y-51295300D01*
X156159200Y-51275300D01*
X156413200Y-51275300D01*
X156413200Y-51295300D01*
X156433200Y-51295300D01*
X156433200Y-51549300D01*
X156413200Y-51549300D01*
X156413200Y-52742455D01*
X156643090Y-52863776D01*
X157053124Y-52693945D01*
X157481383Y-52303658D01*
X157548498Y-52160747D01*
X157776146Y-52501447D01*
X158257915Y-52823354D01*
X158826200Y-52936393D01*
X159394485Y-52823354D01*
X159876254Y-52501447D01*
X160096200Y-52172274D01*
X160316146Y-52501447D01*
X160797915Y-52823354D01*
X161366200Y-52936393D01*
X161934485Y-52823354D01*
X162416254Y-52501447D01*
X162636200Y-52172274D01*
X162856146Y-52501447D01*
X163337915Y-52823354D01*
X163906200Y-52936393D01*
X164474485Y-52823354D01*
X164956254Y-52501447D01*
X165176200Y-52172274D01*
X165396146Y-52501447D01*
X165877915Y-52823354D01*
X166446200Y-52936393D01*
X167014485Y-52823354D01*
X167496254Y-52501447D01*
X167716200Y-52172274D01*
X167936146Y-52501447D01*
X168417915Y-52823354D01*
X168986200Y-52936393D01*
X169554485Y-52823354D01*
X170036254Y-52501447D01*
X170256200Y-52172274D01*
X170476146Y-52501447D01*
X170957915Y-52823354D01*
X171526200Y-52936393D01*
X172094485Y-52823354D01*
X172576254Y-52501447D01*
X172803902Y-52160747D01*
X172871017Y-52303658D01*
X173299276Y-52693945D01*
X173709310Y-52863776D01*
X173939200Y-52742455D01*
X173939200Y-51549300D01*
X174193200Y-51549300D01*
X174193200Y-52742455D01*
X174423090Y-52863776D01*
X174833124Y-52693945D01*
X175261383Y-52303658D01*
X175507686Y-51779192D01*
X175387019Y-51549300D01*
X174193200Y-51549300D01*
X173939200Y-51549300D01*
X173919200Y-51549300D01*
X173919200Y-51295300D01*
X173939200Y-51295300D01*
X173939200Y-51275300D01*
X174193200Y-51275300D01*
X174193200Y-51295300D01*
X175387019Y-51295300D01*
X175507686Y-51065408D01*
X175299603Y-50622325D01*
X176564587Y-50622325D01*
X176926916Y-51499229D01*
X177597242Y-52170726D01*
X178473513Y-52534585D01*
X179422325Y-52535413D01*
X180299229Y-52173084D01*
X180970726Y-51502758D01*
X181334585Y-50626487D01*
X181335413Y-49677675D01*
X180973084Y-48800771D01*
X180302758Y-48129274D01*
X179426487Y-47765415D01*
X178477675Y-47764587D01*
X177600771Y-48126916D01*
X176929274Y-48797242D01*
X176565415Y-49673513D01*
X176564587Y-50622325D01*
X175299603Y-50622325D01*
X175261383Y-50540942D01*
X174833124Y-50150655D01*
X174833099Y-50150645D01*
X175116254Y-49961447D01*
X175438161Y-49479678D01*
X175551200Y-48911393D01*
X175551200Y-48853207D01*
X175438161Y-48284922D01*
X175116254Y-47803153D01*
X174634485Y-47481246D01*
X174066200Y-47368207D01*
X173497915Y-47481246D01*
X173016146Y-47803153D01*
X172788498Y-48143853D01*
X172721383Y-48000942D01*
X172293124Y-47610655D01*
X171883090Y-47440824D01*
X171653200Y-47562145D01*
X171653200Y-48755300D01*
X171673200Y-48755300D01*
X171673200Y-49009300D01*
X171653200Y-49009300D01*
X171653200Y-49029300D01*
X171399200Y-49029300D01*
X171399200Y-49009300D01*
X171379200Y-49009300D01*
X171379200Y-48755300D01*
X171399200Y-48755300D01*
X171399200Y-47562145D01*
X171169310Y-47440824D01*
X170759276Y-47610655D01*
X170331017Y-48000942D01*
X170263902Y-48143853D01*
X170036254Y-47803153D01*
X169554485Y-47481246D01*
X168986200Y-47368207D01*
X168417915Y-47481246D01*
X167936146Y-47803153D01*
X167708498Y-48143853D01*
X167641383Y-48000942D01*
X167213124Y-47610655D01*
X166803090Y-47440824D01*
X166573200Y-47562145D01*
X166573200Y-48755300D01*
X166593200Y-48755300D01*
X166593200Y-49009300D01*
X166573200Y-49009300D01*
X166573200Y-49029300D01*
X166319200Y-49029300D01*
X166319200Y-49009300D01*
X166299200Y-49009300D01*
X166299200Y-48755300D01*
X166319200Y-48755300D01*
X166319200Y-47562145D01*
X166089310Y-47440824D01*
X165679276Y-47610655D01*
X165251017Y-48000942D01*
X165183902Y-48143853D01*
X164956254Y-47803153D01*
X164474485Y-47481246D01*
X163906200Y-47368207D01*
X163337915Y-47481246D01*
X162856146Y-47803153D01*
X162636200Y-48132326D01*
X162416254Y-47803153D01*
X161934485Y-47481246D01*
X161366200Y-47368207D01*
X160797915Y-47481246D01*
X160316146Y-47803153D01*
X160096200Y-48132326D01*
X159876254Y-47803153D01*
X159394485Y-47481246D01*
X158826200Y-47368207D01*
X158257915Y-47481246D01*
X157776146Y-47803153D01*
X157556200Y-48132326D01*
X157336254Y-47803153D01*
X156854485Y-47481246D01*
X156286200Y-47368207D01*
X155717915Y-47481246D01*
X155236146Y-47803153D01*
X155016200Y-48132326D01*
X154796254Y-47803153D01*
X154314485Y-47481246D01*
X153746200Y-47368207D01*
X153177915Y-47481246D01*
X152696146Y-47803153D01*
X152476200Y-48132326D01*
X152256254Y-47803153D01*
X151774485Y-47481246D01*
X151206200Y-47368207D01*
X150637915Y-47481246D01*
X150156146Y-47803153D01*
X149928498Y-48143853D01*
X149861383Y-48000942D01*
X149433124Y-47610655D01*
X149023090Y-47440824D01*
X148793200Y-47562145D01*
X148793200Y-48755300D01*
X148813200Y-48755300D01*
X148813200Y-49009300D01*
X148793200Y-49009300D01*
X148793200Y-49029300D01*
X148539200Y-49029300D01*
X148539200Y-49009300D01*
X148519200Y-49009300D01*
X148519200Y-48755300D01*
X148539200Y-48755300D01*
X148539200Y-47562145D01*
X148309310Y-47440824D01*
X147899276Y-47610655D01*
X147471017Y-48000942D01*
X147403902Y-48143853D01*
X147176254Y-47803153D01*
X146694485Y-47481246D01*
X146126200Y-47368207D01*
X145557915Y-47481246D01*
X145076146Y-47803153D01*
X144856200Y-48132326D01*
X144636254Y-47803153D01*
X144399000Y-47644625D01*
X144399000Y-43907588D01*
X144478423Y-43828303D01*
X144652801Y-43408354D01*
X144653198Y-42953641D01*
X144479554Y-42533388D01*
X144158303Y-42211577D01*
X143738354Y-42037199D01*
X143729255Y-42037191D01*
X143983446Y-41783000D01*
X146050000Y-41783000D01*
X146487407Y-41695994D01*
X146858223Y-41448223D01*
X148128223Y-40178223D01*
X148375994Y-39807407D01*
X148463000Y-39370000D01*
X148463000Y-38882595D01*
X148545910Y-39011441D01*
X148590000Y-39041566D01*
X148590000Y-40519995D01*
X148589999Y-40520000D01*
X148686673Y-41006008D01*
X148961974Y-41418026D01*
X149021972Y-41478023D01*
X149021974Y-41478026D01*
X149348187Y-41695994D01*
X149433992Y-41753327D01*
X149920000Y-41850001D01*
X149920005Y-41850000D01*
X163674179Y-41850000D01*
X163706916Y-41929229D01*
X164377242Y-42600726D01*
X165253513Y-42964585D01*
X166202325Y-42965413D01*
X167079229Y-42603084D01*
X167750726Y-41932758D01*
X168114585Y-41056487D01*
X168115413Y-40107675D01*
X167753084Y-39230771D01*
X167082758Y-38559274D01*
X166206487Y-38195415D01*
X165257675Y-38194587D01*
X164380771Y-38556916D01*
X163709274Y-39227242D01*
X163674910Y-39310000D01*
X151130000Y-39310000D01*
X151130000Y-39044322D01*
X151161441Y-39024090D01*
X151306431Y-38811890D01*
X151357440Y-38560000D01*
X151357440Y-36560000D01*
X151336554Y-36449000D01*
X152830038Y-36449000D01*
X152807560Y-36560000D01*
X152807560Y-38560000D01*
X152851838Y-38795317D01*
X152990910Y-39011441D01*
X153203110Y-39156431D01*
X153455000Y-39207440D01*
X155155000Y-39207440D01*
X155390317Y-39163162D01*
X155606441Y-39024090D01*
X155751431Y-38811890D01*
X155802440Y-38560000D01*
X155802440Y-36560000D01*
X155758162Y-36324683D01*
X155619090Y-36108559D01*
X155406890Y-35963569D01*
X155155000Y-35912560D01*
X155137820Y-35912560D01*
X155126330Y-35854795D01*
X154933618Y-35566382D01*
X154574676Y-35207440D01*
X155155000Y-35207440D01*
X155390317Y-35163162D01*
X155606441Y-35024090D01*
X155751431Y-34811890D01*
X155758996Y-34774528D01*
X176715077Y-34774528D01*
X176905364Y-35119271D01*
X177786591Y-35470956D01*
X178735323Y-35458641D01*
X179554636Y-35119271D01*
X179744923Y-34774528D01*
X178230000Y-33259605D01*
X176715077Y-34774528D01*
X155758996Y-34774528D01*
X155802440Y-34560000D01*
X155802440Y-34449000D01*
X156305000Y-34449000D01*
X156645206Y-34381329D01*
X156933618Y-34188618D01*
X157473618Y-33648618D01*
X157666329Y-33360206D01*
X157734000Y-33020000D01*
X157734000Y-32636591D01*
X175839044Y-32636591D01*
X175851359Y-33585323D01*
X176190729Y-34404636D01*
X176535472Y-34594923D01*
X178050395Y-33080000D01*
X178409605Y-33080000D01*
X179924528Y-34594923D01*
X180269271Y-34404636D01*
X180620956Y-33523409D01*
X180608641Y-32574677D01*
X180269271Y-31755364D01*
X179924528Y-31565077D01*
X178409605Y-33080000D01*
X178050395Y-33080000D01*
X176535472Y-31565077D01*
X176190729Y-31755364D01*
X175839044Y-32636591D01*
X157734000Y-32636591D01*
X157734000Y-31385472D01*
X176715077Y-31385472D01*
X178230000Y-32900395D01*
X179744923Y-31385472D01*
X179554636Y-31040729D01*
X178673409Y-30689044D01*
X177724677Y-30701359D01*
X176905364Y-31040729D01*
X176715077Y-31385472D01*
X157734000Y-31385472D01*
X157734000Y-26955750D01*
X158485000Y-26955750D01*
X158485000Y-27696309D01*
X158581673Y-27929698D01*
X158760301Y-28108327D01*
X158993690Y-28205000D01*
X159734250Y-28205000D01*
X159893000Y-28046250D01*
X159893000Y-26797000D01*
X160147000Y-26797000D01*
X160147000Y-28046250D01*
X160305750Y-28205000D01*
X161046310Y-28205000D01*
X161279699Y-28108327D01*
X161458327Y-27929698D01*
X161555000Y-27696309D01*
X161555000Y-26955750D01*
X161396250Y-26797000D01*
X160147000Y-26797000D01*
X159893000Y-26797000D01*
X158643750Y-26797000D01*
X158485000Y-26955750D01*
X157734000Y-26955750D01*
X157734000Y-25133236D01*
X157848236Y-25019000D01*
X158738525Y-25019000D01*
X158895092Y-25175841D01*
X158760301Y-25231673D01*
X158581673Y-25410302D01*
X158485000Y-25643691D01*
X158485000Y-26384250D01*
X158643750Y-26543000D01*
X159893000Y-26543000D01*
X159893000Y-26523000D01*
X160147000Y-26523000D01*
X160147000Y-26543000D01*
X161396250Y-26543000D01*
X161555000Y-26384250D01*
X161555000Y-25643691D01*
X161458327Y-25410302D01*
X161279699Y-25231673D01*
X161145006Y-25175881D01*
X161320551Y-25000643D01*
X161554733Y-24436670D01*
X161555265Y-23826009D01*
X161322068Y-23261629D01*
X160890643Y-22829449D01*
X160326670Y-22595267D01*
X159716009Y-22594735D01*
X159151629Y-22827932D01*
X158737838Y-23241000D01*
X157480000Y-23241000D01*
X157139795Y-23308670D01*
X156851382Y-23501382D01*
X156216382Y-24136382D01*
X156023671Y-24424794D01*
X155956000Y-24765000D01*
X155956000Y-32651764D01*
X155936764Y-32671000D01*
X155802440Y-32671000D01*
X155802440Y-32560000D01*
X155758162Y-32324683D01*
X155619090Y-32108559D01*
X155406890Y-31963569D01*
X155155000Y-31912560D01*
X153455000Y-31912560D01*
X153219683Y-31956838D01*
X153003559Y-32095910D01*
X152858569Y-32308110D01*
X152807560Y-32560000D01*
X152807560Y-34560000D01*
X152828446Y-34671000D01*
X151334962Y-34671000D01*
X151357440Y-34560000D01*
X151357440Y-32560000D01*
X151313162Y-32324683D01*
X151174090Y-32108559D01*
X150961890Y-31963569D01*
X150749000Y-31920458D01*
X150749000Y-26955750D01*
X151500000Y-26955750D01*
X151500000Y-27696309D01*
X151596673Y-27929698D01*
X151775301Y-28108327D01*
X152008690Y-28205000D01*
X152749250Y-28205000D01*
X152908000Y-28046250D01*
X152908000Y-26797000D01*
X153162000Y-26797000D01*
X153162000Y-28046250D01*
X153320750Y-28205000D01*
X154061310Y-28205000D01*
X154294699Y-28108327D01*
X154473327Y-27929698D01*
X154570000Y-27696309D01*
X154570000Y-26955750D01*
X154411250Y-26797000D01*
X153162000Y-26797000D01*
X152908000Y-26797000D01*
X151658750Y-26797000D01*
X151500000Y-26955750D01*
X150749000Y-26955750D01*
X150749000Y-25133236D01*
X150863236Y-25019000D01*
X151753525Y-25019000D01*
X151910092Y-25175841D01*
X151775301Y-25231673D01*
X151596673Y-25410302D01*
X151500000Y-25643691D01*
X151500000Y-26384250D01*
X151658750Y-26543000D01*
X152908000Y-26543000D01*
X152908000Y-26523000D01*
X153162000Y-26523000D01*
X153162000Y-26543000D01*
X154411250Y-26543000D01*
X154570000Y-26384250D01*
X154570000Y-25643691D01*
X154473327Y-25410302D01*
X154294699Y-25231673D01*
X154160006Y-25175881D01*
X154335551Y-25000643D01*
X154569733Y-24436670D01*
X154570265Y-23826009D01*
X154337068Y-23261629D01*
X153905643Y-22829449D01*
X153341670Y-22595267D01*
X152731009Y-22594735D01*
X152166629Y-22827932D01*
X151752838Y-23241000D01*
X150495000Y-23241000D01*
X150154795Y-23308670D01*
X149866382Y-23501382D01*
X149231382Y-24136382D01*
X149038671Y-24424794D01*
X148971000Y-24765000D01*
X148971000Y-31919898D01*
X148774683Y-31956838D01*
X148558559Y-32095910D01*
X148413569Y-32308110D01*
X148362560Y-32560000D01*
X148362560Y-33832488D01*
X148128223Y-33481777D01*
X146858223Y-32211777D01*
X146487407Y-31964006D01*
X146050000Y-31877000D01*
X145561044Y-31877000D01*
X145459090Y-31718559D01*
X145246890Y-31573569D01*
X144995000Y-31522560D01*
X143295000Y-31522560D01*
X143129000Y-31553795D01*
X143129000Y-30952440D01*
X144360000Y-30952440D01*
X144595317Y-30908162D01*
X144811441Y-30769090D01*
X144956431Y-30556890D01*
X145007440Y-30305000D01*
X145007440Y-30194000D01*
X145872560Y-30194000D01*
X145872560Y-30305000D01*
X145916838Y-30540317D01*
X146055910Y-30756441D01*
X146268110Y-30901431D01*
X146520000Y-30952440D01*
X148120000Y-30952440D01*
X148355317Y-30908162D01*
X148571441Y-30769090D01*
X148716431Y-30556890D01*
X148767440Y-30305000D01*
X148767440Y-28305000D01*
X148723162Y-28069683D01*
X148584090Y-27853559D01*
X148371890Y-27708569D01*
X148120000Y-27657560D01*
X146520000Y-27657560D01*
X146284683Y-27701838D01*
X146068559Y-27840910D01*
X145923569Y-28053110D01*
X145872560Y-28305000D01*
X145872560Y-28416000D01*
X145007440Y-28416000D01*
X145007440Y-28305000D01*
X144963162Y-28069683D01*
X144824090Y-27853559D01*
X144611890Y-27708569D01*
X144360000Y-27657560D01*
X142660000Y-27657560D01*
X142424683Y-27701838D01*
X142208559Y-27840910D01*
X142063569Y-28053110D01*
X142012560Y-28305000D01*
X142012560Y-28815204D01*
X141611382Y-29216382D01*
X141418671Y-29504794D01*
X141351000Y-29845000D01*
X141351000Y-39001764D01*
X137426764Y-42926000D01*
X134861236Y-42926000D01*
X135248618Y-42538618D01*
X135441330Y-42250205D01*
X135509000Y-41910000D01*
X135509000Y-39147441D01*
X135643642Y-39295183D01*
X136168108Y-39541486D01*
X136398000Y-39420819D01*
X136398000Y-38227000D01*
X136652000Y-38227000D01*
X136652000Y-39420819D01*
X136881892Y-39541486D01*
X137406358Y-39295183D01*
X137796645Y-38866924D01*
X137966476Y-38456890D01*
X137845155Y-38227000D01*
X136652000Y-38227000D01*
X136398000Y-38227000D01*
X136378000Y-38227000D01*
X136378000Y-37973000D01*
X136398000Y-37973000D01*
X136398000Y-37953000D01*
X136652000Y-37953000D01*
X136652000Y-37973000D01*
X137845155Y-37973000D01*
X137966476Y-37743110D01*
X137796645Y-37333076D01*
X137406358Y-36904817D01*
X137263447Y-36837702D01*
X137604147Y-36610054D01*
X137926054Y-36128285D01*
X138039093Y-35560000D01*
X137926054Y-34991715D01*
X137604147Y-34509946D01*
X137562548Y-34482150D01*
X137610317Y-34473162D01*
X137826441Y-34334090D01*
X137971431Y-34121890D01*
X138022440Y-33870000D01*
X138022440Y-32170000D01*
X137978162Y-31934683D01*
X137839090Y-31718559D01*
X137626890Y-31573569D01*
X137375000Y-31522560D01*
X135675000Y-31522560D01*
X135509000Y-31553795D01*
X135509000Y-30945102D01*
X135705317Y-30908162D01*
X135921441Y-30769090D01*
X136066431Y-30556890D01*
X136117440Y-30305000D01*
X136117440Y-30194000D01*
X136982560Y-30194000D01*
X136982560Y-30305000D01*
X137026838Y-30540317D01*
X137165910Y-30756441D01*
X137378110Y-30901431D01*
X137630000Y-30952440D01*
X139230000Y-30952440D01*
X139465317Y-30908162D01*
X139681441Y-30769090D01*
X139826431Y-30556890D01*
X139877440Y-30305000D01*
X139877440Y-28305000D01*
X139833162Y-28069683D01*
X139694090Y-27853559D01*
X139481890Y-27708569D01*
X139230000Y-27657560D01*
X137630000Y-27657560D01*
X137394683Y-27701838D01*
X137178559Y-27840910D01*
X137033569Y-28053110D01*
X136982560Y-28305000D01*
X136982560Y-28416000D01*
X136271107Y-28416000D01*
X136230206Y-28388671D01*
X136117440Y-28366241D01*
X136117440Y-28305000D01*
X136073162Y-28069683D01*
X135934090Y-27853559D01*
X135721890Y-27708569D01*
X135470000Y-27657560D01*
X133770000Y-27657560D01*
X133534683Y-27701838D01*
X133318559Y-27840910D01*
X133223000Y-27980765D01*
X133223000Y-26627595D01*
X133305910Y-26756441D01*
X133518110Y-26901431D01*
X133770000Y-26952440D01*
X135470000Y-26952440D01*
X135705317Y-26908162D01*
X135921441Y-26769090D01*
X136066431Y-26556890D01*
X136117440Y-26305000D01*
X136117440Y-25590750D01*
X136995000Y-25590750D01*
X136995000Y-26431309D01*
X137091673Y-26664698D01*
X137270301Y-26843327D01*
X137503690Y-26940000D01*
X138144250Y-26940000D01*
X138303000Y-26781250D01*
X138303000Y-25432000D01*
X138557000Y-25432000D01*
X138557000Y-26781250D01*
X138715750Y-26940000D01*
X139356310Y-26940000D01*
X139589699Y-26843327D01*
X139768327Y-26664698D01*
X139865000Y-26431309D01*
X139865000Y-25590750D01*
X139706250Y-25432000D01*
X138557000Y-25432000D01*
X138303000Y-25432000D01*
X137153750Y-25432000D01*
X136995000Y-25590750D01*
X136117440Y-25590750D01*
X136117440Y-24305000D01*
X136073162Y-24069683D01*
X136030253Y-24003000D01*
X137067774Y-24003000D01*
X136995000Y-24178691D01*
X136995000Y-25019250D01*
X137153750Y-25178000D01*
X138303000Y-25178000D01*
X138303000Y-25158000D01*
X138557000Y-25158000D01*
X138557000Y-25178000D01*
X139706250Y-25178000D01*
X139865000Y-25019250D01*
X139865000Y-24178691D01*
X139792226Y-24003000D01*
X141766554Y-24003000D01*
X142021990Y-24258436D01*
X142012560Y-24305000D01*
X142012560Y-26305000D01*
X142056838Y-26540317D01*
X142195910Y-26756441D01*
X142408110Y-26901431D01*
X142660000Y-26952440D01*
X144360000Y-26952440D01*
X144595317Y-26908162D01*
X144811441Y-26769090D01*
X144956431Y-26556890D01*
X145007440Y-26305000D01*
X145007440Y-25590750D01*
X145885000Y-25590750D01*
X145885000Y-26431309D01*
X145981673Y-26664698D01*
X146160301Y-26843327D01*
X146393690Y-26940000D01*
X147034250Y-26940000D01*
X147193000Y-26781250D01*
X147193000Y-25432000D01*
X147447000Y-25432000D01*
X147447000Y-26781250D01*
X147605750Y-26940000D01*
X148246310Y-26940000D01*
X148479699Y-26843327D01*
X148658327Y-26664698D01*
X148755000Y-26431309D01*
X148755000Y-25590750D01*
X148596250Y-25432000D01*
X147447000Y-25432000D01*
X147193000Y-25432000D01*
X146043750Y-25432000D01*
X145885000Y-25590750D01*
X145007440Y-25590750D01*
X145007440Y-24305000D01*
X144983674Y-24178691D01*
X145885000Y-24178691D01*
X145885000Y-25019250D01*
X146043750Y-25178000D01*
X147193000Y-25178000D01*
X147193000Y-23828750D01*
X147447000Y-23828750D01*
X147447000Y-25178000D01*
X148596250Y-25178000D01*
X148755000Y-25019250D01*
X148755000Y-24178691D01*
X148658327Y-23945302D01*
X148479699Y-23766673D01*
X148246310Y-23670000D01*
X147605750Y-23670000D01*
X147447000Y-23828750D01*
X147193000Y-23828750D01*
X147034250Y-23670000D01*
X146393690Y-23670000D01*
X146160301Y-23766673D01*
X145981673Y-23945302D01*
X145885000Y-24178691D01*
X144983674Y-24178691D01*
X144963162Y-24069683D01*
X144824090Y-23853559D01*
X144611890Y-23708569D01*
X144567379Y-23699555D01*
X144565994Y-23692593D01*
X144318223Y-23321777D01*
X143348446Y-22352000D01*
X178237275Y-22352000D01*
X177296485Y-22740727D01*
G36*
X44577000Y-80518000D02*
X46863000Y-80518000D01*
X46863000Y-80498000D01*
X47117000Y-80498000D01*
X47117000Y-80518000D01*
X47137000Y-80518000D01*
X47137000Y-80772000D01*
X47117000Y-80772000D01*
X47117000Y-83058000D01*
X47137000Y-83058000D01*
X47137000Y-83312000D01*
X47117000Y-83312000D01*
X47117000Y-84505819D01*
X47346892Y-84626486D01*
X47871358Y-84380183D01*
X48006000Y-84232441D01*
X48006000Y-98594898D01*
X47809683Y-98631838D01*
X47593559Y-98770910D01*
X47448569Y-98983110D01*
X47397560Y-99235000D01*
X47397560Y-101235000D01*
X47441838Y-101470317D01*
X47580910Y-101686441D01*
X47793110Y-101831431D01*
X48045000Y-101882440D01*
X49745000Y-101882440D01*
X49911000Y-101851205D01*
X49911000Y-102621176D01*
X49745000Y-102587560D01*
X48045000Y-102587560D01*
X47809683Y-102631838D01*
X47593559Y-102770910D01*
X47448569Y-102983110D01*
X47397560Y-103235000D01*
X47397560Y-105235000D01*
X47441838Y-105470317D01*
X47580910Y-105686441D01*
X47793110Y-105831431D01*
X48006000Y-105874542D01*
X48006000Y-106045000D01*
X48073671Y-106385206D01*
X48185788Y-106553000D01*
X48266382Y-106673618D01*
X48901382Y-107308618D01*
X49189795Y-107501330D01*
X49530000Y-107569000D01*
X49796764Y-107569000D01*
X49911000Y-107683236D01*
X49911000Y-108033240D01*
X49749946Y-108140853D01*
X49722150Y-108182452D01*
X49713162Y-108134683D01*
X49574090Y-107918559D01*
X49361890Y-107773569D01*
X49110000Y-107722560D01*
X47410000Y-107722560D01*
X47174683Y-107766838D01*
X46958559Y-107905910D01*
X46813569Y-108118110D01*
X46762560Y-108370000D01*
X46762560Y-110070000D01*
X46806838Y-110305317D01*
X46945910Y-110521441D01*
X47158110Y-110666431D01*
X47410000Y-110717440D01*
X49110000Y-110717440D01*
X49345317Y-110673162D01*
X49561441Y-110534090D01*
X49706431Y-110321890D01*
X49720086Y-110254459D01*
X49749946Y-110299147D01*
X50231715Y-110621054D01*
X50800000Y-110734093D01*
X51368285Y-110621054D01*
X51850054Y-110299147D01*
X52070000Y-109969974D01*
X52289946Y-110299147D01*
X52771715Y-110621054D01*
X53340000Y-110734093D01*
X53908285Y-110621054D01*
X54390054Y-110299147D01*
X54711961Y-109817378D01*
X54825000Y-109249093D01*
X54825000Y-109190907D01*
X54711961Y-108622622D01*
X54390054Y-108140853D01*
X54229000Y-108033240D01*
X54229000Y-107048236D01*
X54991000Y-106286236D01*
X54991000Y-111391764D01*
X54876764Y-111506000D01*
X43548236Y-111506000D01*
X43434000Y-111391764D01*
X43434000Y-84232441D01*
X43568642Y-84380183D01*
X44093108Y-84626486D01*
X44323000Y-84505819D01*
X44323000Y-83312000D01*
X44577000Y-83312000D01*
X44577000Y-84505819D01*
X44806892Y-84626486D01*
X45331358Y-84380183D01*
X45720000Y-83953729D01*
X46108642Y-84380183D01*
X46633108Y-84626486D01*
X46863000Y-84505819D01*
X46863000Y-83312000D01*
X44577000Y-83312000D01*
X44323000Y-83312000D01*
X44303000Y-83312000D01*
X44303000Y-83058000D01*
X44323000Y-83058000D01*
X44323000Y-80772000D01*
X44577000Y-80772000D01*
X44577000Y-83058000D01*
X46863000Y-83058000D01*
X46863000Y-80772000D01*
X44577000Y-80772000D01*
X44323000Y-80772000D01*
X44303000Y-80772000D01*
X44303000Y-80518000D01*
X44323000Y-80518000D01*
X44323000Y-80498000D01*
X44577000Y-80498000D01*
X44577000Y-80518000D01*
X44577000Y-80518000D01*
G37*
X44577000Y-80518000D02*
X46863000Y-80518000D01*
X46863000Y-80498000D01*
X47117000Y-80498000D01*
X47117000Y-80518000D01*
X47137000Y-80518000D01*
X47137000Y-80772000D01*
X47117000Y-80772000D01*
X47117000Y-83058000D01*
X47137000Y-83058000D01*
X47137000Y-83312000D01*
X47117000Y-83312000D01*
X47117000Y-84505819D01*
X47346892Y-84626486D01*
X47871358Y-84380183D01*
X48006000Y-84232441D01*
X48006000Y-98594898D01*
X47809683Y-98631838D01*
X47593559Y-98770910D01*
X47448569Y-98983110D01*
X47397560Y-99235000D01*
X47397560Y-101235000D01*
X47441838Y-101470317D01*
X47580910Y-101686441D01*
X47793110Y-101831431D01*
X48045000Y-101882440D01*
X49745000Y-101882440D01*
X49911000Y-101851205D01*
X49911000Y-102621176D01*
X49745000Y-102587560D01*
X48045000Y-102587560D01*
X47809683Y-102631838D01*
X47593559Y-102770910D01*
X47448569Y-102983110D01*
X47397560Y-103235000D01*
X47397560Y-105235000D01*
X47441838Y-105470317D01*
X47580910Y-105686441D01*
X47793110Y-105831431D01*
X48006000Y-105874542D01*
X48006000Y-106045000D01*
X48073671Y-106385206D01*
X48185788Y-106553000D01*
X48266382Y-106673618D01*
X48901382Y-107308618D01*
X49189795Y-107501330D01*
X49530000Y-107569000D01*
X49796764Y-107569000D01*
X49911000Y-107683236D01*
X49911000Y-108033240D01*
X49749946Y-108140853D01*
X49722150Y-108182452D01*
X49713162Y-108134683D01*
X49574090Y-107918559D01*
X49361890Y-107773569D01*
X49110000Y-107722560D01*
X47410000Y-107722560D01*
X47174683Y-107766838D01*
X46958559Y-107905910D01*
X46813569Y-108118110D01*
X46762560Y-108370000D01*
X46762560Y-110070000D01*
X46806838Y-110305317D01*
X46945910Y-110521441D01*
X47158110Y-110666431D01*
X47410000Y-110717440D01*
X49110000Y-110717440D01*
X49345317Y-110673162D01*
X49561441Y-110534090D01*
X49706431Y-110321890D01*
X49720086Y-110254459D01*
X49749946Y-110299147D01*
X50231715Y-110621054D01*
X50800000Y-110734093D01*
X51368285Y-110621054D01*
X51850054Y-110299147D01*
X52070000Y-109969974D01*
X52289946Y-110299147D01*
X52771715Y-110621054D01*
X53340000Y-110734093D01*
X53908285Y-110621054D01*
X54390054Y-110299147D01*
X54711961Y-109817378D01*
X54825000Y-109249093D01*
X54825000Y-109190907D01*
X54711961Y-108622622D01*
X54390054Y-108140853D01*
X54229000Y-108033240D01*
X54229000Y-107048236D01*
X54991000Y-106286236D01*
X54991000Y-111391764D01*
X54876764Y-111506000D01*
X43548236Y-111506000D01*
X43434000Y-111391764D01*
X43434000Y-84232441D01*
X43568642Y-84380183D01*
X44093108Y-84626486D01*
X44323000Y-84505819D01*
X44323000Y-83312000D01*
X44577000Y-83312000D01*
X44577000Y-84505819D01*
X44806892Y-84626486D01*
X45331358Y-84380183D01*
X45720000Y-83953729D01*
X46108642Y-84380183D01*
X46633108Y-84626486D01*
X46863000Y-84505819D01*
X46863000Y-83312000D01*
X44577000Y-83312000D01*
X44323000Y-83312000D01*
X44303000Y-83312000D01*
X44303000Y-83058000D01*
X44323000Y-83058000D01*
X44323000Y-80772000D01*
X44577000Y-80772000D01*
X44577000Y-83058000D01*
X46863000Y-83058000D01*
X46863000Y-80772000D01*
X44577000Y-80772000D01*
X44323000Y-80772000D01*
X44303000Y-80772000D01*
X44303000Y-80518000D01*
X44323000Y-80518000D01*
X44323000Y-80498000D01*
X44577000Y-80498000D01*
X44577000Y-80518000D01*
G36*
X53848000Y-31750000D02*
X53858006Y-31799410D01*
X53886447Y-31841035D01*
X53928841Y-31868315D01*
X53975000Y-31877000D01*
X88265000Y-31877000D01*
X88314410Y-31866994D01*
X88356035Y-31838553D01*
X88383315Y-31796159D01*
X88392000Y-31750000D01*
X88392000Y-22352000D01*
X125891554Y-22352000D01*
X124921777Y-23321777D01*
X124674006Y-23692593D01*
X124673236Y-23696465D01*
X124644683Y-23701838D01*
X124428559Y-23840910D01*
X124283569Y-24053110D01*
X124232560Y-24305000D01*
X124232560Y-26305000D01*
X124276838Y-26540317D01*
X124415910Y-26756441D01*
X124628110Y-26901431D01*
X124880000Y-26952440D01*
X126580000Y-26952440D01*
X126815317Y-26908162D01*
X127031441Y-26769090D01*
X127176431Y-26556890D01*
X127227440Y-26305000D01*
X127227440Y-25590750D01*
X128105000Y-25590750D01*
X128105000Y-26431309D01*
X128201673Y-26664698D01*
X128380301Y-26843327D01*
X128613690Y-26940000D01*
X129254250Y-26940000D01*
X129413000Y-26781250D01*
X129413000Y-25432000D01*
X128263750Y-25432000D01*
X128105000Y-25590750D01*
X127227440Y-25590750D01*
X127227440Y-24305000D01*
X127218573Y-24257873D01*
X127473446Y-24003000D01*
X128177774Y-24003000D01*
X128105000Y-24178691D01*
X128105000Y-25019250D01*
X128263750Y-25178000D01*
X129413000Y-25178000D01*
X129413000Y-25158000D01*
X129667000Y-25158000D01*
X129667000Y-25178000D01*
X129687000Y-25178000D01*
X129687000Y-25432000D01*
X129667000Y-25432000D01*
X129667000Y-26781250D01*
X129825750Y-26940000D01*
X130466310Y-26940000D01*
X130699699Y-26843327D01*
X130878327Y-26664698D01*
X130937000Y-26523049D01*
X130937000Y-28060107D01*
X130804090Y-27853559D01*
X130591890Y-27708569D01*
X130340000Y-27657560D01*
X128740000Y-27657560D01*
X128504683Y-27701838D01*
X128288559Y-27840910D01*
X128143569Y-28053110D01*
X128092560Y-28305000D01*
X128092560Y-28416000D01*
X127381107Y-28416000D01*
X127340206Y-28388671D01*
X127227440Y-28366241D01*
X127227440Y-28305000D01*
X127183162Y-28069683D01*
X127044090Y-27853559D01*
X126831890Y-27708569D01*
X126580000Y-27657560D01*
X124880000Y-27657560D01*
X124644683Y-27701838D01*
X124428559Y-27840910D01*
X124283569Y-28053110D01*
X124232560Y-28305000D01*
X124232560Y-30305000D01*
X124276838Y-30540317D01*
X124415910Y-30756441D01*
X124628110Y-30901431D01*
X124880000Y-30952440D01*
X126111000Y-30952440D01*
X126111000Y-39636764D01*
X125361764Y-40386000D01*
X122923236Y-40386000D01*
X122809000Y-40271764D01*
X122809000Y-26035000D01*
X122741329Y-25694794D01*
X122548618Y-25406382D01*
X121278618Y-24136382D01*
X121178796Y-24069683D01*
X120990206Y-23943671D01*
X120650000Y-23876000D01*
X112395000Y-23876000D01*
X112054795Y-23943670D01*
X111766382Y-24136382D01*
X111131382Y-24771382D01*
X110938671Y-25059794D01*
X110871000Y-25400000D01*
X110871000Y-26398963D01*
X110790000Y-26382560D01*
X110190000Y-26382560D01*
X109954683Y-26426838D01*
X109864020Y-26485178D01*
X109646310Y-26395000D01*
X109505750Y-26395000D01*
X109347000Y-26553750D01*
X109347000Y-27653000D01*
X109367000Y-27653000D01*
X109367000Y-27907000D01*
X109347000Y-27907000D01*
X109347000Y-27927000D01*
X109093000Y-27927000D01*
X109093000Y-27907000D01*
X108443750Y-27907000D01*
X108285000Y-28065750D01*
X108285000Y-28321000D01*
X99060000Y-28321000D01*
X98719794Y-28388671D01*
X98501615Y-28534454D01*
X98431382Y-28581382D01*
X96663860Y-30348904D01*
X96764093Y-29845000D01*
X96651054Y-29276715D01*
X96329147Y-28794946D01*
X95988447Y-28567298D01*
X96131358Y-28500183D01*
X96521645Y-28071924D01*
X96691476Y-27661890D01*
X96570155Y-27432000D01*
X95377000Y-27432000D01*
X95377000Y-27452000D01*
X95123000Y-27452000D01*
X95123000Y-27432000D01*
X92837000Y-27432000D01*
X92837000Y-27452000D01*
X92583000Y-27452000D01*
X92583000Y-27432000D01*
X92563000Y-27432000D01*
X92563000Y-27178000D01*
X92583000Y-27178000D01*
X92583000Y-27158000D01*
X92837000Y-27158000D01*
X92837000Y-27178000D01*
X95123000Y-27178000D01*
X95123000Y-27158000D01*
X95377000Y-27158000D01*
X95377000Y-27178000D01*
X96570155Y-27178000D01*
X96691476Y-26948110D01*
X96673079Y-26903691D01*
X108285000Y-26903691D01*
X108285000Y-27494250D01*
X108443750Y-27653000D01*
X109093000Y-27653000D01*
X109093000Y-26553750D01*
X108934250Y-26395000D01*
X108793690Y-26395000D01*
X108560301Y-26491673D01*
X108381673Y-26670302D01*
X108285000Y-26903691D01*
X96673079Y-26903691D01*
X96521645Y-26538076D01*
X96294654Y-26289000D01*
X99602412Y-26289000D01*
X99681697Y-26368423D01*
X100101646Y-26542801D01*
X100556359Y-26543198D01*
X100976612Y-26369554D01*
X101298423Y-26048303D01*
X101472801Y-25628354D01*
X101473198Y-25173641D01*
X101299554Y-24753388D01*
X100978303Y-24431577D01*
X100558354Y-24257199D01*
X100103641Y-24256802D01*
X99683388Y-24430446D01*
X99602694Y-24511000D01*
X91440000Y-24511000D01*
X91099795Y-24578670D01*
X90811382Y-24771382D01*
X90176382Y-25406382D01*
X89983671Y-25694794D01*
X89916000Y-26035000D01*
X89916000Y-33286764D01*
X89801764Y-33401000D01*
X49898236Y-33401000D01*
X49784000Y-33286764D01*
X49784000Y-26035000D01*
X49781186Y-26020854D01*
X49716330Y-25694795D01*
X49523618Y-25406382D01*
X48888618Y-24771382D01*
X48859157Y-24751697D01*
X48600206Y-24578671D01*
X48260000Y-24511000D01*
X43180000Y-24511000D01*
X42839795Y-24578670D01*
X42551382Y-24771382D01*
X41916382Y-25406382D01*
X41723671Y-25694794D01*
X41656000Y-26035000D01*
X41656000Y-44450000D01*
X41723671Y-44790206D01*
X41876069Y-45018285D01*
X41916382Y-45078618D01*
X42551382Y-45713618D01*
X42839795Y-45906330D01*
X43180000Y-45974000D01*
X43263240Y-45974000D01*
X43370853Y-46135054D01*
X43700026Y-46355000D01*
X43370853Y-46574946D01*
X43263240Y-46736000D01*
X43180000Y-46736000D01*
X42839794Y-46803671D01*
X42551382Y-46996382D01*
X40646382Y-48901382D01*
X40453671Y-49189794D01*
X40386000Y-49530000D01*
X40386000Y-109612560D01*
X39878153Y-109103826D01*
X38726326Y-108625546D01*
X37479146Y-108624457D01*
X36326485Y-109100727D01*
X35443826Y-109981847D01*
X35052000Y-110925469D01*
X35052000Y-26232725D01*
X35440727Y-27173515D01*
X36321847Y-28056174D01*
X37473674Y-28534454D01*
X38720854Y-28535543D01*
X39873515Y-28059273D01*
X40756174Y-27178153D01*
X41234454Y-26026326D01*
X41235543Y-24779146D01*
X40759273Y-23626485D01*
X39878153Y-22743826D01*
X38934531Y-22352000D01*
X53848000Y-22352000D01*
X53848000Y-31750000D01*
X53848000Y-31750000D01*
G37*
X53848000Y-31750000D02*
X53858006Y-31799410D01*
X53886447Y-31841035D01*
X53928841Y-31868315D01*
X53975000Y-31877000D01*
X88265000Y-31877000D01*
X88314410Y-31866994D01*
X88356035Y-31838553D01*
X88383315Y-31796159D01*
X88392000Y-31750000D01*
X88392000Y-22352000D01*
X125891554Y-22352000D01*
X124921777Y-23321777D01*
X124674006Y-23692593D01*
X124673236Y-23696465D01*
X124644683Y-23701838D01*
X124428559Y-23840910D01*
X124283569Y-24053110D01*
X124232560Y-24305000D01*
X124232560Y-26305000D01*
X124276838Y-26540317D01*
X124415910Y-26756441D01*
X124628110Y-26901431D01*
X124880000Y-26952440D01*
X126580000Y-26952440D01*
X126815317Y-26908162D01*
X127031441Y-26769090D01*
X127176431Y-26556890D01*
X127227440Y-26305000D01*
X127227440Y-25590750D01*
X128105000Y-25590750D01*
X128105000Y-26431309D01*
X128201673Y-26664698D01*
X128380301Y-26843327D01*
X128613690Y-26940000D01*
X129254250Y-26940000D01*
X129413000Y-26781250D01*
X129413000Y-25432000D01*
X128263750Y-25432000D01*
X128105000Y-25590750D01*
X127227440Y-25590750D01*
X127227440Y-24305000D01*
X127218573Y-24257873D01*
X127473446Y-24003000D01*
X128177774Y-24003000D01*
X128105000Y-24178691D01*
X128105000Y-25019250D01*
X128263750Y-25178000D01*
X129413000Y-25178000D01*
X129413000Y-25158000D01*
X129667000Y-25158000D01*
X129667000Y-25178000D01*
X129687000Y-25178000D01*
X129687000Y-25432000D01*
X129667000Y-25432000D01*
X129667000Y-26781250D01*
X129825750Y-26940000D01*
X130466310Y-26940000D01*
X130699699Y-26843327D01*
X130878327Y-26664698D01*
X130937000Y-26523049D01*
X130937000Y-28060107D01*
X130804090Y-27853559D01*
X130591890Y-27708569D01*
X130340000Y-27657560D01*
X128740000Y-27657560D01*
X128504683Y-27701838D01*
X128288559Y-27840910D01*
X128143569Y-28053110D01*
X128092560Y-28305000D01*
X128092560Y-28416000D01*
X127381107Y-28416000D01*
X127340206Y-28388671D01*
X127227440Y-28366241D01*
X127227440Y-28305000D01*
X127183162Y-28069683D01*
X127044090Y-27853559D01*
X126831890Y-27708569D01*
X126580000Y-27657560D01*
X124880000Y-27657560D01*
X124644683Y-27701838D01*
X124428559Y-27840910D01*
X124283569Y-28053110D01*
X124232560Y-28305000D01*
X124232560Y-30305000D01*
X124276838Y-30540317D01*
X124415910Y-30756441D01*
X124628110Y-30901431D01*
X124880000Y-30952440D01*
X126111000Y-30952440D01*
X126111000Y-39636764D01*
X125361764Y-40386000D01*
X122923236Y-40386000D01*
X122809000Y-40271764D01*
X122809000Y-26035000D01*
X122741329Y-25694794D01*
X122548618Y-25406382D01*
X121278618Y-24136382D01*
X121178796Y-24069683D01*
X120990206Y-23943671D01*
X120650000Y-23876000D01*
X112395000Y-23876000D01*
X112054795Y-23943670D01*
X111766382Y-24136382D01*
X111131382Y-24771382D01*
X110938671Y-25059794D01*
X110871000Y-25400000D01*
X110871000Y-26398963D01*
X110790000Y-26382560D01*
X110190000Y-26382560D01*
X109954683Y-26426838D01*
X109864020Y-26485178D01*
X109646310Y-26395000D01*
X109505750Y-26395000D01*
X109347000Y-26553750D01*
X109347000Y-27653000D01*
X109367000Y-27653000D01*
X109367000Y-27907000D01*
X109347000Y-27907000D01*
X109347000Y-27927000D01*
X109093000Y-27927000D01*
X109093000Y-27907000D01*
X108443750Y-27907000D01*
X108285000Y-28065750D01*
X108285000Y-28321000D01*
X99060000Y-28321000D01*
X98719794Y-28388671D01*
X98501615Y-28534454D01*
X98431382Y-28581382D01*
X96663860Y-30348904D01*
X96764093Y-29845000D01*
X96651054Y-29276715D01*
X96329147Y-28794946D01*
X95988447Y-28567298D01*
X96131358Y-28500183D01*
X96521645Y-28071924D01*
X96691476Y-27661890D01*
X96570155Y-27432000D01*
X95377000Y-27432000D01*
X95377000Y-27452000D01*
X95123000Y-27452000D01*
X95123000Y-27432000D01*
X92837000Y-27432000D01*
X92837000Y-27452000D01*
X92583000Y-27452000D01*
X92583000Y-27432000D01*
X92563000Y-27432000D01*
X92563000Y-27178000D01*
X92583000Y-27178000D01*
X92583000Y-27158000D01*
X92837000Y-27158000D01*
X92837000Y-27178000D01*
X95123000Y-27178000D01*
X95123000Y-27158000D01*
X95377000Y-27158000D01*
X95377000Y-27178000D01*
X96570155Y-27178000D01*
X96691476Y-26948110D01*
X96673079Y-26903691D01*
X108285000Y-26903691D01*
X108285000Y-27494250D01*
X108443750Y-27653000D01*
X109093000Y-27653000D01*
X109093000Y-26553750D01*
X108934250Y-26395000D01*
X108793690Y-26395000D01*
X108560301Y-26491673D01*
X108381673Y-26670302D01*
X108285000Y-26903691D01*
X96673079Y-26903691D01*
X96521645Y-26538076D01*
X96294654Y-26289000D01*
X99602412Y-26289000D01*
X99681697Y-26368423D01*
X100101646Y-26542801D01*
X100556359Y-26543198D01*
X100976612Y-26369554D01*
X101298423Y-26048303D01*
X101472801Y-25628354D01*
X101473198Y-25173641D01*
X101299554Y-24753388D01*
X100978303Y-24431577D01*
X100558354Y-24257199D01*
X100103641Y-24256802D01*
X99683388Y-24430446D01*
X99602694Y-24511000D01*
X91440000Y-24511000D01*
X91099795Y-24578670D01*
X90811382Y-24771382D01*
X90176382Y-25406382D01*
X89983671Y-25694794D01*
X89916000Y-26035000D01*
X89916000Y-33286764D01*
X89801764Y-33401000D01*
X49898236Y-33401000D01*
X49784000Y-33286764D01*
X49784000Y-26035000D01*
X49781186Y-26020854D01*
X49716330Y-25694795D01*
X49523618Y-25406382D01*
X48888618Y-24771382D01*
X48859157Y-24751697D01*
X48600206Y-24578671D01*
X48260000Y-24511000D01*
X43180000Y-24511000D01*
X42839795Y-24578670D01*
X42551382Y-24771382D01*
X41916382Y-25406382D01*
X41723671Y-25694794D01*
X41656000Y-26035000D01*
X41656000Y-44450000D01*
X41723671Y-44790206D01*
X41876069Y-45018285D01*
X41916382Y-45078618D01*
X42551382Y-45713618D01*
X42839795Y-45906330D01*
X43180000Y-45974000D01*
X43263240Y-45974000D01*
X43370853Y-46135054D01*
X43700026Y-46355000D01*
X43370853Y-46574946D01*
X43263240Y-46736000D01*
X43180000Y-46736000D01*
X42839794Y-46803671D01*
X42551382Y-46996382D01*
X40646382Y-48901382D01*
X40453671Y-49189794D01*
X40386000Y-49530000D01*
X40386000Y-109612560D01*
X39878153Y-109103826D01*
X38726326Y-108625546D01*
X37479146Y-108624457D01*
X36326485Y-109100727D01*
X35443826Y-109981847D01*
X35052000Y-110925469D01*
X35052000Y-26232725D01*
X35440727Y-27173515D01*
X36321847Y-28056174D01*
X37473674Y-28534454D01*
X38720854Y-28535543D01*
X39873515Y-28059273D01*
X40756174Y-27178153D01*
X41234454Y-26026326D01*
X41235543Y-24779146D01*
X40759273Y-23626485D01*
X39878153Y-22743826D01*
X38934531Y-22352000D01*
X53848000Y-22352000D01*
X53848000Y-31750000D01*
G36*
X110077000Y-72189467D02*
X109984683Y-72206838D01*
X109768559Y-72345910D01*
X109623569Y-72558110D01*
X109572560Y-72810000D01*
X109572560Y-74510000D01*
X109616838Y-74745317D01*
X109755910Y-74961441D01*
X109968110Y-75106431D01*
X110077000Y-75128482D01*
X110077000Y-75999467D01*
X109984683Y-76016838D01*
X109768559Y-76155910D01*
X109623569Y-76368110D01*
X109572560Y-76620000D01*
X109572560Y-78320000D01*
X109616838Y-78555317D01*
X109755910Y-78771441D01*
X109968110Y-78916431D01*
X110077000Y-78938482D01*
X110077000Y-79809467D01*
X109984683Y-79826838D01*
X109768559Y-79965910D01*
X109623569Y-80178110D01*
X109572560Y-80430000D01*
X109572560Y-82130000D01*
X109616838Y-82365317D01*
X109755910Y-82581441D01*
X109968110Y-82726431D01*
X110077000Y-82748482D01*
X110077000Y-100457000D01*
X104286044Y-100457000D01*
X104184090Y-100298559D01*
X103971890Y-100153569D01*
X103720000Y-100102560D01*
X102020000Y-100102560D01*
X101784683Y-100146838D01*
X101568559Y-100285910D01*
X101451658Y-100457000D01*
X96666044Y-100457000D01*
X96564090Y-100298559D01*
X96351890Y-100153569D01*
X96100000Y-100102560D01*
X94400000Y-100102560D01*
X94164683Y-100146838D01*
X93948559Y-100285910D01*
X93803569Y-100498110D01*
X93752560Y-100750000D01*
X93752560Y-102450000D01*
X93796838Y-102685317D01*
X93935910Y-102901441D01*
X94148110Y-103046431D01*
X94215541Y-103060086D01*
X94170853Y-103089946D01*
X94063240Y-103251000D01*
X93078236Y-103251000D01*
X92964000Y-103136764D01*
X92964000Y-85725000D01*
X92926937Y-85538671D01*
X92896330Y-85384795D01*
X92703618Y-85096382D01*
X92177003Y-84569767D01*
X92680907Y-84670000D01*
X92739093Y-84670000D01*
X93307378Y-84556961D01*
X93789147Y-84235054D01*
X93980000Y-83949422D01*
X94170853Y-84235054D01*
X94652622Y-84556961D01*
X95220907Y-84670000D01*
X95279093Y-84670000D01*
X95847378Y-84556961D01*
X96329147Y-84235054D01*
X96651054Y-83753285D01*
X96764093Y-83185000D01*
X96708774Y-82906890D01*
X101428524Y-82906890D01*
X101598355Y-83316924D01*
X101988642Y-83745183D01*
X102513108Y-83991486D01*
X102743000Y-83870819D01*
X102743000Y-82677000D01*
X102997000Y-82677000D01*
X102997000Y-83870819D01*
X103226892Y-83991486D01*
X103751358Y-83745183D01*
X104141645Y-83316924D01*
X104311476Y-82906890D01*
X104190155Y-82677000D01*
X102997000Y-82677000D01*
X102743000Y-82677000D01*
X101549845Y-82677000D01*
X101428524Y-82906890D01*
X96708774Y-82906890D01*
X96651054Y-82616715D01*
X96329147Y-82134946D01*
X95999974Y-81915000D01*
X96329147Y-81695054D01*
X96651054Y-81213285D01*
X96764093Y-80645000D01*
X96651054Y-80076715D01*
X96329147Y-79594946D01*
X95999974Y-79375000D01*
X96329147Y-79155054D01*
X96651054Y-78673285D01*
X96764093Y-78105000D01*
X96663860Y-77601096D01*
X97161382Y-78098618D01*
X97449795Y-78291330D01*
X97790000Y-78359000D01*
X101683240Y-78359000D01*
X101790853Y-78520054D01*
X102120026Y-78740000D01*
X101790853Y-78959946D01*
X101468946Y-79441715D01*
X101355907Y-80010000D01*
X101468946Y-80578285D01*
X101790853Y-81060054D01*
X102131553Y-81287702D01*
X101988642Y-81354817D01*
X101598355Y-81783076D01*
X101428524Y-82193110D01*
X101549845Y-82423000D01*
X102743000Y-82423000D01*
X102743000Y-82403000D01*
X102997000Y-82403000D01*
X102997000Y-82423000D01*
X104190155Y-82423000D01*
X104311476Y-82193110D01*
X104141645Y-81783076D01*
X103751358Y-81354817D01*
X103608447Y-81287702D01*
X103939358Y-81066594D01*
X104781382Y-81908618D01*
X105069794Y-82101329D01*
X105410000Y-82169000D01*
X105579898Y-82169000D01*
X105616838Y-82365317D01*
X105755910Y-82581441D01*
X105968110Y-82726431D01*
X106220000Y-82777440D01*
X108220000Y-82777440D01*
X108455317Y-82733162D01*
X108671441Y-82594090D01*
X108816431Y-82381890D01*
X108867440Y-82130000D01*
X108867440Y-80430000D01*
X108823162Y-80194683D01*
X108684090Y-79978559D01*
X108471890Y-79833569D01*
X108220000Y-79782560D01*
X106220000Y-79782560D01*
X105984683Y-79826838D01*
X105768559Y-79965910D01*
X105623569Y-80178110D01*
X105613764Y-80226528D01*
X104768618Y-79381382D01*
X104749515Y-79368618D01*
X104480206Y-79188671D01*
X104140000Y-79121000D01*
X104056760Y-79121000D01*
X103949147Y-78959946D01*
X103619974Y-78740000D01*
X103949147Y-78520054D01*
X104056760Y-78359000D01*
X105579898Y-78359000D01*
X105616838Y-78555317D01*
X105755910Y-78771441D01*
X105968110Y-78916431D01*
X106220000Y-78967440D01*
X108220000Y-78967440D01*
X108455317Y-78923162D01*
X108671441Y-78784090D01*
X108816431Y-78571890D01*
X108867440Y-78320000D01*
X108867440Y-76620000D01*
X108823162Y-76384683D01*
X108684090Y-76168559D01*
X108471890Y-76023569D01*
X108220000Y-75972560D01*
X106220000Y-75972560D01*
X105984683Y-76016838D01*
X105768559Y-76155910D01*
X105623569Y-76368110D01*
X105580458Y-76581000D01*
X104056760Y-76581000D01*
X103949147Y-76419946D01*
X103619974Y-76200000D01*
X103949147Y-75980054D01*
X104056760Y-75819000D01*
X104140000Y-75819000D01*
X104480206Y-75751329D01*
X104768618Y-75558618D01*
X105611308Y-74715928D01*
X105616838Y-74745317D01*
X105755910Y-74961441D01*
X105968110Y-75106431D01*
X106220000Y-75157440D01*
X108220000Y-75157440D01*
X108455317Y-75113162D01*
X108671441Y-74974090D01*
X108816431Y-74761890D01*
X108867440Y-74510000D01*
X108867440Y-72810000D01*
X108823162Y-72574683D01*
X108684090Y-72358559D01*
X108471890Y-72213569D01*
X108220000Y-72162560D01*
X106220000Y-72162560D01*
X105984683Y-72206838D01*
X105768559Y-72345910D01*
X105623569Y-72558110D01*
X105580458Y-72771000D01*
X105410000Y-72771000D01*
X105069794Y-72838671D01*
X105050180Y-72851777D01*
X104781382Y-73031382D01*
X104306846Y-73505918D01*
X104316431Y-73491890D01*
X104367440Y-73240000D01*
X104367440Y-71540000D01*
X104323162Y-71304683D01*
X104184090Y-71088559D01*
X104013000Y-70971658D01*
X104013000Y-70958446D01*
X104613446Y-70358000D01*
X110077000Y-70358000D01*
X110077000Y-72189467D01*
X110077000Y-72189467D01*
G37*
X110077000Y-72189467D02*
X109984683Y-72206838D01*
X109768559Y-72345910D01*
X109623569Y-72558110D01*
X109572560Y-72810000D01*
X109572560Y-74510000D01*
X109616838Y-74745317D01*
X109755910Y-74961441D01*
X109968110Y-75106431D01*
X110077000Y-75128482D01*
X110077000Y-75999467D01*
X109984683Y-76016838D01*
X109768559Y-76155910D01*
X109623569Y-76368110D01*
X109572560Y-76620000D01*
X109572560Y-78320000D01*
X109616838Y-78555317D01*
X109755910Y-78771441D01*
X109968110Y-78916431D01*
X110077000Y-78938482D01*
X110077000Y-79809467D01*
X109984683Y-79826838D01*
X109768559Y-79965910D01*
X109623569Y-80178110D01*
X109572560Y-80430000D01*
X109572560Y-82130000D01*
X109616838Y-82365317D01*
X109755910Y-82581441D01*
X109968110Y-82726431D01*
X110077000Y-82748482D01*
X110077000Y-100457000D01*
X104286044Y-100457000D01*
X104184090Y-100298559D01*
X103971890Y-100153569D01*
X103720000Y-100102560D01*
X102020000Y-100102560D01*
X101784683Y-100146838D01*
X101568559Y-100285910D01*
X101451658Y-100457000D01*
X96666044Y-100457000D01*
X96564090Y-100298559D01*
X96351890Y-100153569D01*
X96100000Y-100102560D01*
X94400000Y-100102560D01*
X94164683Y-100146838D01*
X93948559Y-100285910D01*
X93803569Y-100498110D01*
X93752560Y-100750000D01*
X93752560Y-102450000D01*
X93796838Y-102685317D01*
X93935910Y-102901441D01*
X94148110Y-103046431D01*
X94215541Y-103060086D01*
X94170853Y-103089946D01*
X94063240Y-103251000D01*
X93078236Y-103251000D01*
X92964000Y-103136764D01*
X92964000Y-85725000D01*
X92926937Y-85538671D01*
X92896330Y-85384795D01*
X92703618Y-85096382D01*
X92177003Y-84569767D01*
X92680907Y-84670000D01*
X92739093Y-84670000D01*
X93307378Y-84556961D01*
X93789147Y-84235054D01*
X93980000Y-83949422D01*
X94170853Y-84235054D01*
X94652622Y-84556961D01*
X95220907Y-84670000D01*
X95279093Y-84670000D01*
X95847378Y-84556961D01*
X96329147Y-84235054D01*
X96651054Y-83753285D01*
X96764093Y-83185000D01*
X96708774Y-82906890D01*
X101428524Y-82906890D01*
X101598355Y-83316924D01*
X101988642Y-83745183D01*
X102513108Y-83991486D01*
X102743000Y-83870819D01*
X102743000Y-82677000D01*
X102997000Y-82677000D01*
X102997000Y-83870819D01*
X103226892Y-83991486D01*
X103751358Y-83745183D01*
X104141645Y-83316924D01*
X104311476Y-82906890D01*
X104190155Y-82677000D01*
X102997000Y-82677000D01*
X102743000Y-82677000D01*
X101549845Y-82677000D01*
X101428524Y-82906890D01*
X96708774Y-82906890D01*
X96651054Y-82616715D01*
X96329147Y-82134946D01*
X95999974Y-81915000D01*
X96329147Y-81695054D01*
X96651054Y-81213285D01*
X96764093Y-80645000D01*
X96651054Y-80076715D01*
X96329147Y-79594946D01*
X95999974Y-79375000D01*
X96329147Y-79155054D01*
X96651054Y-78673285D01*
X96764093Y-78105000D01*
X96663860Y-77601096D01*
X97161382Y-78098618D01*
X97449795Y-78291330D01*
X97790000Y-78359000D01*
X101683240Y-78359000D01*
X101790853Y-78520054D01*
X102120026Y-78740000D01*
X101790853Y-78959946D01*
X101468946Y-79441715D01*
X101355907Y-80010000D01*
X101468946Y-80578285D01*
X101790853Y-81060054D01*
X102131553Y-81287702D01*
X101988642Y-81354817D01*
X101598355Y-81783076D01*
X101428524Y-82193110D01*
X101549845Y-82423000D01*
X102743000Y-82423000D01*
X102743000Y-82403000D01*
X102997000Y-82403000D01*
X102997000Y-82423000D01*
X104190155Y-82423000D01*
X104311476Y-82193110D01*
X104141645Y-81783076D01*
X103751358Y-81354817D01*
X103608447Y-81287702D01*
X103939358Y-81066594D01*
X104781382Y-81908618D01*
X105069794Y-82101329D01*
X105410000Y-82169000D01*
X105579898Y-82169000D01*
X105616838Y-82365317D01*
X105755910Y-82581441D01*
X105968110Y-82726431D01*
X106220000Y-82777440D01*
X108220000Y-82777440D01*
X108455317Y-82733162D01*
X108671441Y-82594090D01*
X108816431Y-82381890D01*
X108867440Y-82130000D01*
X108867440Y-80430000D01*
X108823162Y-80194683D01*
X108684090Y-79978559D01*
X108471890Y-79833569D01*
X108220000Y-79782560D01*
X106220000Y-79782560D01*
X105984683Y-79826838D01*
X105768559Y-79965910D01*
X105623569Y-80178110D01*
X105613764Y-80226528D01*
X104768618Y-79381382D01*
X104749515Y-79368618D01*
X104480206Y-79188671D01*
X104140000Y-79121000D01*
X104056760Y-79121000D01*
X103949147Y-78959946D01*
X103619974Y-78740000D01*
X103949147Y-78520054D01*
X104056760Y-78359000D01*
X105579898Y-78359000D01*
X105616838Y-78555317D01*
X105755910Y-78771441D01*
X105968110Y-78916431D01*
X106220000Y-78967440D01*
X108220000Y-78967440D01*
X108455317Y-78923162D01*
X108671441Y-78784090D01*
X108816431Y-78571890D01*
X108867440Y-78320000D01*
X108867440Y-76620000D01*
X108823162Y-76384683D01*
X108684090Y-76168559D01*
X108471890Y-76023569D01*
X108220000Y-75972560D01*
X106220000Y-75972560D01*
X105984683Y-76016838D01*
X105768559Y-76155910D01*
X105623569Y-76368110D01*
X105580458Y-76581000D01*
X104056760Y-76581000D01*
X103949147Y-76419946D01*
X103619974Y-76200000D01*
X103949147Y-75980054D01*
X104056760Y-75819000D01*
X104140000Y-75819000D01*
X104480206Y-75751329D01*
X104768618Y-75558618D01*
X105611308Y-74715928D01*
X105616838Y-74745317D01*
X105755910Y-74961441D01*
X105968110Y-75106431D01*
X106220000Y-75157440D01*
X108220000Y-75157440D01*
X108455317Y-75113162D01*
X108671441Y-74974090D01*
X108816431Y-74761890D01*
X108867440Y-74510000D01*
X108867440Y-72810000D01*
X108823162Y-72574683D01*
X108684090Y-72358559D01*
X108471890Y-72213569D01*
X108220000Y-72162560D01*
X106220000Y-72162560D01*
X105984683Y-72206838D01*
X105768559Y-72345910D01*
X105623569Y-72558110D01*
X105580458Y-72771000D01*
X105410000Y-72771000D01*
X105069794Y-72838671D01*
X105050180Y-72851777D01*
X104781382Y-73031382D01*
X104306846Y-73505918D01*
X104316431Y-73491890D01*
X104367440Y-73240000D01*
X104367440Y-71540000D01*
X104323162Y-71304683D01*
X104184090Y-71088559D01*
X104013000Y-70971658D01*
X104013000Y-70958446D01*
X104613446Y-70358000D01*
X110077000Y-70358000D01*
X110077000Y-72189467D01*
G36*
X110077000Y-54409467D02*
X109984683Y-54426838D01*
X109768559Y-54565910D01*
X109623569Y-54778110D01*
X109572560Y-55030000D01*
X109572560Y-56730000D01*
X109616838Y-56965317D01*
X109755910Y-57181441D01*
X109968110Y-57326431D01*
X110077000Y-57348482D01*
X110077000Y-58219467D01*
X109984683Y-58236838D01*
X109768559Y-58375910D01*
X109623569Y-58588110D01*
X109572560Y-58840000D01*
X109572560Y-60540000D01*
X109616838Y-60775317D01*
X109755910Y-60991441D01*
X109968110Y-61136431D01*
X110077000Y-61158482D01*
X110077000Y-62029467D01*
X109984683Y-62046838D01*
X109768559Y-62185910D01*
X109623569Y-62398110D01*
X109572560Y-62650000D01*
X109572560Y-64350000D01*
X109616838Y-64585317D01*
X109755910Y-64801441D01*
X109968110Y-64946431D01*
X110077000Y-64968482D01*
X110077000Y-68072000D01*
X104140000Y-68072000D01*
X103702593Y-68159006D01*
X103331777Y-68406777D01*
X102061777Y-69676777D01*
X101814006Y-70047593D01*
X101727000Y-70485000D01*
X101727000Y-70973956D01*
X101568559Y-71075910D01*
X101423569Y-71288110D01*
X101372560Y-71540000D01*
X101372560Y-73240000D01*
X101416838Y-73475317D01*
X101555910Y-73691441D01*
X101768110Y-73836431D01*
X101835541Y-73850086D01*
X101790853Y-73879946D01*
X101683240Y-74041000D01*
X99428236Y-74041000D01*
X99314000Y-73926764D01*
X99314000Y-68580000D01*
X99279544Y-68406777D01*
X99246330Y-68239795D01*
X99053618Y-67951382D01*
X98418618Y-67316382D01*
X98130206Y-67123671D01*
X97790000Y-67056000D01*
X96436760Y-67056000D01*
X96329147Y-66894946D01*
X95999974Y-66675000D01*
X96329147Y-66455054D01*
X96651054Y-65973285D01*
X96764093Y-65405000D01*
X96708774Y-65126890D01*
X101428524Y-65126890D01*
X101598355Y-65536924D01*
X101988642Y-65965183D01*
X102513108Y-66211486D01*
X102743000Y-66090819D01*
X102743000Y-64897000D01*
X102997000Y-64897000D01*
X102997000Y-66090819D01*
X103226892Y-66211486D01*
X103751358Y-65965183D01*
X104141645Y-65536924D01*
X104311476Y-65126890D01*
X104190155Y-64897000D01*
X102997000Y-64897000D01*
X102743000Y-64897000D01*
X101549845Y-64897000D01*
X101428524Y-65126890D01*
X96708774Y-65126890D01*
X96651054Y-64836715D01*
X96329147Y-64354946D01*
X95999974Y-64135000D01*
X96329147Y-63915054D01*
X96436760Y-63754000D01*
X96520000Y-63754000D01*
X96860206Y-63686329D01*
X97148618Y-63493618D01*
X100063236Y-60579000D01*
X101683240Y-60579000D01*
X101790853Y-60740054D01*
X102120026Y-60960000D01*
X101790853Y-61179946D01*
X101468946Y-61661715D01*
X101355907Y-62230000D01*
X101468946Y-62798285D01*
X101790853Y-63280054D01*
X102131553Y-63507702D01*
X101988642Y-63574817D01*
X101598355Y-64003076D01*
X101428524Y-64413110D01*
X101549845Y-64643000D01*
X102743000Y-64643000D01*
X102743000Y-64623000D01*
X102997000Y-64623000D01*
X102997000Y-64643000D01*
X104190155Y-64643000D01*
X104311476Y-64413110D01*
X104141645Y-64003076D01*
X103751358Y-63574817D01*
X103608447Y-63507702D01*
X103939358Y-63286594D01*
X104781382Y-64128618D01*
X105069794Y-64321329D01*
X105410000Y-64389000D01*
X105579898Y-64389000D01*
X105616838Y-64585317D01*
X105755910Y-64801441D01*
X105968110Y-64946431D01*
X106220000Y-64997440D01*
X108220000Y-64997440D01*
X108455317Y-64953162D01*
X108671441Y-64814090D01*
X108816431Y-64601890D01*
X108867440Y-64350000D01*
X108867440Y-62650000D01*
X108823162Y-62414683D01*
X108684090Y-62198559D01*
X108471890Y-62053569D01*
X108220000Y-62002560D01*
X106220000Y-62002560D01*
X105984683Y-62046838D01*
X105768559Y-62185910D01*
X105623569Y-62398110D01*
X105613764Y-62446528D01*
X104768618Y-61601382D01*
X104606471Y-61493039D01*
X104480206Y-61408671D01*
X104140000Y-61341000D01*
X104056760Y-61341000D01*
X103949147Y-61179946D01*
X103619974Y-60960000D01*
X103949147Y-60740054D01*
X104056760Y-60579000D01*
X105579898Y-60579000D01*
X105616838Y-60775317D01*
X105755910Y-60991441D01*
X105968110Y-61136431D01*
X106220000Y-61187440D01*
X108220000Y-61187440D01*
X108455317Y-61143162D01*
X108671441Y-61004090D01*
X108816431Y-60791890D01*
X108867440Y-60540000D01*
X108867440Y-58840000D01*
X108823162Y-58604683D01*
X108684090Y-58388559D01*
X108471890Y-58243569D01*
X108220000Y-58192560D01*
X106220000Y-58192560D01*
X105984683Y-58236838D01*
X105768559Y-58375910D01*
X105623569Y-58588110D01*
X105580458Y-58801000D01*
X104056760Y-58801000D01*
X103949147Y-58639946D01*
X103619974Y-58420000D01*
X103949147Y-58200054D01*
X104056760Y-58039000D01*
X104140000Y-58039000D01*
X104480206Y-57971329D01*
X104768618Y-57778618D01*
X105611308Y-56935928D01*
X105616838Y-56965317D01*
X105755910Y-57181441D01*
X105968110Y-57326431D01*
X106220000Y-57377440D01*
X108220000Y-57377440D01*
X108455317Y-57333162D01*
X108671441Y-57194090D01*
X108816431Y-56981890D01*
X108867440Y-56730000D01*
X108867440Y-55030000D01*
X108823162Y-54794683D01*
X108684090Y-54578559D01*
X108471890Y-54433569D01*
X108220000Y-54382560D01*
X106220000Y-54382560D01*
X105984683Y-54426838D01*
X105768559Y-54565910D01*
X105623569Y-54778110D01*
X105580458Y-54991000D01*
X105410000Y-54991000D01*
X105069794Y-55058671D01*
X105050180Y-55071777D01*
X104781382Y-55251382D01*
X104306846Y-55725918D01*
X104316431Y-55711890D01*
X104367440Y-55460000D01*
X104367440Y-53760000D01*
X104323162Y-53524683D01*
X104184090Y-53308559D01*
X104013000Y-53191658D01*
X104013000Y-53178446D01*
X104613446Y-52578000D01*
X110077000Y-52578000D01*
X110077000Y-54409467D01*
X110077000Y-54409467D01*
G37*
X110077000Y-54409467D02*
X109984683Y-54426838D01*
X109768559Y-54565910D01*
X109623569Y-54778110D01*
X109572560Y-55030000D01*
X109572560Y-56730000D01*
X109616838Y-56965317D01*
X109755910Y-57181441D01*
X109968110Y-57326431D01*
X110077000Y-57348482D01*
X110077000Y-58219467D01*
X109984683Y-58236838D01*
X109768559Y-58375910D01*
X109623569Y-58588110D01*
X109572560Y-58840000D01*
X109572560Y-60540000D01*
X109616838Y-60775317D01*
X109755910Y-60991441D01*
X109968110Y-61136431D01*
X110077000Y-61158482D01*
X110077000Y-62029467D01*
X109984683Y-62046838D01*
X109768559Y-62185910D01*
X109623569Y-62398110D01*
X109572560Y-62650000D01*
X109572560Y-64350000D01*
X109616838Y-64585317D01*
X109755910Y-64801441D01*
X109968110Y-64946431D01*
X110077000Y-64968482D01*
X110077000Y-68072000D01*
X104140000Y-68072000D01*
X103702593Y-68159006D01*
X103331777Y-68406777D01*
X102061777Y-69676777D01*
X101814006Y-70047593D01*
X101727000Y-70485000D01*
X101727000Y-70973956D01*
X101568559Y-71075910D01*
X101423569Y-71288110D01*
X101372560Y-71540000D01*
X101372560Y-73240000D01*
X101416838Y-73475317D01*
X101555910Y-73691441D01*
X101768110Y-73836431D01*
X101835541Y-73850086D01*
X101790853Y-73879946D01*
X101683240Y-74041000D01*
X99428236Y-74041000D01*
X99314000Y-73926764D01*
X99314000Y-68580000D01*
X99279544Y-68406777D01*
X99246330Y-68239795D01*
X99053618Y-67951382D01*
X98418618Y-67316382D01*
X98130206Y-67123671D01*
X97790000Y-67056000D01*
X96436760Y-67056000D01*
X96329147Y-66894946D01*
X95999974Y-66675000D01*
X96329147Y-66455054D01*
X96651054Y-65973285D01*
X96764093Y-65405000D01*
X96708774Y-65126890D01*
X101428524Y-65126890D01*
X101598355Y-65536924D01*
X101988642Y-65965183D01*
X102513108Y-66211486D01*
X102743000Y-66090819D01*
X102743000Y-64897000D01*
X102997000Y-64897000D01*
X102997000Y-66090819D01*
X103226892Y-66211486D01*
X103751358Y-65965183D01*
X104141645Y-65536924D01*
X104311476Y-65126890D01*
X104190155Y-64897000D01*
X102997000Y-64897000D01*
X102743000Y-64897000D01*
X101549845Y-64897000D01*
X101428524Y-65126890D01*
X96708774Y-65126890D01*
X96651054Y-64836715D01*
X96329147Y-64354946D01*
X95999974Y-64135000D01*
X96329147Y-63915054D01*
X96436760Y-63754000D01*
X96520000Y-63754000D01*
X96860206Y-63686329D01*
X97148618Y-63493618D01*
X100063236Y-60579000D01*
X101683240Y-60579000D01*
X101790853Y-60740054D01*
X102120026Y-60960000D01*
X101790853Y-61179946D01*
X101468946Y-61661715D01*
X101355907Y-62230000D01*
X101468946Y-62798285D01*
X101790853Y-63280054D01*
X102131553Y-63507702D01*
X101988642Y-63574817D01*
X101598355Y-64003076D01*
X101428524Y-64413110D01*
X101549845Y-64643000D01*
X102743000Y-64643000D01*
X102743000Y-64623000D01*
X102997000Y-64623000D01*
X102997000Y-64643000D01*
X104190155Y-64643000D01*
X104311476Y-64413110D01*
X104141645Y-64003076D01*
X103751358Y-63574817D01*
X103608447Y-63507702D01*
X103939358Y-63286594D01*
X104781382Y-64128618D01*
X105069794Y-64321329D01*
X105410000Y-64389000D01*
X105579898Y-64389000D01*
X105616838Y-64585317D01*
X105755910Y-64801441D01*
X105968110Y-64946431D01*
X106220000Y-64997440D01*
X108220000Y-64997440D01*
X108455317Y-64953162D01*
X108671441Y-64814090D01*
X108816431Y-64601890D01*
X108867440Y-64350000D01*
X108867440Y-62650000D01*
X108823162Y-62414683D01*
X108684090Y-62198559D01*
X108471890Y-62053569D01*
X108220000Y-62002560D01*
X106220000Y-62002560D01*
X105984683Y-62046838D01*
X105768559Y-62185910D01*
X105623569Y-62398110D01*
X105613764Y-62446528D01*
X104768618Y-61601382D01*
X104606471Y-61493039D01*
X104480206Y-61408671D01*
X104140000Y-61341000D01*
X104056760Y-61341000D01*
X103949147Y-61179946D01*
X103619974Y-60960000D01*
X103949147Y-60740054D01*
X104056760Y-60579000D01*
X105579898Y-60579000D01*
X105616838Y-60775317D01*
X105755910Y-60991441D01*
X105968110Y-61136431D01*
X106220000Y-61187440D01*
X108220000Y-61187440D01*
X108455317Y-61143162D01*
X108671441Y-61004090D01*
X108816431Y-60791890D01*
X108867440Y-60540000D01*
X108867440Y-58840000D01*
X108823162Y-58604683D01*
X108684090Y-58388559D01*
X108471890Y-58243569D01*
X108220000Y-58192560D01*
X106220000Y-58192560D01*
X105984683Y-58236838D01*
X105768559Y-58375910D01*
X105623569Y-58588110D01*
X105580458Y-58801000D01*
X104056760Y-58801000D01*
X103949147Y-58639946D01*
X103619974Y-58420000D01*
X103949147Y-58200054D01*
X104056760Y-58039000D01*
X104140000Y-58039000D01*
X104480206Y-57971329D01*
X104768618Y-57778618D01*
X105611308Y-56935928D01*
X105616838Y-56965317D01*
X105755910Y-57181441D01*
X105968110Y-57326431D01*
X106220000Y-57377440D01*
X108220000Y-57377440D01*
X108455317Y-57333162D01*
X108671441Y-57194090D01*
X108816431Y-56981890D01*
X108867440Y-56730000D01*
X108867440Y-55030000D01*
X108823162Y-54794683D01*
X108684090Y-54578559D01*
X108471890Y-54433569D01*
X108220000Y-54382560D01*
X106220000Y-54382560D01*
X105984683Y-54426838D01*
X105768559Y-54565910D01*
X105623569Y-54778110D01*
X105580458Y-54991000D01*
X105410000Y-54991000D01*
X105069794Y-55058671D01*
X105050180Y-55071777D01*
X104781382Y-55251382D01*
X104306846Y-55725918D01*
X104316431Y-55711890D01*
X104367440Y-55460000D01*
X104367440Y-53760000D01*
X104323162Y-53524683D01*
X104184090Y-53308559D01*
X104013000Y-53191658D01*
X104013000Y-53178446D01*
X104613446Y-52578000D01*
X110077000Y-52578000D01*
X110077000Y-54409467D01*
G36*
X109645121Y-36966567D02*
X109623569Y-36998110D01*
X109572560Y-37250000D01*
X109572560Y-38950000D01*
X109616838Y-39185317D01*
X109755910Y-39401441D01*
X109968110Y-39546431D01*
X110077000Y-39568482D01*
X110077000Y-40439467D01*
X109984683Y-40456838D01*
X109768559Y-40595910D01*
X109623569Y-40808110D01*
X109572560Y-41060000D01*
X109572560Y-42760000D01*
X109616838Y-42995317D01*
X109755910Y-43211441D01*
X109968110Y-43356431D01*
X110077000Y-43378482D01*
X110077000Y-44249467D01*
X109984683Y-44266838D01*
X109768559Y-44405910D01*
X109623569Y-44618110D01*
X109572560Y-44870000D01*
X109572560Y-46570000D01*
X109616838Y-46805317D01*
X109755910Y-47021441D01*
X109968110Y-47166431D01*
X110077000Y-47188482D01*
X110077000Y-50292000D01*
X104140000Y-50292000D01*
X103702593Y-50379006D01*
X103331777Y-50626777D01*
X102061777Y-51896777D01*
X101814006Y-52267593D01*
X101727000Y-52705000D01*
X101727000Y-53193956D01*
X101568559Y-53295910D01*
X101423569Y-53508110D01*
X101372560Y-53760000D01*
X101372560Y-55460000D01*
X101416838Y-55695317D01*
X101555910Y-55911441D01*
X101768110Y-56056431D01*
X101835541Y-56070086D01*
X101790853Y-56099946D01*
X101683240Y-56261000D01*
X97790000Y-56261000D01*
X97449795Y-56328670D01*
X97161382Y-56521382D01*
X96576951Y-57105813D01*
X96329147Y-56734946D01*
X95999974Y-56515000D01*
X96329147Y-56295054D01*
X96436760Y-56134000D01*
X97790000Y-56134000D01*
X98130206Y-56066329D01*
X98418618Y-55873618D01*
X99053618Y-55238618D01*
X99246330Y-54950205D01*
X99314000Y-54610000D01*
X99314000Y-47346890D01*
X101428524Y-47346890D01*
X101598355Y-47756924D01*
X101988642Y-48185183D01*
X102513108Y-48431486D01*
X102743000Y-48310819D01*
X102743000Y-47117000D01*
X102997000Y-47117000D01*
X102997000Y-48310819D01*
X103226892Y-48431486D01*
X103751358Y-48185183D01*
X104141645Y-47756924D01*
X104311476Y-47346890D01*
X104190155Y-47117000D01*
X102997000Y-47117000D01*
X102743000Y-47117000D01*
X101549845Y-47117000D01*
X101428524Y-47346890D01*
X99314000Y-47346890D01*
X99314000Y-42913236D01*
X99428236Y-42799000D01*
X101683240Y-42799000D01*
X101790853Y-42960054D01*
X102120026Y-43180000D01*
X101790853Y-43399946D01*
X101468946Y-43881715D01*
X101355907Y-44450000D01*
X101468946Y-45018285D01*
X101790853Y-45500054D01*
X102131553Y-45727702D01*
X101988642Y-45794817D01*
X101598355Y-46223076D01*
X101428524Y-46633110D01*
X101549845Y-46863000D01*
X102743000Y-46863000D01*
X102743000Y-46843000D01*
X102997000Y-46843000D01*
X102997000Y-46863000D01*
X104190155Y-46863000D01*
X104311476Y-46633110D01*
X104141645Y-46223076D01*
X103751358Y-45794817D01*
X103608447Y-45727702D01*
X103939358Y-45506594D01*
X104781382Y-46348618D01*
X105069794Y-46541329D01*
X105410000Y-46609000D01*
X105579898Y-46609000D01*
X105616838Y-46805317D01*
X105755910Y-47021441D01*
X105968110Y-47166431D01*
X106220000Y-47217440D01*
X108220000Y-47217440D01*
X108455317Y-47173162D01*
X108671441Y-47034090D01*
X108816431Y-46821890D01*
X108867440Y-46570000D01*
X108867440Y-44870000D01*
X108823162Y-44634683D01*
X108684090Y-44418559D01*
X108471890Y-44273569D01*
X108220000Y-44222560D01*
X106220000Y-44222560D01*
X105984683Y-44266838D01*
X105768559Y-44405910D01*
X105623569Y-44618110D01*
X105613764Y-44666528D01*
X104768618Y-43821382D01*
X104606471Y-43713039D01*
X104480206Y-43628671D01*
X104140000Y-43561000D01*
X104056760Y-43561000D01*
X103949147Y-43399946D01*
X103619974Y-43180000D01*
X103949147Y-42960054D01*
X104056760Y-42799000D01*
X105579898Y-42799000D01*
X105616838Y-42995317D01*
X105755910Y-43211441D01*
X105968110Y-43356431D01*
X106220000Y-43407440D01*
X108220000Y-43407440D01*
X108455317Y-43363162D01*
X108671441Y-43224090D01*
X108816431Y-43011890D01*
X108867440Y-42760000D01*
X108867440Y-41060000D01*
X108823162Y-40824683D01*
X108684090Y-40608559D01*
X108471890Y-40463569D01*
X108220000Y-40412560D01*
X106220000Y-40412560D01*
X105984683Y-40456838D01*
X105768559Y-40595910D01*
X105623569Y-40808110D01*
X105580458Y-41021000D01*
X104056760Y-41021000D01*
X103949147Y-40859946D01*
X103619974Y-40640000D01*
X103949147Y-40420054D01*
X104056760Y-40259000D01*
X104140000Y-40259000D01*
X104480206Y-40191329D01*
X104768618Y-39998618D01*
X105611308Y-39155928D01*
X105616838Y-39185317D01*
X105755910Y-39401441D01*
X105968110Y-39546431D01*
X106220000Y-39597440D01*
X108220000Y-39597440D01*
X108455317Y-39553162D01*
X108671441Y-39414090D01*
X108816431Y-39201890D01*
X108867440Y-38950000D01*
X108867440Y-37250000D01*
X108823162Y-37014683D01*
X108684090Y-36798559D01*
X108544235Y-36703000D01*
X109381554Y-36703000D01*
X109645121Y-36966567D01*
X109645121Y-36966567D01*
G37*
X109645121Y-36966567D02*
X109623569Y-36998110D01*
X109572560Y-37250000D01*
X109572560Y-38950000D01*
X109616838Y-39185317D01*
X109755910Y-39401441D01*
X109968110Y-39546431D01*
X110077000Y-39568482D01*
X110077000Y-40439467D01*
X109984683Y-40456838D01*
X109768559Y-40595910D01*
X109623569Y-40808110D01*
X109572560Y-41060000D01*
X109572560Y-42760000D01*
X109616838Y-42995317D01*
X109755910Y-43211441D01*
X109968110Y-43356431D01*
X110077000Y-43378482D01*
X110077000Y-44249467D01*
X109984683Y-44266838D01*
X109768559Y-44405910D01*
X109623569Y-44618110D01*
X109572560Y-44870000D01*
X109572560Y-46570000D01*
X109616838Y-46805317D01*
X109755910Y-47021441D01*
X109968110Y-47166431D01*
X110077000Y-47188482D01*
X110077000Y-50292000D01*
X104140000Y-50292000D01*
X103702593Y-50379006D01*
X103331777Y-50626777D01*
X102061777Y-51896777D01*
X101814006Y-52267593D01*
X101727000Y-52705000D01*
X101727000Y-53193956D01*
X101568559Y-53295910D01*
X101423569Y-53508110D01*
X101372560Y-53760000D01*
X101372560Y-55460000D01*
X101416838Y-55695317D01*
X101555910Y-55911441D01*
X101768110Y-56056431D01*
X101835541Y-56070086D01*
X101790853Y-56099946D01*
X101683240Y-56261000D01*
X97790000Y-56261000D01*
X97449795Y-56328670D01*
X97161382Y-56521382D01*
X96576951Y-57105813D01*
X96329147Y-56734946D01*
X95999974Y-56515000D01*
X96329147Y-56295054D01*
X96436760Y-56134000D01*
X97790000Y-56134000D01*
X98130206Y-56066329D01*
X98418618Y-55873618D01*
X99053618Y-55238618D01*
X99246330Y-54950205D01*
X99314000Y-54610000D01*
X99314000Y-47346890D01*
X101428524Y-47346890D01*
X101598355Y-47756924D01*
X101988642Y-48185183D01*
X102513108Y-48431486D01*
X102743000Y-48310819D01*
X102743000Y-47117000D01*
X102997000Y-47117000D01*
X102997000Y-48310819D01*
X103226892Y-48431486D01*
X103751358Y-48185183D01*
X104141645Y-47756924D01*
X104311476Y-47346890D01*
X104190155Y-47117000D01*
X102997000Y-47117000D01*
X102743000Y-47117000D01*
X101549845Y-47117000D01*
X101428524Y-47346890D01*
X99314000Y-47346890D01*
X99314000Y-42913236D01*
X99428236Y-42799000D01*
X101683240Y-42799000D01*
X101790853Y-42960054D01*
X102120026Y-43180000D01*
X101790853Y-43399946D01*
X101468946Y-43881715D01*
X101355907Y-44450000D01*
X101468946Y-45018285D01*
X101790853Y-45500054D01*
X102131553Y-45727702D01*
X101988642Y-45794817D01*
X101598355Y-46223076D01*
X101428524Y-46633110D01*
X101549845Y-46863000D01*
X102743000Y-46863000D01*
X102743000Y-46843000D01*
X102997000Y-46843000D01*
X102997000Y-46863000D01*
X104190155Y-46863000D01*
X104311476Y-46633110D01*
X104141645Y-46223076D01*
X103751358Y-45794817D01*
X103608447Y-45727702D01*
X103939358Y-45506594D01*
X104781382Y-46348618D01*
X105069794Y-46541329D01*
X105410000Y-46609000D01*
X105579898Y-46609000D01*
X105616838Y-46805317D01*
X105755910Y-47021441D01*
X105968110Y-47166431D01*
X106220000Y-47217440D01*
X108220000Y-47217440D01*
X108455317Y-47173162D01*
X108671441Y-47034090D01*
X108816431Y-46821890D01*
X108867440Y-46570000D01*
X108867440Y-44870000D01*
X108823162Y-44634683D01*
X108684090Y-44418559D01*
X108471890Y-44273569D01*
X108220000Y-44222560D01*
X106220000Y-44222560D01*
X105984683Y-44266838D01*
X105768559Y-44405910D01*
X105623569Y-44618110D01*
X105613764Y-44666528D01*
X104768618Y-43821382D01*
X104606471Y-43713039D01*
X104480206Y-43628671D01*
X104140000Y-43561000D01*
X104056760Y-43561000D01*
X103949147Y-43399946D01*
X103619974Y-43180000D01*
X103949147Y-42960054D01*
X104056760Y-42799000D01*
X105579898Y-42799000D01*
X105616838Y-42995317D01*
X105755910Y-43211441D01*
X105968110Y-43356431D01*
X106220000Y-43407440D01*
X108220000Y-43407440D01*
X108455317Y-43363162D01*
X108671441Y-43224090D01*
X108816431Y-43011890D01*
X108867440Y-42760000D01*
X108867440Y-41060000D01*
X108823162Y-40824683D01*
X108684090Y-40608559D01*
X108471890Y-40463569D01*
X108220000Y-40412560D01*
X106220000Y-40412560D01*
X105984683Y-40456838D01*
X105768559Y-40595910D01*
X105623569Y-40808110D01*
X105580458Y-41021000D01*
X104056760Y-41021000D01*
X103949147Y-40859946D01*
X103619974Y-40640000D01*
X103949147Y-40420054D01*
X104056760Y-40259000D01*
X104140000Y-40259000D01*
X104480206Y-40191329D01*
X104768618Y-39998618D01*
X105611308Y-39155928D01*
X105616838Y-39185317D01*
X105755910Y-39401441D01*
X105968110Y-39546431D01*
X106220000Y-39597440D01*
X108220000Y-39597440D01*
X108455317Y-39553162D01*
X108671441Y-39414090D01*
X108816431Y-39201890D01*
X108867440Y-38950000D01*
X108867440Y-37250000D01*
X108823162Y-37014683D01*
X108684090Y-36798559D01*
X108544235Y-36703000D01*
X109381554Y-36703000D01*
X109645121Y-36966567D01*
G36*
X118491000Y-28943236D02*
X118491000Y-41910000D01*
X118558671Y-42250206D01*
X118711069Y-42478285D01*
X118751382Y-42538618D01*
X120154764Y-43942000D01*
X112363000Y-43942000D01*
X112363000Y-43380533D01*
X112455317Y-43363162D01*
X112671441Y-43224090D01*
X112816431Y-43011890D01*
X112867440Y-42760000D01*
X112867440Y-42290750D01*
X114135000Y-42290750D01*
X114135000Y-43131309D01*
X114231673Y-43364698D01*
X114410301Y-43543327D01*
X114643690Y-43640000D01*
X115284250Y-43640000D01*
X115443000Y-43481250D01*
X115443000Y-42132000D01*
X115697000Y-42132000D01*
X115697000Y-43481250D01*
X115855750Y-43640000D01*
X116496310Y-43640000D01*
X116729699Y-43543327D01*
X116908327Y-43364698D01*
X117005000Y-43131309D01*
X117005000Y-42290750D01*
X116846250Y-42132000D01*
X115697000Y-42132000D01*
X115443000Y-42132000D01*
X114293750Y-42132000D01*
X114135000Y-42290750D01*
X112867440Y-42290750D01*
X112867440Y-41060000D01*
X112833325Y-40878691D01*
X114135000Y-40878691D01*
X114135000Y-41719250D01*
X114293750Y-41878000D01*
X115443000Y-41878000D01*
X115443000Y-40528750D01*
X115697000Y-40528750D01*
X115697000Y-41878000D01*
X116846250Y-41878000D01*
X117005000Y-41719250D01*
X117005000Y-40878691D01*
X116908327Y-40645302D01*
X116729699Y-40466673D01*
X116496310Y-40370000D01*
X115855750Y-40370000D01*
X115697000Y-40528750D01*
X115443000Y-40528750D01*
X115284250Y-40370000D01*
X114643690Y-40370000D01*
X114410301Y-40466673D01*
X114231673Y-40645302D01*
X114135000Y-40878691D01*
X112833325Y-40878691D01*
X112823162Y-40824683D01*
X112684090Y-40608559D01*
X112471890Y-40463569D01*
X112363000Y-40441518D01*
X112363000Y-39570533D01*
X112455317Y-39553162D01*
X112671441Y-39414090D01*
X112788342Y-39243000D01*
X114168564Y-39243000D01*
X114305910Y-39456441D01*
X114518110Y-39601431D01*
X114770000Y-39652440D01*
X116370000Y-39652440D01*
X116605317Y-39608162D01*
X116821441Y-39469090D01*
X116966431Y-39256890D01*
X117017440Y-39005000D01*
X117017440Y-37005000D01*
X116973162Y-36769683D01*
X116834090Y-36553559D01*
X116830405Y-36551041D01*
X117648223Y-35733223D01*
X117895994Y-35362407D01*
X117983000Y-34925000D01*
X117983000Y-33180000D01*
X117895994Y-32742593D01*
X117787440Y-32580130D01*
X117787440Y-32430000D01*
X117743162Y-32194683D01*
X117604090Y-31978559D01*
X117391890Y-31833569D01*
X117140000Y-31782560D01*
X116540000Y-31782560D01*
X116449122Y-31799660D01*
X116459000Y-31750000D01*
X116459000Y-29161037D01*
X116540000Y-29177440D01*
X117140000Y-29177440D01*
X117375317Y-29133162D01*
X117591441Y-28994090D01*
X117704242Y-28829000D01*
X118376764Y-28829000D01*
X118491000Y-28943236D01*
X118491000Y-28943236D01*
G37*
X118491000Y-28943236D02*
X118491000Y-41910000D01*
X118558671Y-42250206D01*
X118711069Y-42478285D01*
X118751382Y-42538618D01*
X120154764Y-43942000D01*
X112363000Y-43942000D01*
X112363000Y-43380533D01*
X112455317Y-43363162D01*
X112671441Y-43224090D01*
X112816431Y-43011890D01*
X112867440Y-42760000D01*
X112867440Y-42290750D01*
X114135000Y-42290750D01*
X114135000Y-43131309D01*
X114231673Y-43364698D01*
X114410301Y-43543327D01*
X114643690Y-43640000D01*
X115284250Y-43640000D01*
X115443000Y-43481250D01*
X115443000Y-42132000D01*
X115697000Y-42132000D01*
X115697000Y-43481250D01*
X115855750Y-43640000D01*
X116496310Y-43640000D01*
X116729699Y-43543327D01*
X116908327Y-43364698D01*
X117005000Y-43131309D01*
X117005000Y-42290750D01*
X116846250Y-42132000D01*
X115697000Y-42132000D01*
X115443000Y-42132000D01*
X114293750Y-42132000D01*
X114135000Y-42290750D01*
X112867440Y-42290750D01*
X112867440Y-41060000D01*
X112833325Y-40878691D01*
X114135000Y-40878691D01*
X114135000Y-41719250D01*
X114293750Y-41878000D01*
X115443000Y-41878000D01*
X115443000Y-40528750D01*
X115697000Y-40528750D01*
X115697000Y-41878000D01*
X116846250Y-41878000D01*
X117005000Y-41719250D01*
X117005000Y-40878691D01*
X116908327Y-40645302D01*
X116729699Y-40466673D01*
X116496310Y-40370000D01*
X115855750Y-40370000D01*
X115697000Y-40528750D01*
X115443000Y-40528750D01*
X115284250Y-40370000D01*
X114643690Y-40370000D01*
X114410301Y-40466673D01*
X114231673Y-40645302D01*
X114135000Y-40878691D01*
X112833325Y-40878691D01*
X112823162Y-40824683D01*
X112684090Y-40608559D01*
X112471890Y-40463569D01*
X112363000Y-40441518D01*
X112363000Y-39570533D01*
X112455317Y-39553162D01*
X112671441Y-39414090D01*
X112788342Y-39243000D01*
X114168564Y-39243000D01*
X114305910Y-39456441D01*
X114518110Y-39601431D01*
X114770000Y-39652440D01*
X116370000Y-39652440D01*
X116605317Y-39608162D01*
X116821441Y-39469090D01*
X116966431Y-39256890D01*
X117017440Y-39005000D01*
X117017440Y-37005000D01*
X116973162Y-36769683D01*
X116834090Y-36553559D01*
X116830405Y-36551041D01*
X117648223Y-35733223D01*
X117895994Y-35362407D01*
X117983000Y-34925000D01*
X117983000Y-33180000D01*
X117895994Y-32742593D01*
X117787440Y-32580130D01*
X117787440Y-32430000D01*
X117743162Y-32194683D01*
X117604090Y-31978559D01*
X117391890Y-31833569D01*
X117140000Y-31782560D01*
X116540000Y-31782560D01*
X116449122Y-31799660D01*
X116459000Y-31750000D01*
X116459000Y-29161037D01*
X116540000Y-29177440D01*
X117140000Y-29177440D01*
X117375317Y-29133162D01*
X117591441Y-28994090D01*
X117704242Y-28829000D01*
X118376764Y-28829000D01*
X118491000Y-28943236D01*
G36*
X133305910Y-30756441D02*
X133518110Y-30901431D01*
X133731000Y-30944542D01*
X133731000Y-41541764D01*
X133616764Y-41656000D01*
X126606236Y-41656000D01*
X127628618Y-40633618D01*
X127692482Y-40538039D01*
X127821329Y-40345206D01*
X127889000Y-40005000D01*
X127889000Y-39147441D01*
X128023642Y-39295183D01*
X128548108Y-39541486D01*
X128778000Y-39420819D01*
X128778000Y-38227000D01*
X129032000Y-38227000D01*
X129032000Y-39420819D01*
X129261892Y-39541486D01*
X129786358Y-39295183D01*
X130176645Y-38866924D01*
X130346476Y-38456890D01*
X130225155Y-38227000D01*
X129032000Y-38227000D01*
X128778000Y-38227000D01*
X128758000Y-38227000D01*
X128758000Y-37973000D01*
X128778000Y-37973000D01*
X128778000Y-37953000D01*
X129032000Y-37953000D01*
X129032000Y-37973000D01*
X130225155Y-37973000D01*
X130346476Y-37743110D01*
X130176645Y-37333076D01*
X129786358Y-36904817D01*
X129643447Y-36837702D01*
X129984147Y-36610054D01*
X130306054Y-36128285D01*
X130419093Y-35560000D01*
X130306054Y-34991715D01*
X129984147Y-34509946D01*
X129942548Y-34482150D01*
X129990317Y-34473162D01*
X130206441Y-34334090D01*
X130323342Y-34163000D01*
X131445000Y-34163000D01*
X131882407Y-34075994D01*
X132253223Y-33828223D01*
X132888223Y-33193223D01*
X133135994Y-32822407D01*
X133223000Y-32385000D01*
X133223000Y-30627595D01*
X133305910Y-30756441D01*
X133305910Y-30756441D01*
G37*
X133305910Y-30756441D02*
X133518110Y-30901431D01*
X133731000Y-30944542D01*
X133731000Y-41541764D01*
X133616764Y-41656000D01*
X126606236Y-41656000D01*
X127628618Y-40633618D01*
X127692482Y-40538039D01*
X127821329Y-40345206D01*
X127889000Y-40005000D01*
X127889000Y-39147441D01*
X128023642Y-39295183D01*
X128548108Y-39541486D01*
X128778000Y-39420819D01*
X128778000Y-38227000D01*
X129032000Y-38227000D01*
X129032000Y-39420819D01*
X129261892Y-39541486D01*
X129786358Y-39295183D01*
X130176645Y-38866924D01*
X130346476Y-38456890D01*
X130225155Y-38227000D01*
X129032000Y-38227000D01*
X128778000Y-38227000D01*
X128758000Y-38227000D01*
X128758000Y-37973000D01*
X128778000Y-37973000D01*
X128778000Y-37953000D01*
X129032000Y-37953000D01*
X129032000Y-37973000D01*
X130225155Y-37973000D01*
X130346476Y-37743110D01*
X130176645Y-37333076D01*
X129786358Y-36904817D01*
X129643447Y-36837702D01*
X129984147Y-36610054D01*
X130306054Y-36128285D01*
X130419093Y-35560000D01*
X130306054Y-34991715D01*
X129984147Y-34509946D01*
X129942548Y-34482150D01*
X129990317Y-34473162D01*
X130206441Y-34334090D01*
X130323342Y-34163000D01*
X131445000Y-34163000D01*
X131882407Y-34075994D01*
X132253223Y-33828223D01*
X132888223Y-33193223D01*
X133135994Y-32822407D01*
X133223000Y-32385000D01*
X133223000Y-30627595D01*
X133305910Y-30756441D01*
G36*
X146177000Y-34763446D02*
X146177000Y-38896554D01*
X145576554Y-39497000D01*
X144596618Y-39497000D01*
X145026358Y-39295183D01*
X145416645Y-38866924D01*
X145586476Y-38456890D01*
X145465155Y-38227000D01*
X144272000Y-38227000D01*
X144272000Y-38247000D01*
X144018000Y-38247000D01*
X144018000Y-38227000D01*
X143998000Y-38227000D01*
X143998000Y-37973000D01*
X144018000Y-37973000D01*
X144018000Y-37953000D01*
X144272000Y-37953000D01*
X144272000Y-37973000D01*
X145465155Y-37973000D01*
X145586476Y-37743110D01*
X145416645Y-37333076D01*
X145026358Y-36904817D01*
X144883447Y-36837702D01*
X145224147Y-36610054D01*
X145546054Y-36128285D01*
X145659093Y-35560000D01*
X145546054Y-34991715D01*
X145224147Y-34509946D01*
X145182548Y-34482150D01*
X145230317Y-34473162D01*
X145446441Y-34334090D01*
X145563342Y-34163000D01*
X145576554Y-34163000D01*
X146177000Y-34763446D01*
X146177000Y-34763446D01*
G37*
X146177000Y-34763446D02*
X146177000Y-38896554D01*
X145576554Y-39497000D01*
X144596618Y-39497000D01*
X145026358Y-39295183D01*
X145416645Y-38866924D01*
X145586476Y-38456890D01*
X145465155Y-38227000D01*
X144272000Y-38227000D01*
X144272000Y-38247000D01*
X144018000Y-38247000D01*
X144018000Y-38227000D01*
X143998000Y-38227000D01*
X143998000Y-37973000D01*
X144018000Y-37973000D01*
X144018000Y-37953000D01*
X144272000Y-37953000D01*
X144272000Y-37973000D01*
X145465155Y-37973000D01*
X145586476Y-37743110D01*
X145416645Y-37333076D01*
X145026358Y-36904817D01*
X144883447Y-36837702D01*
X145224147Y-36610054D01*
X145546054Y-36128285D01*
X145659093Y-35560000D01*
X145546054Y-34991715D01*
X145224147Y-34509946D01*
X145182548Y-34482150D01*
X145230317Y-34473162D01*
X145446441Y-34334090D01*
X145563342Y-34163000D01*
X145576554Y-34163000D01*
X146177000Y-34763446D01*
G36*
X44577000Y-27178000D02*
X46863000Y-27178000D01*
X46863000Y-27158000D01*
X47117000Y-27158000D01*
X47117000Y-27178000D01*
X47137000Y-27178000D01*
X47137000Y-27432000D01*
X47117000Y-27432000D01*
X47117000Y-27452000D01*
X46863000Y-27452000D01*
X46863000Y-27432000D01*
X44577000Y-27432000D01*
X44577000Y-27452000D01*
X44323000Y-27452000D01*
X44323000Y-27432000D01*
X44303000Y-27432000D01*
X44303000Y-27178000D01*
X44323000Y-27178000D01*
X44323000Y-27158000D01*
X44577000Y-27158000D01*
X44577000Y-27178000D01*
X44577000Y-27178000D01*
G37*
X44577000Y-27178000D02*
X46863000Y-27178000D01*
X46863000Y-27158000D01*
X47117000Y-27158000D01*
X47117000Y-27178000D01*
X47137000Y-27178000D01*
X47137000Y-27432000D01*
X47117000Y-27432000D01*
X47117000Y-27452000D01*
X46863000Y-27452000D01*
X46863000Y-27432000D01*
X44577000Y-27432000D01*
X44577000Y-27452000D01*
X44323000Y-27452000D01*
X44323000Y-27432000D01*
X44303000Y-27432000D01*
X44303000Y-27178000D01*
X44323000Y-27178000D01*
X44323000Y-27158000D01*
X44577000Y-27158000D01*
X44577000Y-27178000D01*
M02*
