G04 #@! TF.FileFunction,Soldermask,Bot*
%FSLAX46Y46*%
G04 Gerber Fmt 4.6, Leading zero omitted, Abs format (unit mm)*
G04 Created by KiCad (PCBNEW 4.0.3-stable) date 05/01/17 14:40:03*
%MOMM*%
%LPD*%
G01*
G04 APERTURE LIST*
%ADD10C,0.100000*%
%ADD11R,2.100000X2.100000*%
%ADD12O,2.100000X2.100000*%
%ADD13R,2.200000X2.200000*%
%ADD14C,2.200000*%
%ADD15C,3.900000*%
%ADD16C,5.400000*%
G04 APERTURE END LIST*
D10*
D11*
X44450000Y-27305000D03*
D12*
X46990000Y-27305000D03*
X44450000Y-29845000D03*
X46990000Y-29845000D03*
X44450000Y-32385000D03*
X46990000Y-32385000D03*
X44450000Y-34925000D03*
X46990000Y-34925000D03*
X44450000Y-37465000D03*
X46990000Y-37465000D03*
X44450000Y-40005000D03*
X46990000Y-40005000D03*
X44450000Y-42545000D03*
X46990000Y-42545000D03*
X44450000Y-45085000D03*
X46990000Y-45085000D03*
X44450000Y-47625000D03*
X46990000Y-47625000D03*
X44450000Y-50165000D03*
X46990000Y-50165000D03*
X44450000Y-52705000D03*
X46990000Y-52705000D03*
X44450000Y-55245000D03*
X46990000Y-55245000D03*
X44450000Y-57785000D03*
X46990000Y-57785000D03*
X44450000Y-60325000D03*
X46990000Y-60325000D03*
X44450000Y-62865000D03*
X46990000Y-62865000D03*
X44450000Y-65405000D03*
X46990000Y-65405000D03*
X44450000Y-67945000D03*
X46990000Y-67945000D03*
X44450000Y-70485000D03*
X46990000Y-70485000D03*
X44450000Y-73025000D03*
X46990000Y-73025000D03*
X44450000Y-75565000D03*
X46990000Y-75565000D03*
X44450000Y-78105000D03*
X46990000Y-78105000D03*
X44450000Y-80645000D03*
X46990000Y-80645000D03*
X44450000Y-83185000D03*
X46990000Y-83185000D03*
D11*
X92710000Y-27305000D03*
D12*
X95250000Y-27305000D03*
X92710000Y-29845000D03*
X95250000Y-29845000D03*
X92710000Y-32385000D03*
X95250000Y-32385000D03*
X92710000Y-34925000D03*
X95250000Y-34925000D03*
X92710000Y-37465000D03*
X95250000Y-37465000D03*
X92710000Y-40005000D03*
X95250000Y-40005000D03*
X92710000Y-42545000D03*
X95250000Y-42545000D03*
X92710000Y-45085000D03*
X95250000Y-45085000D03*
X92710000Y-47625000D03*
X95250000Y-47625000D03*
X92710000Y-50165000D03*
X95250000Y-50165000D03*
X92710000Y-52705000D03*
X95250000Y-52705000D03*
X92710000Y-55245000D03*
X95250000Y-55245000D03*
X92710000Y-57785000D03*
X95250000Y-57785000D03*
X92710000Y-60325000D03*
X95250000Y-60325000D03*
X92710000Y-62865000D03*
X95250000Y-62865000D03*
X92710000Y-65405000D03*
X95250000Y-65405000D03*
X92710000Y-67945000D03*
X95250000Y-67945000D03*
X92710000Y-70485000D03*
X95250000Y-70485000D03*
X92710000Y-73025000D03*
X95250000Y-73025000D03*
X92710000Y-75565000D03*
X95250000Y-75565000D03*
X92710000Y-78105000D03*
X95250000Y-78105000D03*
X92710000Y-80645000D03*
X95250000Y-80645000D03*
X92710000Y-83185000D03*
X95250000Y-83185000D03*
D11*
X116840000Y-109220000D03*
D12*
X119380000Y-109220000D03*
X121920000Y-109220000D03*
X124460000Y-109220000D03*
X127000000Y-109220000D03*
X129540000Y-109220000D03*
D11*
X154940000Y-109220000D03*
D12*
X157480000Y-109220000D03*
X160020000Y-109220000D03*
X162560000Y-109220000D03*
X165100000Y-109220000D03*
X167640000Y-109220000D03*
X170180000Y-109220000D03*
D11*
X137160000Y-109220000D03*
D12*
X139700000Y-109220000D03*
X142240000Y-109220000D03*
X144780000Y-109220000D03*
X147320000Y-109220000D03*
D11*
X125806200Y-51422300D03*
D12*
X125806200Y-48882300D03*
X128346200Y-51422300D03*
X128346200Y-48882300D03*
X130886200Y-51422300D03*
X130886200Y-48882300D03*
X133426200Y-51422300D03*
X133426200Y-48882300D03*
X135966200Y-51422300D03*
X135966200Y-48882300D03*
X138506200Y-51422300D03*
X138506200Y-48882300D03*
X141046200Y-51422300D03*
X141046200Y-48882300D03*
X143586200Y-51422300D03*
X143586200Y-48882300D03*
X146126200Y-51422300D03*
X146126200Y-48882300D03*
X148666200Y-51422300D03*
X148666200Y-48882300D03*
X151206200Y-51422300D03*
X151206200Y-48882300D03*
X153746200Y-51422300D03*
X153746200Y-48882300D03*
X156286200Y-51422300D03*
X156286200Y-48882300D03*
X158826200Y-51422300D03*
X158826200Y-48882300D03*
X161366200Y-51422300D03*
X161366200Y-48882300D03*
X163906200Y-51422300D03*
X163906200Y-48882300D03*
X166446200Y-51422300D03*
X166446200Y-48882300D03*
X168986200Y-51422300D03*
X168986200Y-48882300D03*
X171526200Y-51422300D03*
X171526200Y-48882300D03*
X174066200Y-51422300D03*
X174066200Y-48882300D03*
D13*
X153035000Y-26670000D03*
D14*
X153035000Y-24130000D03*
D13*
X160020000Y-26670000D03*
D14*
X160020000Y-24130000D03*
D11*
X102870000Y-54610000D03*
D12*
X102870000Y-57150000D03*
X102870000Y-59690000D03*
X102870000Y-62230000D03*
X102870000Y-64770000D03*
D11*
X102870000Y-36830000D03*
D12*
X102870000Y-39370000D03*
X102870000Y-41910000D03*
X102870000Y-44450000D03*
X102870000Y-46990000D03*
D11*
X144145000Y-33020000D03*
D12*
X144145000Y-35560000D03*
X144145000Y-38100000D03*
D11*
X136525000Y-33020000D03*
D12*
X136525000Y-35560000D03*
X136525000Y-38100000D03*
D11*
X128905000Y-33020000D03*
D12*
X128905000Y-35560000D03*
X128905000Y-38100000D03*
D11*
X102870000Y-72390000D03*
D12*
X102870000Y-74930000D03*
X102870000Y-77470000D03*
X102870000Y-80010000D03*
X102870000Y-82550000D03*
D11*
X102870000Y-101600000D03*
D12*
X102870000Y-104140000D03*
X102870000Y-106680000D03*
D11*
X95250000Y-101600000D03*
D12*
X95250000Y-104140000D03*
X95250000Y-106680000D03*
D11*
X87630000Y-101600000D03*
D12*
X87630000Y-104140000D03*
X87630000Y-106680000D03*
D11*
X80010000Y-101600000D03*
D12*
X80010000Y-104140000D03*
X80010000Y-106680000D03*
D11*
X48260000Y-109220000D03*
D12*
X50800000Y-109220000D03*
X53340000Y-109220000D03*
D15*
X178230000Y-33080000D03*
X165730000Y-40580000D03*
D16*
X179070000Y-111760000D03*
X38100000Y-111760000D03*
X38100000Y-25400000D03*
X179070000Y-25400000D03*
D11*
X72390000Y-101600000D03*
D12*
X72390000Y-104140000D03*
X72390000Y-106680000D03*
D11*
X64770000Y-101600000D03*
D12*
X64770000Y-104140000D03*
X64770000Y-106680000D03*
M02*
