G04 #@! TF.FileFunction,Copper,L2,Bot,Signal*
%FSLAX46Y46*%
G04 Gerber Fmt 4.6, Leading zero omitted, Abs format (unit mm)*
G04 Created by KiCad (PCBNEW 4.0.3-stable) date 05/01/17 14:40:03*
%MOMM*%
%LPD*%
G01*
G04 APERTURE LIST*
%ADD10C,0.100000*%
%ADD11C,1.524000*%
%ADD12R,1.700000X1.700000*%
%ADD13O,1.700000X1.700000*%
%ADD14R,1.800000X1.800000*%
%ADD15C,1.800000*%
%ADD16C,3.500000*%
%ADD17C,5.000000*%
%ADD18C,1.270000*%
%ADD19C,1.016000*%
%ADD20C,1.270000*%
%ADD21C,1.016000*%
%ADD22C,0.508000*%
%ADD23C,0.254000*%
G04 APERTURE END LIST*
D10*
D11*
X39370000Y-81915000D03*
X118110000Y-43180000D03*
D12*
X44450000Y-27305000D03*
D13*
X46990000Y-27305000D03*
X44450000Y-29845000D03*
X46990000Y-29845000D03*
X44450000Y-32385000D03*
X46990000Y-32385000D03*
X44450000Y-34925000D03*
X46990000Y-34925000D03*
X44450000Y-37465000D03*
X46990000Y-37465000D03*
X44450000Y-40005000D03*
X46990000Y-40005000D03*
X44450000Y-42545000D03*
X46990000Y-42545000D03*
X44450000Y-45085000D03*
X46990000Y-45085000D03*
X44450000Y-47625000D03*
X46990000Y-47625000D03*
X44450000Y-50165000D03*
X46990000Y-50165000D03*
X44450000Y-52705000D03*
X46990000Y-52705000D03*
X44450000Y-55245000D03*
X46990000Y-55245000D03*
X44450000Y-57785000D03*
X46990000Y-57785000D03*
X44450000Y-60325000D03*
X46990000Y-60325000D03*
X44450000Y-62865000D03*
X46990000Y-62865000D03*
X44450000Y-65405000D03*
X46990000Y-65405000D03*
X44450000Y-67945000D03*
X46990000Y-67945000D03*
X44450000Y-70485000D03*
X46990000Y-70485000D03*
X44450000Y-73025000D03*
X46990000Y-73025000D03*
X44450000Y-75565000D03*
X46990000Y-75565000D03*
X44450000Y-78105000D03*
X46990000Y-78105000D03*
X44450000Y-80645000D03*
X46990000Y-80645000D03*
X44450000Y-83185000D03*
X46990000Y-83185000D03*
D12*
X92710000Y-27305000D03*
D13*
X95250000Y-27305000D03*
X92710000Y-29845000D03*
X95250000Y-29845000D03*
X92710000Y-32385000D03*
X95250000Y-32385000D03*
X92710000Y-34925000D03*
X95250000Y-34925000D03*
X92710000Y-37465000D03*
X95250000Y-37465000D03*
X92710000Y-40005000D03*
X95250000Y-40005000D03*
X92710000Y-42545000D03*
X95250000Y-42545000D03*
X92710000Y-45085000D03*
X95250000Y-45085000D03*
X92710000Y-47625000D03*
X95250000Y-47625000D03*
X92710000Y-50165000D03*
X95250000Y-50165000D03*
X92710000Y-52705000D03*
X95250000Y-52705000D03*
X92710000Y-55245000D03*
X95250000Y-55245000D03*
X92710000Y-57785000D03*
X95250000Y-57785000D03*
X92710000Y-60325000D03*
X95250000Y-60325000D03*
X92710000Y-62865000D03*
X95250000Y-62865000D03*
X92710000Y-65405000D03*
X95250000Y-65405000D03*
X92710000Y-67945000D03*
X95250000Y-67945000D03*
X92710000Y-70485000D03*
X95250000Y-70485000D03*
X92710000Y-73025000D03*
X95250000Y-73025000D03*
X92710000Y-75565000D03*
X95250000Y-75565000D03*
X92710000Y-78105000D03*
X95250000Y-78105000D03*
X92710000Y-80645000D03*
X95250000Y-80645000D03*
X92710000Y-83185000D03*
X95250000Y-83185000D03*
D12*
X116840000Y-109220000D03*
D13*
X119380000Y-109220000D03*
X121920000Y-109220000D03*
X124460000Y-109220000D03*
X127000000Y-109220000D03*
X129540000Y-109220000D03*
D12*
X154940000Y-109220000D03*
D13*
X157480000Y-109220000D03*
X160020000Y-109220000D03*
X162560000Y-109220000D03*
X165100000Y-109220000D03*
X167640000Y-109220000D03*
X170180000Y-109220000D03*
D12*
X137160000Y-109220000D03*
D13*
X139700000Y-109220000D03*
X142240000Y-109220000D03*
X144780000Y-109220000D03*
X147320000Y-109220000D03*
D12*
X125806200Y-51422300D03*
D13*
X125806200Y-48882300D03*
X128346200Y-51422300D03*
X128346200Y-48882300D03*
X130886200Y-51422300D03*
X130886200Y-48882300D03*
X133426200Y-51422300D03*
X133426200Y-48882300D03*
X135966200Y-51422300D03*
X135966200Y-48882300D03*
X138506200Y-51422300D03*
X138506200Y-48882300D03*
X141046200Y-51422300D03*
X141046200Y-48882300D03*
X143586200Y-51422300D03*
X143586200Y-48882300D03*
X146126200Y-51422300D03*
X146126200Y-48882300D03*
X148666200Y-51422300D03*
X148666200Y-48882300D03*
X151206200Y-51422300D03*
X151206200Y-48882300D03*
X153746200Y-51422300D03*
X153746200Y-48882300D03*
X156286200Y-51422300D03*
X156286200Y-48882300D03*
X158826200Y-51422300D03*
X158826200Y-48882300D03*
X161366200Y-51422300D03*
X161366200Y-48882300D03*
X163906200Y-51422300D03*
X163906200Y-48882300D03*
X166446200Y-51422300D03*
X166446200Y-48882300D03*
X168986200Y-51422300D03*
X168986200Y-48882300D03*
X171526200Y-51422300D03*
X171526200Y-48882300D03*
X174066200Y-51422300D03*
X174066200Y-48882300D03*
D14*
X153035000Y-26670000D03*
D15*
X153035000Y-24130000D03*
D14*
X160020000Y-26670000D03*
D15*
X160020000Y-24130000D03*
D12*
X102870000Y-54610000D03*
D13*
X102870000Y-57150000D03*
X102870000Y-59690000D03*
X102870000Y-62230000D03*
X102870000Y-64770000D03*
D12*
X102870000Y-36830000D03*
D13*
X102870000Y-39370000D03*
X102870000Y-41910000D03*
X102870000Y-44450000D03*
X102870000Y-46990000D03*
D12*
X144145000Y-33020000D03*
D13*
X144145000Y-35560000D03*
X144145000Y-38100000D03*
D12*
X136525000Y-33020000D03*
D13*
X136525000Y-35560000D03*
X136525000Y-38100000D03*
D12*
X128905000Y-33020000D03*
D13*
X128905000Y-35560000D03*
X128905000Y-38100000D03*
D12*
X102870000Y-72390000D03*
D13*
X102870000Y-74930000D03*
X102870000Y-77470000D03*
X102870000Y-80010000D03*
X102870000Y-82550000D03*
D12*
X102870000Y-101600000D03*
D13*
X102870000Y-104140000D03*
X102870000Y-106680000D03*
D12*
X95250000Y-101600000D03*
D13*
X95250000Y-104140000D03*
X95250000Y-106680000D03*
D12*
X87630000Y-101600000D03*
D13*
X87630000Y-104140000D03*
X87630000Y-106680000D03*
D12*
X80010000Y-101600000D03*
D13*
X80010000Y-104140000D03*
X80010000Y-106680000D03*
D12*
X48260000Y-109220000D03*
D13*
X50800000Y-109220000D03*
X53340000Y-109220000D03*
D16*
X178230000Y-33080000D03*
X165730000Y-40580000D03*
D11*
X61595000Y-67945000D03*
X80645000Y-67945000D03*
X149860000Y-74930000D03*
X80645000Y-75565000D03*
X61595000Y-75565000D03*
X124460000Y-37465000D03*
D16*
X120950000Y-99150000D03*
X120950000Y-50150000D03*
X178950000Y-50150000D03*
D17*
X179070000Y-111760000D03*
X38100000Y-111760000D03*
X38100000Y-25400000D03*
X179070000Y-25400000D03*
D12*
X72390000Y-101600000D03*
D13*
X72390000Y-104140000D03*
X72390000Y-106680000D03*
D12*
X64770000Y-101600000D03*
D13*
X64770000Y-104140000D03*
X64770000Y-106680000D03*
D11*
X69850000Y-38735000D03*
D18*
X72390000Y-38735000D03*
D19*
X143510000Y-43180000D03*
X100330000Y-25400000D03*
X48895000Y-64135000D03*
D20*
X48895000Y-106045000D02*
X60960000Y-106045000D01*
X62230000Y-101600000D02*
X61595000Y-102235000D01*
X61595000Y-102235000D02*
X61595000Y-105410000D01*
X61595000Y-105410000D02*
X60960000Y-106045000D01*
X48895000Y-106045000D02*
X48260000Y-106680000D01*
X48260000Y-109220000D02*
X48260000Y-106680000D01*
X62230000Y-101600000D02*
X64770000Y-101600000D01*
X68580000Y-35560000D02*
X69850000Y-36830000D01*
X69850000Y-36830000D02*
X69850000Y-38735000D01*
X46990000Y-32385000D02*
X48260000Y-32385000D01*
X53975000Y-35560000D02*
X68580000Y-35560000D01*
X48260000Y-32385000D02*
X51435000Y-35560000D01*
X53975000Y-35560000D02*
X51435000Y-35560000D01*
X114300000Y-106045000D02*
X110490000Y-109855000D01*
X110490000Y-109855000D02*
X102235000Y-109855000D01*
X102235000Y-109855000D02*
X76835000Y-109855000D01*
X76835000Y-109855000D02*
X76200000Y-109220000D01*
X76200000Y-109220000D02*
X76200000Y-102235000D01*
X76200000Y-102235000D02*
X75565000Y-101600000D01*
X75565000Y-101600000D02*
X72390000Y-101600000D01*
X114300000Y-106045000D02*
X115570000Y-104775000D01*
X115570000Y-104775000D02*
X115570000Y-46355000D01*
X115570000Y-46355000D02*
X116840000Y-45085000D01*
X116840000Y-45085000D02*
X123825000Y-45085000D01*
X125730000Y-45085000D02*
X123825000Y-45085000D01*
X64770000Y-101600000D02*
X72390000Y-101600000D01*
X44450000Y-32385000D02*
X46990000Y-32385000D01*
X125806200Y-48882300D02*
X125806200Y-45085000D01*
X125806200Y-45085000D02*
X125730000Y-45085000D01*
X128346200Y-45085000D02*
X125730000Y-45085000D01*
X128346200Y-48882300D02*
X128346200Y-45085000D01*
X165730000Y-44455000D02*
X165100000Y-45085000D01*
X165100000Y-45085000D02*
X128270000Y-45085000D01*
X165730000Y-44455000D02*
X165730000Y-40580000D01*
X128346200Y-45085000D02*
X128270000Y-45085000D01*
D21*
X136525000Y-33020000D02*
X137795000Y-33020000D01*
X137795000Y-33020000D02*
X144145000Y-33020000D01*
X136525000Y-33020000D02*
X128905000Y-33020000D01*
X87630000Y-101600000D02*
X80010000Y-101600000D01*
X87630000Y-101600000D02*
X95250000Y-101600000D01*
X54610000Y-33655000D02*
X52070000Y-33655000D01*
X67310000Y-33655000D02*
X69850000Y-33655000D01*
X54610000Y-33655000D02*
X67310000Y-33655000D01*
X50800000Y-32385000D02*
X52070000Y-33655000D01*
X48260000Y-29845000D02*
X50800000Y-32385000D01*
X72390000Y-36195000D02*
X72390000Y-38735000D01*
X69850000Y-33655000D02*
X72390000Y-36195000D01*
X48260000Y-29845000D02*
X46990000Y-29845000D01*
X44450000Y-29845000D02*
X46990000Y-29845000D01*
D22*
X42545000Y-86360000D02*
X41275000Y-85090000D01*
X41275000Y-78740000D02*
X42545000Y-77470000D01*
X38735000Y-78740000D02*
X41275000Y-78740000D01*
X37465000Y-80010000D02*
X38735000Y-78740000D01*
X37465000Y-83820000D02*
X37465000Y-80010000D01*
X38735000Y-85090000D02*
X37465000Y-83820000D01*
X41275000Y-85090000D02*
X38735000Y-85090000D01*
X109855000Y-113665000D02*
X107315000Y-113665000D01*
X42545000Y-111760000D02*
X42545000Y-106680000D01*
X44450000Y-113665000D02*
X42545000Y-111760000D01*
X107315000Y-113665000D02*
X44450000Y-113665000D01*
X115570000Y-113665000D02*
X109855000Y-113665000D01*
X43180000Y-50165000D02*
X42545000Y-50800000D01*
X42545000Y-50800000D02*
X42545000Y-77470000D01*
X44450000Y-50165000D02*
X43180000Y-50165000D01*
X42545000Y-86360000D02*
X42545000Y-106680000D01*
X116840000Y-112395000D02*
X129540000Y-112395000D01*
X129540000Y-112395000D02*
X130810000Y-111125000D01*
X130810000Y-111125000D02*
X142240000Y-111125000D01*
X115570000Y-113665000D02*
X116840000Y-112395000D01*
X142240000Y-111125000D02*
X164465000Y-111125000D01*
X164465000Y-111125000D02*
X165100000Y-110490000D01*
X165100000Y-110490000D02*
X165100000Y-109220000D01*
X142240000Y-111125000D02*
X142240000Y-109220000D01*
X51435000Y-52705000D02*
X48895000Y-50165000D01*
X144780000Y-107315000D02*
X115570000Y-107315000D01*
X114935000Y-110490000D02*
X114300000Y-111125000D01*
X114935000Y-107950000D02*
X114935000Y-110490000D01*
X115570000Y-107315000D02*
X114935000Y-107950000D01*
X45720000Y-111125000D02*
X45085000Y-110490000D01*
X51435000Y-52705000D02*
X51435000Y-85090000D01*
X45085000Y-110490000D02*
X45085000Y-86995000D01*
X45085000Y-86995000D02*
X45720000Y-86360000D01*
X45720000Y-86360000D02*
X50165000Y-86360000D01*
X50165000Y-86360000D02*
X51435000Y-85090000D01*
X111760000Y-111125000D02*
X45720000Y-111125000D01*
X114300000Y-111125000D02*
X111760000Y-111125000D01*
X48895000Y-50165000D02*
X46990000Y-50165000D01*
X144780000Y-109220000D02*
X144780000Y-107315000D01*
X162560000Y-107950000D02*
X161925000Y-107315000D01*
X162560000Y-107950000D02*
X162560000Y-109220000D01*
X161925000Y-107315000D02*
X144780000Y-107315000D01*
X46990000Y-50165000D02*
X47625000Y-50165000D01*
X112395000Y-112395000D02*
X114935000Y-112395000D01*
X129540000Y-109220000D02*
X129540000Y-110490000D01*
X43815000Y-88265000D02*
X43815000Y-111125000D01*
X49530000Y-52705000D02*
X50165000Y-53340000D01*
X50165000Y-53340000D02*
X50165000Y-84455000D01*
X50165000Y-84455000D02*
X49530000Y-85090000D01*
X49530000Y-85090000D02*
X45085000Y-85090000D01*
X45085000Y-85090000D02*
X43815000Y-86360000D01*
X43815000Y-86360000D02*
X43815000Y-88265000D01*
X49530000Y-52705000D02*
X46990000Y-52705000D01*
X45085000Y-112395000D02*
X112395000Y-112395000D01*
X43815000Y-111125000D02*
X45085000Y-112395000D01*
X116205000Y-111125000D02*
X128905000Y-111125000D01*
X128905000Y-111125000D02*
X129540000Y-110490000D01*
X114935000Y-112395000D02*
X116205000Y-111125000D01*
X102870000Y-104140000D02*
X101600000Y-104140000D01*
X91440000Y-42545000D02*
X92710000Y-42545000D01*
X90805000Y-43180000D02*
X91440000Y-42545000D01*
X90805000Y-84455000D02*
X90805000Y-43180000D01*
X91440000Y-85090000D02*
X90805000Y-84455000D01*
X100330000Y-85090000D02*
X91440000Y-85090000D01*
X100965000Y-85725000D02*
X100330000Y-85090000D01*
X100965000Y-103505000D02*
X100965000Y-85725000D01*
X101600000Y-104140000D02*
X100965000Y-103505000D01*
X102870000Y-44450000D02*
X97790000Y-44450000D01*
X96520000Y-50165000D02*
X95250000Y-50165000D01*
X97155000Y-49530000D02*
X96520000Y-50165000D01*
X97155000Y-45085000D02*
X97155000Y-49530000D01*
X97790000Y-44450000D02*
X97155000Y-45085000D01*
X102870000Y-62230000D02*
X97790000Y-62230000D01*
X96520000Y-57785000D02*
X95250000Y-57785000D01*
X97155000Y-58420000D02*
X96520000Y-57785000D01*
X97155000Y-61595000D02*
X97155000Y-58420000D01*
X97790000Y-62230000D02*
X97155000Y-61595000D01*
X96520000Y-65405000D02*
X95250000Y-65405000D01*
X97155000Y-66040000D02*
X96520000Y-65405000D01*
X97155000Y-79375000D02*
X97155000Y-66040000D01*
X97790000Y-80010000D02*
X97155000Y-79375000D01*
X102870000Y-80010000D02*
X97790000Y-80010000D01*
X46990000Y-42545000D02*
X48260000Y-42545000D01*
X78740000Y-104140000D02*
X80010000Y-104140000D01*
X78105000Y-103505000D02*
X78740000Y-104140000D01*
X78105000Y-99695000D02*
X78105000Y-103505000D01*
X77470000Y-99060000D02*
X78105000Y-99695000D01*
X53340000Y-99060000D02*
X77470000Y-99060000D01*
X52705000Y-98425000D02*
X53340000Y-99060000D01*
X52705000Y-52070000D02*
X52705000Y-98425000D01*
X48895000Y-48260000D02*
X52705000Y-52070000D01*
X48895000Y-43180000D02*
X48895000Y-48260000D01*
X48260000Y-42545000D02*
X48895000Y-43180000D01*
X127000000Y-26670000D02*
X125730000Y-25400000D01*
X125730000Y-25400000D02*
X100330000Y-25400000D01*
X127000000Y-33020000D02*
X127000000Y-40005000D01*
X127000000Y-40005000D02*
X128905000Y-41910000D01*
X128905000Y-41910000D02*
X142875000Y-41910000D01*
X142875000Y-41910000D02*
X143510000Y-42545000D01*
X143510000Y-43180000D02*
X143510000Y-42545000D01*
X127000000Y-33020000D02*
X127000000Y-26670000D01*
X48260000Y-78105000D02*
X48895000Y-77470000D01*
X48895000Y-77470000D02*
X48895000Y-64135000D01*
X48260000Y-78105000D02*
X46990000Y-78105000D01*
D23*
G36*
X53848000Y-31750000D02*
X53858006Y-31799410D01*
X53886447Y-31841035D01*
X53928841Y-31868315D01*
X53975000Y-31877000D01*
X88265000Y-31877000D01*
X88314410Y-31866994D01*
X88356035Y-31838553D01*
X88383315Y-31796159D01*
X88392000Y-31750000D01*
X88392000Y-26328690D01*
X91225000Y-26328690D01*
X91225000Y-27019250D01*
X91383750Y-27178000D01*
X92583000Y-27178000D01*
X92583000Y-25978750D01*
X92837000Y-25978750D01*
X92837000Y-27178000D01*
X95123000Y-27178000D01*
X95123000Y-25984181D01*
X95377000Y-25984181D01*
X95377000Y-27178000D01*
X96570155Y-27178000D01*
X96691476Y-26948110D01*
X96521645Y-26538076D01*
X96131358Y-26109817D01*
X95606892Y-25863514D01*
X95377000Y-25984181D01*
X95123000Y-25984181D01*
X94893108Y-25863514D01*
X94368642Y-26109817D01*
X94186930Y-26309208D01*
X94098327Y-26095301D01*
X93919698Y-25916673D01*
X93686309Y-25820000D01*
X92995750Y-25820000D01*
X92837000Y-25978750D01*
X92583000Y-25978750D01*
X92424250Y-25820000D01*
X91733691Y-25820000D01*
X91500302Y-25916673D01*
X91321673Y-26095301D01*
X91225000Y-26328690D01*
X88392000Y-26328690D01*
X88392000Y-22352000D01*
X178237275Y-22352000D01*
X177296485Y-22740727D01*
X176413826Y-23621847D01*
X175935546Y-24773674D01*
X175934457Y-26020854D01*
X176410727Y-27173515D01*
X177291847Y-28056174D01*
X178443674Y-28534454D01*
X179690854Y-28535543D01*
X180843515Y-28059273D01*
X181726174Y-27178153D01*
X182118000Y-26234531D01*
X182118000Y-75490000D01*
X173355000Y-75490000D01*
X173083295Y-75544046D01*
X172852954Y-75697954D01*
X172699046Y-75928295D01*
X172645000Y-76200000D01*
X172645000Y-104140000D01*
X172699046Y-104411705D01*
X172852954Y-104642046D01*
X173083295Y-104795954D01*
X173355000Y-104850000D01*
X182118000Y-104850000D01*
X182118000Y-110927275D01*
X181729273Y-109986485D01*
X180848153Y-109103826D01*
X179696326Y-108625546D01*
X178449146Y-108624457D01*
X177296485Y-109100727D01*
X176413826Y-109981847D01*
X175935546Y-111133674D01*
X175934457Y-112380854D01*
X176410727Y-113533515D01*
X177291847Y-114416174D01*
X178235469Y-114808000D01*
X38932725Y-114808000D01*
X39873515Y-114419273D01*
X40756174Y-113538153D01*
X41234454Y-112386326D01*
X41235543Y-111139146D01*
X40759273Y-109986485D01*
X39878153Y-109103826D01*
X38726326Y-108625546D01*
X37479146Y-108624457D01*
X36326485Y-109100727D01*
X35443826Y-109981847D01*
X35052000Y-110925469D01*
X35052000Y-80010000D01*
X36576000Y-80010000D01*
X36576000Y-83820000D01*
X36643671Y-84160206D01*
X36790655Y-84380183D01*
X36836382Y-84448618D01*
X38106382Y-85718618D01*
X38394794Y-85911329D01*
X38735000Y-85979000D01*
X40906764Y-85979000D01*
X41656000Y-86728236D01*
X41656000Y-111760000D01*
X41723671Y-112100206D01*
X41911194Y-112380854D01*
X41916382Y-112388618D01*
X43821382Y-114293618D01*
X44109794Y-114486329D01*
X44450000Y-114554000D01*
X115570000Y-114554000D01*
X115910206Y-114486329D01*
X116198618Y-114293618D01*
X117208236Y-113284000D01*
X129540000Y-113284000D01*
X129880206Y-113216329D01*
X130168618Y-113023618D01*
X131178236Y-112014000D01*
X164465000Y-112014000D01*
X164805206Y-111946329D01*
X165093618Y-111753618D01*
X165728618Y-111118618D01*
X165921330Y-110830205D01*
X165989000Y-110490000D01*
X165989000Y-110406760D01*
X166150054Y-110299147D01*
X166370000Y-109969974D01*
X166589946Y-110299147D01*
X167071715Y-110621054D01*
X167640000Y-110734093D01*
X168208285Y-110621054D01*
X168690054Y-110299147D01*
X168910000Y-109969974D01*
X169129946Y-110299147D01*
X169611715Y-110621054D01*
X170180000Y-110734093D01*
X170748285Y-110621054D01*
X171230054Y-110299147D01*
X171551961Y-109817378D01*
X171665000Y-109249093D01*
X171665000Y-109190907D01*
X171551961Y-108622622D01*
X171230054Y-108140853D01*
X170748285Y-107818946D01*
X170180000Y-107705907D01*
X169611715Y-107818946D01*
X169129946Y-108140853D01*
X168910000Y-108470026D01*
X168690054Y-108140853D01*
X168208285Y-107818946D01*
X167640000Y-107705907D01*
X167071715Y-107818946D01*
X166589946Y-108140853D01*
X166370000Y-108470026D01*
X166150054Y-108140853D01*
X165668285Y-107818946D01*
X165100000Y-107705907D01*
X164531715Y-107818946D01*
X164049946Y-108140853D01*
X163830000Y-108470026D01*
X163610054Y-108140853D01*
X163449000Y-108033240D01*
X163449000Y-107950000D01*
X163422932Y-107818946D01*
X163381330Y-107609795D01*
X163188618Y-107321382D01*
X162553618Y-106686382D01*
X162544067Y-106680000D01*
X162265206Y-106493671D01*
X161925000Y-106426000D01*
X115715052Y-106426000D01*
X116468023Y-105673028D01*
X116468026Y-105673026D01*
X116743327Y-105261008D01*
X116840000Y-104775000D01*
X116840000Y-99622325D01*
X118564587Y-99622325D01*
X118926916Y-100499229D01*
X119597242Y-101170726D01*
X120473513Y-101534585D01*
X121422325Y-101535413D01*
X122299229Y-101173084D01*
X122970726Y-100502758D01*
X123334585Y-99626487D01*
X123335413Y-98677675D01*
X122973084Y-97800771D01*
X122302758Y-97129274D01*
X121426487Y-96765415D01*
X120477675Y-96764587D01*
X119600771Y-97126916D01*
X118929274Y-97797242D01*
X118565415Y-98673513D01*
X118564587Y-99622325D01*
X116840000Y-99622325D01*
X116840000Y-50622325D01*
X118564587Y-50622325D01*
X118926916Y-51499229D01*
X119597242Y-52170726D01*
X120473513Y-52534585D01*
X121422325Y-52535413D01*
X122299229Y-52173084D01*
X122970726Y-51502758D01*
X123334585Y-50626487D01*
X123335413Y-49677675D01*
X122973084Y-48800771D01*
X122302758Y-48129274D01*
X121426487Y-47765415D01*
X120477675Y-47764587D01*
X119600771Y-48126916D01*
X118929274Y-48797242D01*
X118565415Y-49673513D01*
X118564587Y-50622325D01*
X116840000Y-50622325D01*
X116840000Y-46881052D01*
X117366051Y-46355000D01*
X124536200Y-46355000D01*
X124536200Y-48132326D01*
X124434239Y-48284922D01*
X124321200Y-48853207D01*
X124321200Y-48911393D01*
X124434239Y-49479678D01*
X124756146Y-49961447D01*
X124757379Y-49962271D01*
X124720883Y-49969138D01*
X124504759Y-50108210D01*
X124359769Y-50320410D01*
X124308760Y-50572300D01*
X124308760Y-52272300D01*
X124353038Y-52507617D01*
X124492110Y-52723741D01*
X124704310Y-52868731D01*
X124956200Y-52919740D01*
X126656200Y-52919740D01*
X126891517Y-52875462D01*
X127107641Y-52736390D01*
X127252631Y-52524190D01*
X127266286Y-52456759D01*
X127296146Y-52501447D01*
X127777915Y-52823354D01*
X128346200Y-52936393D01*
X128914485Y-52823354D01*
X129396254Y-52501447D01*
X129616200Y-52172274D01*
X129836146Y-52501447D01*
X130317915Y-52823354D01*
X130886200Y-52936393D01*
X131454485Y-52823354D01*
X131936254Y-52501447D01*
X132156200Y-52172274D01*
X132376146Y-52501447D01*
X132857915Y-52823354D01*
X133426200Y-52936393D01*
X133994485Y-52823354D01*
X134476254Y-52501447D01*
X134703902Y-52160747D01*
X134771017Y-52303658D01*
X135199276Y-52693945D01*
X135609310Y-52863776D01*
X135839200Y-52742455D01*
X135839200Y-51549300D01*
X135819200Y-51549300D01*
X135819200Y-51295300D01*
X135839200Y-51295300D01*
X135839200Y-51275300D01*
X136093200Y-51275300D01*
X136093200Y-51295300D01*
X136113200Y-51295300D01*
X136113200Y-51549300D01*
X136093200Y-51549300D01*
X136093200Y-52742455D01*
X136323090Y-52863776D01*
X136733124Y-52693945D01*
X137161383Y-52303658D01*
X137228498Y-52160747D01*
X137456146Y-52501447D01*
X137937915Y-52823354D01*
X138506200Y-52936393D01*
X139074485Y-52823354D01*
X139556254Y-52501447D01*
X139776200Y-52172274D01*
X139996146Y-52501447D01*
X140477915Y-52823354D01*
X141046200Y-52936393D01*
X141614485Y-52823354D01*
X142096254Y-52501447D01*
X142316200Y-52172274D01*
X142536146Y-52501447D01*
X143017915Y-52823354D01*
X143586200Y-52936393D01*
X144154485Y-52823354D01*
X144636254Y-52501447D01*
X144856200Y-52172274D01*
X145076146Y-52501447D01*
X145557915Y-52823354D01*
X146126200Y-52936393D01*
X146694485Y-52823354D01*
X147176254Y-52501447D01*
X147396200Y-52172274D01*
X147616146Y-52501447D01*
X148097915Y-52823354D01*
X148666200Y-52936393D01*
X149234485Y-52823354D01*
X149716254Y-52501447D01*
X149936200Y-52172274D01*
X150156146Y-52501447D01*
X150637915Y-52823354D01*
X151206200Y-52936393D01*
X151774485Y-52823354D01*
X152256254Y-52501447D01*
X152476200Y-52172274D01*
X152696146Y-52501447D01*
X153177915Y-52823354D01*
X153746200Y-52936393D01*
X154314485Y-52823354D01*
X154796254Y-52501447D01*
X155023902Y-52160747D01*
X155091017Y-52303658D01*
X155519276Y-52693945D01*
X155929310Y-52863776D01*
X156159200Y-52742455D01*
X156159200Y-51549300D01*
X156139200Y-51549300D01*
X156139200Y-51295300D01*
X156159200Y-51295300D01*
X156159200Y-51275300D01*
X156413200Y-51275300D01*
X156413200Y-51295300D01*
X156433200Y-51295300D01*
X156433200Y-51549300D01*
X156413200Y-51549300D01*
X156413200Y-52742455D01*
X156643090Y-52863776D01*
X157053124Y-52693945D01*
X157481383Y-52303658D01*
X157548498Y-52160747D01*
X157776146Y-52501447D01*
X158257915Y-52823354D01*
X158826200Y-52936393D01*
X159394485Y-52823354D01*
X159876254Y-52501447D01*
X160096200Y-52172274D01*
X160316146Y-52501447D01*
X160797915Y-52823354D01*
X161366200Y-52936393D01*
X161934485Y-52823354D01*
X162416254Y-52501447D01*
X162636200Y-52172274D01*
X162856146Y-52501447D01*
X163337915Y-52823354D01*
X163906200Y-52936393D01*
X164474485Y-52823354D01*
X164956254Y-52501447D01*
X165176200Y-52172274D01*
X165396146Y-52501447D01*
X165877915Y-52823354D01*
X166446200Y-52936393D01*
X167014485Y-52823354D01*
X167496254Y-52501447D01*
X167716200Y-52172274D01*
X167936146Y-52501447D01*
X168417915Y-52823354D01*
X168986200Y-52936393D01*
X169554485Y-52823354D01*
X170036254Y-52501447D01*
X170256200Y-52172274D01*
X170476146Y-52501447D01*
X170957915Y-52823354D01*
X171526200Y-52936393D01*
X172094485Y-52823354D01*
X172576254Y-52501447D01*
X172803902Y-52160747D01*
X172871017Y-52303658D01*
X173299276Y-52693945D01*
X173709310Y-52863776D01*
X173939200Y-52742455D01*
X173939200Y-51549300D01*
X174193200Y-51549300D01*
X174193200Y-52742455D01*
X174423090Y-52863776D01*
X174833124Y-52693945D01*
X175261383Y-52303658D01*
X175507686Y-51779192D01*
X175387019Y-51549300D01*
X174193200Y-51549300D01*
X173939200Y-51549300D01*
X173919200Y-51549300D01*
X173919200Y-51295300D01*
X173939200Y-51295300D01*
X173939200Y-51275300D01*
X174193200Y-51275300D01*
X174193200Y-51295300D01*
X175387019Y-51295300D01*
X175507686Y-51065408D01*
X175299603Y-50622325D01*
X176564587Y-50622325D01*
X176926916Y-51499229D01*
X177597242Y-52170726D01*
X178473513Y-52534585D01*
X179422325Y-52535413D01*
X180299229Y-52173084D01*
X180970726Y-51502758D01*
X181334585Y-50626487D01*
X181335413Y-49677675D01*
X180973084Y-48800771D01*
X180302758Y-48129274D01*
X179426487Y-47765415D01*
X178477675Y-47764587D01*
X177600771Y-48126916D01*
X176929274Y-48797242D01*
X176565415Y-49673513D01*
X176564587Y-50622325D01*
X175299603Y-50622325D01*
X175261383Y-50540942D01*
X174833124Y-50150655D01*
X174833099Y-50150645D01*
X175116254Y-49961447D01*
X175438161Y-49479678D01*
X175551200Y-48911393D01*
X175551200Y-48853207D01*
X175438161Y-48284922D01*
X175116254Y-47803153D01*
X174634485Y-47481246D01*
X174066200Y-47368207D01*
X173497915Y-47481246D01*
X173016146Y-47803153D01*
X172788498Y-48143853D01*
X172721383Y-48000942D01*
X172293124Y-47610655D01*
X171883090Y-47440824D01*
X171653200Y-47562145D01*
X171653200Y-48755300D01*
X171673200Y-48755300D01*
X171673200Y-49009300D01*
X171653200Y-49009300D01*
X171653200Y-49029300D01*
X171399200Y-49029300D01*
X171399200Y-49009300D01*
X171379200Y-49009300D01*
X171379200Y-48755300D01*
X171399200Y-48755300D01*
X171399200Y-47562145D01*
X171169310Y-47440824D01*
X170759276Y-47610655D01*
X170331017Y-48000942D01*
X170263902Y-48143853D01*
X170036254Y-47803153D01*
X169554485Y-47481246D01*
X168986200Y-47368207D01*
X168417915Y-47481246D01*
X167936146Y-47803153D01*
X167708498Y-48143853D01*
X167641383Y-48000942D01*
X167213124Y-47610655D01*
X166803090Y-47440824D01*
X166573200Y-47562145D01*
X166573200Y-48755300D01*
X166593200Y-48755300D01*
X166593200Y-49009300D01*
X166573200Y-49009300D01*
X166573200Y-49029300D01*
X166319200Y-49029300D01*
X166319200Y-49009300D01*
X166299200Y-49009300D01*
X166299200Y-48755300D01*
X166319200Y-48755300D01*
X166319200Y-47562145D01*
X166089310Y-47440824D01*
X165679276Y-47610655D01*
X165251017Y-48000942D01*
X165183902Y-48143853D01*
X164956254Y-47803153D01*
X164474485Y-47481246D01*
X163906200Y-47368207D01*
X163337915Y-47481246D01*
X162856146Y-47803153D01*
X162636200Y-48132326D01*
X162416254Y-47803153D01*
X161934485Y-47481246D01*
X161366200Y-47368207D01*
X160797915Y-47481246D01*
X160316146Y-47803153D01*
X160096200Y-48132326D01*
X159876254Y-47803153D01*
X159394485Y-47481246D01*
X158826200Y-47368207D01*
X158257915Y-47481246D01*
X157776146Y-47803153D01*
X157556200Y-48132326D01*
X157336254Y-47803153D01*
X156854485Y-47481246D01*
X156286200Y-47368207D01*
X155717915Y-47481246D01*
X155236146Y-47803153D01*
X155016200Y-48132326D01*
X154796254Y-47803153D01*
X154314485Y-47481246D01*
X153746200Y-47368207D01*
X153177915Y-47481246D01*
X152696146Y-47803153D01*
X152476200Y-48132326D01*
X152256254Y-47803153D01*
X151774485Y-47481246D01*
X151206200Y-47368207D01*
X150637915Y-47481246D01*
X150156146Y-47803153D01*
X149928498Y-48143853D01*
X149861383Y-48000942D01*
X149433124Y-47610655D01*
X149023090Y-47440824D01*
X148793200Y-47562145D01*
X148793200Y-48755300D01*
X148813200Y-48755300D01*
X148813200Y-49009300D01*
X148793200Y-49009300D01*
X148793200Y-49029300D01*
X148539200Y-49029300D01*
X148539200Y-49009300D01*
X148519200Y-49009300D01*
X148519200Y-48755300D01*
X148539200Y-48755300D01*
X148539200Y-47562145D01*
X148309310Y-47440824D01*
X147899276Y-47610655D01*
X147471017Y-48000942D01*
X147403902Y-48143853D01*
X147176254Y-47803153D01*
X146694485Y-47481246D01*
X146126200Y-47368207D01*
X145557915Y-47481246D01*
X145076146Y-47803153D01*
X144856200Y-48132326D01*
X144636254Y-47803153D01*
X144154485Y-47481246D01*
X143586200Y-47368207D01*
X143017915Y-47481246D01*
X142536146Y-47803153D01*
X142308498Y-48143853D01*
X142241383Y-48000942D01*
X141813124Y-47610655D01*
X141403090Y-47440824D01*
X141173200Y-47562145D01*
X141173200Y-48755300D01*
X141193200Y-48755300D01*
X141193200Y-49009300D01*
X141173200Y-49009300D01*
X141173200Y-49029300D01*
X140919200Y-49029300D01*
X140919200Y-49009300D01*
X140899200Y-49009300D01*
X140899200Y-48755300D01*
X140919200Y-48755300D01*
X140919200Y-47562145D01*
X140689310Y-47440824D01*
X140279276Y-47610655D01*
X139851017Y-48000942D01*
X139783902Y-48143853D01*
X139556254Y-47803153D01*
X139074485Y-47481246D01*
X138506200Y-47368207D01*
X137937915Y-47481246D01*
X137456146Y-47803153D01*
X137236200Y-48132326D01*
X137016254Y-47803153D01*
X136534485Y-47481246D01*
X135966200Y-47368207D01*
X135397915Y-47481246D01*
X134916146Y-47803153D01*
X134696200Y-48132326D01*
X134476254Y-47803153D01*
X133994485Y-47481246D01*
X133426200Y-47368207D01*
X132857915Y-47481246D01*
X132376146Y-47803153D01*
X132148498Y-48143853D01*
X132081383Y-48000942D01*
X131653124Y-47610655D01*
X131243090Y-47440824D01*
X131013200Y-47562145D01*
X131013200Y-48755300D01*
X131033200Y-48755300D01*
X131033200Y-49009300D01*
X131013200Y-49009300D01*
X131013200Y-49029300D01*
X130759200Y-49029300D01*
X130759200Y-49009300D01*
X130739200Y-49009300D01*
X130739200Y-48755300D01*
X130759200Y-48755300D01*
X130759200Y-47562145D01*
X130529310Y-47440824D01*
X130119276Y-47610655D01*
X129691017Y-48000942D01*
X129623902Y-48143853D01*
X129616200Y-48132326D01*
X129616200Y-46355000D01*
X165099995Y-46355000D01*
X165100000Y-46355001D01*
X165586008Y-46258327D01*
X165998026Y-45983026D01*
X166628023Y-45353028D01*
X166628026Y-45353026D01*
X166903327Y-44941008D01*
X167000001Y-44455000D01*
X167000000Y-44454995D01*
X167000000Y-42635821D01*
X167079229Y-42603084D01*
X167750726Y-41932758D01*
X168114585Y-41056487D01*
X168115413Y-40107675D01*
X167753084Y-39230771D01*
X167082758Y-38559274D01*
X166206487Y-38195415D01*
X165257675Y-38194587D01*
X164380771Y-38556916D01*
X163709274Y-39227242D01*
X163345415Y-40103513D01*
X163344587Y-41052325D01*
X163706916Y-41929229D01*
X164377242Y-42600726D01*
X164460000Y-42635090D01*
X164460000Y-43815000D01*
X144483947Y-43815000D01*
X144652801Y-43408354D01*
X144653198Y-42953641D01*
X144479554Y-42533388D01*
X144376070Y-42429724D01*
X144361937Y-42358671D01*
X144331330Y-42204795D01*
X144138618Y-41916382D01*
X143503618Y-41281382D01*
X143341471Y-41173039D01*
X143215206Y-41088671D01*
X142875000Y-41021000D01*
X129273236Y-41021000D01*
X127889000Y-39636764D01*
X127889000Y-39147441D01*
X128023642Y-39295183D01*
X128548108Y-39541486D01*
X128778000Y-39420819D01*
X128778000Y-38227000D01*
X129032000Y-38227000D01*
X129032000Y-39420819D01*
X129261892Y-39541486D01*
X129786358Y-39295183D01*
X130176645Y-38866924D01*
X130346476Y-38456890D01*
X135083524Y-38456890D01*
X135253355Y-38866924D01*
X135643642Y-39295183D01*
X136168108Y-39541486D01*
X136398000Y-39420819D01*
X136398000Y-38227000D01*
X136652000Y-38227000D01*
X136652000Y-39420819D01*
X136881892Y-39541486D01*
X137406358Y-39295183D01*
X137796645Y-38866924D01*
X137966476Y-38456890D01*
X142703524Y-38456890D01*
X142873355Y-38866924D01*
X143263642Y-39295183D01*
X143788108Y-39541486D01*
X144018000Y-39420819D01*
X144018000Y-38227000D01*
X144272000Y-38227000D01*
X144272000Y-39420819D01*
X144501892Y-39541486D01*
X145026358Y-39295183D01*
X145416645Y-38866924D01*
X145586476Y-38456890D01*
X145465155Y-38227000D01*
X144272000Y-38227000D01*
X144018000Y-38227000D01*
X142824845Y-38227000D01*
X142703524Y-38456890D01*
X137966476Y-38456890D01*
X137845155Y-38227000D01*
X136652000Y-38227000D01*
X136398000Y-38227000D01*
X135204845Y-38227000D01*
X135083524Y-38456890D01*
X130346476Y-38456890D01*
X130225155Y-38227000D01*
X129032000Y-38227000D01*
X128778000Y-38227000D01*
X128758000Y-38227000D01*
X128758000Y-37973000D01*
X128778000Y-37973000D01*
X128778000Y-37953000D01*
X129032000Y-37953000D01*
X129032000Y-37973000D01*
X130225155Y-37973000D01*
X130346476Y-37743110D01*
X130176645Y-37333076D01*
X129786358Y-36904817D01*
X129643447Y-36837702D01*
X129984147Y-36610054D01*
X130306054Y-36128285D01*
X130419093Y-35560000D01*
X130306054Y-34991715D01*
X129984147Y-34509946D01*
X129942548Y-34482150D01*
X129990317Y-34473162D01*
X130206441Y-34334090D01*
X130323342Y-34163000D01*
X135108956Y-34163000D01*
X135210910Y-34321441D01*
X135423110Y-34466431D01*
X135490541Y-34480086D01*
X135445853Y-34509946D01*
X135123946Y-34991715D01*
X135010907Y-35560000D01*
X135123946Y-36128285D01*
X135445853Y-36610054D01*
X135786553Y-36837702D01*
X135643642Y-36904817D01*
X135253355Y-37333076D01*
X135083524Y-37743110D01*
X135204845Y-37973000D01*
X136398000Y-37973000D01*
X136398000Y-37953000D01*
X136652000Y-37953000D01*
X136652000Y-37973000D01*
X137845155Y-37973000D01*
X137966476Y-37743110D01*
X137796645Y-37333076D01*
X137406358Y-36904817D01*
X137263447Y-36837702D01*
X137604147Y-36610054D01*
X137926054Y-36128285D01*
X138039093Y-35560000D01*
X137926054Y-34991715D01*
X137604147Y-34509946D01*
X137562548Y-34482150D01*
X137610317Y-34473162D01*
X137826441Y-34334090D01*
X137943342Y-34163000D01*
X142728956Y-34163000D01*
X142830910Y-34321441D01*
X143043110Y-34466431D01*
X143110541Y-34480086D01*
X143065853Y-34509946D01*
X142743946Y-34991715D01*
X142630907Y-35560000D01*
X142743946Y-36128285D01*
X143065853Y-36610054D01*
X143406553Y-36837702D01*
X143263642Y-36904817D01*
X142873355Y-37333076D01*
X142703524Y-37743110D01*
X142824845Y-37973000D01*
X144018000Y-37973000D01*
X144018000Y-37953000D01*
X144272000Y-37953000D01*
X144272000Y-37973000D01*
X145465155Y-37973000D01*
X145586476Y-37743110D01*
X145416645Y-37333076D01*
X145026358Y-36904817D01*
X144883447Y-36837702D01*
X145224147Y-36610054D01*
X145546054Y-36128285D01*
X145659093Y-35560000D01*
X145546054Y-34991715D01*
X145400935Y-34774528D01*
X176715077Y-34774528D01*
X176905364Y-35119271D01*
X177786591Y-35470956D01*
X178735323Y-35458641D01*
X179554636Y-35119271D01*
X179744923Y-34774528D01*
X178230000Y-33259605D01*
X176715077Y-34774528D01*
X145400935Y-34774528D01*
X145224147Y-34509946D01*
X145182548Y-34482150D01*
X145230317Y-34473162D01*
X145446441Y-34334090D01*
X145591431Y-34121890D01*
X145642440Y-33870000D01*
X145642440Y-32636591D01*
X175839044Y-32636591D01*
X175851359Y-33585323D01*
X176190729Y-34404636D01*
X176535472Y-34594923D01*
X178050395Y-33080000D01*
X178409605Y-33080000D01*
X179924528Y-34594923D01*
X180269271Y-34404636D01*
X180620956Y-33523409D01*
X180608641Y-32574677D01*
X180269271Y-31755364D01*
X179924528Y-31565077D01*
X178409605Y-33080000D01*
X178050395Y-33080000D01*
X176535472Y-31565077D01*
X176190729Y-31755364D01*
X175839044Y-32636591D01*
X145642440Y-32636591D01*
X145642440Y-32170000D01*
X145598162Y-31934683D01*
X145459090Y-31718559D01*
X145246890Y-31573569D01*
X144995000Y-31522560D01*
X143295000Y-31522560D01*
X143059683Y-31566838D01*
X142843559Y-31705910D01*
X142726658Y-31877000D01*
X137941044Y-31877000D01*
X137839090Y-31718559D01*
X137626890Y-31573569D01*
X137375000Y-31522560D01*
X135675000Y-31522560D01*
X135439683Y-31566838D01*
X135223559Y-31705910D01*
X135106658Y-31877000D01*
X130321044Y-31877000D01*
X130219090Y-31718559D01*
X130006890Y-31573569D01*
X129755000Y-31522560D01*
X128055000Y-31522560D01*
X127889000Y-31553795D01*
X127889000Y-31385472D01*
X176715077Y-31385472D01*
X178230000Y-32900395D01*
X179744923Y-31385472D01*
X179554636Y-31040729D01*
X178673409Y-30689044D01*
X177724677Y-30701359D01*
X176905364Y-31040729D01*
X176715077Y-31385472D01*
X127889000Y-31385472D01*
X127889000Y-26955750D01*
X151500000Y-26955750D01*
X151500000Y-27696309D01*
X151596673Y-27929698D01*
X151775301Y-28108327D01*
X152008690Y-28205000D01*
X152749250Y-28205000D01*
X152908000Y-28046250D01*
X152908000Y-26797000D01*
X153162000Y-26797000D01*
X153162000Y-28046250D01*
X153320750Y-28205000D01*
X154061310Y-28205000D01*
X154294699Y-28108327D01*
X154473327Y-27929698D01*
X154570000Y-27696309D01*
X154570000Y-26955750D01*
X158485000Y-26955750D01*
X158485000Y-27696309D01*
X158581673Y-27929698D01*
X158760301Y-28108327D01*
X158993690Y-28205000D01*
X159734250Y-28205000D01*
X159893000Y-28046250D01*
X159893000Y-26797000D01*
X160147000Y-26797000D01*
X160147000Y-28046250D01*
X160305750Y-28205000D01*
X161046310Y-28205000D01*
X161279699Y-28108327D01*
X161458327Y-27929698D01*
X161555000Y-27696309D01*
X161555000Y-26955750D01*
X161396250Y-26797000D01*
X160147000Y-26797000D01*
X159893000Y-26797000D01*
X158643750Y-26797000D01*
X158485000Y-26955750D01*
X154570000Y-26955750D01*
X154411250Y-26797000D01*
X153162000Y-26797000D01*
X152908000Y-26797000D01*
X151658750Y-26797000D01*
X151500000Y-26955750D01*
X127889000Y-26955750D01*
X127889000Y-26670000D01*
X127821329Y-26329794D01*
X127628618Y-26041382D01*
X126358618Y-24771382D01*
X126329157Y-24751697D01*
X126070206Y-24578671D01*
X125730000Y-24511000D01*
X101057588Y-24511000D01*
X100980713Y-24433991D01*
X151499735Y-24433991D01*
X151732932Y-24998371D01*
X151910092Y-25175841D01*
X151775301Y-25231673D01*
X151596673Y-25410302D01*
X151500000Y-25643691D01*
X151500000Y-26384250D01*
X151658750Y-26543000D01*
X152908000Y-26543000D01*
X152908000Y-26523000D01*
X153162000Y-26523000D01*
X153162000Y-26543000D01*
X154411250Y-26543000D01*
X154570000Y-26384250D01*
X154570000Y-25643691D01*
X154473327Y-25410302D01*
X154294699Y-25231673D01*
X154160006Y-25175881D01*
X154335551Y-25000643D01*
X154569733Y-24436670D01*
X154569735Y-24433991D01*
X158484735Y-24433991D01*
X158717932Y-24998371D01*
X158895092Y-25175841D01*
X158760301Y-25231673D01*
X158581673Y-25410302D01*
X158485000Y-25643691D01*
X158485000Y-26384250D01*
X158643750Y-26543000D01*
X159893000Y-26543000D01*
X159893000Y-26523000D01*
X160147000Y-26523000D01*
X160147000Y-26543000D01*
X161396250Y-26543000D01*
X161555000Y-26384250D01*
X161555000Y-25643691D01*
X161458327Y-25410302D01*
X161279699Y-25231673D01*
X161145006Y-25175881D01*
X161320551Y-25000643D01*
X161554733Y-24436670D01*
X161555265Y-23826009D01*
X161322068Y-23261629D01*
X160890643Y-22829449D01*
X160326670Y-22595267D01*
X159716009Y-22594735D01*
X159151629Y-22827932D01*
X158719449Y-23259357D01*
X158485267Y-23823330D01*
X158484735Y-24433991D01*
X154569735Y-24433991D01*
X154570265Y-23826009D01*
X154337068Y-23261629D01*
X153905643Y-22829449D01*
X153341670Y-22595267D01*
X152731009Y-22594735D01*
X152166629Y-22827932D01*
X151734449Y-23259357D01*
X151500267Y-23823330D01*
X151499735Y-24433991D01*
X100980713Y-24433991D01*
X100978303Y-24431577D01*
X100558354Y-24257199D01*
X100103641Y-24256802D01*
X99683388Y-24430446D01*
X99361577Y-24751697D01*
X99187199Y-25171646D01*
X99186802Y-25626359D01*
X99360446Y-26046612D01*
X99681697Y-26368423D01*
X100101646Y-26542801D01*
X100556359Y-26543198D01*
X100976612Y-26369554D01*
X101057306Y-26289000D01*
X125361764Y-26289000D01*
X126111000Y-27038236D01*
X126111000Y-40005000D01*
X126178671Y-40345206D01*
X126228683Y-40420054D01*
X126371382Y-40633618D01*
X128276382Y-42538618D01*
X128564794Y-42731329D01*
X128905000Y-42799000D01*
X142430583Y-42799000D01*
X142367199Y-42951646D01*
X142366802Y-43406359D01*
X142535648Y-43815000D01*
X116840000Y-43815000D01*
X116353992Y-43911673D01*
X115941974Y-44186974D01*
X115941972Y-44186977D01*
X114671974Y-45456974D01*
X114396673Y-45868992D01*
X114299999Y-46355000D01*
X114300000Y-46355005D01*
X114300000Y-104248949D01*
X113401974Y-105146974D01*
X113401972Y-105146977D01*
X109963948Y-108585000D01*
X77470000Y-108585000D01*
X77470000Y-107036890D01*
X78568524Y-107036890D01*
X78738355Y-107446924D01*
X79128642Y-107875183D01*
X79653108Y-108121486D01*
X79883000Y-108000819D01*
X79883000Y-106807000D01*
X80137000Y-106807000D01*
X80137000Y-108000819D01*
X80366892Y-108121486D01*
X80891358Y-107875183D01*
X81281645Y-107446924D01*
X81451476Y-107036890D01*
X86188524Y-107036890D01*
X86358355Y-107446924D01*
X86748642Y-107875183D01*
X87273108Y-108121486D01*
X87503000Y-108000819D01*
X87503000Y-106807000D01*
X87757000Y-106807000D01*
X87757000Y-108000819D01*
X87986892Y-108121486D01*
X88511358Y-107875183D01*
X88901645Y-107446924D01*
X89071476Y-107036890D01*
X93808524Y-107036890D01*
X93978355Y-107446924D01*
X94368642Y-107875183D01*
X94893108Y-108121486D01*
X95123000Y-108000819D01*
X95123000Y-106807000D01*
X95377000Y-106807000D01*
X95377000Y-108000819D01*
X95606892Y-108121486D01*
X96131358Y-107875183D01*
X96521645Y-107446924D01*
X96691476Y-107036890D01*
X101428524Y-107036890D01*
X101598355Y-107446924D01*
X101988642Y-107875183D01*
X102513108Y-108121486D01*
X102743000Y-108000819D01*
X102743000Y-106807000D01*
X102997000Y-106807000D01*
X102997000Y-108000819D01*
X103226892Y-108121486D01*
X103751358Y-107875183D01*
X104141645Y-107446924D01*
X104311476Y-107036890D01*
X104190155Y-106807000D01*
X102997000Y-106807000D01*
X102743000Y-106807000D01*
X101549845Y-106807000D01*
X101428524Y-107036890D01*
X96691476Y-107036890D01*
X96570155Y-106807000D01*
X95377000Y-106807000D01*
X95123000Y-106807000D01*
X93929845Y-106807000D01*
X93808524Y-107036890D01*
X89071476Y-107036890D01*
X88950155Y-106807000D01*
X87757000Y-106807000D01*
X87503000Y-106807000D01*
X86309845Y-106807000D01*
X86188524Y-107036890D01*
X81451476Y-107036890D01*
X81330155Y-106807000D01*
X80137000Y-106807000D01*
X79883000Y-106807000D01*
X78689845Y-106807000D01*
X78568524Y-107036890D01*
X77470000Y-107036890D01*
X77470000Y-104124067D01*
X77476382Y-104133618D01*
X78111382Y-104768618D01*
X78399795Y-104961330D01*
X78740000Y-105029000D01*
X78823240Y-105029000D01*
X78930853Y-105190054D01*
X79271553Y-105417702D01*
X79128642Y-105484817D01*
X78738355Y-105913076D01*
X78568524Y-106323110D01*
X78689845Y-106553000D01*
X79883000Y-106553000D01*
X79883000Y-106533000D01*
X80137000Y-106533000D01*
X80137000Y-106553000D01*
X81330155Y-106553000D01*
X81451476Y-106323110D01*
X81281645Y-105913076D01*
X80891358Y-105484817D01*
X80748447Y-105417702D01*
X81089147Y-105190054D01*
X81411054Y-104708285D01*
X81524093Y-104140000D01*
X81411054Y-103571715D01*
X81089147Y-103089946D01*
X81047548Y-103062150D01*
X81095317Y-103053162D01*
X81311441Y-102914090D01*
X81428342Y-102743000D01*
X86213956Y-102743000D01*
X86315910Y-102901441D01*
X86528110Y-103046431D01*
X86595541Y-103060086D01*
X86550853Y-103089946D01*
X86228946Y-103571715D01*
X86115907Y-104140000D01*
X86228946Y-104708285D01*
X86550853Y-105190054D01*
X86891553Y-105417702D01*
X86748642Y-105484817D01*
X86358355Y-105913076D01*
X86188524Y-106323110D01*
X86309845Y-106553000D01*
X87503000Y-106553000D01*
X87503000Y-106533000D01*
X87757000Y-106533000D01*
X87757000Y-106553000D01*
X88950155Y-106553000D01*
X89071476Y-106323110D01*
X88901645Y-105913076D01*
X88511358Y-105484817D01*
X88368447Y-105417702D01*
X88709147Y-105190054D01*
X89031054Y-104708285D01*
X89144093Y-104140000D01*
X89031054Y-103571715D01*
X88709147Y-103089946D01*
X88667548Y-103062150D01*
X88715317Y-103053162D01*
X88931441Y-102914090D01*
X89048342Y-102743000D01*
X93833956Y-102743000D01*
X93935910Y-102901441D01*
X94148110Y-103046431D01*
X94215541Y-103060086D01*
X94170853Y-103089946D01*
X93848946Y-103571715D01*
X93735907Y-104140000D01*
X93848946Y-104708285D01*
X94170853Y-105190054D01*
X94511553Y-105417702D01*
X94368642Y-105484817D01*
X93978355Y-105913076D01*
X93808524Y-106323110D01*
X93929845Y-106553000D01*
X95123000Y-106553000D01*
X95123000Y-106533000D01*
X95377000Y-106533000D01*
X95377000Y-106553000D01*
X96570155Y-106553000D01*
X96691476Y-106323110D01*
X96521645Y-105913076D01*
X96131358Y-105484817D01*
X95988447Y-105417702D01*
X96329147Y-105190054D01*
X96651054Y-104708285D01*
X96764093Y-104140000D01*
X96651054Y-103571715D01*
X96329147Y-103089946D01*
X96287548Y-103062150D01*
X96335317Y-103053162D01*
X96551441Y-102914090D01*
X96696431Y-102701890D01*
X96747440Y-102450000D01*
X96747440Y-100750000D01*
X96703162Y-100514683D01*
X96564090Y-100298559D01*
X96351890Y-100153569D01*
X96100000Y-100102560D01*
X94400000Y-100102560D01*
X94164683Y-100146838D01*
X93948559Y-100285910D01*
X93831658Y-100457000D01*
X89046044Y-100457000D01*
X88944090Y-100298559D01*
X88731890Y-100153569D01*
X88480000Y-100102560D01*
X86780000Y-100102560D01*
X86544683Y-100146838D01*
X86328559Y-100285910D01*
X86211658Y-100457000D01*
X81426044Y-100457000D01*
X81324090Y-100298559D01*
X81111890Y-100153569D01*
X80860000Y-100102560D01*
X79160000Y-100102560D01*
X78994000Y-100133795D01*
X78994000Y-99695000D01*
X78979544Y-99622325D01*
X78926330Y-99354795D01*
X78733618Y-99066382D01*
X78098618Y-98431382D01*
X78089067Y-98425000D01*
X77810206Y-98238671D01*
X77470000Y-98171000D01*
X53708236Y-98171000D01*
X53594000Y-98056764D01*
X53594000Y-52070000D01*
X53556937Y-51883671D01*
X53526330Y-51729795D01*
X53333618Y-51441382D01*
X49784000Y-47891764D01*
X49784000Y-43180000D01*
X89916000Y-43180000D01*
X89916000Y-84455000D01*
X89983671Y-84795206D01*
X90176382Y-85083618D01*
X90811382Y-85718618D01*
X91099795Y-85911330D01*
X91440000Y-85979000D01*
X99961764Y-85979000D01*
X100076000Y-86093236D01*
X100076000Y-103505000D01*
X100143671Y-103845206D01*
X100336382Y-104133618D01*
X100971382Y-104768618D01*
X101259795Y-104961330D01*
X101600000Y-105029000D01*
X101683240Y-105029000D01*
X101790853Y-105190054D01*
X102131553Y-105417702D01*
X101988642Y-105484817D01*
X101598355Y-105913076D01*
X101428524Y-106323110D01*
X101549845Y-106553000D01*
X102743000Y-106553000D01*
X102743000Y-106533000D01*
X102997000Y-106533000D01*
X102997000Y-106553000D01*
X104190155Y-106553000D01*
X104311476Y-106323110D01*
X104141645Y-105913076D01*
X103751358Y-105484817D01*
X103608447Y-105417702D01*
X103949147Y-105190054D01*
X104271054Y-104708285D01*
X104384093Y-104140000D01*
X104271054Y-103571715D01*
X103949147Y-103089946D01*
X103907548Y-103062150D01*
X103955317Y-103053162D01*
X104171441Y-102914090D01*
X104316431Y-102701890D01*
X104367440Y-102450000D01*
X104367440Y-100750000D01*
X104323162Y-100514683D01*
X104184090Y-100298559D01*
X103971890Y-100153569D01*
X103720000Y-100102560D01*
X102020000Y-100102560D01*
X101854000Y-100133795D01*
X101854000Y-85725000D01*
X101816937Y-85538670D01*
X101786330Y-85384795D01*
X101593618Y-85096382D01*
X100958618Y-84461382D01*
X100837095Y-84380183D01*
X100670206Y-84268671D01*
X100330000Y-84201000D01*
X96351901Y-84201000D01*
X96651054Y-83753285D01*
X96764093Y-83185000D01*
X96708774Y-82906890D01*
X101428524Y-82906890D01*
X101598355Y-83316924D01*
X101988642Y-83745183D01*
X102513108Y-83991486D01*
X102743000Y-83870819D01*
X102743000Y-82677000D01*
X102997000Y-82677000D01*
X102997000Y-83870819D01*
X103226892Y-83991486D01*
X103751358Y-83745183D01*
X104141645Y-83316924D01*
X104311476Y-82906890D01*
X104190155Y-82677000D01*
X102997000Y-82677000D01*
X102743000Y-82677000D01*
X101549845Y-82677000D01*
X101428524Y-82906890D01*
X96708774Y-82906890D01*
X96651054Y-82616715D01*
X96329147Y-82134946D01*
X95999974Y-81915000D01*
X96329147Y-81695054D01*
X96651054Y-81213285D01*
X96764093Y-80645000D01*
X96663860Y-80141096D01*
X97161382Y-80638618D01*
X97449795Y-80831330D01*
X97790000Y-80899000D01*
X101683240Y-80899000D01*
X101790853Y-81060054D01*
X102131553Y-81287702D01*
X101988642Y-81354817D01*
X101598355Y-81783076D01*
X101428524Y-82193110D01*
X101549845Y-82423000D01*
X102743000Y-82423000D01*
X102743000Y-82403000D01*
X102997000Y-82403000D01*
X102997000Y-82423000D01*
X104190155Y-82423000D01*
X104311476Y-82193110D01*
X104141645Y-81783076D01*
X103751358Y-81354817D01*
X103608447Y-81287702D01*
X103949147Y-81060054D01*
X104271054Y-80578285D01*
X104384093Y-80010000D01*
X104271054Y-79441715D01*
X103949147Y-78959946D01*
X103619974Y-78740000D01*
X103949147Y-78520054D01*
X104271054Y-78038285D01*
X104384093Y-77470000D01*
X104271054Y-76901715D01*
X103949147Y-76419946D01*
X103619974Y-76200000D01*
X103949147Y-75980054D01*
X104271054Y-75498285D01*
X104384093Y-74930000D01*
X104271054Y-74361715D01*
X103949147Y-73879946D01*
X103907548Y-73852150D01*
X103955317Y-73843162D01*
X104171441Y-73704090D01*
X104316431Y-73491890D01*
X104367440Y-73240000D01*
X104367440Y-71540000D01*
X104323162Y-71304683D01*
X104184090Y-71088559D01*
X103971890Y-70943569D01*
X103720000Y-70892560D01*
X102020000Y-70892560D01*
X101784683Y-70936838D01*
X101568559Y-71075910D01*
X101423569Y-71288110D01*
X101372560Y-71540000D01*
X101372560Y-73240000D01*
X101416838Y-73475317D01*
X101555910Y-73691441D01*
X101768110Y-73836431D01*
X101835541Y-73850086D01*
X101790853Y-73879946D01*
X101468946Y-74361715D01*
X101355907Y-74930000D01*
X101468946Y-75498285D01*
X101790853Y-75980054D01*
X102120026Y-76200000D01*
X101790853Y-76419946D01*
X101468946Y-76901715D01*
X101355907Y-77470000D01*
X101468946Y-78038285D01*
X101790853Y-78520054D01*
X102120026Y-78740000D01*
X101790853Y-78959946D01*
X101683240Y-79121000D01*
X98158236Y-79121000D01*
X98044000Y-79006764D01*
X98044000Y-66040000D01*
X98029118Y-65965183D01*
X97976330Y-65699795D01*
X97783618Y-65411382D01*
X97499126Y-65126890D01*
X101428524Y-65126890D01*
X101598355Y-65536924D01*
X101988642Y-65965183D01*
X102513108Y-66211486D01*
X102743000Y-66090819D01*
X102743000Y-64897000D01*
X102997000Y-64897000D01*
X102997000Y-66090819D01*
X103226892Y-66211486D01*
X103751358Y-65965183D01*
X104141645Y-65536924D01*
X104311476Y-65126890D01*
X104190155Y-64897000D01*
X102997000Y-64897000D01*
X102743000Y-64897000D01*
X101549845Y-64897000D01*
X101428524Y-65126890D01*
X97499126Y-65126890D01*
X97148618Y-64776382D01*
X96860206Y-64583671D01*
X96520000Y-64516000D01*
X96436760Y-64516000D01*
X96329147Y-64354946D01*
X95999974Y-64135000D01*
X96329147Y-63915054D01*
X96651054Y-63433285D01*
X96764093Y-62865000D01*
X96663860Y-62361096D01*
X97161382Y-62858618D01*
X97449795Y-63051330D01*
X97790000Y-63119000D01*
X101683240Y-63119000D01*
X101790853Y-63280054D01*
X102131553Y-63507702D01*
X101988642Y-63574817D01*
X101598355Y-64003076D01*
X101428524Y-64413110D01*
X101549845Y-64643000D01*
X102743000Y-64643000D01*
X102743000Y-64623000D01*
X102997000Y-64623000D01*
X102997000Y-64643000D01*
X104190155Y-64643000D01*
X104311476Y-64413110D01*
X104141645Y-64003076D01*
X103751358Y-63574817D01*
X103608447Y-63507702D01*
X103949147Y-63280054D01*
X104271054Y-62798285D01*
X104384093Y-62230000D01*
X104271054Y-61661715D01*
X103949147Y-61179946D01*
X103619974Y-60960000D01*
X103949147Y-60740054D01*
X104271054Y-60258285D01*
X104384093Y-59690000D01*
X104271054Y-59121715D01*
X103949147Y-58639946D01*
X103619974Y-58420000D01*
X103949147Y-58200054D01*
X104271054Y-57718285D01*
X104384093Y-57150000D01*
X104271054Y-56581715D01*
X103949147Y-56099946D01*
X103907548Y-56072150D01*
X103955317Y-56063162D01*
X104171441Y-55924090D01*
X104316431Y-55711890D01*
X104367440Y-55460000D01*
X104367440Y-53760000D01*
X104323162Y-53524683D01*
X104184090Y-53308559D01*
X103971890Y-53163569D01*
X103720000Y-53112560D01*
X102020000Y-53112560D01*
X101784683Y-53156838D01*
X101568559Y-53295910D01*
X101423569Y-53508110D01*
X101372560Y-53760000D01*
X101372560Y-55460000D01*
X101416838Y-55695317D01*
X101555910Y-55911441D01*
X101768110Y-56056431D01*
X101835541Y-56070086D01*
X101790853Y-56099946D01*
X101468946Y-56581715D01*
X101355907Y-57150000D01*
X101468946Y-57718285D01*
X101790853Y-58200054D01*
X102120026Y-58420000D01*
X101790853Y-58639946D01*
X101468946Y-59121715D01*
X101355907Y-59690000D01*
X101468946Y-60258285D01*
X101790853Y-60740054D01*
X102120026Y-60960000D01*
X101790853Y-61179946D01*
X101683240Y-61341000D01*
X98158236Y-61341000D01*
X98044000Y-61226764D01*
X98044000Y-58420000D01*
X98001234Y-58205000D01*
X97976330Y-58079795D01*
X97783618Y-57791382D01*
X97148618Y-57156382D01*
X97139067Y-57150000D01*
X96860206Y-56963671D01*
X96520000Y-56896000D01*
X96436760Y-56896000D01*
X96329147Y-56734946D01*
X95999974Y-56515000D01*
X96329147Y-56295054D01*
X96651054Y-55813285D01*
X96764093Y-55245000D01*
X96651054Y-54676715D01*
X96329147Y-54194946D01*
X95999974Y-53975000D01*
X96329147Y-53755054D01*
X96651054Y-53273285D01*
X96764093Y-52705000D01*
X96651054Y-52136715D01*
X96329147Y-51654946D01*
X95999974Y-51435000D01*
X96329147Y-51215054D01*
X96436760Y-51054000D01*
X96520000Y-51054000D01*
X96860206Y-50986329D01*
X97148618Y-50793618D01*
X97783618Y-50158618D01*
X97976330Y-49870205D01*
X98044000Y-49530000D01*
X98044000Y-47346890D01*
X101428524Y-47346890D01*
X101598355Y-47756924D01*
X101988642Y-48185183D01*
X102513108Y-48431486D01*
X102743000Y-48310819D01*
X102743000Y-47117000D01*
X102997000Y-47117000D01*
X102997000Y-48310819D01*
X103226892Y-48431486D01*
X103751358Y-48185183D01*
X104141645Y-47756924D01*
X104311476Y-47346890D01*
X104190155Y-47117000D01*
X102997000Y-47117000D01*
X102743000Y-47117000D01*
X101549845Y-47117000D01*
X101428524Y-47346890D01*
X98044000Y-47346890D01*
X98044000Y-45453236D01*
X98158236Y-45339000D01*
X101683240Y-45339000D01*
X101790853Y-45500054D01*
X102131553Y-45727702D01*
X101988642Y-45794817D01*
X101598355Y-46223076D01*
X101428524Y-46633110D01*
X101549845Y-46863000D01*
X102743000Y-46863000D01*
X102743000Y-46843000D01*
X102997000Y-46843000D01*
X102997000Y-46863000D01*
X104190155Y-46863000D01*
X104311476Y-46633110D01*
X104141645Y-46223076D01*
X103751358Y-45794817D01*
X103608447Y-45727702D01*
X103949147Y-45500054D01*
X104271054Y-45018285D01*
X104384093Y-44450000D01*
X104271054Y-43881715D01*
X103949147Y-43399946D01*
X103619974Y-43180000D01*
X103949147Y-42960054D01*
X104271054Y-42478285D01*
X104384093Y-41910000D01*
X104271054Y-41341715D01*
X103949147Y-40859946D01*
X103619974Y-40640000D01*
X103949147Y-40420054D01*
X104271054Y-39938285D01*
X104384093Y-39370000D01*
X104271054Y-38801715D01*
X103949147Y-38319946D01*
X103907548Y-38292150D01*
X103955317Y-38283162D01*
X104171441Y-38144090D01*
X104316431Y-37931890D01*
X104367440Y-37680000D01*
X104367440Y-35980000D01*
X104323162Y-35744683D01*
X104184090Y-35528559D01*
X103971890Y-35383569D01*
X103720000Y-35332560D01*
X102020000Y-35332560D01*
X101784683Y-35376838D01*
X101568559Y-35515910D01*
X101423569Y-35728110D01*
X101372560Y-35980000D01*
X101372560Y-37680000D01*
X101416838Y-37915317D01*
X101555910Y-38131441D01*
X101768110Y-38276431D01*
X101835541Y-38290086D01*
X101790853Y-38319946D01*
X101468946Y-38801715D01*
X101355907Y-39370000D01*
X101468946Y-39938285D01*
X101790853Y-40420054D01*
X102120026Y-40640000D01*
X101790853Y-40859946D01*
X101468946Y-41341715D01*
X101355907Y-41910000D01*
X101468946Y-42478285D01*
X101790853Y-42960054D01*
X102120026Y-43180000D01*
X101790853Y-43399946D01*
X101683240Y-43561000D01*
X97790000Y-43561000D01*
X97449795Y-43628670D01*
X97161382Y-43821382D01*
X96576951Y-44405813D01*
X96329147Y-44034946D01*
X95999974Y-43815000D01*
X96329147Y-43595054D01*
X96651054Y-43113285D01*
X96764093Y-42545000D01*
X96651054Y-41976715D01*
X96329147Y-41494946D01*
X95999974Y-41275000D01*
X96329147Y-41055054D01*
X96651054Y-40573285D01*
X96764093Y-40005000D01*
X96651054Y-39436715D01*
X96329147Y-38954946D01*
X95999974Y-38735000D01*
X96329147Y-38515054D01*
X96651054Y-38033285D01*
X96764093Y-37465000D01*
X96651054Y-36896715D01*
X96329147Y-36414946D01*
X95999974Y-36195000D01*
X96329147Y-35975054D01*
X96651054Y-35493285D01*
X96764093Y-34925000D01*
X96651054Y-34356715D01*
X96329147Y-33874946D01*
X95999974Y-33655000D01*
X96329147Y-33435054D01*
X96651054Y-32953285D01*
X96764093Y-32385000D01*
X96651054Y-31816715D01*
X96329147Y-31334946D01*
X95999974Y-31115000D01*
X96329147Y-30895054D01*
X96651054Y-30413285D01*
X96764093Y-29845000D01*
X96651054Y-29276715D01*
X96329147Y-28794946D01*
X95988447Y-28567298D01*
X96131358Y-28500183D01*
X96521645Y-28071924D01*
X96691476Y-27661890D01*
X96570155Y-27432000D01*
X95377000Y-27432000D01*
X95377000Y-27452000D01*
X95123000Y-27452000D01*
X95123000Y-27432000D01*
X92837000Y-27432000D01*
X92837000Y-27452000D01*
X92583000Y-27452000D01*
X92583000Y-27432000D01*
X91383750Y-27432000D01*
X91225000Y-27590750D01*
X91225000Y-28281310D01*
X91321673Y-28514699D01*
X91500302Y-28693327D01*
X91674777Y-28765597D01*
X91630853Y-28794946D01*
X91308946Y-29276715D01*
X91195907Y-29845000D01*
X91308946Y-30413285D01*
X91630853Y-30895054D01*
X91960026Y-31115000D01*
X91630853Y-31334946D01*
X91308946Y-31816715D01*
X91195907Y-32385000D01*
X91308946Y-32953285D01*
X91630853Y-33435054D01*
X91960026Y-33655000D01*
X91630853Y-33874946D01*
X91308946Y-34356715D01*
X91195907Y-34925000D01*
X91308946Y-35493285D01*
X91630853Y-35975054D01*
X91960026Y-36195000D01*
X91630853Y-36414946D01*
X91308946Y-36896715D01*
X91195907Y-37465000D01*
X91308946Y-38033285D01*
X91630853Y-38515054D01*
X91960026Y-38735000D01*
X91630853Y-38954946D01*
X91308946Y-39436715D01*
X91195907Y-40005000D01*
X91308946Y-40573285D01*
X91630853Y-41055054D01*
X91960026Y-41275000D01*
X91630853Y-41494946D01*
X91523240Y-41656000D01*
X91440000Y-41656000D01*
X91099795Y-41723670D01*
X90811382Y-41916382D01*
X90176382Y-42551382D01*
X89983671Y-42839794D01*
X89916000Y-43180000D01*
X49784000Y-43180000D01*
X49763719Y-43078039D01*
X49716330Y-42839795D01*
X49523618Y-42551382D01*
X48888618Y-41916382D01*
X48879067Y-41910000D01*
X48600206Y-41723671D01*
X48260000Y-41656000D01*
X48176760Y-41656000D01*
X48069147Y-41494946D01*
X47739974Y-41275000D01*
X48069147Y-41055054D01*
X48391054Y-40573285D01*
X48504093Y-40005000D01*
X48391054Y-39436715D01*
X48069147Y-38954946D01*
X47739974Y-38735000D01*
X48069147Y-38515054D01*
X48391054Y-38033285D01*
X48504093Y-37465000D01*
X48391054Y-36896715D01*
X48069147Y-36414946D01*
X47739974Y-36195000D01*
X48069147Y-35975054D01*
X48391054Y-35493285D01*
X48504093Y-34925000D01*
X48391054Y-34356715D01*
X48301227Y-34222279D01*
X50536974Y-36458026D01*
X50948992Y-36733327D01*
X51435000Y-36830001D01*
X51435005Y-36830000D01*
X68053948Y-36830000D01*
X68580000Y-37356051D01*
X68580000Y-38150635D01*
X68453243Y-38455900D01*
X68452758Y-39011661D01*
X68664990Y-39525303D01*
X69057630Y-39918629D01*
X69570900Y-40131757D01*
X70126661Y-40132242D01*
X70640303Y-39920010D01*
X71033629Y-39527370D01*
X71188826Y-39153614D01*
X71312718Y-39453458D01*
X71669663Y-39811026D01*
X72136273Y-40004779D01*
X72641510Y-40005220D01*
X73108458Y-39812282D01*
X73466026Y-39455337D01*
X73659779Y-38988727D01*
X73660220Y-38483490D01*
X73533000Y-38175593D01*
X73533000Y-36195000D01*
X73445994Y-35757593D01*
X73198223Y-35386777D01*
X70658223Y-32846777D01*
X70287407Y-32599006D01*
X69850000Y-32512000D01*
X52543446Y-32512000D01*
X49068223Y-29036777D01*
X48697407Y-28789006D01*
X48260000Y-28702000D01*
X47930043Y-28702000D01*
X47728447Y-28567298D01*
X47871358Y-28500183D01*
X48261645Y-28071924D01*
X48431476Y-27661890D01*
X48310155Y-27432000D01*
X47117000Y-27432000D01*
X47117000Y-27452000D01*
X46863000Y-27452000D01*
X46863000Y-27432000D01*
X44577000Y-27432000D01*
X44577000Y-27452000D01*
X44323000Y-27452000D01*
X44323000Y-27432000D01*
X43123750Y-27432000D01*
X42965000Y-27590750D01*
X42965000Y-28281310D01*
X43061673Y-28514699D01*
X43240302Y-28693327D01*
X43414777Y-28765597D01*
X43370853Y-28794946D01*
X43048946Y-29276715D01*
X42935907Y-29845000D01*
X43048946Y-30413285D01*
X43370853Y-30895054D01*
X43700026Y-31115000D01*
X43370853Y-31334946D01*
X43048946Y-31816715D01*
X42935907Y-32385000D01*
X43048946Y-32953285D01*
X43370853Y-33435054D01*
X43700026Y-33655000D01*
X43370853Y-33874946D01*
X43048946Y-34356715D01*
X42935907Y-34925000D01*
X43048946Y-35493285D01*
X43370853Y-35975054D01*
X43700026Y-36195000D01*
X43370853Y-36414946D01*
X43048946Y-36896715D01*
X42935907Y-37465000D01*
X43048946Y-38033285D01*
X43370853Y-38515054D01*
X43700026Y-38735000D01*
X43370853Y-38954946D01*
X43048946Y-39436715D01*
X42935907Y-40005000D01*
X43048946Y-40573285D01*
X43370853Y-41055054D01*
X43700026Y-41275000D01*
X43370853Y-41494946D01*
X43048946Y-41976715D01*
X42935907Y-42545000D01*
X43048946Y-43113285D01*
X43370853Y-43595054D01*
X43700026Y-43815000D01*
X43370853Y-44034946D01*
X43048946Y-44516715D01*
X42935907Y-45085000D01*
X43048946Y-45653285D01*
X43370853Y-46135054D01*
X43700026Y-46355000D01*
X43370853Y-46574946D01*
X43048946Y-47056715D01*
X42935907Y-47625000D01*
X43048946Y-48193285D01*
X43370853Y-48675054D01*
X43700026Y-48895000D01*
X43370853Y-49114946D01*
X43263240Y-49276000D01*
X43180000Y-49276000D01*
X42839795Y-49343670D01*
X42551382Y-49536382D01*
X41916382Y-50171382D01*
X41723671Y-50459794D01*
X41656000Y-50800000D01*
X41656000Y-77101764D01*
X40906764Y-77851000D01*
X38735000Y-77851000D01*
X38394794Y-77918671D01*
X38125485Y-78098618D01*
X38106382Y-78111382D01*
X36836382Y-79381382D01*
X36643671Y-79669794D01*
X36576000Y-80010000D01*
X35052000Y-80010000D01*
X35052000Y-26232725D01*
X35440727Y-27173515D01*
X36321847Y-28056174D01*
X37473674Y-28534454D01*
X38720854Y-28535543D01*
X39873515Y-28059273D01*
X40756174Y-27178153D01*
X41108901Y-26328690D01*
X42965000Y-26328690D01*
X42965000Y-27019250D01*
X43123750Y-27178000D01*
X44323000Y-27178000D01*
X44323000Y-25978750D01*
X44577000Y-25978750D01*
X44577000Y-27178000D01*
X46863000Y-27178000D01*
X46863000Y-25984181D01*
X47117000Y-25984181D01*
X47117000Y-27178000D01*
X48310155Y-27178000D01*
X48431476Y-26948110D01*
X48261645Y-26538076D01*
X47871358Y-26109817D01*
X47346892Y-25863514D01*
X47117000Y-25984181D01*
X46863000Y-25984181D01*
X46633108Y-25863514D01*
X46108642Y-26109817D01*
X45926930Y-26309208D01*
X45838327Y-26095301D01*
X45659698Y-25916673D01*
X45426309Y-25820000D01*
X44735750Y-25820000D01*
X44577000Y-25978750D01*
X44323000Y-25978750D01*
X44164250Y-25820000D01*
X43473691Y-25820000D01*
X43240302Y-25916673D01*
X43061673Y-26095301D01*
X42965000Y-26328690D01*
X41108901Y-26328690D01*
X41234454Y-26026326D01*
X41235543Y-24779146D01*
X40759273Y-23626485D01*
X39878153Y-22743826D01*
X38934531Y-22352000D01*
X53848000Y-22352000D01*
X53848000Y-31750000D01*
X53848000Y-31750000D01*
G37*
X53848000Y-31750000D02*
X53858006Y-31799410D01*
X53886447Y-31841035D01*
X53928841Y-31868315D01*
X53975000Y-31877000D01*
X88265000Y-31877000D01*
X88314410Y-31866994D01*
X88356035Y-31838553D01*
X88383315Y-31796159D01*
X88392000Y-31750000D01*
X88392000Y-26328690D01*
X91225000Y-26328690D01*
X91225000Y-27019250D01*
X91383750Y-27178000D01*
X92583000Y-27178000D01*
X92583000Y-25978750D01*
X92837000Y-25978750D01*
X92837000Y-27178000D01*
X95123000Y-27178000D01*
X95123000Y-25984181D01*
X95377000Y-25984181D01*
X95377000Y-27178000D01*
X96570155Y-27178000D01*
X96691476Y-26948110D01*
X96521645Y-26538076D01*
X96131358Y-26109817D01*
X95606892Y-25863514D01*
X95377000Y-25984181D01*
X95123000Y-25984181D01*
X94893108Y-25863514D01*
X94368642Y-26109817D01*
X94186930Y-26309208D01*
X94098327Y-26095301D01*
X93919698Y-25916673D01*
X93686309Y-25820000D01*
X92995750Y-25820000D01*
X92837000Y-25978750D01*
X92583000Y-25978750D01*
X92424250Y-25820000D01*
X91733691Y-25820000D01*
X91500302Y-25916673D01*
X91321673Y-26095301D01*
X91225000Y-26328690D01*
X88392000Y-26328690D01*
X88392000Y-22352000D01*
X178237275Y-22352000D01*
X177296485Y-22740727D01*
X176413826Y-23621847D01*
X175935546Y-24773674D01*
X175934457Y-26020854D01*
X176410727Y-27173515D01*
X177291847Y-28056174D01*
X178443674Y-28534454D01*
X179690854Y-28535543D01*
X180843515Y-28059273D01*
X181726174Y-27178153D01*
X182118000Y-26234531D01*
X182118000Y-75490000D01*
X173355000Y-75490000D01*
X173083295Y-75544046D01*
X172852954Y-75697954D01*
X172699046Y-75928295D01*
X172645000Y-76200000D01*
X172645000Y-104140000D01*
X172699046Y-104411705D01*
X172852954Y-104642046D01*
X173083295Y-104795954D01*
X173355000Y-104850000D01*
X182118000Y-104850000D01*
X182118000Y-110927275D01*
X181729273Y-109986485D01*
X180848153Y-109103826D01*
X179696326Y-108625546D01*
X178449146Y-108624457D01*
X177296485Y-109100727D01*
X176413826Y-109981847D01*
X175935546Y-111133674D01*
X175934457Y-112380854D01*
X176410727Y-113533515D01*
X177291847Y-114416174D01*
X178235469Y-114808000D01*
X38932725Y-114808000D01*
X39873515Y-114419273D01*
X40756174Y-113538153D01*
X41234454Y-112386326D01*
X41235543Y-111139146D01*
X40759273Y-109986485D01*
X39878153Y-109103826D01*
X38726326Y-108625546D01*
X37479146Y-108624457D01*
X36326485Y-109100727D01*
X35443826Y-109981847D01*
X35052000Y-110925469D01*
X35052000Y-80010000D01*
X36576000Y-80010000D01*
X36576000Y-83820000D01*
X36643671Y-84160206D01*
X36790655Y-84380183D01*
X36836382Y-84448618D01*
X38106382Y-85718618D01*
X38394794Y-85911329D01*
X38735000Y-85979000D01*
X40906764Y-85979000D01*
X41656000Y-86728236D01*
X41656000Y-111760000D01*
X41723671Y-112100206D01*
X41911194Y-112380854D01*
X41916382Y-112388618D01*
X43821382Y-114293618D01*
X44109794Y-114486329D01*
X44450000Y-114554000D01*
X115570000Y-114554000D01*
X115910206Y-114486329D01*
X116198618Y-114293618D01*
X117208236Y-113284000D01*
X129540000Y-113284000D01*
X129880206Y-113216329D01*
X130168618Y-113023618D01*
X131178236Y-112014000D01*
X164465000Y-112014000D01*
X164805206Y-111946329D01*
X165093618Y-111753618D01*
X165728618Y-111118618D01*
X165921330Y-110830205D01*
X165989000Y-110490000D01*
X165989000Y-110406760D01*
X166150054Y-110299147D01*
X166370000Y-109969974D01*
X166589946Y-110299147D01*
X167071715Y-110621054D01*
X167640000Y-110734093D01*
X168208285Y-110621054D01*
X168690054Y-110299147D01*
X168910000Y-109969974D01*
X169129946Y-110299147D01*
X169611715Y-110621054D01*
X170180000Y-110734093D01*
X170748285Y-110621054D01*
X171230054Y-110299147D01*
X171551961Y-109817378D01*
X171665000Y-109249093D01*
X171665000Y-109190907D01*
X171551961Y-108622622D01*
X171230054Y-108140853D01*
X170748285Y-107818946D01*
X170180000Y-107705907D01*
X169611715Y-107818946D01*
X169129946Y-108140853D01*
X168910000Y-108470026D01*
X168690054Y-108140853D01*
X168208285Y-107818946D01*
X167640000Y-107705907D01*
X167071715Y-107818946D01*
X166589946Y-108140853D01*
X166370000Y-108470026D01*
X166150054Y-108140853D01*
X165668285Y-107818946D01*
X165100000Y-107705907D01*
X164531715Y-107818946D01*
X164049946Y-108140853D01*
X163830000Y-108470026D01*
X163610054Y-108140853D01*
X163449000Y-108033240D01*
X163449000Y-107950000D01*
X163422932Y-107818946D01*
X163381330Y-107609795D01*
X163188618Y-107321382D01*
X162553618Y-106686382D01*
X162544067Y-106680000D01*
X162265206Y-106493671D01*
X161925000Y-106426000D01*
X115715052Y-106426000D01*
X116468023Y-105673028D01*
X116468026Y-105673026D01*
X116743327Y-105261008D01*
X116840000Y-104775000D01*
X116840000Y-99622325D01*
X118564587Y-99622325D01*
X118926916Y-100499229D01*
X119597242Y-101170726D01*
X120473513Y-101534585D01*
X121422325Y-101535413D01*
X122299229Y-101173084D01*
X122970726Y-100502758D01*
X123334585Y-99626487D01*
X123335413Y-98677675D01*
X122973084Y-97800771D01*
X122302758Y-97129274D01*
X121426487Y-96765415D01*
X120477675Y-96764587D01*
X119600771Y-97126916D01*
X118929274Y-97797242D01*
X118565415Y-98673513D01*
X118564587Y-99622325D01*
X116840000Y-99622325D01*
X116840000Y-50622325D01*
X118564587Y-50622325D01*
X118926916Y-51499229D01*
X119597242Y-52170726D01*
X120473513Y-52534585D01*
X121422325Y-52535413D01*
X122299229Y-52173084D01*
X122970726Y-51502758D01*
X123334585Y-50626487D01*
X123335413Y-49677675D01*
X122973084Y-48800771D01*
X122302758Y-48129274D01*
X121426487Y-47765415D01*
X120477675Y-47764587D01*
X119600771Y-48126916D01*
X118929274Y-48797242D01*
X118565415Y-49673513D01*
X118564587Y-50622325D01*
X116840000Y-50622325D01*
X116840000Y-46881052D01*
X117366051Y-46355000D01*
X124536200Y-46355000D01*
X124536200Y-48132326D01*
X124434239Y-48284922D01*
X124321200Y-48853207D01*
X124321200Y-48911393D01*
X124434239Y-49479678D01*
X124756146Y-49961447D01*
X124757379Y-49962271D01*
X124720883Y-49969138D01*
X124504759Y-50108210D01*
X124359769Y-50320410D01*
X124308760Y-50572300D01*
X124308760Y-52272300D01*
X124353038Y-52507617D01*
X124492110Y-52723741D01*
X124704310Y-52868731D01*
X124956200Y-52919740D01*
X126656200Y-52919740D01*
X126891517Y-52875462D01*
X127107641Y-52736390D01*
X127252631Y-52524190D01*
X127266286Y-52456759D01*
X127296146Y-52501447D01*
X127777915Y-52823354D01*
X128346200Y-52936393D01*
X128914485Y-52823354D01*
X129396254Y-52501447D01*
X129616200Y-52172274D01*
X129836146Y-52501447D01*
X130317915Y-52823354D01*
X130886200Y-52936393D01*
X131454485Y-52823354D01*
X131936254Y-52501447D01*
X132156200Y-52172274D01*
X132376146Y-52501447D01*
X132857915Y-52823354D01*
X133426200Y-52936393D01*
X133994485Y-52823354D01*
X134476254Y-52501447D01*
X134703902Y-52160747D01*
X134771017Y-52303658D01*
X135199276Y-52693945D01*
X135609310Y-52863776D01*
X135839200Y-52742455D01*
X135839200Y-51549300D01*
X135819200Y-51549300D01*
X135819200Y-51295300D01*
X135839200Y-51295300D01*
X135839200Y-51275300D01*
X136093200Y-51275300D01*
X136093200Y-51295300D01*
X136113200Y-51295300D01*
X136113200Y-51549300D01*
X136093200Y-51549300D01*
X136093200Y-52742455D01*
X136323090Y-52863776D01*
X136733124Y-52693945D01*
X137161383Y-52303658D01*
X137228498Y-52160747D01*
X137456146Y-52501447D01*
X137937915Y-52823354D01*
X138506200Y-52936393D01*
X139074485Y-52823354D01*
X139556254Y-52501447D01*
X139776200Y-52172274D01*
X139996146Y-52501447D01*
X140477915Y-52823354D01*
X141046200Y-52936393D01*
X141614485Y-52823354D01*
X142096254Y-52501447D01*
X142316200Y-52172274D01*
X142536146Y-52501447D01*
X143017915Y-52823354D01*
X143586200Y-52936393D01*
X144154485Y-52823354D01*
X144636254Y-52501447D01*
X144856200Y-52172274D01*
X145076146Y-52501447D01*
X145557915Y-52823354D01*
X146126200Y-52936393D01*
X146694485Y-52823354D01*
X147176254Y-52501447D01*
X147396200Y-52172274D01*
X147616146Y-52501447D01*
X148097915Y-52823354D01*
X148666200Y-52936393D01*
X149234485Y-52823354D01*
X149716254Y-52501447D01*
X149936200Y-52172274D01*
X150156146Y-52501447D01*
X150637915Y-52823354D01*
X151206200Y-52936393D01*
X151774485Y-52823354D01*
X152256254Y-52501447D01*
X152476200Y-52172274D01*
X152696146Y-52501447D01*
X153177915Y-52823354D01*
X153746200Y-52936393D01*
X154314485Y-52823354D01*
X154796254Y-52501447D01*
X155023902Y-52160747D01*
X155091017Y-52303658D01*
X155519276Y-52693945D01*
X155929310Y-52863776D01*
X156159200Y-52742455D01*
X156159200Y-51549300D01*
X156139200Y-51549300D01*
X156139200Y-51295300D01*
X156159200Y-51295300D01*
X156159200Y-51275300D01*
X156413200Y-51275300D01*
X156413200Y-51295300D01*
X156433200Y-51295300D01*
X156433200Y-51549300D01*
X156413200Y-51549300D01*
X156413200Y-52742455D01*
X156643090Y-52863776D01*
X157053124Y-52693945D01*
X157481383Y-52303658D01*
X157548498Y-52160747D01*
X157776146Y-52501447D01*
X158257915Y-52823354D01*
X158826200Y-52936393D01*
X159394485Y-52823354D01*
X159876254Y-52501447D01*
X160096200Y-52172274D01*
X160316146Y-52501447D01*
X160797915Y-52823354D01*
X161366200Y-52936393D01*
X161934485Y-52823354D01*
X162416254Y-52501447D01*
X162636200Y-52172274D01*
X162856146Y-52501447D01*
X163337915Y-52823354D01*
X163906200Y-52936393D01*
X164474485Y-52823354D01*
X164956254Y-52501447D01*
X165176200Y-52172274D01*
X165396146Y-52501447D01*
X165877915Y-52823354D01*
X166446200Y-52936393D01*
X167014485Y-52823354D01*
X167496254Y-52501447D01*
X167716200Y-52172274D01*
X167936146Y-52501447D01*
X168417915Y-52823354D01*
X168986200Y-52936393D01*
X169554485Y-52823354D01*
X170036254Y-52501447D01*
X170256200Y-52172274D01*
X170476146Y-52501447D01*
X170957915Y-52823354D01*
X171526200Y-52936393D01*
X172094485Y-52823354D01*
X172576254Y-52501447D01*
X172803902Y-52160747D01*
X172871017Y-52303658D01*
X173299276Y-52693945D01*
X173709310Y-52863776D01*
X173939200Y-52742455D01*
X173939200Y-51549300D01*
X174193200Y-51549300D01*
X174193200Y-52742455D01*
X174423090Y-52863776D01*
X174833124Y-52693945D01*
X175261383Y-52303658D01*
X175507686Y-51779192D01*
X175387019Y-51549300D01*
X174193200Y-51549300D01*
X173939200Y-51549300D01*
X173919200Y-51549300D01*
X173919200Y-51295300D01*
X173939200Y-51295300D01*
X173939200Y-51275300D01*
X174193200Y-51275300D01*
X174193200Y-51295300D01*
X175387019Y-51295300D01*
X175507686Y-51065408D01*
X175299603Y-50622325D01*
X176564587Y-50622325D01*
X176926916Y-51499229D01*
X177597242Y-52170726D01*
X178473513Y-52534585D01*
X179422325Y-52535413D01*
X180299229Y-52173084D01*
X180970726Y-51502758D01*
X181334585Y-50626487D01*
X181335413Y-49677675D01*
X180973084Y-48800771D01*
X180302758Y-48129274D01*
X179426487Y-47765415D01*
X178477675Y-47764587D01*
X177600771Y-48126916D01*
X176929274Y-48797242D01*
X176565415Y-49673513D01*
X176564587Y-50622325D01*
X175299603Y-50622325D01*
X175261383Y-50540942D01*
X174833124Y-50150655D01*
X174833099Y-50150645D01*
X175116254Y-49961447D01*
X175438161Y-49479678D01*
X175551200Y-48911393D01*
X175551200Y-48853207D01*
X175438161Y-48284922D01*
X175116254Y-47803153D01*
X174634485Y-47481246D01*
X174066200Y-47368207D01*
X173497915Y-47481246D01*
X173016146Y-47803153D01*
X172788498Y-48143853D01*
X172721383Y-48000942D01*
X172293124Y-47610655D01*
X171883090Y-47440824D01*
X171653200Y-47562145D01*
X171653200Y-48755300D01*
X171673200Y-48755300D01*
X171673200Y-49009300D01*
X171653200Y-49009300D01*
X171653200Y-49029300D01*
X171399200Y-49029300D01*
X171399200Y-49009300D01*
X171379200Y-49009300D01*
X171379200Y-48755300D01*
X171399200Y-48755300D01*
X171399200Y-47562145D01*
X171169310Y-47440824D01*
X170759276Y-47610655D01*
X170331017Y-48000942D01*
X170263902Y-48143853D01*
X170036254Y-47803153D01*
X169554485Y-47481246D01*
X168986200Y-47368207D01*
X168417915Y-47481246D01*
X167936146Y-47803153D01*
X167708498Y-48143853D01*
X167641383Y-48000942D01*
X167213124Y-47610655D01*
X166803090Y-47440824D01*
X166573200Y-47562145D01*
X166573200Y-48755300D01*
X166593200Y-48755300D01*
X166593200Y-49009300D01*
X166573200Y-49009300D01*
X166573200Y-49029300D01*
X166319200Y-49029300D01*
X166319200Y-49009300D01*
X166299200Y-49009300D01*
X166299200Y-48755300D01*
X166319200Y-48755300D01*
X166319200Y-47562145D01*
X166089310Y-47440824D01*
X165679276Y-47610655D01*
X165251017Y-48000942D01*
X165183902Y-48143853D01*
X164956254Y-47803153D01*
X164474485Y-47481246D01*
X163906200Y-47368207D01*
X163337915Y-47481246D01*
X162856146Y-47803153D01*
X162636200Y-48132326D01*
X162416254Y-47803153D01*
X161934485Y-47481246D01*
X161366200Y-47368207D01*
X160797915Y-47481246D01*
X160316146Y-47803153D01*
X160096200Y-48132326D01*
X159876254Y-47803153D01*
X159394485Y-47481246D01*
X158826200Y-47368207D01*
X158257915Y-47481246D01*
X157776146Y-47803153D01*
X157556200Y-48132326D01*
X157336254Y-47803153D01*
X156854485Y-47481246D01*
X156286200Y-47368207D01*
X155717915Y-47481246D01*
X155236146Y-47803153D01*
X155016200Y-48132326D01*
X154796254Y-47803153D01*
X154314485Y-47481246D01*
X153746200Y-47368207D01*
X153177915Y-47481246D01*
X152696146Y-47803153D01*
X152476200Y-48132326D01*
X152256254Y-47803153D01*
X151774485Y-47481246D01*
X151206200Y-47368207D01*
X150637915Y-47481246D01*
X150156146Y-47803153D01*
X149928498Y-48143853D01*
X149861383Y-48000942D01*
X149433124Y-47610655D01*
X149023090Y-47440824D01*
X148793200Y-47562145D01*
X148793200Y-48755300D01*
X148813200Y-48755300D01*
X148813200Y-49009300D01*
X148793200Y-49009300D01*
X148793200Y-49029300D01*
X148539200Y-49029300D01*
X148539200Y-49009300D01*
X148519200Y-49009300D01*
X148519200Y-48755300D01*
X148539200Y-48755300D01*
X148539200Y-47562145D01*
X148309310Y-47440824D01*
X147899276Y-47610655D01*
X147471017Y-48000942D01*
X147403902Y-48143853D01*
X147176254Y-47803153D01*
X146694485Y-47481246D01*
X146126200Y-47368207D01*
X145557915Y-47481246D01*
X145076146Y-47803153D01*
X144856200Y-48132326D01*
X144636254Y-47803153D01*
X144154485Y-47481246D01*
X143586200Y-47368207D01*
X143017915Y-47481246D01*
X142536146Y-47803153D01*
X142308498Y-48143853D01*
X142241383Y-48000942D01*
X141813124Y-47610655D01*
X141403090Y-47440824D01*
X141173200Y-47562145D01*
X141173200Y-48755300D01*
X141193200Y-48755300D01*
X141193200Y-49009300D01*
X141173200Y-49009300D01*
X141173200Y-49029300D01*
X140919200Y-49029300D01*
X140919200Y-49009300D01*
X140899200Y-49009300D01*
X140899200Y-48755300D01*
X140919200Y-48755300D01*
X140919200Y-47562145D01*
X140689310Y-47440824D01*
X140279276Y-47610655D01*
X139851017Y-48000942D01*
X139783902Y-48143853D01*
X139556254Y-47803153D01*
X139074485Y-47481246D01*
X138506200Y-47368207D01*
X137937915Y-47481246D01*
X137456146Y-47803153D01*
X137236200Y-48132326D01*
X137016254Y-47803153D01*
X136534485Y-47481246D01*
X135966200Y-47368207D01*
X135397915Y-47481246D01*
X134916146Y-47803153D01*
X134696200Y-48132326D01*
X134476254Y-47803153D01*
X133994485Y-47481246D01*
X133426200Y-47368207D01*
X132857915Y-47481246D01*
X132376146Y-47803153D01*
X132148498Y-48143853D01*
X132081383Y-48000942D01*
X131653124Y-47610655D01*
X131243090Y-47440824D01*
X131013200Y-47562145D01*
X131013200Y-48755300D01*
X131033200Y-48755300D01*
X131033200Y-49009300D01*
X131013200Y-49009300D01*
X131013200Y-49029300D01*
X130759200Y-49029300D01*
X130759200Y-49009300D01*
X130739200Y-49009300D01*
X130739200Y-48755300D01*
X130759200Y-48755300D01*
X130759200Y-47562145D01*
X130529310Y-47440824D01*
X130119276Y-47610655D01*
X129691017Y-48000942D01*
X129623902Y-48143853D01*
X129616200Y-48132326D01*
X129616200Y-46355000D01*
X165099995Y-46355000D01*
X165100000Y-46355001D01*
X165586008Y-46258327D01*
X165998026Y-45983026D01*
X166628023Y-45353028D01*
X166628026Y-45353026D01*
X166903327Y-44941008D01*
X167000001Y-44455000D01*
X167000000Y-44454995D01*
X167000000Y-42635821D01*
X167079229Y-42603084D01*
X167750726Y-41932758D01*
X168114585Y-41056487D01*
X168115413Y-40107675D01*
X167753084Y-39230771D01*
X167082758Y-38559274D01*
X166206487Y-38195415D01*
X165257675Y-38194587D01*
X164380771Y-38556916D01*
X163709274Y-39227242D01*
X163345415Y-40103513D01*
X163344587Y-41052325D01*
X163706916Y-41929229D01*
X164377242Y-42600726D01*
X164460000Y-42635090D01*
X164460000Y-43815000D01*
X144483947Y-43815000D01*
X144652801Y-43408354D01*
X144653198Y-42953641D01*
X144479554Y-42533388D01*
X144376070Y-42429724D01*
X144361937Y-42358671D01*
X144331330Y-42204795D01*
X144138618Y-41916382D01*
X143503618Y-41281382D01*
X143341471Y-41173039D01*
X143215206Y-41088671D01*
X142875000Y-41021000D01*
X129273236Y-41021000D01*
X127889000Y-39636764D01*
X127889000Y-39147441D01*
X128023642Y-39295183D01*
X128548108Y-39541486D01*
X128778000Y-39420819D01*
X128778000Y-38227000D01*
X129032000Y-38227000D01*
X129032000Y-39420819D01*
X129261892Y-39541486D01*
X129786358Y-39295183D01*
X130176645Y-38866924D01*
X130346476Y-38456890D01*
X135083524Y-38456890D01*
X135253355Y-38866924D01*
X135643642Y-39295183D01*
X136168108Y-39541486D01*
X136398000Y-39420819D01*
X136398000Y-38227000D01*
X136652000Y-38227000D01*
X136652000Y-39420819D01*
X136881892Y-39541486D01*
X137406358Y-39295183D01*
X137796645Y-38866924D01*
X137966476Y-38456890D01*
X142703524Y-38456890D01*
X142873355Y-38866924D01*
X143263642Y-39295183D01*
X143788108Y-39541486D01*
X144018000Y-39420819D01*
X144018000Y-38227000D01*
X144272000Y-38227000D01*
X144272000Y-39420819D01*
X144501892Y-39541486D01*
X145026358Y-39295183D01*
X145416645Y-38866924D01*
X145586476Y-38456890D01*
X145465155Y-38227000D01*
X144272000Y-38227000D01*
X144018000Y-38227000D01*
X142824845Y-38227000D01*
X142703524Y-38456890D01*
X137966476Y-38456890D01*
X137845155Y-38227000D01*
X136652000Y-38227000D01*
X136398000Y-38227000D01*
X135204845Y-38227000D01*
X135083524Y-38456890D01*
X130346476Y-38456890D01*
X130225155Y-38227000D01*
X129032000Y-38227000D01*
X128778000Y-38227000D01*
X128758000Y-38227000D01*
X128758000Y-37973000D01*
X128778000Y-37973000D01*
X128778000Y-37953000D01*
X129032000Y-37953000D01*
X129032000Y-37973000D01*
X130225155Y-37973000D01*
X130346476Y-37743110D01*
X130176645Y-37333076D01*
X129786358Y-36904817D01*
X129643447Y-36837702D01*
X129984147Y-36610054D01*
X130306054Y-36128285D01*
X130419093Y-35560000D01*
X130306054Y-34991715D01*
X129984147Y-34509946D01*
X129942548Y-34482150D01*
X129990317Y-34473162D01*
X130206441Y-34334090D01*
X130323342Y-34163000D01*
X135108956Y-34163000D01*
X135210910Y-34321441D01*
X135423110Y-34466431D01*
X135490541Y-34480086D01*
X135445853Y-34509946D01*
X135123946Y-34991715D01*
X135010907Y-35560000D01*
X135123946Y-36128285D01*
X135445853Y-36610054D01*
X135786553Y-36837702D01*
X135643642Y-36904817D01*
X135253355Y-37333076D01*
X135083524Y-37743110D01*
X135204845Y-37973000D01*
X136398000Y-37973000D01*
X136398000Y-37953000D01*
X136652000Y-37953000D01*
X136652000Y-37973000D01*
X137845155Y-37973000D01*
X137966476Y-37743110D01*
X137796645Y-37333076D01*
X137406358Y-36904817D01*
X137263447Y-36837702D01*
X137604147Y-36610054D01*
X137926054Y-36128285D01*
X138039093Y-35560000D01*
X137926054Y-34991715D01*
X137604147Y-34509946D01*
X137562548Y-34482150D01*
X137610317Y-34473162D01*
X137826441Y-34334090D01*
X137943342Y-34163000D01*
X142728956Y-34163000D01*
X142830910Y-34321441D01*
X143043110Y-34466431D01*
X143110541Y-34480086D01*
X143065853Y-34509946D01*
X142743946Y-34991715D01*
X142630907Y-35560000D01*
X142743946Y-36128285D01*
X143065853Y-36610054D01*
X143406553Y-36837702D01*
X143263642Y-36904817D01*
X142873355Y-37333076D01*
X142703524Y-37743110D01*
X142824845Y-37973000D01*
X144018000Y-37973000D01*
X144018000Y-37953000D01*
X144272000Y-37953000D01*
X144272000Y-37973000D01*
X145465155Y-37973000D01*
X145586476Y-37743110D01*
X145416645Y-37333076D01*
X145026358Y-36904817D01*
X144883447Y-36837702D01*
X145224147Y-36610054D01*
X145546054Y-36128285D01*
X145659093Y-35560000D01*
X145546054Y-34991715D01*
X145400935Y-34774528D01*
X176715077Y-34774528D01*
X176905364Y-35119271D01*
X177786591Y-35470956D01*
X178735323Y-35458641D01*
X179554636Y-35119271D01*
X179744923Y-34774528D01*
X178230000Y-33259605D01*
X176715077Y-34774528D01*
X145400935Y-34774528D01*
X145224147Y-34509946D01*
X145182548Y-34482150D01*
X145230317Y-34473162D01*
X145446441Y-34334090D01*
X145591431Y-34121890D01*
X145642440Y-33870000D01*
X145642440Y-32636591D01*
X175839044Y-32636591D01*
X175851359Y-33585323D01*
X176190729Y-34404636D01*
X176535472Y-34594923D01*
X178050395Y-33080000D01*
X178409605Y-33080000D01*
X179924528Y-34594923D01*
X180269271Y-34404636D01*
X180620956Y-33523409D01*
X180608641Y-32574677D01*
X180269271Y-31755364D01*
X179924528Y-31565077D01*
X178409605Y-33080000D01*
X178050395Y-33080000D01*
X176535472Y-31565077D01*
X176190729Y-31755364D01*
X175839044Y-32636591D01*
X145642440Y-32636591D01*
X145642440Y-32170000D01*
X145598162Y-31934683D01*
X145459090Y-31718559D01*
X145246890Y-31573569D01*
X144995000Y-31522560D01*
X143295000Y-31522560D01*
X143059683Y-31566838D01*
X142843559Y-31705910D01*
X142726658Y-31877000D01*
X137941044Y-31877000D01*
X137839090Y-31718559D01*
X137626890Y-31573569D01*
X137375000Y-31522560D01*
X135675000Y-31522560D01*
X135439683Y-31566838D01*
X135223559Y-31705910D01*
X135106658Y-31877000D01*
X130321044Y-31877000D01*
X130219090Y-31718559D01*
X130006890Y-31573569D01*
X129755000Y-31522560D01*
X128055000Y-31522560D01*
X127889000Y-31553795D01*
X127889000Y-31385472D01*
X176715077Y-31385472D01*
X178230000Y-32900395D01*
X179744923Y-31385472D01*
X179554636Y-31040729D01*
X178673409Y-30689044D01*
X177724677Y-30701359D01*
X176905364Y-31040729D01*
X176715077Y-31385472D01*
X127889000Y-31385472D01*
X127889000Y-26955750D01*
X151500000Y-26955750D01*
X151500000Y-27696309D01*
X151596673Y-27929698D01*
X151775301Y-28108327D01*
X152008690Y-28205000D01*
X152749250Y-28205000D01*
X152908000Y-28046250D01*
X152908000Y-26797000D01*
X153162000Y-26797000D01*
X153162000Y-28046250D01*
X153320750Y-28205000D01*
X154061310Y-28205000D01*
X154294699Y-28108327D01*
X154473327Y-27929698D01*
X154570000Y-27696309D01*
X154570000Y-26955750D01*
X158485000Y-26955750D01*
X158485000Y-27696309D01*
X158581673Y-27929698D01*
X158760301Y-28108327D01*
X158993690Y-28205000D01*
X159734250Y-28205000D01*
X159893000Y-28046250D01*
X159893000Y-26797000D01*
X160147000Y-26797000D01*
X160147000Y-28046250D01*
X160305750Y-28205000D01*
X161046310Y-28205000D01*
X161279699Y-28108327D01*
X161458327Y-27929698D01*
X161555000Y-27696309D01*
X161555000Y-26955750D01*
X161396250Y-26797000D01*
X160147000Y-26797000D01*
X159893000Y-26797000D01*
X158643750Y-26797000D01*
X158485000Y-26955750D01*
X154570000Y-26955750D01*
X154411250Y-26797000D01*
X153162000Y-26797000D01*
X152908000Y-26797000D01*
X151658750Y-26797000D01*
X151500000Y-26955750D01*
X127889000Y-26955750D01*
X127889000Y-26670000D01*
X127821329Y-26329794D01*
X127628618Y-26041382D01*
X126358618Y-24771382D01*
X126329157Y-24751697D01*
X126070206Y-24578671D01*
X125730000Y-24511000D01*
X101057588Y-24511000D01*
X100980713Y-24433991D01*
X151499735Y-24433991D01*
X151732932Y-24998371D01*
X151910092Y-25175841D01*
X151775301Y-25231673D01*
X151596673Y-25410302D01*
X151500000Y-25643691D01*
X151500000Y-26384250D01*
X151658750Y-26543000D01*
X152908000Y-26543000D01*
X152908000Y-26523000D01*
X153162000Y-26523000D01*
X153162000Y-26543000D01*
X154411250Y-26543000D01*
X154570000Y-26384250D01*
X154570000Y-25643691D01*
X154473327Y-25410302D01*
X154294699Y-25231673D01*
X154160006Y-25175881D01*
X154335551Y-25000643D01*
X154569733Y-24436670D01*
X154569735Y-24433991D01*
X158484735Y-24433991D01*
X158717932Y-24998371D01*
X158895092Y-25175841D01*
X158760301Y-25231673D01*
X158581673Y-25410302D01*
X158485000Y-25643691D01*
X158485000Y-26384250D01*
X158643750Y-26543000D01*
X159893000Y-26543000D01*
X159893000Y-26523000D01*
X160147000Y-26523000D01*
X160147000Y-26543000D01*
X161396250Y-26543000D01*
X161555000Y-26384250D01*
X161555000Y-25643691D01*
X161458327Y-25410302D01*
X161279699Y-25231673D01*
X161145006Y-25175881D01*
X161320551Y-25000643D01*
X161554733Y-24436670D01*
X161555265Y-23826009D01*
X161322068Y-23261629D01*
X160890643Y-22829449D01*
X160326670Y-22595267D01*
X159716009Y-22594735D01*
X159151629Y-22827932D01*
X158719449Y-23259357D01*
X158485267Y-23823330D01*
X158484735Y-24433991D01*
X154569735Y-24433991D01*
X154570265Y-23826009D01*
X154337068Y-23261629D01*
X153905643Y-22829449D01*
X153341670Y-22595267D01*
X152731009Y-22594735D01*
X152166629Y-22827932D01*
X151734449Y-23259357D01*
X151500267Y-23823330D01*
X151499735Y-24433991D01*
X100980713Y-24433991D01*
X100978303Y-24431577D01*
X100558354Y-24257199D01*
X100103641Y-24256802D01*
X99683388Y-24430446D01*
X99361577Y-24751697D01*
X99187199Y-25171646D01*
X99186802Y-25626359D01*
X99360446Y-26046612D01*
X99681697Y-26368423D01*
X100101646Y-26542801D01*
X100556359Y-26543198D01*
X100976612Y-26369554D01*
X101057306Y-26289000D01*
X125361764Y-26289000D01*
X126111000Y-27038236D01*
X126111000Y-40005000D01*
X126178671Y-40345206D01*
X126228683Y-40420054D01*
X126371382Y-40633618D01*
X128276382Y-42538618D01*
X128564794Y-42731329D01*
X128905000Y-42799000D01*
X142430583Y-42799000D01*
X142367199Y-42951646D01*
X142366802Y-43406359D01*
X142535648Y-43815000D01*
X116840000Y-43815000D01*
X116353992Y-43911673D01*
X115941974Y-44186974D01*
X115941972Y-44186977D01*
X114671974Y-45456974D01*
X114396673Y-45868992D01*
X114299999Y-46355000D01*
X114300000Y-46355005D01*
X114300000Y-104248949D01*
X113401974Y-105146974D01*
X113401972Y-105146977D01*
X109963948Y-108585000D01*
X77470000Y-108585000D01*
X77470000Y-107036890D01*
X78568524Y-107036890D01*
X78738355Y-107446924D01*
X79128642Y-107875183D01*
X79653108Y-108121486D01*
X79883000Y-108000819D01*
X79883000Y-106807000D01*
X80137000Y-106807000D01*
X80137000Y-108000819D01*
X80366892Y-108121486D01*
X80891358Y-107875183D01*
X81281645Y-107446924D01*
X81451476Y-107036890D01*
X86188524Y-107036890D01*
X86358355Y-107446924D01*
X86748642Y-107875183D01*
X87273108Y-108121486D01*
X87503000Y-108000819D01*
X87503000Y-106807000D01*
X87757000Y-106807000D01*
X87757000Y-108000819D01*
X87986892Y-108121486D01*
X88511358Y-107875183D01*
X88901645Y-107446924D01*
X89071476Y-107036890D01*
X93808524Y-107036890D01*
X93978355Y-107446924D01*
X94368642Y-107875183D01*
X94893108Y-108121486D01*
X95123000Y-108000819D01*
X95123000Y-106807000D01*
X95377000Y-106807000D01*
X95377000Y-108000819D01*
X95606892Y-108121486D01*
X96131358Y-107875183D01*
X96521645Y-107446924D01*
X96691476Y-107036890D01*
X101428524Y-107036890D01*
X101598355Y-107446924D01*
X101988642Y-107875183D01*
X102513108Y-108121486D01*
X102743000Y-108000819D01*
X102743000Y-106807000D01*
X102997000Y-106807000D01*
X102997000Y-108000819D01*
X103226892Y-108121486D01*
X103751358Y-107875183D01*
X104141645Y-107446924D01*
X104311476Y-107036890D01*
X104190155Y-106807000D01*
X102997000Y-106807000D01*
X102743000Y-106807000D01*
X101549845Y-106807000D01*
X101428524Y-107036890D01*
X96691476Y-107036890D01*
X96570155Y-106807000D01*
X95377000Y-106807000D01*
X95123000Y-106807000D01*
X93929845Y-106807000D01*
X93808524Y-107036890D01*
X89071476Y-107036890D01*
X88950155Y-106807000D01*
X87757000Y-106807000D01*
X87503000Y-106807000D01*
X86309845Y-106807000D01*
X86188524Y-107036890D01*
X81451476Y-107036890D01*
X81330155Y-106807000D01*
X80137000Y-106807000D01*
X79883000Y-106807000D01*
X78689845Y-106807000D01*
X78568524Y-107036890D01*
X77470000Y-107036890D01*
X77470000Y-104124067D01*
X77476382Y-104133618D01*
X78111382Y-104768618D01*
X78399795Y-104961330D01*
X78740000Y-105029000D01*
X78823240Y-105029000D01*
X78930853Y-105190054D01*
X79271553Y-105417702D01*
X79128642Y-105484817D01*
X78738355Y-105913076D01*
X78568524Y-106323110D01*
X78689845Y-106553000D01*
X79883000Y-106553000D01*
X79883000Y-106533000D01*
X80137000Y-106533000D01*
X80137000Y-106553000D01*
X81330155Y-106553000D01*
X81451476Y-106323110D01*
X81281645Y-105913076D01*
X80891358Y-105484817D01*
X80748447Y-105417702D01*
X81089147Y-105190054D01*
X81411054Y-104708285D01*
X81524093Y-104140000D01*
X81411054Y-103571715D01*
X81089147Y-103089946D01*
X81047548Y-103062150D01*
X81095317Y-103053162D01*
X81311441Y-102914090D01*
X81428342Y-102743000D01*
X86213956Y-102743000D01*
X86315910Y-102901441D01*
X86528110Y-103046431D01*
X86595541Y-103060086D01*
X86550853Y-103089946D01*
X86228946Y-103571715D01*
X86115907Y-104140000D01*
X86228946Y-104708285D01*
X86550853Y-105190054D01*
X86891553Y-105417702D01*
X86748642Y-105484817D01*
X86358355Y-105913076D01*
X86188524Y-106323110D01*
X86309845Y-106553000D01*
X87503000Y-106553000D01*
X87503000Y-106533000D01*
X87757000Y-106533000D01*
X87757000Y-106553000D01*
X88950155Y-106553000D01*
X89071476Y-106323110D01*
X88901645Y-105913076D01*
X88511358Y-105484817D01*
X88368447Y-105417702D01*
X88709147Y-105190054D01*
X89031054Y-104708285D01*
X89144093Y-104140000D01*
X89031054Y-103571715D01*
X88709147Y-103089946D01*
X88667548Y-103062150D01*
X88715317Y-103053162D01*
X88931441Y-102914090D01*
X89048342Y-102743000D01*
X93833956Y-102743000D01*
X93935910Y-102901441D01*
X94148110Y-103046431D01*
X94215541Y-103060086D01*
X94170853Y-103089946D01*
X93848946Y-103571715D01*
X93735907Y-104140000D01*
X93848946Y-104708285D01*
X94170853Y-105190054D01*
X94511553Y-105417702D01*
X94368642Y-105484817D01*
X93978355Y-105913076D01*
X93808524Y-106323110D01*
X93929845Y-106553000D01*
X95123000Y-106553000D01*
X95123000Y-106533000D01*
X95377000Y-106533000D01*
X95377000Y-106553000D01*
X96570155Y-106553000D01*
X96691476Y-106323110D01*
X96521645Y-105913076D01*
X96131358Y-105484817D01*
X95988447Y-105417702D01*
X96329147Y-105190054D01*
X96651054Y-104708285D01*
X96764093Y-104140000D01*
X96651054Y-103571715D01*
X96329147Y-103089946D01*
X96287548Y-103062150D01*
X96335317Y-103053162D01*
X96551441Y-102914090D01*
X96696431Y-102701890D01*
X96747440Y-102450000D01*
X96747440Y-100750000D01*
X96703162Y-100514683D01*
X96564090Y-100298559D01*
X96351890Y-100153569D01*
X96100000Y-100102560D01*
X94400000Y-100102560D01*
X94164683Y-100146838D01*
X93948559Y-100285910D01*
X93831658Y-100457000D01*
X89046044Y-100457000D01*
X88944090Y-100298559D01*
X88731890Y-100153569D01*
X88480000Y-100102560D01*
X86780000Y-100102560D01*
X86544683Y-100146838D01*
X86328559Y-100285910D01*
X86211658Y-100457000D01*
X81426044Y-100457000D01*
X81324090Y-100298559D01*
X81111890Y-100153569D01*
X80860000Y-100102560D01*
X79160000Y-100102560D01*
X78994000Y-100133795D01*
X78994000Y-99695000D01*
X78979544Y-99622325D01*
X78926330Y-99354795D01*
X78733618Y-99066382D01*
X78098618Y-98431382D01*
X78089067Y-98425000D01*
X77810206Y-98238671D01*
X77470000Y-98171000D01*
X53708236Y-98171000D01*
X53594000Y-98056764D01*
X53594000Y-52070000D01*
X53556937Y-51883671D01*
X53526330Y-51729795D01*
X53333618Y-51441382D01*
X49784000Y-47891764D01*
X49784000Y-43180000D01*
X89916000Y-43180000D01*
X89916000Y-84455000D01*
X89983671Y-84795206D01*
X90176382Y-85083618D01*
X90811382Y-85718618D01*
X91099795Y-85911330D01*
X91440000Y-85979000D01*
X99961764Y-85979000D01*
X100076000Y-86093236D01*
X100076000Y-103505000D01*
X100143671Y-103845206D01*
X100336382Y-104133618D01*
X100971382Y-104768618D01*
X101259795Y-104961330D01*
X101600000Y-105029000D01*
X101683240Y-105029000D01*
X101790853Y-105190054D01*
X102131553Y-105417702D01*
X101988642Y-105484817D01*
X101598355Y-105913076D01*
X101428524Y-106323110D01*
X101549845Y-106553000D01*
X102743000Y-106553000D01*
X102743000Y-106533000D01*
X102997000Y-106533000D01*
X102997000Y-106553000D01*
X104190155Y-106553000D01*
X104311476Y-106323110D01*
X104141645Y-105913076D01*
X103751358Y-105484817D01*
X103608447Y-105417702D01*
X103949147Y-105190054D01*
X104271054Y-104708285D01*
X104384093Y-104140000D01*
X104271054Y-103571715D01*
X103949147Y-103089946D01*
X103907548Y-103062150D01*
X103955317Y-103053162D01*
X104171441Y-102914090D01*
X104316431Y-102701890D01*
X104367440Y-102450000D01*
X104367440Y-100750000D01*
X104323162Y-100514683D01*
X104184090Y-100298559D01*
X103971890Y-100153569D01*
X103720000Y-100102560D01*
X102020000Y-100102560D01*
X101854000Y-100133795D01*
X101854000Y-85725000D01*
X101816937Y-85538670D01*
X101786330Y-85384795D01*
X101593618Y-85096382D01*
X100958618Y-84461382D01*
X100837095Y-84380183D01*
X100670206Y-84268671D01*
X100330000Y-84201000D01*
X96351901Y-84201000D01*
X96651054Y-83753285D01*
X96764093Y-83185000D01*
X96708774Y-82906890D01*
X101428524Y-82906890D01*
X101598355Y-83316924D01*
X101988642Y-83745183D01*
X102513108Y-83991486D01*
X102743000Y-83870819D01*
X102743000Y-82677000D01*
X102997000Y-82677000D01*
X102997000Y-83870819D01*
X103226892Y-83991486D01*
X103751358Y-83745183D01*
X104141645Y-83316924D01*
X104311476Y-82906890D01*
X104190155Y-82677000D01*
X102997000Y-82677000D01*
X102743000Y-82677000D01*
X101549845Y-82677000D01*
X101428524Y-82906890D01*
X96708774Y-82906890D01*
X96651054Y-82616715D01*
X96329147Y-82134946D01*
X95999974Y-81915000D01*
X96329147Y-81695054D01*
X96651054Y-81213285D01*
X96764093Y-80645000D01*
X96663860Y-80141096D01*
X97161382Y-80638618D01*
X97449795Y-80831330D01*
X97790000Y-80899000D01*
X101683240Y-80899000D01*
X101790853Y-81060054D01*
X102131553Y-81287702D01*
X101988642Y-81354817D01*
X101598355Y-81783076D01*
X101428524Y-82193110D01*
X101549845Y-82423000D01*
X102743000Y-82423000D01*
X102743000Y-82403000D01*
X102997000Y-82403000D01*
X102997000Y-82423000D01*
X104190155Y-82423000D01*
X104311476Y-82193110D01*
X104141645Y-81783076D01*
X103751358Y-81354817D01*
X103608447Y-81287702D01*
X103949147Y-81060054D01*
X104271054Y-80578285D01*
X104384093Y-80010000D01*
X104271054Y-79441715D01*
X103949147Y-78959946D01*
X103619974Y-78740000D01*
X103949147Y-78520054D01*
X104271054Y-78038285D01*
X104384093Y-77470000D01*
X104271054Y-76901715D01*
X103949147Y-76419946D01*
X103619974Y-76200000D01*
X103949147Y-75980054D01*
X104271054Y-75498285D01*
X104384093Y-74930000D01*
X104271054Y-74361715D01*
X103949147Y-73879946D01*
X103907548Y-73852150D01*
X103955317Y-73843162D01*
X104171441Y-73704090D01*
X104316431Y-73491890D01*
X104367440Y-73240000D01*
X104367440Y-71540000D01*
X104323162Y-71304683D01*
X104184090Y-71088559D01*
X103971890Y-70943569D01*
X103720000Y-70892560D01*
X102020000Y-70892560D01*
X101784683Y-70936838D01*
X101568559Y-71075910D01*
X101423569Y-71288110D01*
X101372560Y-71540000D01*
X101372560Y-73240000D01*
X101416838Y-73475317D01*
X101555910Y-73691441D01*
X101768110Y-73836431D01*
X101835541Y-73850086D01*
X101790853Y-73879946D01*
X101468946Y-74361715D01*
X101355907Y-74930000D01*
X101468946Y-75498285D01*
X101790853Y-75980054D01*
X102120026Y-76200000D01*
X101790853Y-76419946D01*
X101468946Y-76901715D01*
X101355907Y-77470000D01*
X101468946Y-78038285D01*
X101790853Y-78520054D01*
X102120026Y-78740000D01*
X101790853Y-78959946D01*
X101683240Y-79121000D01*
X98158236Y-79121000D01*
X98044000Y-79006764D01*
X98044000Y-66040000D01*
X98029118Y-65965183D01*
X97976330Y-65699795D01*
X97783618Y-65411382D01*
X97499126Y-65126890D01*
X101428524Y-65126890D01*
X101598355Y-65536924D01*
X101988642Y-65965183D01*
X102513108Y-66211486D01*
X102743000Y-66090819D01*
X102743000Y-64897000D01*
X102997000Y-64897000D01*
X102997000Y-66090819D01*
X103226892Y-66211486D01*
X103751358Y-65965183D01*
X104141645Y-65536924D01*
X104311476Y-65126890D01*
X104190155Y-64897000D01*
X102997000Y-64897000D01*
X102743000Y-64897000D01*
X101549845Y-64897000D01*
X101428524Y-65126890D01*
X97499126Y-65126890D01*
X97148618Y-64776382D01*
X96860206Y-64583671D01*
X96520000Y-64516000D01*
X96436760Y-64516000D01*
X96329147Y-64354946D01*
X95999974Y-64135000D01*
X96329147Y-63915054D01*
X96651054Y-63433285D01*
X96764093Y-62865000D01*
X96663860Y-62361096D01*
X97161382Y-62858618D01*
X97449795Y-63051330D01*
X97790000Y-63119000D01*
X101683240Y-63119000D01*
X101790853Y-63280054D01*
X102131553Y-63507702D01*
X101988642Y-63574817D01*
X101598355Y-64003076D01*
X101428524Y-64413110D01*
X101549845Y-64643000D01*
X102743000Y-64643000D01*
X102743000Y-64623000D01*
X102997000Y-64623000D01*
X102997000Y-64643000D01*
X104190155Y-64643000D01*
X104311476Y-64413110D01*
X104141645Y-64003076D01*
X103751358Y-63574817D01*
X103608447Y-63507702D01*
X103949147Y-63280054D01*
X104271054Y-62798285D01*
X104384093Y-62230000D01*
X104271054Y-61661715D01*
X103949147Y-61179946D01*
X103619974Y-60960000D01*
X103949147Y-60740054D01*
X104271054Y-60258285D01*
X104384093Y-59690000D01*
X104271054Y-59121715D01*
X103949147Y-58639946D01*
X103619974Y-58420000D01*
X103949147Y-58200054D01*
X104271054Y-57718285D01*
X104384093Y-57150000D01*
X104271054Y-56581715D01*
X103949147Y-56099946D01*
X103907548Y-56072150D01*
X103955317Y-56063162D01*
X104171441Y-55924090D01*
X104316431Y-55711890D01*
X104367440Y-55460000D01*
X104367440Y-53760000D01*
X104323162Y-53524683D01*
X104184090Y-53308559D01*
X103971890Y-53163569D01*
X103720000Y-53112560D01*
X102020000Y-53112560D01*
X101784683Y-53156838D01*
X101568559Y-53295910D01*
X101423569Y-53508110D01*
X101372560Y-53760000D01*
X101372560Y-55460000D01*
X101416838Y-55695317D01*
X101555910Y-55911441D01*
X101768110Y-56056431D01*
X101835541Y-56070086D01*
X101790853Y-56099946D01*
X101468946Y-56581715D01*
X101355907Y-57150000D01*
X101468946Y-57718285D01*
X101790853Y-58200054D01*
X102120026Y-58420000D01*
X101790853Y-58639946D01*
X101468946Y-59121715D01*
X101355907Y-59690000D01*
X101468946Y-60258285D01*
X101790853Y-60740054D01*
X102120026Y-60960000D01*
X101790853Y-61179946D01*
X101683240Y-61341000D01*
X98158236Y-61341000D01*
X98044000Y-61226764D01*
X98044000Y-58420000D01*
X98001234Y-58205000D01*
X97976330Y-58079795D01*
X97783618Y-57791382D01*
X97148618Y-57156382D01*
X97139067Y-57150000D01*
X96860206Y-56963671D01*
X96520000Y-56896000D01*
X96436760Y-56896000D01*
X96329147Y-56734946D01*
X95999974Y-56515000D01*
X96329147Y-56295054D01*
X96651054Y-55813285D01*
X96764093Y-55245000D01*
X96651054Y-54676715D01*
X96329147Y-54194946D01*
X95999974Y-53975000D01*
X96329147Y-53755054D01*
X96651054Y-53273285D01*
X96764093Y-52705000D01*
X96651054Y-52136715D01*
X96329147Y-51654946D01*
X95999974Y-51435000D01*
X96329147Y-51215054D01*
X96436760Y-51054000D01*
X96520000Y-51054000D01*
X96860206Y-50986329D01*
X97148618Y-50793618D01*
X97783618Y-50158618D01*
X97976330Y-49870205D01*
X98044000Y-49530000D01*
X98044000Y-47346890D01*
X101428524Y-47346890D01*
X101598355Y-47756924D01*
X101988642Y-48185183D01*
X102513108Y-48431486D01*
X102743000Y-48310819D01*
X102743000Y-47117000D01*
X102997000Y-47117000D01*
X102997000Y-48310819D01*
X103226892Y-48431486D01*
X103751358Y-48185183D01*
X104141645Y-47756924D01*
X104311476Y-47346890D01*
X104190155Y-47117000D01*
X102997000Y-47117000D01*
X102743000Y-47117000D01*
X101549845Y-47117000D01*
X101428524Y-47346890D01*
X98044000Y-47346890D01*
X98044000Y-45453236D01*
X98158236Y-45339000D01*
X101683240Y-45339000D01*
X101790853Y-45500054D01*
X102131553Y-45727702D01*
X101988642Y-45794817D01*
X101598355Y-46223076D01*
X101428524Y-46633110D01*
X101549845Y-46863000D01*
X102743000Y-46863000D01*
X102743000Y-46843000D01*
X102997000Y-46843000D01*
X102997000Y-46863000D01*
X104190155Y-46863000D01*
X104311476Y-46633110D01*
X104141645Y-46223076D01*
X103751358Y-45794817D01*
X103608447Y-45727702D01*
X103949147Y-45500054D01*
X104271054Y-45018285D01*
X104384093Y-44450000D01*
X104271054Y-43881715D01*
X103949147Y-43399946D01*
X103619974Y-43180000D01*
X103949147Y-42960054D01*
X104271054Y-42478285D01*
X104384093Y-41910000D01*
X104271054Y-41341715D01*
X103949147Y-40859946D01*
X103619974Y-40640000D01*
X103949147Y-40420054D01*
X104271054Y-39938285D01*
X104384093Y-39370000D01*
X104271054Y-38801715D01*
X103949147Y-38319946D01*
X103907548Y-38292150D01*
X103955317Y-38283162D01*
X104171441Y-38144090D01*
X104316431Y-37931890D01*
X104367440Y-37680000D01*
X104367440Y-35980000D01*
X104323162Y-35744683D01*
X104184090Y-35528559D01*
X103971890Y-35383569D01*
X103720000Y-35332560D01*
X102020000Y-35332560D01*
X101784683Y-35376838D01*
X101568559Y-35515910D01*
X101423569Y-35728110D01*
X101372560Y-35980000D01*
X101372560Y-37680000D01*
X101416838Y-37915317D01*
X101555910Y-38131441D01*
X101768110Y-38276431D01*
X101835541Y-38290086D01*
X101790853Y-38319946D01*
X101468946Y-38801715D01*
X101355907Y-39370000D01*
X101468946Y-39938285D01*
X101790853Y-40420054D01*
X102120026Y-40640000D01*
X101790853Y-40859946D01*
X101468946Y-41341715D01*
X101355907Y-41910000D01*
X101468946Y-42478285D01*
X101790853Y-42960054D01*
X102120026Y-43180000D01*
X101790853Y-43399946D01*
X101683240Y-43561000D01*
X97790000Y-43561000D01*
X97449795Y-43628670D01*
X97161382Y-43821382D01*
X96576951Y-44405813D01*
X96329147Y-44034946D01*
X95999974Y-43815000D01*
X96329147Y-43595054D01*
X96651054Y-43113285D01*
X96764093Y-42545000D01*
X96651054Y-41976715D01*
X96329147Y-41494946D01*
X95999974Y-41275000D01*
X96329147Y-41055054D01*
X96651054Y-40573285D01*
X96764093Y-40005000D01*
X96651054Y-39436715D01*
X96329147Y-38954946D01*
X95999974Y-38735000D01*
X96329147Y-38515054D01*
X96651054Y-38033285D01*
X96764093Y-37465000D01*
X96651054Y-36896715D01*
X96329147Y-36414946D01*
X95999974Y-36195000D01*
X96329147Y-35975054D01*
X96651054Y-35493285D01*
X96764093Y-34925000D01*
X96651054Y-34356715D01*
X96329147Y-33874946D01*
X95999974Y-33655000D01*
X96329147Y-33435054D01*
X96651054Y-32953285D01*
X96764093Y-32385000D01*
X96651054Y-31816715D01*
X96329147Y-31334946D01*
X95999974Y-31115000D01*
X96329147Y-30895054D01*
X96651054Y-30413285D01*
X96764093Y-29845000D01*
X96651054Y-29276715D01*
X96329147Y-28794946D01*
X95988447Y-28567298D01*
X96131358Y-28500183D01*
X96521645Y-28071924D01*
X96691476Y-27661890D01*
X96570155Y-27432000D01*
X95377000Y-27432000D01*
X95377000Y-27452000D01*
X95123000Y-27452000D01*
X95123000Y-27432000D01*
X92837000Y-27432000D01*
X92837000Y-27452000D01*
X92583000Y-27452000D01*
X92583000Y-27432000D01*
X91383750Y-27432000D01*
X91225000Y-27590750D01*
X91225000Y-28281310D01*
X91321673Y-28514699D01*
X91500302Y-28693327D01*
X91674777Y-28765597D01*
X91630853Y-28794946D01*
X91308946Y-29276715D01*
X91195907Y-29845000D01*
X91308946Y-30413285D01*
X91630853Y-30895054D01*
X91960026Y-31115000D01*
X91630853Y-31334946D01*
X91308946Y-31816715D01*
X91195907Y-32385000D01*
X91308946Y-32953285D01*
X91630853Y-33435054D01*
X91960026Y-33655000D01*
X91630853Y-33874946D01*
X91308946Y-34356715D01*
X91195907Y-34925000D01*
X91308946Y-35493285D01*
X91630853Y-35975054D01*
X91960026Y-36195000D01*
X91630853Y-36414946D01*
X91308946Y-36896715D01*
X91195907Y-37465000D01*
X91308946Y-38033285D01*
X91630853Y-38515054D01*
X91960026Y-38735000D01*
X91630853Y-38954946D01*
X91308946Y-39436715D01*
X91195907Y-40005000D01*
X91308946Y-40573285D01*
X91630853Y-41055054D01*
X91960026Y-41275000D01*
X91630853Y-41494946D01*
X91523240Y-41656000D01*
X91440000Y-41656000D01*
X91099795Y-41723670D01*
X90811382Y-41916382D01*
X90176382Y-42551382D01*
X89983671Y-42839794D01*
X89916000Y-43180000D01*
X49784000Y-43180000D01*
X49763719Y-43078039D01*
X49716330Y-42839795D01*
X49523618Y-42551382D01*
X48888618Y-41916382D01*
X48879067Y-41910000D01*
X48600206Y-41723671D01*
X48260000Y-41656000D01*
X48176760Y-41656000D01*
X48069147Y-41494946D01*
X47739974Y-41275000D01*
X48069147Y-41055054D01*
X48391054Y-40573285D01*
X48504093Y-40005000D01*
X48391054Y-39436715D01*
X48069147Y-38954946D01*
X47739974Y-38735000D01*
X48069147Y-38515054D01*
X48391054Y-38033285D01*
X48504093Y-37465000D01*
X48391054Y-36896715D01*
X48069147Y-36414946D01*
X47739974Y-36195000D01*
X48069147Y-35975054D01*
X48391054Y-35493285D01*
X48504093Y-34925000D01*
X48391054Y-34356715D01*
X48301227Y-34222279D01*
X50536974Y-36458026D01*
X50948992Y-36733327D01*
X51435000Y-36830001D01*
X51435005Y-36830000D01*
X68053948Y-36830000D01*
X68580000Y-37356051D01*
X68580000Y-38150635D01*
X68453243Y-38455900D01*
X68452758Y-39011661D01*
X68664990Y-39525303D01*
X69057630Y-39918629D01*
X69570900Y-40131757D01*
X70126661Y-40132242D01*
X70640303Y-39920010D01*
X71033629Y-39527370D01*
X71188826Y-39153614D01*
X71312718Y-39453458D01*
X71669663Y-39811026D01*
X72136273Y-40004779D01*
X72641510Y-40005220D01*
X73108458Y-39812282D01*
X73466026Y-39455337D01*
X73659779Y-38988727D01*
X73660220Y-38483490D01*
X73533000Y-38175593D01*
X73533000Y-36195000D01*
X73445994Y-35757593D01*
X73198223Y-35386777D01*
X70658223Y-32846777D01*
X70287407Y-32599006D01*
X69850000Y-32512000D01*
X52543446Y-32512000D01*
X49068223Y-29036777D01*
X48697407Y-28789006D01*
X48260000Y-28702000D01*
X47930043Y-28702000D01*
X47728447Y-28567298D01*
X47871358Y-28500183D01*
X48261645Y-28071924D01*
X48431476Y-27661890D01*
X48310155Y-27432000D01*
X47117000Y-27432000D01*
X47117000Y-27452000D01*
X46863000Y-27452000D01*
X46863000Y-27432000D01*
X44577000Y-27432000D01*
X44577000Y-27452000D01*
X44323000Y-27452000D01*
X44323000Y-27432000D01*
X43123750Y-27432000D01*
X42965000Y-27590750D01*
X42965000Y-28281310D01*
X43061673Y-28514699D01*
X43240302Y-28693327D01*
X43414777Y-28765597D01*
X43370853Y-28794946D01*
X43048946Y-29276715D01*
X42935907Y-29845000D01*
X43048946Y-30413285D01*
X43370853Y-30895054D01*
X43700026Y-31115000D01*
X43370853Y-31334946D01*
X43048946Y-31816715D01*
X42935907Y-32385000D01*
X43048946Y-32953285D01*
X43370853Y-33435054D01*
X43700026Y-33655000D01*
X43370853Y-33874946D01*
X43048946Y-34356715D01*
X42935907Y-34925000D01*
X43048946Y-35493285D01*
X43370853Y-35975054D01*
X43700026Y-36195000D01*
X43370853Y-36414946D01*
X43048946Y-36896715D01*
X42935907Y-37465000D01*
X43048946Y-38033285D01*
X43370853Y-38515054D01*
X43700026Y-38735000D01*
X43370853Y-38954946D01*
X43048946Y-39436715D01*
X42935907Y-40005000D01*
X43048946Y-40573285D01*
X43370853Y-41055054D01*
X43700026Y-41275000D01*
X43370853Y-41494946D01*
X43048946Y-41976715D01*
X42935907Y-42545000D01*
X43048946Y-43113285D01*
X43370853Y-43595054D01*
X43700026Y-43815000D01*
X43370853Y-44034946D01*
X43048946Y-44516715D01*
X42935907Y-45085000D01*
X43048946Y-45653285D01*
X43370853Y-46135054D01*
X43700026Y-46355000D01*
X43370853Y-46574946D01*
X43048946Y-47056715D01*
X42935907Y-47625000D01*
X43048946Y-48193285D01*
X43370853Y-48675054D01*
X43700026Y-48895000D01*
X43370853Y-49114946D01*
X43263240Y-49276000D01*
X43180000Y-49276000D01*
X42839795Y-49343670D01*
X42551382Y-49536382D01*
X41916382Y-50171382D01*
X41723671Y-50459794D01*
X41656000Y-50800000D01*
X41656000Y-77101764D01*
X40906764Y-77851000D01*
X38735000Y-77851000D01*
X38394794Y-77918671D01*
X38125485Y-78098618D01*
X38106382Y-78111382D01*
X36836382Y-79381382D01*
X36643671Y-79669794D01*
X36576000Y-80010000D01*
X35052000Y-80010000D01*
X35052000Y-26232725D01*
X35440727Y-27173515D01*
X36321847Y-28056174D01*
X37473674Y-28534454D01*
X38720854Y-28535543D01*
X39873515Y-28059273D01*
X40756174Y-27178153D01*
X41108901Y-26328690D01*
X42965000Y-26328690D01*
X42965000Y-27019250D01*
X43123750Y-27178000D01*
X44323000Y-27178000D01*
X44323000Y-25978750D01*
X44577000Y-25978750D01*
X44577000Y-27178000D01*
X46863000Y-27178000D01*
X46863000Y-25984181D01*
X47117000Y-25984181D01*
X47117000Y-27178000D01*
X48310155Y-27178000D01*
X48431476Y-26948110D01*
X48261645Y-26538076D01*
X47871358Y-26109817D01*
X47346892Y-25863514D01*
X47117000Y-25984181D01*
X46863000Y-25984181D01*
X46633108Y-25863514D01*
X46108642Y-26109817D01*
X45926930Y-26309208D01*
X45838327Y-26095301D01*
X45659698Y-25916673D01*
X45426309Y-25820000D01*
X44735750Y-25820000D01*
X44577000Y-25978750D01*
X44323000Y-25978750D01*
X44164250Y-25820000D01*
X43473691Y-25820000D01*
X43240302Y-25916673D01*
X43061673Y-26095301D01*
X42965000Y-26328690D01*
X41108901Y-26328690D01*
X41234454Y-26026326D01*
X41235543Y-24779146D01*
X40759273Y-23626485D01*
X39878153Y-22743826D01*
X38934531Y-22352000D01*
X53848000Y-22352000D01*
X53848000Y-31750000D01*
G36*
X63455910Y-102901441D02*
X63668110Y-103046431D01*
X63735541Y-103060086D01*
X63690853Y-103089946D01*
X63368946Y-103571715D01*
X63255907Y-104140000D01*
X63368946Y-104708285D01*
X63690853Y-105190054D01*
X64031553Y-105417702D01*
X63888642Y-105484817D01*
X63498355Y-105913076D01*
X63328524Y-106323110D01*
X63449845Y-106553000D01*
X64643000Y-106553000D01*
X64643000Y-106533000D01*
X64897000Y-106533000D01*
X64897000Y-106553000D01*
X66090155Y-106553000D01*
X66211476Y-106323110D01*
X66041645Y-105913076D01*
X65651358Y-105484817D01*
X65508447Y-105417702D01*
X65849147Y-105190054D01*
X66171054Y-104708285D01*
X66284093Y-104140000D01*
X66171054Y-103571715D01*
X65849147Y-103089946D01*
X65807548Y-103062150D01*
X65855317Y-103053162D01*
X66071441Y-102914090D01*
X66101566Y-102870000D01*
X71055678Y-102870000D01*
X71075910Y-102901441D01*
X71288110Y-103046431D01*
X71355541Y-103060086D01*
X71310853Y-103089946D01*
X70988946Y-103571715D01*
X70875907Y-104140000D01*
X70988946Y-104708285D01*
X71310853Y-105190054D01*
X71651553Y-105417702D01*
X71508642Y-105484817D01*
X71118355Y-105913076D01*
X70948524Y-106323110D01*
X71069845Y-106553000D01*
X72263000Y-106553000D01*
X72263000Y-106533000D01*
X72517000Y-106533000D01*
X72517000Y-106553000D01*
X73710155Y-106553000D01*
X73831476Y-106323110D01*
X73661645Y-105913076D01*
X73271358Y-105484817D01*
X73128447Y-105417702D01*
X73469147Y-105190054D01*
X73791054Y-104708285D01*
X73904093Y-104140000D01*
X73791054Y-103571715D01*
X73469147Y-103089946D01*
X73427548Y-103062150D01*
X73475317Y-103053162D01*
X73691441Y-102914090D01*
X73721566Y-102870000D01*
X74930000Y-102870000D01*
X74930000Y-109219995D01*
X74929999Y-109220000D01*
X75026673Y-109706008D01*
X75301974Y-110118026D01*
X75419948Y-110236000D01*
X54432247Y-110236000D01*
X54711961Y-109817378D01*
X54825000Y-109249093D01*
X54825000Y-109190907D01*
X54711961Y-108622622D01*
X54390054Y-108140853D01*
X53908285Y-107818946D01*
X53340000Y-107705907D01*
X52771715Y-107818946D01*
X52289946Y-108140853D01*
X52070000Y-108470026D01*
X51850054Y-108140853D01*
X51368285Y-107818946D01*
X50800000Y-107705907D01*
X50231715Y-107818946D01*
X49749946Y-108140853D01*
X49722150Y-108182452D01*
X49713162Y-108134683D01*
X49574090Y-107918559D01*
X49530000Y-107888434D01*
X49530000Y-107315000D01*
X60959995Y-107315000D01*
X60960000Y-107315001D01*
X61446008Y-107218327D01*
X61717548Y-107036890D01*
X63328524Y-107036890D01*
X63498355Y-107446924D01*
X63888642Y-107875183D01*
X64413108Y-108121486D01*
X64643000Y-108000819D01*
X64643000Y-106807000D01*
X64897000Y-106807000D01*
X64897000Y-108000819D01*
X65126892Y-108121486D01*
X65651358Y-107875183D01*
X66041645Y-107446924D01*
X66211476Y-107036890D01*
X70948524Y-107036890D01*
X71118355Y-107446924D01*
X71508642Y-107875183D01*
X72033108Y-108121486D01*
X72263000Y-108000819D01*
X72263000Y-106807000D01*
X72517000Y-106807000D01*
X72517000Y-108000819D01*
X72746892Y-108121486D01*
X73271358Y-107875183D01*
X73661645Y-107446924D01*
X73831476Y-107036890D01*
X73710155Y-106807000D01*
X72517000Y-106807000D01*
X72263000Y-106807000D01*
X71069845Y-106807000D01*
X70948524Y-107036890D01*
X66211476Y-107036890D01*
X66090155Y-106807000D01*
X64897000Y-106807000D01*
X64643000Y-106807000D01*
X63449845Y-106807000D01*
X63328524Y-107036890D01*
X61717548Y-107036890D01*
X61858026Y-106943026D01*
X62493023Y-106308028D01*
X62493026Y-106308026D01*
X62768327Y-105896008D01*
X62775754Y-105858671D01*
X62865001Y-105410000D01*
X62865000Y-105409995D01*
X62865000Y-102870000D01*
X63435678Y-102870000D01*
X63455910Y-102901441D01*
X63455910Y-102901441D01*
G37*
X63455910Y-102901441D02*
X63668110Y-103046431D01*
X63735541Y-103060086D01*
X63690853Y-103089946D01*
X63368946Y-103571715D01*
X63255907Y-104140000D01*
X63368946Y-104708285D01*
X63690853Y-105190054D01*
X64031553Y-105417702D01*
X63888642Y-105484817D01*
X63498355Y-105913076D01*
X63328524Y-106323110D01*
X63449845Y-106553000D01*
X64643000Y-106553000D01*
X64643000Y-106533000D01*
X64897000Y-106533000D01*
X64897000Y-106553000D01*
X66090155Y-106553000D01*
X66211476Y-106323110D01*
X66041645Y-105913076D01*
X65651358Y-105484817D01*
X65508447Y-105417702D01*
X65849147Y-105190054D01*
X66171054Y-104708285D01*
X66284093Y-104140000D01*
X66171054Y-103571715D01*
X65849147Y-103089946D01*
X65807548Y-103062150D01*
X65855317Y-103053162D01*
X66071441Y-102914090D01*
X66101566Y-102870000D01*
X71055678Y-102870000D01*
X71075910Y-102901441D01*
X71288110Y-103046431D01*
X71355541Y-103060086D01*
X71310853Y-103089946D01*
X70988946Y-103571715D01*
X70875907Y-104140000D01*
X70988946Y-104708285D01*
X71310853Y-105190054D01*
X71651553Y-105417702D01*
X71508642Y-105484817D01*
X71118355Y-105913076D01*
X70948524Y-106323110D01*
X71069845Y-106553000D01*
X72263000Y-106553000D01*
X72263000Y-106533000D01*
X72517000Y-106533000D01*
X72517000Y-106553000D01*
X73710155Y-106553000D01*
X73831476Y-106323110D01*
X73661645Y-105913076D01*
X73271358Y-105484817D01*
X73128447Y-105417702D01*
X73469147Y-105190054D01*
X73791054Y-104708285D01*
X73904093Y-104140000D01*
X73791054Y-103571715D01*
X73469147Y-103089946D01*
X73427548Y-103062150D01*
X73475317Y-103053162D01*
X73691441Y-102914090D01*
X73721566Y-102870000D01*
X74930000Y-102870000D01*
X74930000Y-109219995D01*
X74929999Y-109220000D01*
X75026673Y-109706008D01*
X75301974Y-110118026D01*
X75419948Y-110236000D01*
X54432247Y-110236000D01*
X54711961Y-109817378D01*
X54825000Y-109249093D01*
X54825000Y-109190907D01*
X54711961Y-108622622D01*
X54390054Y-108140853D01*
X53908285Y-107818946D01*
X53340000Y-107705907D01*
X52771715Y-107818946D01*
X52289946Y-108140853D01*
X52070000Y-108470026D01*
X51850054Y-108140853D01*
X51368285Y-107818946D01*
X50800000Y-107705907D01*
X50231715Y-107818946D01*
X49749946Y-108140853D01*
X49722150Y-108182452D01*
X49713162Y-108134683D01*
X49574090Y-107918559D01*
X49530000Y-107888434D01*
X49530000Y-107315000D01*
X60959995Y-107315000D01*
X60960000Y-107315001D01*
X61446008Y-107218327D01*
X61717548Y-107036890D01*
X63328524Y-107036890D01*
X63498355Y-107446924D01*
X63888642Y-107875183D01*
X64413108Y-108121486D01*
X64643000Y-108000819D01*
X64643000Y-106807000D01*
X64897000Y-106807000D01*
X64897000Y-108000819D01*
X65126892Y-108121486D01*
X65651358Y-107875183D01*
X66041645Y-107446924D01*
X66211476Y-107036890D01*
X70948524Y-107036890D01*
X71118355Y-107446924D01*
X71508642Y-107875183D01*
X72033108Y-108121486D01*
X72263000Y-108000819D01*
X72263000Y-106807000D01*
X72517000Y-106807000D01*
X72517000Y-108000819D01*
X72746892Y-108121486D01*
X73271358Y-107875183D01*
X73661645Y-107446924D01*
X73831476Y-107036890D01*
X73710155Y-106807000D01*
X72517000Y-106807000D01*
X72263000Y-106807000D01*
X71069845Y-106807000D01*
X70948524Y-107036890D01*
X66211476Y-107036890D01*
X66090155Y-106807000D01*
X64897000Y-106807000D01*
X64643000Y-106807000D01*
X63449845Y-106807000D01*
X63328524Y-107036890D01*
X61717548Y-107036890D01*
X61858026Y-106943026D01*
X62493023Y-106308028D01*
X62493026Y-106308026D01*
X62768327Y-105896008D01*
X62775754Y-105858671D01*
X62865001Y-105410000D01*
X62865000Y-105409995D01*
X62865000Y-102870000D01*
X63435678Y-102870000D01*
X63455910Y-102901441D01*
G36*
X160147000Y-109093000D02*
X160167000Y-109093000D01*
X160167000Y-109347000D01*
X160147000Y-109347000D01*
X160147000Y-109367000D01*
X159893000Y-109367000D01*
X159893000Y-109347000D01*
X159873000Y-109347000D01*
X159873000Y-109093000D01*
X159893000Y-109093000D01*
X159893000Y-109073000D01*
X160147000Y-109073000D01*
X160147000Y-109093000D01*
X160147000Y-109093000D01*
G37*
X160147000Y-109093000D02*
X160167000Y-109093000D01*
X160167000Y-109347000D01*
X160147000Y-109347000D01*
X160147000Y-109367000D01*
X159893000Y-109367000D01*
X159893000Y-109347000D01*
X159873000Y-109347000D01*
X159873000Y-109093000D01*
X159893000Y-109093000D01*
X159893000Y-109073000D01*
X160147000Y-109073000D01*
X160147000Y-109093000D01*
G36*
X139827000Y-109093000D02*
X139847000Y-109093000D01*
X139847000Y-109347000D01*
X139827000Y-109347000D01*
X139827000Y-109367000D01*
X139573000Y-109367000D01*
X139573000Y-109347000D01*
X139553000Y-109347000D01*
X139553000Y-109093000D01*
X139573000Y-109093000D01*
X139573000Y-109073000D01*
X139827000Y-109073000D01*
X139827000Y-109093000D01*
X139827000Y-109093000D01*
G37*
X139827000Y-109093000D02*
X139847000Y-109093000D01*
X139847000Y-109347000D01*
X139827000Y-109347000D01*
X139827000Y-109367000D01*
X139573000Y-109367000D01*
X139573000Y-109347000D01*
X139553000Y-109347000D01*
X139553000Y-109093000D01*
X139573000Y-109093000D01*
X139573000Y-109073000D01*
X139827000Y-109073000D01*
X139827000Y-109093000D01*
G36*
X122047000Y-109093000D02*
X122067000Y-109093000D01*
X122067000Y-109347000D01*
X122047000Y-109347000D01*
X122047000Y-109367000D01*
X121793000Y-109367000D01*
X121793000Y-109347000D01*
X121773000Y-109347000D01*
X121773000Y-109093000D01*
X121793000Y-109093000D01*
X121793000Y-109073000D01*
X122047000Y-109073000D01*
X122047000Y-109093000D01*
X122047000Y-109093000D01*
G37*
X122047000Y-109093000D02*
X122067000Y-109093000D01*
X122067000Y-109347000D01*
X122047000Y-109347000D01*
X122047000Y-109367000D01*
X121793000Y-109367000D01*
X121793000Y-109347000D01*
X121773000Y-109347000D01*
X121773000Y-109093000D01*
X121793000Y-109093000D01*
X121793000Y-109073000D01*
X122047000Y-109073000D01*
X122047000Y-109093000D01*
G36*
X43048946Y-78673285D02*
X43370853Y-79155054D01*
X43711553Y-79382702D01*
X43568642Y-79449817D01*
X43178355Y-79878076D01*
X43008524Y-80288110D01*
X43129845Y-80518000D01*
X44323000Y-80518000D01*
X44323000Y-80498000D01*
X44577000Y-80498000D01*
X44577000Y-80518000D01*
X46863000Y-80518000D01*
X46863000Y-80498000D01*
X47117000Y-80498000D01*
X47117000Y-80518000D01*
X48310155Y-80518000D01*
X48431476Y-80288110D01*
X48261645Y-79878076D01*
X47871358Y-79449817D01*
X47728447Y-79382702D01*
X48069147Y-79155054D01*
X48176760Y-78994000D01*
X48260000Y-78994000D01*
X48600206Y-78926329D01*
X48888618Y-78733618D01*
X49276000Y-78346236D01*
X49276000Y-84086764D01*
X49161764Y-84201000D01*
X48034654Y-84201000D01*
X48261645Y-83951924D01*
X48431476Y-83541890D01*
X48310155Y-83312000D01*
X47117000Y-83312000D01*
X47117000Y-83332000D01*
X46863000Y-83332000D01*
X46863000Y-83312000D01*
X44577000Y-83312000D01*
X44577000Y-83332000D01*
X44323000Y-83332000D01*
X44323000Y-83312000D01*
X43129845Y-83312000D01*
X43008524Y-83541890D01*
X43178355Y-83951924D01*
X43568642Y-84380183D01*
X44093108Y-84626486D01*
X44322998Y-84505820D01*
X44322998Y-84594766D01*
X43186382Y-85731382D01*
X43180000Y-85740933D01*
X43173618Y-85731382D01*
X41903618Y-84461382D01*
X41782095Y-84380183D01*
X41615206Y-84268671D01*
X41275000Y-84201000D01*
X39103236Y-84201000D01*
X38354000Y-83451764D01*
X38354000Y-81001890D01*
X43008524Y-81001890D01*
X43178355Y-81411924D01*
X43568642Y-81840183D01*
X43727954Y-81915000D01*
X43568642Y-81989817D01*
X43178355Y-82418076D01*
X43008524Y-82828110D01*
X43129845Y-83058000D01*
X44323000Y-83058000D01*
X44323000Y-80772000D01*
X44577000Y-80772000D01*
X44577000Y-83058000D01*
X46863000Y-83058000D01*
X46863000Y-80772000D01*
X47117000Y-80772000D01*
X47117000Y-83058000D01*
X48310155Y-83058000D01*
X48431476Y-82828110D01*
X48261645Y-82418076D01*
X47871358Y-81989817D01*
X47712046Y-81915000D01*
X47871358Y-81840183D01*
X48261645Y-81411924D01*
X48431476Y-81001890D01*
X48310155Y-80772000D01*
X47117000Y-80772000D01*
X46863000Y-80772000D01*
X44577000Y-80772000D01*
X44323000Y-80772000D01*
X43129845Y-80772000D01*
X43008524Y-81001890D01*
X38354000Y-81001890D01*
X38354000Y-80378236D01*
X39103236Y-79629000D01*
X41275000Y-79629000D01*
X41615206Y-79561329D01*
X41903618Y-79368618D01*
X42974287Y-78297949D01*
X43048946Y-78673285D01*
X43048946Y-78673285D01*
G37*
X43048946Y-78673285D02*
X43370853Y-79155054D01*
X43711553Y-79382702D01*
X43568642Y-79449817D01*
X43178355Y-79878076D01*
X43008524Y-80288110D01*
X43129845Y-80518000D01*
X44323000Y-80518000D01*
X44323000Y-80498000D01*
X44577000Y-80498000D01*
X44577000Y-80518000D01*
X46863000Y-80518000D01*
X46863000Y-80498000D01*
X47117000Y-80498000D01*
X47117000Y-80518000D01*
X48310155Y-80518000D01*
X48431476Y-80288110D01*
X48261645Y-79878076D01*
X47871358Y-79449817D01*
X47728447Y-79382702D01*
X48069147Y-79155054D01*
X48176760Y-78994000D01*
X48260000Y-78994000D01*
X48600206Y-78926329D01*
X48888618Y-78733618D01*
X49276000Y-78346236D01*
X49276000Y-84086764D01*
X49161764Y-84201000D01*
X48034654Y-84201000D01*
X48261645Y-83951924D01*
X48431476Y-83541890D01*
X48310155Y-83312000D01*
X47117000Y-83312000D01*
X47117000Y-83332000D01*
X46863000Y-83332000D01*
X46863000Y-83312000D01*
X44577000Y-83312000D01*
X44577000Y-83332000D01*
X44323000Y-83332000D01*
X44323000Y-83312000D01*
X43129845Y-83312000D01*
X43008524Y-83541890D01*
X43178355Y-83951924D01*
X43568642Y-84380183D01*
X44093108Y-84626486D01*
X44322998Y-84505820D01*
X44322998Y-84594766D01*
X43186382Y-85731382D01*
X43180000Y-85740933D01*
X43173618Y-85731382D01*
X41903618Y-84461382D01*
X41782095Y-84380183D01*
X41615206Y-84268671D01*
X41275000Y-84201000D01*
X39103236Y-84201000D01*
X38354000Y-83451764D01*
X38354000Y-81001890D01*
X43008524Y-81001890D01*
X43178355Y-81411924D01*
X43568642Y-81840183D01*
X43727954Y-81915000D01*
X43568642Y-81989817D01*
X43178355Y-82418076D01*
X43008524Y-82828110D01*
X43129845Y-83058000D01*
X44323000Y-83058000D01*
X44323000Y-80772000D01*
X44577000Y-80772000D01*
X44577000Y-83058000D01*
X46863000Y-83058000D01*
X46863000Y-80772000D01*
X47117000Y-80772000D01*
X47117000Y-83058000D01*
X48310155Y-83058000D01*
X48431476Y-82828110D01*
X48261645Y-82418076D01*
X47871358Y-81989817D01*
X47712046Y-81915000D01*
X47871358Y-81840183D01*
X48261645Y-81411924D01*
X48431476Y-81001890D01*
X48310155Y-80772000D01*
X47117000Y-80772000D01*
X46863000Y-80772000D01*
X44577000Y-80772000D01*
X44323000Y-80772000D01*
X43129845Y-80772000D01*
X43008524Y-81001890D01*
X38354000Y-81001890D01*
X38354000Y-80378236D01*
X39103236Y-79629000D01*
X41275000Y-79629000D01*
X41615206Y-79561329D01*
X41903618Y-79368618D01*
X42974287Y-78297949D01*
X43048946Y-78673285D01*
M02*
