G04 #@! TF.FileFunction,Soldermask,Top*
%FSLAX46Y46*%
G04 Gerber Fmt 4.6, Leading zero omitted, Abs format (unit mm)*
G04 Created by KiCad (PCBNEW 4.0.3-stable) date 05/06/17 11:59:30*
%MOMM*%
%LPD*%
G01*
G04 APERTURE LIST*
%ADD10C,0.100000*%
%ADD11R,2.100000X2.100000*%
%ADD12O,2.100000X2.100000*%
%ADD13R,2.000000X2.400000*%
%ADD14R,2.200000X2.200000*%
%ADD15C,2.200000*%
%ADD16C,3.900000*%
%ADD17C,5.400000*%
%ADD18R,2.100000X2.400000*%
%ADD19R,1.000000X1.950000*%
%ADD20R,1.000000X1.900000*%
%ADD21R,2.400000X2.100000*%
%ADD22C,2.432000*%
%ADD23C,0.254000*%
G04 APERTURE END LIST*
D10*
D11*
X114935000Y-50800000D03*
D12*
X117475000Y-50800000D03*
X114935000Y-53340000D03*
X117475000Y-53340000D03*
X114935000Y-55880000D03*
X117475000Y-55880000D03*
X114935000Y-58420000D03*
X117475000Y-58420000D03*
X114935000Y-60960000D03*
X117475000Y-60960000D03*
X114935000Y-63500000D03*
X117475000Y-63500000D03*
X114935000Y-66040000D03*
X117475000Y-66040000D03*
X114935000Y-68580000D03*
X117475000Y-68580000D03*
X114935000Y-71120000D03*
X117475000Y-71120000D03*
X114935000Y-73660000D03*
X117475000Y-73660000D03*
X114935000Y-76200000D03*
X117475000Y-76200000D03*
X114935000Y-78740000D03*
X117475000Y-78740000D03*
X114935000Y-81280000D03*
X117475000Y-81280000D03*
X114935000Y-83820000D03*
X117475000Y-83820000D03*
X114935000Y-86360000D03*
X117475000Y-86360000D03*
X114935000Y-88900000D03*
X117475000Y-88900000D03*
X114935000Y-91440000D03*
X117475000Y-91440000D03*
X114935000Y-93980000D03*
X117475000Y-93980000D03*
X114935000Y-96520000D03*
X117475000Y-96520000D03*
X114935000Y-99060000D03*
X117475000Y-99060000D03*
X114935000Y-101600000D03*
X117475000Y-101600000D03*
X114935000Y-104140000D03*
X117475000Y-104140000D03*
X114935000Y-106680000D03*
X117475000Y-106680000D03*
D11*
X163195000Y-50800000D03*
D12*
X165735000Y-50800000D03*
X163195000Y-53340000D03*
X165735000Y-53340000D03*
X163195000Y-55880000D03*
X165735000Y-55880000D03*
X163195000Y-58420000D03*
X165735000Y-58420000D03*
X163195000Y-60960000D03*
X165735000Y-60960000D03*
X163195000Y-63500000D03*
X165735000Y-63500000D03*
X163195000Y-66040000D03*
X165735000Y-66040000D03*
X163195000Y-68580000D03*
X165735000Y-68580000D03*
X163195000Y-71120000D03*
X165735000Y-71120000D03*
X163195000Y-73660000D03*
X165735000Y-73660000D03*
X163195000Y-76200000D03*
X165735000Y-76200000D03*
X163195000Y-78740000D03*
X165735000Y-78740000D03*
X163195000Y-81280000D03*
X165735000Y-81280000D03*
X163195000Y-83820000D03*
X165735000Y-83820000D03*
X163195000Y-86360000D03*
X165735000Y-86360000D03*
X163195000Y-88900000D03*
X165735000Y-88900000D03*
X163195000Y-91440000D03*
X165735000Y-91440000D03*
X163195000Y-93980000D03*
X165735000Y-93980000D03*
X163195000Y-96520000D03*
X165735000Y-96520000D03*
X163195000Y-99060000D03*
X165735000Y-99060000D03*
X163195000Y-101600000D03*
X165735000Y-101600000D03*
X163195000Y-104140000D03*
X165735000Y-104140000D03*
X163195000Y-106680000D03*
X165735000Y-106680000D03*
D11*
X187325000Y-132715000D03*
D12*
X189865000Y-132715000D03*
X192405000Y-132715000D03*
X194945000Y-132715000D03*
X197485000Y-132715000D03*
X200025000Y-132715000D03*
D11*
X225425000Y-132715000D03*
D12*
X227965000Y-132715000D03*
X230505000Y-132715000D03*
X233045000Y-132715000D03*
X235585000Y-132715000D03*
X238125000Y-132715000D03*
X240665000Y-132715000D03*
D11*
X207645000Y-132715000D03*
D12*
X210185000Y-132715000D03*
X212725000Y-132715000D03*
X215265000Y-132715000D03*
X217805000Y-132715000D03*
D13*
X200025000Y-48800000D03*
X200025000Y-52800000D03*
X208915000Y-48800000D03*
X208915000Y-52800000D03*
X217805000Y-48800000D03*
X217805000Y-52800000D03*
X186055000Y-61500000D03*
X186055000Y-65500000D03*
D11*
X196291200Y-74917300D03*
D12*
X196291200Y-72377300D03*
X198831200Y-74917300D03*
X198831200Y-72377300D03*
X201371200Y-74917300D03*
X201371200Y-72377300D03*
X203911200Y-74917300D03*
X203911200Y-72377300D03*
X206451200Y-74917300D03*
X206451200Y-72377300D03*
X208991200Y-74917300D03*
X208991200Y-72377300D03*
X211531200Y-74917300D03*
X211531200Y-72377300D03*
X214071200Y-74917300D03*
X214071200Y-72377300D03*
X216611200Y-74917300D03*
X216611200Y-72377300D03*
X219151200Y-74917300D03*
X219151200Y-72377300D03*
X221691200Y-74917300D03*
X221691200Y-72377300D03*
X224231200Y-74917300D03*
X224231200Y-72377300D03*
X226771200Y-74917300D03*
X226771200Y-72377300D03*
X229311200Y-74917300D03*
X229311200Y-72377300D03*
X231851200Y-74917300D03*
X231851200Y-72377300D03*
X234391200Y-74917300D03*
X234391200Y-72377300D03*
X236931200Y-74917300D03*
X236931200Y-72377300D03*
X239471200Y-74917300D03*
X239471200Y-72377300D03*
X242011200Y-74917300D03*
X242011200Y-72377300D03*
X244551200Y-74917300D03*
X244551200Y-72377300D03*
D14*
X223520000Y-50165000D03*
D15*
X223520000Y-47625000D03*
D14*
X230505000Y-50165000D03*
D15*
X230505000Y-47625000D03*
D11*
X173355000Y-78105000D03*
D12*
X173355000Y-80645000D03*
X173355000Y-83185000D03*
X173355000Y-85725000D03*
X173355000Y-88265000D03*
D11*
X173355000Y-60325000D03*
D12*
X173355000Y-62865000D03*
X173355000Y-65405000D03*
X173355000Y-67945000D03*
X173355000Y-70485000D03*
D11*
X214630000Y-56515000D03*
D12*
X214630000Y-59055000D03*
X214630000Y-61595000D03*
D11*
X207010000Y-56515000D03*
D12*
X207010000Y-59055000D03*
X207010000Y-61595000D03*
D11*
X199390000Y-56515000D03*
D12*
X199390000Y-59055000D03*
X199390000Y-61595000D03*
D11*
X173355000Y-95885000D03*
D12*
X173355000Y-98425000D03*
X173355000Y-100965000D03*
X173355000Y-103505000D03*
X173355000Y-106045000D03*
D11*
X173355000Y-125095000D03*
D12*
X173355000Y-127635000D03*
X173355000Y-130175000D03*
D11*
X165735000Y-125095000D03*
D12*
X165735000Y-127635000D03*
X165735000Y-130175000D03*
D11*
X158115000Y-125095000D03*
D12*
X158115000Y-127635000D03*
X158115000Y-130175000D03*
D11*
X150495000Y-125095000D03*
D12*
X150495000Y-127635000D03*
X150495000Y-130175000D03*
D11*
X118745000Y-132715000D03*
D12*
X121285000Y-132715000D03*
X123825000Y-132715000D03*
D16*
X248715000Y-56575000D03*
X236215000Y-64075000D03*
D17*
X249555000Y-135255000D03*
X108585000Y-135255000D03*
X108585000Y-48895000D03*
X249555000Y-48895000D03*
D11*
X142875000Y-125095000D03*
D12*
X142875000Y-127635000D03*
X142875000Y-130175000D03*
D11*
X135255000Y-125095000D03*
D12*
X135255000Y-127635000D03*
X135255000Y-130175000D03*
D18*
X128270000Y-106140000D03*
X128270000Y-102140000D03*
X124460000Y-106140000D03*
X124460000Y-102140000D03*
D19*
X128270000Y-110965000D03*
X127000000Y-110965000D03*
X125730000Y-110965000D03*
X124460000Y-110965000D03*
X124460000Y-116365000D03*
X125730000Y-116365000D03*
X127000000Y-116365000D03*
X128270000Y-116365000D03*
D20*
X187325000Y-51275000D03*
X186055000Y-51275000D03*
X184785000Y-51275000D03*
X183515000Y-51275000D03*
X182245000Y-51275000D03*
X180975000Y-51275000D03*
X179705000Y-51275000D03*
X179705000Y-56675000D03*
X180975000Y-56675000D03*
X182245000Y-56675000D03*
X183515000Y-56675000D03*
X184785000Y-56675000D03*
X186055000Y-56675000D03*
X187325000Y-56675000D03*
D18*
X196215000Y-52800000D03*
X196215000Y-48800000D03*
X205105000Y-52800000D03*
X205105000Y-48800000D03*
X213995000Y-52800000D03*
X213995000Y-48800000D03*
D21*
X181705000Y-104775000D03*
X177705000Y-104775000D03*
X181705000Y-100965000D03*
X177705000Y-100965000D03*
X181705000Y-97155000D03*
X177705000Y-97155000D03*
X181705000Y-86995000D03*
X177705000Y-86995000D03*
X181705000Y-83185000D03*
X177705000Y-83185000D03*
X181705000Y-79375000D03*
X177705000Y-79375000D03*
X181705000Y-69215000D03*
X177705000Y-69215000D03*
X181705000Y-65405000D03*
X177705000Y-65405000D03*
X181705000Y-61595000D03*
X177705000Y-61595000D03*
D18*
X220345000Y-61055000D03*
X220345000Y-57055000D03*
X224790000Y-61055000D03*
X224790000Y-57055000D03*
X119380000Y-127730000D03*
X119380000Y-123730000D03*
X123190000Y-127730000D03*
X123190000Y-123730000D03*
X51435000Y-102965000D03*
X51435000Y-98965000D03*
X51435000Y-88805000D03*
X51435000Y-92805000D03*
D16*
X60265000Y-59895000D03*
X52765000Y-72395000D03*
X43875000Y-133145000D03*
X51375000Y-120645000D03*
X58875000Y-133145000D03*
X66375000Y-120645000D03*
X95045000Y-117415000D03*
X82545000Y-109915000D03*
X95045000Y-102415000D03*
X82545000Y-94915000D03*
X95045000Y-87415000D03*
X82545000Y-79915000D03*
X95045000Y-72415000D03*
X82545000Y-64915000D03*
D22*
X43815000Y-99695000D03*
X43815000Y-102235000D03*
X43815000Y-97155000D03*
D14*
X61595000Y-99695000D03*
D15*
X59055000Y-99695000D03*
D14*
X61595000Y-92075000D03*
D15*
X59055000Y-92075000D03*
D17*
X41275000Y-108585000D03*
X41275000Y-57785000D03*
X97155000Y-133985000D03*
X97155000Y-57785000D03*
D22*
X43815000Y-89535000D03*
X43815000Y-92075000D03*
X43815000Y-86995000D03*
D23*
G36*
X91948000Y-124587000D02*
X91948000Y-126238000D01*
X73152000Y-126238000D01*
X73152000Y-124587000D01*
X91948000Y-124587000D01*
X91948000Y-124587000D01*
G37*
X91948000Y-124587000D02*
X91948000Y-126238000D01*
X73152000Y-126238000D01*
X73152000Y-124587000D01*
X91948000Y-124587000D01*
G36*
X68453000Y-57277000D02*
X68453000Y-110363000D01*
X66167000Y-110363000D01*
X66167000Y-57277000D01*
X68453000Y-57277000D01*
X68453000Y-57277000D01*
G37*
X68453000Y-57277000D02*
X68453000Y-110363000D01*
X66167000Y-110363000D01*
X66167000Y-57277000D01*
X68453000Y-57277000D01*
G36*
X91948000Y-127762000D02*
X91948000Y-129413000D01*
X73152000Y-129413000D01*
X73152000Y-127762000D01*
X91948000Y-127762000D01*
X91948000Y-127762000D01*
G37*
X91948000Y-127762000D02*
X91948000Y-129413000D01*
X73152000Y-129413000D01*
X73152000Y-127762000D01*
X91948000Y-127762000D01*
G36*
X91948000Y-130937000D02*
X91948000Y-132588000D01*
X73152000Y-132588000D01*
X73152000Y-130937000D01*
X91948000Y-130937000D01*
X91948000Y-130937000D01*
G37*
X91948000Y-130937000D02*
X91948000Y-132588000D01*
X73152000Y-132588000D01*
X73152000Y-130937000D01*
X91948000Y-130937000D01*
G36*
X91948000Y-134112000D02*
X91948000Y-135763000D01*
X73152000Y-135763000D01*
X73152000Y-134112000D01*
X91948000Y-134112000D01*
X91948000Y-134112000D01*
G37*
X91948000Y-134112000D02*
X91948000Y-135763000D01*
X73152000Y-135763000D01*
X73152000Y-134112000D01*
X91948000Y-134112000D01*
G36*
X72263000Y-57277000D02*
X72263000Y-110363000D01*
X69977000Y-110363000D01*
X69977000Y-57277000D01*
X72263000Y-57277000D01*
X72263000Y-57277000D01*
G37*
X72263000Y-57277000D02*
X72263000Y-110363000D01*
X69977000Y-110363000D01*
X69977000Y-57277000D01*
X72263000Y-57277000D01*
G36*
X64643000Y-108712000D02*
X64643000Y-110363000D01*
X54102000Y-110363000D01*
X54102000Y-108712000D01*
X64643000Y-108712000D01*
X64643000Y-108712000D01*
G37*
X64643000Y-108712000D02*
X64643000Y-110363000D01*
X54102000Y-110363000D01*
X54102000Y-108712000D01*
X64643000Y-108712000D01*
G36*
X64643000Y-102997000D02*
X64643000Y-104648000D01*
X54102000Y-104648000D01*
X54102000Y-102997000D01*
X64643000Y-102997000D01*
X64643000Y-102997000D01*
G37*
X64643000Y-102997000D02*
X64643000Y-104648000D01*
X54102000Y-104648000D01*
X54102000Y-102997000D01*
X64643000Y-102997000D01*
G36*
X64643000Y-106172000D02*
X64643000Y-107188000D01*
X54102000Y-107188000D01*
X54102000Y-106172000D01*
X64643000Y-106172000D01*
X64643000Y-106172000D01*
G37*
X64643000Y-106172000D02*
X64643000Y-107188000D01*
X54102000Y-107188000D01*
X54102000Y-106172000D01*
X64643000Y-106172000D01*
M02*
