G04 #@! TF.FileFunction,Profile,NP*
%FSLAX46Y46*%
G04 Gerber Fmt 4.6, Leading zero omitted, Abs format (unit mm)*
G04 Created by KiCad (PCBNEW 4.0.3-stable) date 05/06/17 11:59:30*
%MOMM*%
%LPD*%
G01*
G04 APERTURE LIST*
%ADD10C,0.100000*%
%ADD11C,0.150000*%
G04 APERTURE END LIST*
D10*
D11*
X104775000Y-130175000D02*
X104775000Y-139065000D01*
X104775000Y-66992500D02*
X104775000Y-126047500D01*
X104775000Y-45085000D02*
X104775000Y-62865000D01*
X100965000Y-62865000D02*
X100965000Y-53975000D01*
X100965000Y-126047500D02*
X100965000Y-66992500D01*
X100965000Y-139065000D02*
X100965000Y-130175000D01*
X100965000Y-126047500D02*
X104775000Y-126047500D01*
X100965000Y-130175000D02*
X104775000Y-130175000D01*
X100965000Y-66992500D02*
X104775000Y-66992500D01*
X100965000Y-62865000D02*
X104775000Y-62865000D01*
X104775000Y-45085000D02*
X107315000Y-45085000D01*
X107315000Y-139065000D02*
X104775000Y-139065000D01*
X253365000Y-99695000D02*
X253365000Y-45085000D01*
X253365000Y-127635000D02*
X253365000Y-139065000D01*
X243840000Y-99695000D02*
X253365000Y-99695000D01*
X243840000Y-127635000D02*
X243840000Y-99695000D01*
X253365000Y-127635000D02*
X243840000Y-127635000D01*
X107315000Y-139065000D02*
X253365000Y-139065000D01*
X125095000Y-45085000D02*
X107315000Y-45085000D01*
X125095000Y-54610000D02*
X125095000Y-45085000D01*
X158115000Y-54610000D02*
X125095000Y-54610000D01*
X158115000Y-45085000D02*
X158115000Y-54610000D01*
X253365000Y-45085000D02*
X158115000Y-45085000D01*
X100965000Y-139065000D02*
X37465000Y-139065000D01*
X37465000Y-53975000D02*
X100965000Y-53975000D01*
X37465000Y-139065000D02*
X37465000Y-53975000D01*
M02*
