M48
;DRILL file {KiCad 4.0.3-stable} date 05/06/17 11:59:35
;FORMAT={-:-/ absolute / inch / decimal}
FMAT,2
INCH,TZ
T1C0.020
T2C0.030
T3C0.035
T4C0.039
T5C0.040
T6C0.083
T7C0.108
T8C0.122
%
G90
G05
M72
T1
X4.7Y-3.45
X5.625Y-2.45
X6.725Y-1.925
X8.425Y-2.625
T2
X5.525Y-2.45
T3
X2.325Y-3.625
X2.325Y-3.925
X2.425Y-3.625
X2.425Y-3.925
X8.8Y-1.875
X8.8Y-1.975
X9.075Y-1.875
X9.075Y-1.975
T4
X4.525Y-2.
X4.525Y-2.1
X4.525Y-2.2
X4.525Y-2.3
X4.525Y-2.4
X4.525Y-2.5
X4.525Y-2.6
X4.525Y-2.7
X4.525Y-2.8
X4.525Y-2.9
X4.525Y-3.
X4.525Y-3.1
X4.525Y-3.2
X4.525Y-3.3
X4.525Y-3.4
X4.525Y-3.5
X4.525Y-3.6
X4.525Y-3.7
X4.525Y-3.8
X4.525Y-3.9
X4.525Y-4.
X4.525Y-4.1
X4.525Y-4.2
X4.625Y-2.
X4.625Y-2.1
X4.625Y-2.2
X4.625Y-2.3
X4.625Y-2.4
X4.625Y-2.5
X4.625Y-2.6
X4.625Y-2.7
X4.625Y-2.8
X4.625Y-2.9
X4.625Y-3.
X4.625Y-3.1
X4.625Y-3.2
X4.625Y-3.3
X4.625Y-3.4
X4.625Y-3.5
X4.625Y-3.6
X4.625Y-3.7
X4.625Y-3.8
X4.625Y-3.9
X4.625Y-4.
X4.625Y-4.1
X4.625Y-4.2
X4.675Y-5.225
X4.775Y-5.225
X4.875Y-5.225
X5.325Y-4.925
X5.325Y-5.025
X5.325Y-5.125
X5.625Y-4.925
X5.625Y-5.025
X5.625Y-5.125
X5.925Y-4.925
X5.925Y-5.025
X5.925Y-5.125
X6.225Y-4.925
X6.225Y-5.025
X6.225Y-5.125
X6.425Y-2.
X6.425Y-2.1
X6.425Y-2.2
X6.425Y-2.3
X6.425Y-2.4
X6.425Y-2.5
X6.425Y-2.6
X6.425Y-2.7
X6.425Y-2.8
X6.425Y-2.9
X6.425Y-3.
X6.425Y-3.1
X6.425Y-3.2
X6.425Y-3.3
X6.425Y-3.4
X6.425Y-3.5
X6.425Y-3.6
X6.425Y-3.7
X6.425Y-3.8
X6.425Y-3.9
X6.425Y-4.
X6.425Y-4.1
X6.425Y-4.2
X6.525Y-2.
X6.525Y-2.1
X6.525Y-2.2
X6.525Y-2.3
X6.525Y-2.4
X6.525Y-2.5
X6.525Y-2.6
X6.525Y-2.7
X6.525Y-2.8
X6.525Y-2.9
X6.525Y-3.
X6.525Y-3.1
X6.525Y-3.2
X6.525Y-3.3
X6.525Y-3.4
X6.525Y-3.5
X6.525Y-3.6
X6.525Y-3.7
X6.525Y-3.8
X6.525Y-3.9
X6.525Y-4.
X6.525Y-4.1
X6.525Y-4.2
X6.525Y-4.925
X6.525Y-5.025
X6.525Y-5.125
X6.825Y-2.375
X6.825Y-2.475
X6.825Y-2.575
X6.825Y-2.675
X6.825Y-2.775
X6.825Y-3.075
X6.825Y-3.175
X6.825Y-3.275
X6.825Y-3.375
X6.825Y-3.475
X6.825Y-3.775
X6.825Y-3.875
X6.825Y-3.975
X6.825Y-4.075
X6.825Y-4.175
X6.825Y-4.925
X6.825Y-5.025
X6.825Y-5.125
X7.375Y-5.225
X7.475Y-5.225
X7.575Y-5.225
X7.675Y-5.225
X7.728Y-2.8495
X7.728Y-2.9495
X7.775Y-5.225
X7.828Y-2.8495
X7.828Y-2.9495
X7.85Y-2.225
X7.85Y-2.325
X7.85Y-2.425
X7.875Y-5.225
X7.928Y-2.8495
X7.928Y-2.9495
X8.028Y-2.8495
X8.028Y-2.9495
X8.128Y-2.8495
X8.128Y-2.9495
X8.15Y-2.225
X8.15Y-2.325
X8.15Y-2.425
X8.175Y-5.225
X8.228Y-2.8495
X8.228Y-2.9495
X8.275Y-5.225
X8.328Y-2.8495
X8.328Y-2.9495
X8.375Y-5.225
X8.428Y-2.8495
X8.428Y-2.9495
X8.45Y-2.225
X8.45Y-2.325
X8.45Y-2.425
X8.475Y-5.225
X8.528Y-2.8495
X8.528Y-2.9495
X8.575Y-5.225
X8.628Y-2.8495
X8.628Y-2.9495
X8.728Y-2.8495
X8.728Y-2.9495
X8.828Y-2.8495
X8.828Y-2.9495
X8.875Y-5.225
X8.928Y-2.8495
X8.928Y-2.9495
X8.975Y-5.225
X9.028Y-2.8495
X9.028Y-2.9495
X9.075Y-5.225
X9.128Y-2.8495
X9.128Y-2.9495
X9.175Y-5.225
X9.228Y-2.8495
X9.228Y-2.9495
X9.275Y-5.225
X9.328Y-2.8495
X9.328Y-2.9495
X9.375Y-5.225
X9.428Y-2.8495
X9.428Y-2.9495
X9.475Y-5.225
X9.528Y-2.8495
X9.528Y-2.9495
X9.628Y-2.8495
X9.628Y-2.9495
T5
X1.725Y-3.425
X1.725Y-3.525
X1.725Y-3.625
X1.725Y-3.825
X1.725Y-3.925
X1.725Y-4.025
X4.325Y-4.15
X5.2Y-3.6
X5.2Y-3.9
X5.95Y-3.6
X5.95Y-3.9
X7.425Y-2.625
X7.675Y-2.4
X8.675Y-3.875
T6
X1.7274Y-5.2419
X2.0226Y-4.7498
X2.0774Y-2.8502
X2.3179Y-5.2419
X2.3726Y-2.3581
X2.6132Y-4.7498
X3.2498Y-2.5557
X3.2498Y-3.1463
X3.2498Y-3.7368
X3.2498Y-4.3274
X3.7419Y-2.851
X3.7419Y-3.4415
X3.7419Y-4.0321
X3.7419Y-4.6226
X9.2998Y-2.5226
X9.7919Y-2.2274
T7
X7.5368Y-2.8994
X7.5368Y-4.8285
X9.8203Y-2.8994
T8
X1.625Y-2.275
X1.625Y-4.275
X3.825Y-2.275
X3.825Y-5.275
X4.275Y-1.925
X4.275Y-5.325
X9.825Y-1.925
X9.825Y-5.325
T0
M30
